<svg width="1080" height="1080" viewBox="0 0 1080 1080" fill="none" xmlns="http://www.w3.org/2000/svg">
    <rect width="1080" height="1080" rx="540" fill="#2475FC"/>
    <path d="M270.869 628.911C288.06 646.102 308.09 659.602 330.403 669.039C353.518 678.818 378.061 683.777 403.334 683.777H405.689C460.419 683.777 507.501 716.504 528.421 763.458C530.458 768.028 534.997 770.965 540.001 770.965C545.006 770.965 549.545 768.028 551.582 763.458C572.505 716.508 619.584 683.777 674.314 683.777H676.669C701.942 683.777 726.484 678.818 749.6 669.039C771.916 659.602 791.943 646.098 809.134 628.911C826.324 611.72 839.824 591.69 849.262 569.377C859.04 546.262 863.999 521.719 863.999 496.446C863.999 471.173 859.04 446.63 849.262 423.515C839.824 401.198 826.321 381.172 809.134 363.981C791.943 346.79 771.913 333.291 749.6 323.853C726.488 314.071 701.949 309.111 676.676 309.111H403.334C378.061 309.111 353.518 314.071 330.403 323.849C308.086 333.287 288.06 346.79 270.869 363.977C253.678 381.168 240.179 401.198 230.741 423.511C220.959 446.63 216 471.173 216 496.446C216 521.719 220.959 546.262 230.737 569.377C240.175 591.694 253.678 611.72 270.865 628.911H270.869ZM297.532 390.644C324.607 363.568 362.013 346.813 403.334 346.813H676.676C759.314 346.813 826.309 413.805 826.309 496.446C826.309 537.767 809.554 575.173 782.479 602.249C755.403 629.324 717.997 646.079 676.676 646.079H403.334C320.697 646.079 253.701 579.088 253.701 496.446C253.701 455.125 270.457 417.719 297.532 390.644Z"
          fill="white"/>
    <path d="M732.37 498.923C733.092 468.479 708.999 443.214 678.555 442.491C648.112 441.769 622.846 465.862 622.124 496.306C621.401 526.749 645.494 552.015 675.938 552.737C706.382 553.46 731.647 529.367 732.37 498.923Z"
          fill="white"/>
    <path d="M403.911 552.73C434.356 552.071 458.502 526.856 457.843 496.411C457.184 465.966 431.97 441.82 401.525 442.479C371.08 443.138 346.933 468.352 347.592 498.798C348.251 529.243 373.466 553.389 403.911 552.73Z"
          fill="white"/>
</svg>
