<svg width="90" height="24" viewBox="0 0 90 24" fill="none" xmlns="http://www.w3.org/2000/svg">
<g clip-path="url(#clip0_9189_33503)">
<path fill-rule="evenodd" clip-rule="evenodd" d="M7.30833 17.9893V16.7408C7.30833 16.722 7.29951 16.7043 7.28461 16.6929C5.6662 15.4524 4.63646 13.5859 4.63646 11.4986C4.63646 10.4683 4.88734 9.49186 5.33606 8.61791C5.34528 8.59995 5.34505 8.57883 5.33558 8.561C4.93879 7.81403 4.93754 6.46085 4.99649 5.52197C5.03183 4.9592 5.55717 4.58249 6.09498 4.75195C6.73991 4.95516 7.54033 5.28595 7.9935 5.76763C8.01318 5.78855 8.04462 5.79352 8.06946 5.77909C9.20682 5.11848 10.5548 4.73611 12.0001 4.73611C13.4452 4.73611 14.793 5.11838 15.9303 5.77883C15.9551 5.79325 15.9865 5.78828 16.0062 5.76738C16.4594 5.28584 17.2597 4.95513 17.9045 4.75195C18.4423 4.58249 18.9677 4.9592 19.003 5.52197C19.0619 6.46058 19.0607 7.81324 18.6643 8.56034C18.6548 8.57817 18.6546 8.59928 18.6638 8.61723C19.1127 9.49136 19.3637 10.4681 19.3637 11.4986C19.3637 15.2335 16.0669 18.2612 12.0001 18.2612C11.2555 18.2612 10.5367 18.1597 9.85921 17.9709C9.84175 17.966 9.82302 17.9692 9.80821 17.9797L8.74167 18.7322L8.74061 18.7329L8.67565 18.7787L8.09658 19.1873C7.76536 19.421 7.30833 19.1841 7.30833 18.7787V18.0701V17.9905V17.9893ZM8.18658 4.11052C7.59551 3.74981 6.96049 3.52186 6.52573 3.38487C5.06036 2.92315 3.65703 3.982 3.56598 5.43215C3.53424 5.93756 3.51643 6.58343 3.56608 7.22418C3.59681 7.6208 3.65784 8.08747 3.79259 8.54251C3.41255 9.4587 3.20312 10.4561 3.20312 11.4986C3.20312 13.8301 4.24534 15.9095 5.875 17.3827V18.7787C5.875 20.3461 7.64218 21.2621 8.92289 20.3585L10.1278 19.5084C10.7324 19.6305 11.359 19.6945 12.0001 19.6945C16.7412 19.6945 20.7971 16.1375 20.7971 11.4986C20.7971 10.4557 20.5875 9.45797 20.2072 8.54151C20.3418 8.08663 20.4027 7.62015 20.4334 7.22361C20.483 6.58305 20.4652 5.93742 20.4335 5.43215C20.3425 3.982 18.9391 2.92315 17.4737 3.38487C17.039 3.52185 16.4042 3.74975 15.8132 4.11034C14.6556 3.59127 13.3609 3.30277 12.0001 3.30277C10.6391 3.30277 9.34429 3.59134 8.18658 4.11052Z" fill="#2475FC"/>
<path fill-rule="evenodd" clip-rule="evenodd" d="M13.286 12.4395C13.5201 12.4395 13.7098 12.6292 13.7098 12.8633C13.7098 13.4434 13.2909 13.7814 12.9493 13.9447C12.6 14.1118 12.1885 14.1775 11.8549 14.1775C11.5214 14.1775 11.1098 14.1118 10.7605 13.9447C10.4189 13.7814 10 13.4434 10 12.8633C10 12.6292 10.1897 12.4395 10.4238 12.4395L10.6867 12.4395C10.9156 12.4395 11.1008 12.6259 11.0993 12.8548C11.1384 12.9034 11.1551 12.9119 11.2359 12.9505C11.402 13.0299 11.6424 13.0755 11.8549 13.0755C12.0674 13.0755 12.3078 13.0299 12.4739 12.9505C12.5547 12.9119 12.597 12.8712 12.6105 12.8548C12.609 12.6259 12.7942 12.4395 13.0231 12.4395L13.286 12.4395Z" fill="#2475FC"/>
<circle cx="8.66651" cy="10.8482" r="0.975108" fill="#2475FC"/>
<circle cx="15.0474" cy="10.8482" r="0.975108" fill="#2475FC"/>
</g>
<path d="M31.32 6.808C32.496 6.808 33.476 7.116 34.232 7.732C34.96 8.32 35.394 9.132 35.548 10.14H33.952C33.784 9.482 33.476 9.006 33.014 8.698C32.566 8.39 31.992 8.25 31.292 8.25C30.242 8.25 29.458 8.6 28.926 9.328C28.436 9.972 28.198 10.868 28.198 12.016C28.198 13.192 28.436 14.102 28.912 14.732C29.43 15.404 30.242 15.754 31.334 15.754C32.048 15.754 32.636 15.572 33.084 15.236C33.56 14.858 33.896 14.284 34.092 13.528H35.688C35.464 14.704 34.946 15.614 34.12 16.272C33.35 16.888 32.426 17.196 31.348 17.196C29.682 17.196 28.436 16.664 27.624 15.628C26.91 14.732 26.56 13.528 26.56 12.016C26.56 10.532 26.924 9.314 27.666 8.39C28.506 7.326 29.724 6.808 31.32 6.808ZM37.0939 6.808H38.6899V10.728C38.9559 10.322 39.2919 10.028 39.6839 9.832C40.0339 9.65 40.4399 9.566 40.9019 9.566C41.7839 9.566 42.4419 9.818 42.8759 10.336C43.2819 10.826 43.4919 11.554 43.4919 12.52V17H41.8959V12.8C41.8959 12.184 41.7699 11.708 41.5319 11.386C41.2519 11.036 40.8459 10.868 40.2999 10.868C39.7959 10.868 39.4039 11.064 39.1239 11.456C38.8299 11.848 38.6899 12.338 38.6899 12.954V17H37.0939V6.808ZM48.464 9.566C49.528 9.566 50.326 9.832 50.83 10.364C51.278 10.826 51.502 11.498 51.502 12.38V17H50.018V16.048C49.738 16.412 49.388 16.678 48.982 16.874C48.52 17.084 47.974 17.196 47.344 17.196C46.588 17.196 46 17 45.566 16.622C45.118 16.23 44.894 15.74 44.894 15.138C44.894 14.326 45.202 13.696 45.846 13.262C46.434 12.842 47.26 12.618 48.324 12.59L49.906 12.548V12.268C49.906 11.316 49.388 10.854 48.352 10.854C47.904 10.854 47.554 10.924 47.288 11.092C46.98 11.274 46.77 11.554 46.686 11.932L45.104 11.806C45.258 11.008 45.65 10.42 46.28 10.056C46.812 9.72 47.54 9.566 48.464 9.566ZM49.906 13.696L48.436 13.738C47.162 13.766 46.532 14.214 46.532 15.082C46.532 15.334 46.63 15.544 46.854 15.712C47.078 15.88 47.358 15.978 47.708 15.978C48.324 15.978 48.842 15.796 49.262 15.446C49.682 15.082 49.906 14.62 49.906 14.06V13.696ZM55.4537 7.424V9.762H57.0637V11.078H55.4537V15.166C55.4537 15.334 55.4817 15.46 55.5657 15.558C55.6497 15.642 55.7617 15.684 55.9297 15.684H56.8817V17H55.6637C55.0337 17 54.5717 16.832 54.2777 16.496C53.9977 16.188 53.8577 15.754 53.8577 15.166V11.078H52.5557V9.762H53.8577V8.082L55.4537 7.424ZM57.488 7.004H59.336L61.212 14.606H61.268L63.242 7.004H64.936L66.91 14.606H66.966L68.842 7.004H70.69L67.806 17H66.07L64.124 9.482H64.068L62.108 17H60.358L57.488 7.004ZM72.6797 6.808C72.9877 6.808 73.2537 6.906 73.4637 7.102C73.6597 7.298 73.7717 7.55 73.7717 7.858C73.7717 8.166 73.6597 8.432 73.4497 8.628C73.2397 8.824 72.9877 8.922 72.6797 8.922C72.3717 8.922 72.1197 8.824 71.9097 8.628C71.6997 8.418 71.6017 8.166 71.6017 7.858C71.6017 7.55 71.6997 7.298 71.9097 7.102C72.1197 6.906 72.3717 6.808 72.6797 6.808ZM71.8817 9.762H73.4777V17H71.8817V9.762ZM75.4572 6.808H77.0532V12.632L80.0212 9.762H82.0792L78.8732 12.758L82.3592 17H80.3152L77.7812 13.78L77.0532 14.466V17H75.4572V6.808ZM84.2735 6.808C84.5815 6.808 84.8475 6.906 85.0575 7.102C85.2535 7.298 85.3655 7.55 85.3655 7.858C85.3655 8.166 85.2535 8.432 85.0435 8.628C84.8335 8.824 84.5815 8.922 84.2735 8.922C83.9655 8.922 83.7135 8.824 83.5035 8.628C83.2935 8.418 83.1955 8.166 83.1955 7.858C83.1955 7.55 83.2935 7.298 83.5035 7.102C83.7135 6.906 83.9655 6.808 84.2735 6.808ZM83.4755 9.762H85.0715V17H83.4755V9.762Z" fill="#2475FC"/>
<defs>
<clipPath id="clip0_9189_33503">
<rect width="18" height="18" fill="white" transform="translate(3 3)"/>
</clipPath>
</defs>
</svg>
