<svg width="64" height="64" viewBox="0 0 64 64" fill="none" xmlns="http://www.w3.org/2000/svg">
<path d="M29.8066 55.3034C14.0866 51.3489 11.0624 45.5975 15.5685 27.6849C20.074 9.77234 25.4347 6.23271 41.1546 10.1872C56.8746 14.1417 59.8378 19.7747 55.3323 37.6873C50.8267 55.5999 45.5265 59.2579 29.8059 55.3034H29.8066Z" fill="#2475FC"/>
<path d="M27.6401 56.8699C9.97054 56.8699 5.24487 51.5938 5.24487 31.46C5.24487 11.3261 9.97054 6.15887 27.6401 6.15887C45.3096 6.15887 49.9398 11.3261 49.9398 31.46C49.9398 51.5938 45.3096 56.8699 27.6401 56.8699Z" fill="#2CAAFF"/>
<path d="M38.7639 45.5143H36.8936C36.3373 45.5143 35.8577 45.4677 35.4549 45.3743C35.052 45.281 34.7067 45.1363 34.419 44.9403C34.1313 44.7443 33.8867 44.497 33.6853 44.1983C33.4838 43.8997 33.2968 43.5543 33.1242 43.1623C32.8364 42.453 32.5727 41.809 32.3329 41.2303C32.0931 40.6517 31.8869 40.1477 31.7142 39.7183C31.5032 39.233 31.3114 38.785 31.1388 38.3743H23.974C23.8397 38.8037 23.6767 39.2703 23.4849 39.7743C23.3314 40.2037 23.13 40.7217 22.8806 41.3283C22.6312 41.935 22.3435 42.593 22.0174 43.3023C21.6337 44.1423 21.1925 44.721 20.6938 45.0383C20.195 45.3557 19.6291 45.5143 18.9961 45.5143H17.0107C16.1667 45.5143 15.596 45.3323 15.2986 44.9683C15.0013 44.6043 15.0253 43.9837 15.3706 43.1063C15.7159 42.2663 16.1187 41.277 16.5791 40.1383C17.0395 38.9997 17.5286 37.791 18.0466 36.5123C18.5645 35.2337 19.1016 33.9223 19.6579 32.5783C20.2142 31.2343 20.7513 29.9183 21.2693 28.6303C22.497 25.625 23.7822 22.4983 25.125 19.2503C25.2593 18.933 25.4319 18.6437 25.6429 18.3823C25.8347 18.177 26.0889 17.981 26.4054 17.7943C26.7219 17.6077 27.12 17.5143 27.5996 17.5143C28.0983 17.5143 28.5059 17.6123 28.8224 17.8083C29.139 18.0043 29.4027 18.2237 29.6137 18.4663C29.8439 18.7463 30.0262 19.0543 30.1604 19.3903C31.5224 22.6757 32.8172 25.821 34.0449 28.8263C34.5629 30.1143 35.1 31.4257 35.6563 32.7603C36.2126 34.095 36.7449 35.3923 37.2532 36.6523C37.7616 37.9123 38.2412 39.093 38.6919 40.1943C39.1427 41.2957 39.5312 42.2477 39.8573 43.0503C40.1259 43.685 40.1642 44.2543 39.9724 44.7583C39.7806 45.2623 39.3777 45.5143 38.7639 45.5143ZM30.4194 34.8743L27.6859 25.3823H27.6571L24.607 34.8743H30.4194Z" fill="white"/>
</svg>
