<svg fill="none" xmlns="http://www.w3.org/2000/svg" viewBox="0 0 62 62" class="design-iconfont">
  <rect x=".5" y=".5" width="61" height="61" rx="15.5" fill="#fff"/>
  <rect x=".5" y=".5" width="61" height="61" rx="15.5" stroke="#F0F0F0"/>
  <path d="M47.2002 25.5563C47.0723 26.0177 46.9055 26.4662 46.7016 26.8966V26.9557C45.2529 30.198 41.4807 36.5643 41.4807 36.5643L40.3801 38.5353H45.6951L35.5074 52.6969L37.812 43.0587H33.626L35.0746 36.6826C33.8988 36.9782 32.5065 37.3921 30.8603 37.944C30.8603 37.944 28.6309 39.3138 24.4448 35.3127C24.4448 35.3127 21.6227 32.7011 23.2595 32.0507C25.0723 31.6319 26.9065 31.3226 28.7531 31.1244C31.5752 30.7203 33.3626 30.5035 33.3626 30.5035C33.3626 30.5035 24.5577 30.6414 22.4693 30.2965C20.381 29.9516 17.7659 26.2954 17.1638 23.0827C17.1638 23.0827 16.289 21.3186 19.0452 22.1563C21.8014 22.994 33.1556 25.4084 33.1556 25.4084C33.1556 25.4084 18.3491 20.6485 17.3708 19.4955C16.3924 18.3424 14.5016 13.1292 14.7462 9.95587C14.7522 9.84803 14.782 9.74312 14.8331 9.64935C14.8843 9.55558 14.9555 9.47548 15.0412 9.41535C15.1268 9.35521 15.2246 9.31667 15.3268 9.30273C15.4291 9.28879 15.533 9.29983 15.6305 9.335C15.6305 9.335 26.5708 14.5778 34.0587 17.4555C41.5466 20.3331 48.0468 21.8311 47.2002 25.5563Z" fill="#2475FC"/>
</svg>
