<svg fill="none" xmlns="http://www.w3.org/2000/svg" viewBox="0 0 62 62" class="design-iconfont">
  <path d="M0 14.5882C0 6.53137 6.53137 0 14.5882 0H47.4118C55.4686 0 62 6.53137 62 14.5882V47.4118C62 55.4686 55.4686 62 47.4118 62H14.5882C6.53137 62 0 55.4686 0 47.4118V14.5882Z" fill="#4876FF"/>
  <g filter="url(#2t5mw3ig1__filter0_d_7802_38768)">
    <path d="M42.8433 15.6719H27.4866C24.6533 15.6719 22.33 17.9952 22.33 20.8852V32.6152C22.33 35.5052 24.6533 37.8285 27.4866 37.8285H37.861L41.4876 41.1719C42.5076 42.1352 44.2643 41.4552 44.2643 40.0385V37.7719C47.041 37.7719 48 35.4485 48 32.6152V20.8852C48 17.9952 45.6766 15.6719 42.8433 15.6719Z" fill="#D6E0FF"/>
    <path d="M36.9952 17.1719H19.7806C16.6044 17.1719 14 19.7763 14 23.016V36.1652C14 39.3413 16.5409 41.9458 19.6535 42.0093V44.5502C19.6535 46.1383 21.6227 46.9005 22.7661 45.8206L26.8316 42.0728H36.9952C40.1714 42.0728 42.7758 39.4684 42.7758 36.2287V23.016C42.7758 19.7763 40.1714 17.1719 36.9952 17.1719Z" fill="#EBF0FF"/>
    <path d="M35.8572 28.9015C35.8572 26.5396 35.2018 24.6658 33.8911 23.2801C32.5804 21.8944 30.8072 21.1995 28.5715 21.1953C26.342 21.1953 24.5709 21.8881 23.2581 23.2738C21.9453 24.6595 21.2878 26.5259 21.2858 28.8732C21.2858 31.1973 21.9401 33.0564 23.2487 34.4505C24.5574 35.8446 26.2974 36.5427 28.4688 36.5447C29.0683 36.5626 29.6676 36.5012 30.2514 36.3621C30.3074 36.4093 30.9638 37.4265 31.7726 37.8863C32.3384 38.2078 33.0977 38.2247 33.6736 38.1731C34.1554 38.1299 34.4572 37.6737 34.3836 37.1957C34.3104 36.7211 33.8837 36.3943 33.42 36.2696C33.3237 36.2437 33.2286 36.2126 33.1352 36.1763C32.8819 36.0309 32.6781 35.8113 32.5503 35.5464C34.757 34.1965 35.8593 31.9815 35.8572 28.9015ZM31.278 32.8475L31.1286 33.0396C31.0602 33.131 30.6433 32.1641 29.6292 31.8492C29.0996 31.7142 28.5513 31.6807 28.0124 31.7487C27.6975 31.7884 27.4827 32.0714 27.4827 32.3888C27.4827 32.7549 27.771 33.0497 28.1222 33.153C28.3685 33.2254 28.6053 33.33 28.8266 33.4648C29.2341 33.7797 29.5919 34.186 29.4176 34.2332C29.113 34.3135 28.7992 34.3527 28.4844 34.3497C27.9396 34.3544 27.403 34.2154 26.9274 33.9465C26.4518 33.6776 26.0535 33.288 25.7717 32.816C25.0935 31.7873 24.7534 30.4394 24.7513 28.7724C24.7492 27.1054 25.0894 25.7565 25.7717 24.7256C26.0684 24.2609 26.4754 23.8788 26.9555 23.6142C27.4356 23.3497 27.9735 23.2111 28.5201 23.2111C29.0668 23.2111 29.6047 23.3497 30.0848 23.6142C30.5649 23.8788 30.9719 24.2609 31.2686 24.7256C31.9592 25.7313 32.3046 27.0739 32.3046 28.7535C32.3046 30.4772 31.9624 31.8419 31.278 32.8475Z" fill="#4876FF"/>
  </g>
  <defs>
    <filter id="2t5mw3ig1__filter0_d_7802_38768" x="9.875" y="15.6719" width="42.25" height="38.9023" filterUnits="userSpaceOnUse" color-interpolation-filters="sRGB">
      <feFlood flood-opacity="0" result="BackgroundImageFix"/>
      <feColorMatrix in="SourceAlpha" values="0 0 0 0 0 0 0 0 0 0 0 0 0 0 0 0 0 0 127 0" result="hardAlpha"/>
      <feOffset dy="4.125"/>
      <feGaussianBlur stdDeviation="2.0625"/>
      <feComposite in2="hardAlpha" operator="out"/>
      <feColorMatrix values="0 0 0 0 0.413084 0 0 0 0 0.250874 0 0 0 0 0.0886636 0 0 0 0.14 0"/>
      <feBlend in2="BackgroundImageFix" result="effect1_dropShadow_7802_38768"/>
      <feBlend in="SourceGraphic" in2="effect1_dropShadow_7802_38768" result="shape"/>
    </filter>
  </defs>
</svg>
