<?xml version="1.0" standalone="no"?><!DOCTYPE svg PUBLIC "-//W3C//DTD SVG 1.1//EN" "http://www.w3.org/Graphics/SVG/1.1/DTD/svg11.dtd"><svg t="1749612065457" class="icon" viewBox="0 0 1024 1024" version="1.1" xmlns="http://www.w3.org/2000/svg" p-id="5081" xmlns:xlink="http://www.w3.org/1999/xlink" width="256" height="256"><path d="M0 0v1024L1024 0H0z m294.4 172.8h12.8c22.4 0 48-3.2 60.8 0v32c-19.2-3.2-51.2 0-76.8 0l3.2-32z m-128 422.4l44.8-48-19.2-16-38.4 38.4-19.2-19.2L172.8 512l-12.8-12.8-38.4 38.4L28.8 448 128 348.8l92.8 92.8L179.2 480l16 16 38.4-38.4 19.2 19.2L214.4 512l16 16 38.4-44.8 19.2 19.2c-35.2 41.6-73.6 83.2-99.2 112l-22.4-19.2z m60.8 73.6c-6.4-19.2-16-44.8-25.6-64l22.4-6.4c9.6 19.2 22.4 44.8 25.6 64l-22.4 6.4z m48-38.4c-9.6-12.8-28.8-28.8-44.8-41.6l9.6-12.8c16 9.6 35.2 25.6 48 38.4l-12.8 16z m22.4-32c-9.6-9.6-28.8-22.4-44.8-32l9.6-16c16 9.6 35.2 19.2 48 28.8l-12.8 19.2z m16-35.2c-9.6-6.4-25.6-16-41.6-19.2l9.6-19.2c16 3.2 32 12.8 41.6 19.2l-9.6 19.2z m48-9.6c-9.6 0-22.4 0-32 3.2-3.2-70.4-38.4-128-73.6-169.6l-38.4 38.4-22.4-22.4 38.4-38.4-9.6-9.6-57.6-57.6 19.2-19.2 19.2 19.2 6.4-22.4c22.4 3.2 51.2 6.4 67.2 12.8l-6.4 22.4c-16-6.4-44.8-9.6-67.2-12.8l48 48 48-48 22.4 22.4-48 48c60.8 41.6 121.6 70.4 172.8 64 0 9.6 0 22.4 3.2 32-41.6 3.2-86.4-16-134.4-44.8 22.4 41.6 41.6 83.2 44.8 134.4z m150.4-163.2c-6.4-3.2-22.4-3.2-28.8-3.2 0-9.6 0-25.6-12.8-38.4l-80-80L352 307.2l-22.4-22.4 64-60.8 99.2 99.2 9.6-44.8 25.6 12.8c-16 76.8-16 89.6-16 99.2z m67.2-51.2c-9.6-3.2-25.6-3.2-35.2 0 16-102.4-64-182.4-144-262.4l-9.6-9.6 25.6-22.4c25.6 25.6 48 51.2 70.4 76.8 28.8 22.4 112 86.4 201.6 70.4-3.2 9.6 0 25.6 0 35.2-54.4 9.6-108.8-12.8-150.4-35.2 32 44.8 48 96 41.6 147.2z" p-id="5082" fill="#2475fc"></path><path d="M124.8 384l-25.6 25.6L160 467.2l25.6-25.6L124.8 384z m25.6 67.2c-6.4-12.8-19.2-35.2-28.8-48l16-6.4c9.6 16 19.2 38.4 22.4 51.2l-9.6 3.2zM64 444.8l60.8 60.8 22.4-25.6-60.8-60.8-22.4 25.6z m57.6 41.6c-9.6-9.6-28.8-22.4-44.8-28.8l6.4-12.8c16 6.4 35.2 19.2 44.8 28.8l-6.4 12.8z" p-id="5083" fill="#2475fc"></path></svg>