<svg width="56" height="56" viewBox="0 0 56 56" fill="none" xmlns="http://www.w3.org/2000/svg">
<rect width="56" height="56" fill="white"/>
<rect y="14" width="56" height="28" rx="14" fill="#2475FC"/>
<g clip-path="url(#clip0_2269_42985)">
<path d="M19.5 30.3385C20.7887 30.3385 21.8333 29.2939 21.8333 28.0052C21.8333 26.7165 20.7887 25.6719 19.5 25.6719" stroke="white" stroke-width="1.16667" stroke-linejoin="round"/>
<path d="M12.5013 25.6719C11.2126 25.6719 10.168 26.7165 10.168 28.0052C10.168 29.2939 11.2126 30.3385 12.5013 30.3385" stroke="white" stroke-width="1.16667" stroke-linejoin="round"/>
<path d="M12.5 30.3385V30.1927V29.4635V28.0052V25.6719C12.5 23.7389 14.067 22.1719 16 22.1719C17.933 22.1719 19.5 23.7389 19.5 25.6719V30.3385C19.5 32.2715 17.933 33.8385 16 33.8385" stroke="white" stroke-width="1.16667" stroke-linecap="round" stroke-linejoin="round"/>
</g>
<path d="M24.5414 24.224V25.088H26.3894C26.9294 26.936 27.8894 28.544 29.2814 29.912C27.9854 31.088 26.3294 31.94 24.3134 32.48L24.7694 33.236C26.8094 32.648 28.5134 31.724 29.8814 30.464C31.1774 31.58 32.8094 32.504 34.8014 33.248L35.2694 32.528C33.3494 31.82 31.7534 30.932 30.4814 29.852C31.6574 28.58 32.5454 26.984 33.1334 25.088H35.0054V24.224H30.4214C30.0374 23.396 29.6294 22.688 29.1734 22.112L28.3094 22.424C28.7894 22.988 29.1854 23.588 29.5094 24.224H24.5414ZM27.2414 25.088H32.2334C31.7294 26.744 30.9494 28.148 29.8814 29.312C28.6334 28.112 27.7574 26.708 27.2414 25.088ZM40.9574 24.116C40.7174 24.452 40.4534 24.8 40.1774 25.148H37.0094V25.844H39.6134C39.3254 26.18 39.0254 26.516 38.7134 26.876C39.5414 27.032 40.3694 27.212 41.2094 27.428C40.1534 27.764 38.7134 27.932 36.8894 27.932L37.3574 28.64C39.3974 28.616 41.0414 28.304 42.3014 27.716C43.5134 28.04 44.7254 28.412 45.9254 28.844L46.4294 28.184C45.3134 27.812 44.2214 27.488 43.1654 27.224C43.6574 26.864 44.1134 26.408 44.5454 25.844H46.5614V25.148H41.1254C41.3174 24.896 41.5214 24.632 41.7374 24.344L40.9574 24.116ZM42.2054 26.984C41.4494 26.792 40.7054 26.636 39.9734 26.516C40.1534 26.324 40.3574 26.096 40.5734 25.844H43.6214C43.2614 26.276 42.7814 26.648 42.2054 26.984ZM46.5974 23.144H42.2414C42.0974 22.784 41.9534 22.448 41.7854 22.148L40.8854 22.292C41.0654 22.556 41.2334 22.832 41.3894 23.144H36.9494V24.836H37.7654V23.876H45.7814V24.836H46.5974V23.144ZM36.6374 29.336V30.104H40.5854C39.8414 30.872 38.4734 31.556 36.4814 32.156L36.9614 32.924C39.1214 32.132 40.5854 31.196 41.3534 30.116V33.176H42.2414V30.152C43.1294 31.256 44.6174 32.156 46.7054 32.84L47.0774 32.084C45.2414 31.592 43.8854 30.932 43.0214 30.104H46.9214V29.336H42.2414V28.4H41.3534V29.336H36.6374Z" fill="white"/>
<defs>
<clipPath id="clip0_2269_42985">
<rect width="14" height="14" fill="white" transform="translate(9 21)"/>
</clipPath>
</defs>
</svg>
