<svg fill="none" xmlns="http://www.w3.org/2000/svg" viewBox="0 0 62 62" class="design-iconfont">
  <path d="M0 14.5882C0 6.53137 6.53137 0 14.5882 0H47.4118C55.4686 0 62 6.53137 62 14.5882V47.4118C62 55.4686 55.4686 62 47.4118 62H14.5882C6.53137 62 0 55.4686 0 47.4118V14.5882Z" fill="#4876FF"/>
  <path d="M29.0154 45.866C30.2452 46.5687 31.7548 46.5687 32.9846 45.866L38 43H24L29.0154 45.866Z" fill="#fff"/>
  <g filter="url(#zwuyvq051__filter0_d_7802_38765)">
    <path d="M41.4165 15H20.5996C17.5174 15 15 17.5073 15 20.5771V37.8548C15 40.9247 17.5174 43.4319 20.5996 43.4319H25.3923C25.3923 43.4319 28.3328 43.4969 30.2173 43.5C30.4694 43.5004 30.6369 43.5 30.8628 43.5C31.0887 43.5 31.5 43.5 31.5 43.5L36.3333 43.4319H41.4003C44.4825 43.4319 46.9999 40.9247 46.9999 37.8548V20.5771C47.0161 17.5073 44.4987 15 41.4165 15ZM21.8421 31.3134C20.6319 31.3134 19.6314 30.333 19.6314 29.1115C19.6314 27.9061 20.6157 26.9096 21.8421 26.9096C23.0686 26.9096 24.0529 27.89 24.0529 29.1115C24.0368 30.333 23.0524 31.3134 21.8421 31.3134ZM31.1694 31.3134C29.9591 31.3134 28.9586 30.333 28.9586 29.1115C28.9586 27.9061 29.943 26.9096 31.1694 26.9096C32.3797 26.9096 33.3802 27.89 33.3802 29.1115C33.3802 30.333 32.3797 31.3134 31.1694 31.3134ZM40.416 31.3134C39.2057 31.3134 38.2052 30.333 38.2052 29.1115C38.2052 27.9061 39.1896 26.9096 40.416 26.9096C41.6424 26.9096 42.6268 27.9061 42.6268 29.1276C42.6268 30.333 41.6424 31.3134 40.416 31.3134Z" fill="#EBF0FF"/>
  </g>
  <defs>
    <filter id="zwuyvq051__filter0_d_7802_38765" x="11" y="15" width="40" height="36.5" filterUnits="userSpaceOnUse" color-interpolation-filters="sRGB">
      <feFlood flood-opacity="0" result="BackgroundImageFix"/>
      <feColorMatrix in="SourceAlpha" values="0 0 0 0 0 0 0 0 0 0 0 0 0 0 0 0 0 0 127 0" result="hardAlpha"/>
      <feOffset dy="4"/>
      <feGaussianBlur stdDeviation="2"/>
      <feComposite in2="hardAlpha" operator="out"/>
      <feColorMatrix values="0 0 0 0 0.0886636 0 0 0 0 0.202211 0 0 0 0 0.413084 0 0 0 0.14 0"/>
      <feBlend in2="BackgroundImageFix" result="effect1_dropShadow_7802_38765"/>
      <feBlend in="SourceGraphic" in2="effect1_dropShadow_7802_38765" result="shape"/>
    </filter>
  </defs>
</svg>
