<svg fill="none" xmlns="http://www.w3.org/2000/svg" viewBox="0 0 32 32" class="design-iconfont">
  <rect width="32" height="32" rx="6" fill="#E6EFFF"/>
  <path d="M20.3753 14.3385C21.8711 14.3385 23.0837 13.126 23.0837 11.6302C23.0837 10.1344 21.8711 8.92188 20.3753 8.92188C18.8796 8.92188 17.667 10.1344 17.667 11.6302C17.667 13.126 18.8796 14.3385 20.3753 14.3385Z" stroke="#2475FC" stroke-width="1.66667"/>
  <path d="M20.3753 23.0885C21.8711 23.0885 23.0837 21.876 23.0837 20.3802C23.0837 18.8844 21.8711 17.6719 20.3753 17.6719C18.8796 17.6719 17.667 18.8844 17.667 20.3802C17.667 21.876 18.8796 23.0885 20.3753 23.0885Z" stroke="#2475FC" stroke-width="1.66667"/>
  <path d="M11.6253 14.3385C13.1211 14.3385 14.3337 13.126 14.3337 11.6302C14.3337 10.1344 13.1211 8.92188 11.6253 8.92188C10.1296 8.92188 8.91699 10.1344 8.91699 11.6302C8.91699 13.126 10.1296 14.3385 11.6253 14.3385Z" stroke="#2475FC" stroke-width="1.66667"/>
  <path d="M11.6253 23.0885C13.1211 23.0885 14.3337 21.876 14.3337 20.3802C14.3337 18.8844 13.1211 17.6719 11.6253 17.6719C10.1296 17.6719 8.91699 18.8844 8.91699 20.3802C8.91699 21.876 10.1296 23.0885 11.6253 23.0885Z" stroke="#2475FC" stroke-width="1.66667"/>
</svg>
