<svg fill="none" xmlns="http://www.w3.org/2000/svg" viewBox="0 0 16 16" class="design-iconfont">
  <g clip-path="url(#u9u3epnhq__clip0_8437_35332)" stroke-width="1.3" stroke-linecap="round" stroke-linejoin="round">
    <path d="M5.66699 3.66536L8.00033 1.33203L10.3337 3.66536L8.00033 5.9987L5.66699 3.66536Z" stroke="#262626"/>
    <path d="M10 8.33333L12.3333 6L14.6667 8.33333L12.3333 10.6667L10 8.33333Z" stroke="#262626"/>
    <path d="M5.66699 12.3333L8.00033 10L10.3337 12.3333L8.00033 14.6667L5.66699 12.3333Z" stroke="#262626"/>
    <path d="M1.3335 7.9974L3.66683 5.66406L6.00016 7.9974L3.66683 10.3307L1.3335 7.9974Z" stroke="#262626"/>
    <path d="M5.66699 3.66536L8.00033 1.33203L10.3337 3.66536L8.00033 5.9987L5.66699 3.66536Z" stroke="#262626"/>
    <path d="M10 8.33333L12.3333 6L14.6667 8.33333L12.3333 10.6667L10 8.33333Z" stroke="#262626"/>
    <path d="M5.66699 12.3333L8.00033 10L10.3337 12.3333L8.00033 14.6667L5.66699 12.3333Z" stroke="#000"/>
    <path d="M1.3335 7.9974L3.66683 5.66406L6.00016 7.9974L3.66683 10.3307L1.3335 7.9974Z" stroke="#000"/>
  </g>
  <defs>
    <clipPath id="u9u3epnhq__clip0_8437_35332">
      <path fill="#fff" d="M0 0H16V16H0z"/>
    </clipPath>
  </defs>
</svg>
