<svg width="16" height="16" viewBox="0 0 16 16" fill="none" xmlns="http://www.w3.org/2000/svg">
<path d="M1.33203 14H14.6654" stroke="#262626" stroke-width="1.3" stroke-linecap="round" stroke-linejoin="round"/>
<path d="M4.66406 8.66797H3.33073C2.96254 8.66797 2.66406 8.96645 2.66406 9.33464V13.3346C2.66406 13.7028 2.96254 14.0013 3.33073 14.0013H4.66406C5.03225 14.0013 5.33073 13.7028 5.33073 13.3346V9.33464C5.33073 8.96645 5.03225 8.66797 4.66406 8.66797Z" stroke="#262626" stroke-width="1.3" stroke-linejoin="round"/>
<path d="M4 11.334H4.33333" stroke="#262626" stroke-width="1.3" stroke-linecap="round" stroke-linejoin="round"/>
<path d="M12.6654 1.33398H5.9987C5.63051 1.33398 5.33203 1.63246 5.33203 2.00065V13.334C5.33203 13.7022 5.63051 14.0007 5.9987 14.0007H12.6654C13.0336 14.0007 13.332 13.7022 13.332 13.334V2.00065C13.332 1.63246 13.0336 1.33398 12.6654 1.33398Z" stroke="#262626" stroke-width="1.3" stroke-linejoin="round"/>
<path d="M8.66536 3.33398H7.33203V4.66732H8.66536V3.33398Z" fill="#262626"/>
<path d="M11.3333 3.33398H10V4.66732H11.3333V3.33398Z" fill="#262626"/>
<path d="M8.66536 5.66797H7.33203V7.0013H8.66536V5.66797Z" fill="#262626"/>
<path d="M11.3333 5.66797H10V7.0013H11.3333V5.66797Z" fill="#262626"/>
<path d="M11.3333 8H10V9.33333H11.3333V8Z" fill="#262626"/>
<path d="M11.3333 10.334H10V11.6673H11.3333V10.334Z" fill="#262626"/>
</svg>
