<svg width="16" height="16" viewBox="0 0 16 16" fill="none" xmlns="http://www.w3.org/2000/svg">
<path d="M12.6658 7.23707C12.6145 4.33597 10.2467 2 7.33333 2C4.3878 2 2 4.3878 2 7.33333C2 8.72337 2.53177 9.9892 3.40297 10.9385L3.00348 13.3419L5.375 12.3233C6.4199 12.6707 7.406 12.7576 8.33333 12.5839" stroke="#262626" stroke-width="1.3" stroke-linecap="round" stroke-linejoin="round"/>
<path d="M12.6658 7.23707C12.6145 4.33597 10.2467 2 7.33333 2C4.3878 2 2 4.3878 2 7.33333C2 8.72337 2.53177 9.9892 3.40297 10.9385L3.00348 13.3419L5.375 12.3233C6.4199 12.6707 7.406 12.7576 8.33333 12.5839" stroke="#262626" stroke-width="1.3" stroke-linecap="round" stroke-linejoin="round"/>
<path d="M5.375 6.82168C5.7892 6.82168 6.125 6.48341 6.125 6.06611C6.125 5.64885 5.7892 5.31055 5.375 5.31055C4.9608 5.31055 4.625 5.64885 4.625 6.06611C4.625 6.48341 4.9608 6.82168 5.375 6.82168Z" fill="#262626"/>
<path d="M8.375 6.82168C8.7892 6.82168 9.125 6.48341 9.125 6.06611C9.125 5.64885 8.7892 5.31055 8.375 5.31055C7.9608 5.31055 7.625 5.64885 7.625 6.06611C7.625 6.48341 7.9608 6.82168 8.375 6.82168Z" fill="#262626"/>
<path d="M13.2552 13.3098C12.6725 13.7434 11.9502 14 11.168 14C9.23497 14 7.66797 12.433 7.66797 10.5C7.66797 8.567 9.23497 7 11.168 7C13.101 7 14.668 8.567 14.668 10.5C14.668 11.0332 14.5487 11.5386 14.3354 11.9909" stroke="#262626" stroke-width="1.3" stroke-linecap="round" stroke-linejoin="round"/>
<path d="M13.2552 13.3098C12.6725 13.7434 11.9502 14 11.168 14C9.23497 14 7.66797 12.433 7.66797 10.5C7.66797 8.567 9.23497 7 11.168 7C13.101 7 14.668 8.567 14.668 10.5C14.668 11.0332 14.5487 11.5386 14.3354 11.9909" stroke="#262626" stroke-width="1.3" stroke-linecap="round" stroke-linejoin="round"/>
<path d="M14.3341 11.9902L14.6666 13.9993L13.2539 13.3091" stroke="#262626" stroke-width="1.3" stroke-linecap="round" stroke-linejoin="round"/>
<path d="M12.2305 10.2661C11.9198 10.2661 11.668 10.0124 11.668 9.69948C11.668 9.38651 11.9198 9.13281 12.2305 9.13281C12.5411 9.13281 12.793 9.38651 12.793 9.69948C12.793 10.0124 12.5411 10.2661 12.2305 10.2661Z" fill="#262626"/>
<path d="M9.98047 10.2661C9.6698 10.2661 9.41797 10.0124 9.41797 9.69948C9.41797 9.38651 9.6698 9.13281 9.98047 9.13281C10.2911 9.13281 10.543 9.38651 10.543 9.69948C10.543 10.0124 10.2911 10.2661 9.98047 10.2661Z" fill="#262626"/>
</svg>
