<svg width="16" height="16" viewBox="0 0 16 16" fill="none" xmlns="http://www.w3.org/2000/svg">
<path d="M8.0013 6.66667C9.28997 6.66667 10.3346 5.622 10.3346 4.33333C10.3346 3.04467 9.28997 2 8.0013 2C6.71264 2 5.66797 3.04467 5.66797 4.33333C5.66797 5.622 6.71264 6.66667 8.0013 6.66667Z" stroke="#262626" stroke-width="1.3" stroke-linecap="round" stroke-linejoin="round"/>
<path d="M2 13.6007V14.0007H14V13.6007C14 12.1072 14 11.3605 13.7094 10.79C13.4537 10.2883 13.0457 9.88028 12.544 9.62462C11.9735 9.33398 11.2268 9.33398 9.73333 9.33398H6.26667C4.7732 9.33398 4.02647 9.33398 3.45603 9.62462C2.95426 9.88028 2.54631 10.2883 2.29065 10.79C2 11.3605 2 12.1072 2 13.6007Z" stroke="#262626" stroke-width="1.3" stroke-linecap="round" stroke-linejoin="round"/>
</svg>
