<svg width="16" height="16" viewBox="0 0 16 16" fill="none" xmlns="http://www.w3.org/2000/svg">
<g clip-path="url(#clip0_4438_25894)">
<path d="M14.6654 8.00065C14.6654 11.6826 11.6806 14.6673 7.99871 14.6673C6.00754 14.6673 1.33203 14.6673 1.33203 14.6673C1.33203 14.6673 1.33203 9.69138 1.33203 8.00065C1.33203 4.31875 4.31681 1.33398 7.99871 1.33398C11.6806 1.33398 14.6654 4.31875 14.6654 8.00065Z" stroke="#262626" stroke-width="1.3" stroke-linecap="round" stroke-linejoin="round"/>
<path d="M8.33028 7.80445H5.3211C5.28217 7.80445 5.24483 7.7894 5.21731 7.7626C5.18978 7.73581 5.17431 7.69948 5.17431 7.66159V5.57143C5.17431 5.25584 4.91145 5 4.58716 5C4.26288 5 4 5.25584 4 5.57143V11.4286C4 11.7442 4.26288 12 4.58716 12C4.91145 12 5.17431 11.7442 5.17431 11.4286V9.09016C5.17431 9.05227 5.18978 9.01594 5.21731 8.98915C5.24483 8.96235 5.28217 8.9473 5.3211 8.9473H8.33028C8.36921 8.9473 8.40654 8.96235 8.43407 8.98915C8.4616 9.01594 8.47706 9.05227 8.47706 9.09016V11.4286C8.47706 11.7442 8.73994 12 9.06422 12C9.38851 12 9.65138 11.7442 9.65138 11.4286V5.57143C9.65138 5.25584 9.38851 5 9.06422 5C8.73994 5 8.47706 5.25584 8.47706 5.57143V7.66159C8.47706 7.69948 8.4616 7.73581 8.43407 7.7626C8.40654 7.7894 8.36921 7.80445 8.33028 7.80445Z" fill="#262626"/>
<path d="M12 7.57143C12 7.25584 11.7371 7 11.4128 7C11.0886 7 10.8257 7.25584 10.8257 7.57143V11.4286C10.8257 11.7442 11.0886 12 11.4128 12C11.7371 12 12 11.7442 12 11.4286V7.57143Z" fill="#262626"/>
<path d="M12 5.57143C12 5.25584 11.7371 5 11.4128 5C11.0886 5 10.8257 5.25584 10.8257 5.57143V6C10.8257 6.31559 11.0886 6.57143 11.4128 6.57143C11.7371 6.57143 12 6.31559 12 6V5.57143Z" fill="#262626"/>
</g>
<defs>
<clipPath id="clip0_4438_25894">
<rect width="16" height="16" fill="white"/>
</clipPath>
</defs>
</svg>
