<svg width="16" height="16" viewBox="0 0 16 16" fill="none" xmlns="http://www.w3.org/2000/svg">
<path fill-rule="evenodd" clip-rule="evenodd" d="M1.33359 1.34961C0.974609 1.34961 0.683594 1.64062 0.683594 1.99961V11.9996C0.683594 12.3586 0.974609 12.6496 1.33359 12.6496H3.01693V13.6663C3.01693 13.8916 3.13357 14.1008 3.3252 14.2192C3.51683 14.3376 3.75612 14.3484 3.95762 14.2477L7.1537 12.6496H8.50026C8.85925 12.6496 9.15026 12.3586 9.15026 11.9996C9.15026 11.6406 8.85925 11.3496 8.50026 11.3496H7.00026C6.89935 11.3496 6.79983 11.3731 6.70957 11.4182L4.31693 12.6146V11.9996C4.31693 11.6406 4.02591 11.3496 3.66693 11.3496H1.98359V2.64961H14.0169V5.66628C14.0169 6.02526 14.3079 6.31628 14.6669 6.31628C15.0259 6.31628 15.3169 6.02526 15.3169 5.66628V1.99961C15.3169 1.64062 15.0259 1.34961 14.6669 1.34961H1.33359ZM4.00028 4.0163C3.6413 4.0163 3.35028 4.30731 3.35028 4.6663C3.35028 5.02528 3.6413 5.3163 4.00028 5.3163H6.00028C6.35927 5.3163 6.65028 5.02528 6.65028 4.6663C6.65028 4.30731 6.35927 4.0163 6.00028 4.0163H4.00028ZM3.35028 6.6663C3.35028 6.30731 3.6413 6.0163 4.00028 6.0163H8.00028C8.35927 6.0163 8.65028 6.30731 8.65028 6.6663C8.65028 7.02528 8.35927 7.3163 8.00028 7.3163H4.00028C3.6413 7.3163 3.35028 7.02528 3.35028 6.6663ZM15.17 8.41123C15.3973 8.13339 15.3564 7.72388 15.0786 7.49656C14.8007 7.26923 14.3912 7.31019 14.1639 7.58802L11.5792 10.7471L10.0831 9.50029C9.80729 9.27047 9.39743 9.30773 9.16761 9.58351C8.93779 9.85929 8.97505 10.2692 9.25083 10.499L11.2508 12.1656C11.384 12.2767 11.5561 12.3298 11.7287 12.3134C11.9013 12.2969 12.0602 12.2121 12.17 12.0779L15.17 8.41123Z" fill="#262626"/>
</svg>
