<svg width="16" height="16" viewBox="0 0 16 16" fill="none" xmlns="http://www.w3.org/2000/svg">
<path fill-rule="evenodd" clip-rule="evenodd" d="M2.65261 2.32796C2.65214 2.32905 2.65156 2.33074 2.65156 2.33424V13.3342C2.65156 13.3377 2.65215 13.3394 2.65261 13.3405C2.65325 13.3421 2.65446 13.3441 2.65644 13.346C2.65842 13.348 2.66041 13.3492 2.66194 13.3499C2.66303 13.3503 2.66473 13.3509 2.66823 13.3509H6.71586C7.07485 13.3509 7.36586 13.6419 7.36586 14.0009C7.36586 14.3599 7.07485 14.6509 6.71586 14.6509H2.66823C1.94106 14.6509 1.35156 14.0614 1.35156 13.3342V2.33424C1.35156 1.60707 1.94105 1.01758 2.66823 1.01758H13.3349C14.0621 1.01758 14.6516 1.60708 14.6516 2.33424V5.57314C14.6516 5.93213 14.3605 6.22315 14.0016 6.22315C13.6426 6.22315 13.3516 5.93213 13.3516 5.57314V2.33424C13.3516 2.33074 13.351 2.32904 13.3505 2.32795C13.3499 2.32643 13.3487 2.32444 13.3467 2.32246C13.3447 2.32048 13.3427 2.31927 13.3412 2.31862C13.3401 2.31816 13.3384 2.31758 13.3349 2.31758H2.66823C2.66473 2.31758 2.66303 2.31816 2.66194 2.31862C2.66042 2.31927 2.65842 2.32048 2.65644 2.32246C2.65446 2.32444 2.65325 2.32643 2.65261 2.32796ZM5.66823 4.01758C5.30924 4.01758 5.01823 4.30859 5.01823 4.66758C5.01823 5.02656 5.30924 5.31758 5.66823 5.31758H7.01823V9.33422C7.01823 9.69321 7.30924 9.98422 7.66823 9.98422C8.02721 9.98422 8.31823 9.69321 8.31823 9.33422V5.31758H9.66823C10.0272 5.31758 10.3182 5.02656 10.3182 4.66758C10.3182 4.30859 10.0272 4.01758 9.66823 4.01758H5.66823ZM12.9006 7.32119C12.7615 7.21298 12.5844 7.16591 12.4099 7.19076C12.2354 7.21562 12.0785 7.31028 11.9751 7.45304L8.4751 12.2864C8.3948 12.3973 8.35156 12.5307 8.35156 12.6676V14.0009C8.35156 14.3599 8.64258 14.6509 9.00156 14.6509H10.3349C10.5419 14.6509 10.7366 14.5523 10.8591 14.3853L14.5257 9.38532C14.7338 9.10161 14.6783 8.70385 14.4006 8.48786L12.9006 7.32119ZM9.65156 12.8782L12.6335 8.76034L13.1037 9.12609L10.0055 13.3509H9.65156V12.8782Z" fill="#262626"/>
</svg>
