<svg fill="none" xmlns="http://www.w3.org/2000/svg" viewBox="0 0 16 16" class="design-iconfont">
  <path d="M6.0946 14.4079C4.97757 14.0753 3.98327 13.4579 3.19596 12.6398C3.48967 12.2917 3.66667 11.8419 3.66667 11.3508C3.66667 10.2462 2.77124 9.35078 1.66667 9.35078C1.59985 9.35078 1.5338 9.35408 1.46867 9.36048C1.37993 8.92665 1.33334 8.47752 1.33334 8.01745C1.33334 7.32058 1.44026 6.64868 1.6386 6.01725C1.64794 6.01738 1.6573 6.01745 1.66667 6.01745C2.77124 6.01745 3.66667 5.12202 3.66667 4.01745C3.66667 3.70035 3.59287 3.40052 3.46154 3.13412C4.2325 2.41725 5.1735 1.88076 6.21737 1.5918C6.54814 2.24015 7.22224 2.68413 8 2.68413C8.77777 2.68413 9.45187 2.24015 9.78264 1.5918C10.8265 1.88076 11.7675 2.41725 12.5385 3.13412C12.4071 3.40052 12.3333 3.70035 12.3333 4.01745C12.3333 5.12202 13.2288 6.01745 14.3333 6.01745C14.3427 6.01745 14.3521 6.01738 14.3614 6.01725C14.5597 6.64868 14.6667 7.32058 14.6667 8.01745C14.6667 8.47752 14.6201 8.92665 14.5313 9.36048C14.4662 9.35408 14.4002 9.35078 14.3333 9.35078C13.2288 9.35078 12.3333 10.2462 12.3333 11.3508C12.3333 11.8419 12.5103 12.2917 12.804 12.6398C12.0167 13.4579 11.0224 14.0753 9.9054 14.4079C9.6476 13.6014 8.892 13.0175 8 13.0175C7.108 13.0175 6.3524 13.6014 6.0946 14.4079Z" stroke="#262626" stroke-width="1.3" stroke-linejoin="round"/>
  <path d="M8 10.3503C9.28866 10.3503 10.3333 9.30559 10.3333 8.01693C10.3333 6.72826 9.28866 5.68359 8 5.68359C6.71133 5.68359 5.66666 6.72826 5.66666 8.01693C5.66666 9.30559 6.71133 10.3503 8 10.3503Z" stroke="#262626" stroke-width="1.3" stroke-linejoin="round"/>
</svg>
