<svg width="16" height="16" viewBox="0 0 16 16" fill="none" xmlns="http://www.w3.org/2000/svg">
<path d="M1.66797 8H14.3346" stroke="#262626" stroke-width="1.3" stroke-linecap="round" stroke-linejoin="round"/>
<path d="M9.33333 1.33398H6.66667C6.29847 1.33398 6 1.63246 6 2.00065V4.66732C6 5.03552 6.29847 5.33398 6.66667 5.33398H9.33333C9.70153 5.33398 10 5.03552 10 4.66732V2.00065C10 1.63246 9.70153 1.33398 9.33333 1.33398Z" stroke="#262626" stroke-width="1.3" stroke-linejoin="round"/>
<path d="M5.33333 10.668H2.66667C2.29848 10.668 2 10.9664 2 11.3346V14.0013C2 14.3695 2.29848 14.668 2.66667 14.668H5.33333C5.70153 14.668 6 14.3695 6 14.0013V11.3346C6 10.9664 5.70153 10.668 5.33333 10.668Z" stroke="#262626" stroke-width="1.3" stroke-linejoin="round"/>
<path d="M13.3333 10.668H10.6667C10.2985 10.668 10 10.9664 10 11.3346V14.0013C10 14.3695 10.2985 14.668 10.6667 14.668H13.3333C13.7015 14.668 14 14.3695 14 14.0013V11.3346C14 10.9664 13.7015 10.668 13.3333 10.668Z" stroke="#262626" stroke-width="1.3" stroke-linejoin="round"/>
<path d="M8 8.00065V5.33398" stroke="#262626" stroke-width="1.3" stroke-linecap="round" stroke-linejoin="round"/>
<path d="M12 10.6667V8" stroke="#262626" stroke-width="1.3" stroke-linecap="round" stroke-linejoin="round"/>
<path d="M4 10.6667V8" stroke="#262626" stroke-width="1.3" stroke-linecap="round" stroke-linejoin="round"/>
</svg>
