<svg fill="none" xmlns="http://www.w3.org/2000/svg" viewBox="0 0 16 16" class="design-iconfont">
  <mask id="haqa39qlk__t79yyli0ma" fill="#fff">
    <path d="M9.93179 2.36976L9.67817 3.01565L9.03525 3.26985C8.54342 3.46421 8.54342 4.16106 9.03525 4.35542L9.67817 4.61022L9.93179 5.25552C10.1256 5.74853 10.8224 5.74853 11.0162 5.25552L11.2698 4.60963L11.9121 4.35542C12.4039 4.16106 12.4039 3.46421 11.9121 3.26985L11.2698 3.01505L11.0162 2.36976C10.8224 1.87675 10.1256 1.87675 9.93179 2.36976ZM10.474 2.61034L10.7199 3.23548C10.7791 3.38599 10.8977 3.5051 11.0476 3.56495L11.6739 3.81264L11.0476 4.06092C10.9733 4.09037 10.906 4.13476 10.8496 4.19133C10.7932 4.24791 10.7491 4.31545 10.7199 4.38979L10.474 5.01494L10.2281 4.38979C10.1988 4.3154 10.1546 4.24781 10.0981 4.19124C10.0416 4.13466 9.97413 4.09031 9.89979 4.06092L9.27346 3.81264L9.89979 3.56495C9.97419 3.53549 10.0417 3.49104 10.0982 3.43436C10.1547 3.37768 10.1989 3.30999 10.2281 3.23548L10.474 2.61034ZM2.63087 3.0749C2.83079 2.8749 3.06815 2.71624 3.3294 2.60799C3.59065 2.49974 3.87067 2.44403 4.15345 2.44403C4.43624 2.44403 4.71626 2.49974 4.97751 2.60799C5.23876 2.71624 5.47612 2.8749 5.67603 3.0749L12.9248 10.3237C13.3286 10.7275 13.5555 11.2752 13.5555 11.8462C13.5555 12.4173 13.3286 12.965 12.9248 13.3688C12.521 13.7726 11.9733 13.9995 11.4022 13.9995C10.8311 13.9995 10.2835 13.7726 9.87964 13.3688L2.63087 6.12006C2.43087 5.92014 2.27221 5.68278 2.16396 5.42153C2.05572 5.16028 2 4.88027 2 4.59748C2 4.31469 2.05572 4.03468 2.16396 3.77343C2.27221 3.51218 2.43087 3.27482 2.63087 3.0749ZM5.04733 3.70301C4.81018 3.46594 4.48857 3.33279 4.15324 3.33285C3.81792 3.3329 3.49635 3.46616 3.25928 3.70331C3.02221 3.94046 2.88906 4.26207 2.88912 4.59739C2.88917 4.93272 3.02243 5.25429 3.25958 5.49136L4.19878 6.43115L5.98653 4.6434L5.04674 3.70361L5.04733 3.70301ZM10.5083 12.7401C10.6257 12.8575 10.7651 12.9506 10.9185 13.0142C11.0718 13.0777 11.2362 13.1104 11.4022 13.1104C11.5682 13.1104 11.7326 13.0777 11.886 13.0142C12.0394 12.9506 12.1787 12.8575 12.2961 12.7401C12.4135 12.6227 12.5066 12.4834 12.5701 12.33C12.6337 12.1766 12.6664 12.0123 12.6664 11.8462C12.6664 11.6802 12.6337 11.5159 12.5701 11.3625C12.5066 11.2091 12.4135 11.0698 12.2961 10.9524L6.61642 5.27211L4.82867 7.05986L10.5089 12.7401H10.5083ZM13.3076 6.41278L13.3988 6.64566L13.6311 6.73751C14.123 6.93187 14.123 7.62871 13.6311 7.82307L13.3988 7.91492L13.3076 8.14839C13.1138 8.6414 12.417 8.6414 12.2232 8.14839L12.1314 7.91492L11.8997 7.82307C11.4079 7.62871 11.4079 6.93187 11.8997 6.73751L12.1314 6.64566L12.2232 6.41278C12.417 5.91918 13.1138 5.91918 13.3076 6.41278ZM12.7654 6.65277L12.6819 6.86609C12.6226 7.01601 12.5041 7.13571 12.3536 7.19496L12.1379 7.28029L12.3536 7.36562C12.5041 7.42487 12.6226 7.54457 12.6819 7.69449L12.7648 7.90781L12.849 7.69449C12.9082 7.54457 13.0267 7.42547 13.1772 7.36562L13.3929 7.28029L13.1772 7.19496C13.1029 7.16557 13.0354 7.12122 12.9789 7.06464C12.9224 7.00807 12.8782 6.94048 12.849 6.86609L12.7654 6.65277ZM3.4332 10.073L3.34135 10.3065L3.10966 10.3977C2.61784 10.5927 2.61784 11.2895 3.10966 11.4839L3.34135 11.5757L3.4332 11.8086C3.62697 12.3022 4.32381 12.3022 4.51758 11.8086L4.60943 11.5757L4.84053 11.4839C5.33235 11.2895 5.33235 10.5927 4.84053 10.3983L4.60943 10.3065L4.51758 10.073C4.32381 9.58001 3.62697 9.58001 3.4332 10.073ZM3.89184 10.5263L3.9748 10.313L4.05894 10.5263C4.1182 10.6768 4.23671 10.7959 4.38722 10.8558L4.60291 10.9411L4.38722 11.0264C4.31288 11.0558 4.24538 11.1002 4.1889 11.1568C4.13243 11.2133 4.08819 11.2809 4.05894 11.3553L3.97539 11.5686L3.89184 11.3553C3.86259 11.2809 3.81835 11.2133 3.76188 11.1568C3.7054 11.1002 3.6379 11.0558 3.56356 11.0264L3.34787 10.9411L3.56356 10.8558C3.63796 10.8263 3.7055 10.7819 3.76197 10.7252C3.81845 10.6685 3.86265 10.6008 3.89184 10.5263Z"/>
  </mask>
  <path d="M9.93179 2.36976L9.67817 3.01565L9.03525 3.26985C8.54342 3.46421 8.54342 4.16106 9.03525 4.35542L9.67817 4.61022L9.93179 5.25552C10.1256 5.74853 10.8224 5.74853 11.0162 5.25552L11.2698 4.60963L11.9121 4.35542C12.4039 4.16106 12.4039 3.46421 11.9121 3.26985L11.2698 3.01505L11.0162 2.36976C10.8224 1.87675 10.1256 1.87675 9.93179 2.36976ZM10.474 2.61034L10.7199 3.23548C10.7791 3.38599 10.8977 3.5051 11.0476 3.56495L11.6739 3.81264L11.0476 4.06092C10.9733 4.09037 10.906 4.13476 10.8496 4.19133C10.7932 4.24791 10.7491 4.31545 10.7199 4.38979L10.474 5.01494L10.2281 4.38979C10.1988 4.3154 10.1546 4.24781 10.0981 4.19124C10.0416 4.13466 9.97413 4.09031 9.89979 4.06092L9.27346 3.81264L9.89979 3.56495C9.97419 3.53549 10.0417 3.49104 10.0982 3.43436C10.1547 3.37768 10.1989 3.30999 10.2281 3.23548L10.474 2.61034ZM2.63087 3.0749C2.83079 2.8749 3.06815 2.71624 3.3294 2.60799C3.59065 2.49974 3.87067 2.44403 4.15345 2.44403C4.43624 2.44403 4.71626 2.49974 4.97751 2.60799C5.23876 2.71624 5.47612 2.8749 5.67603 3.0749L12.9248 10.3237C13.3286 10.7275 13.5555 11.2752 13.5555 11.8462C13.5555 12.4173 13.3286 12.965 12.9248 13.3688C12.521 13.7726 11.9733 13.9995 11.4022 13.9995C10.8311 13.9995 10.2835 13.7726 9.87964 13.3688L2.63087 6.12006C2.43087 5.92014 2.27221 5.68278 2.16396 5.42153C2.05572 5.16028 2 4.88027 2 4.59748C2 4.31469 2.05572 4.03468 2.16396 3.77343C2.27221 3.51218 2.43087 3.27482 2.63087 3.0749ZM5.04733 3.70301C4.81018 3.46594 4.48857 3.33279 4.15324 3.33285C3.81792 3.3329 3.49635 3.46616 3.25928 3.70331C3.02221 3.94046 2.88906 4.26207 2.88912 4.59739C2.88917 4.93272 3.02243 5.25429 3.25958 5.49136L4.19878 6.43115L5.98653 4.6434L5.04674 3.70361L5.04733 3.70301ZM10.5083 12.7401C10.6257 12.8575 10.7651 12.9506 10.9185 13.0142C11.0718 13.0777 11.2362 13.1104 11.4022 13.1104C11.5682 13.1104 11.7326 13.0777 11.886 13.0142C12.0394 12.9506 12.1787 12.8575 12.2961 12.7401C12.4135 12.6227 12.5066 12.4834 12.5701 12.33C12.6337 12.1766 12.6664 12.0123 12.6664 11.8462C12.6664 11.6802 12.6337 11.5159 12.5701 11.3625C12.5066 11.2091 12.4135 11.0698 12.2961 10.9524L6.61642 5.27211L4.82867 7.05986L10.5089 12.7401H10.5083ZM13.3076 6.41278L13.3988 6.64566L13.6311 6.73751C14.123 6.93187 14.123 7.62871 13.6311 7.82307L13.3988 7.91492L13.3076 8.14839C13.1138 8.6414 12.417 8.6414 12.2232 8.14839L12.1314 7.91492L11.8997 7.82307C11.4079 7.62871 11.4079 6.93187 11.8997 6.73751L12.1314 6.64566L12.2232 6.41278C12.417 5.91918 13.1138 5.91918 13.3076 6.41278ZM12.7654 6.65277L12.6819 6.86609C12.6226 7.01601 12.5041 7.13571 12.3536 7.19496L12.1379 7.28029L12.3536 7.36562C12.5041 7.42487 12.6226 7.54457 12.6819 7.69449L12.7648 7.90781L12.849 7.69449C12.9082 7.54457 13.0267 7.42547 13.1772 7.36562L13.3929 7.28029L13.1772 7.19496C13.1029 7.16557 13.0354 7.12122 12.9789 7.06464C12.9224 7.00807 12.8782 6.94048 12.849 6.86609L12.7654 6.65277ZM3.4332 10.073L3.34135 10.3065L3.10966 10.3977C2.61784 10.5927 2.61784 11.2895 3.10966 11.4839L3.34135 11.5757L3.4332 11.8086C3.62697 12.3022 4.32381 12.3022 4.51758 11.8086L4.60943 11.5757L4.84053 11.4839C5.33235 11.2895 5.33235 10.5927 4.84053 10.3983L4.60943 10.3065L4.51758 10.073C4.32381 9.58001 3.62697 9.58001 3.4332 10.073ZM3.89184 10.5263L3.9748 10.313L4.05894 10.5263C4.1182 10.6768 4.23671 10.7959 4.38722 10.8558L4.60291 10.9411L4.38722 11.0264C4.31288 11.0558 4.24538 11.1002 4.1889 11.1568C4.13243 11.2133 4.08819 11.2809 4.05894 11.3553L3.97539 11.5686L3.89184 11.3553C3.86259 11.2809 3.81835 11.2133 3.76188 11.1568C3.7054 11.1002 3.6379 11.0558 3.56356 11.0264L3.34787 10.9411L3.56356 10.8558C3.63796 10.8263 3.7055 10.7819 3.76197 10.7252C3.81845 10.6685 3.86265 10.6008 3.89184 10.5263Z" fill="#fff" stroke="#595959" stroke-width=".0277762" mask="url(#haqa39qlk__t79yyli0ma)"/>
</svg>
