<svg fill="none" xmlns="http://www.w3.org/2000/svg" viewBox="0 0 14 14" class="design-iconfont">
  <mask id="c6hjx96cr__dj27xs3hva" fill="#fff">
    <path d="M8.93179 1.36976L8.67817 2.01565L8.03525 2.26985C7.54342 2.46421 7.54342 3.16106 8.03525 3.35542L8.67817 3.61022L8.93179 4.25552C9.12556 4.74853 9.8224 4.74853 10.0162 4.25552L10.2698 3.60963L10.9121 3.35542C11.4039 3.16106 11.4039 2.46421 10.9121 2.26985L10.2698 2.01505L10.0162 1.36976C9.8224 0.876748 9.12556 0.876748 8.93179 1.36976ZM9.47398 1.61034L9.71989 2.23548C9.77915 2.38599 9.89766 2.5051 10.0476 2.56495L10.6739 2.81264L10.0476 3.06092C9.97335 3.09037 9.90596 3.13476 9.84959 3.19133C9.79322 3.24791 9.74908 3.31545 9.71989 3.38979L9.47398 4.01494L9.22807 3.38979C9.19882 3.3154 9.15458 3.24781 9.09811 3.19124C9.04163 3.13466 8.97413 3.09031 8.89979 3.06092L8.27346 2.81264L8.89979 2.56495C8.97419 2.53549 9.04173 2.49104 9.0982 2.43436C9.15468 2.37768 9.19888 2.30999 9.22807 2.23548L9.47398 1.61034ZM1.63087 2.0749C1.83079 1.8749 2.06815 1.71624 2.3294 1.60799C2.59065 1.49974 2.87067 1.44403 3.15345 1.44403C3.43624 1.44403 3.71626 1.49974 3.97751 1.60799C4.23876 1.71624 4.47612 1.8749 4.67603 2.0749L11.9248 9.32367C12.3286 9.72748 12.5555 10.2752 12.5555 10.8462C12.5555 11.4173 12.3286 11.965 11.9248 12.3688C11.521 12.7726 10.9733 12.9995 10.4022 12.9995C9.83115 12.9995 9.28346 12.7726 8.87964 12.3688L1.63087 5.12006C1.43087 4.92014 1.27221 4.68278 1.16396 4.42153C1.05572 4.16028 1 3.88027 1 3.59748C1 3.31469 1.05572 3.03468 1.16396 2.77343C1.27221 2.51218 1.43087 2.27482 1.63087 2.0749ZM4.04733 2.70301C3.81018 2.46594 3.48857 2.33279 3.15324 2.33285C2.81792 2.3329 2.49635 2.46616 2.25928 2.70331C2.02221 2.94046 1.88906 3.26207 1.88912 3.59739C1.88917 3.93272 2.02243 4.25429 2.25958 4.49136L3.19878 5.43115L4.98653 3.6434L4.04674 2.70361L4.04733 2.70301ZM9.50835 11.7401C9.62573 11.8575 9.76509 11.9506 9.91846 12.0142C10.0718 12.0777 10.2362 12.1104 10.4022 12.1104C10.5682 12.1104 10.7326 12.0777 10.886 12.0142C11.0394 11.9506 11.1787 11.8575 11.2961 11.7401C11.4135 11.6227 11.5066 11.4834 11.5701 11.33C11.6337 11.1766 11.6664 11.0123 11.6664 10.8462C11.6664 10.6802 11.6337 10.5159 11.5701 10.3625C11.5066 10.2091 11.4135 10.0698 11.2961 9.95238L5.61642 4.27211L3.82867 6.05986L9.50894 11.7401H9.50835ZM12.3076 5.41278L12.3988 5.64566L12.6311 5.73751C13.123 5.93187 13.123 6.62871 12.6311 6.82307L12.3988 6.91492L12.3076 7.14839C12.1138 7.6414 11.417 7.6414 11.2232 7.14839L11.1314 6.91492L10.8997 6.82307C10.4079 6.62871 10.4079 5.93187 10.8997 5.73751L11.1314 5.64566L11.2232 5.41278C11.417 4.91918 12.1138 4.91918 12.3076 5.41278ZM11.7654 5.65277L11.6819 5.86609C11.6226 6.01601 11.5041 6.13571 11.3536 6.19496L11.1379 6.28029L11.3536 6.36562C11.5041 6.42487 11.6226 6.54457 11.6819 6.69449L11.7648 6.90781L11.849 6.69449C11.9082 6.54457 12.0267 6.42547 12.1772 6.36562L12.3929 6.28029L12.1772 6.19496C12.1029 6.16557 12.0354 6.12122 11.9789 6.06464C11.9224 6.00807 11.8782 5.94048 11.849 5.86609L11.7654 5.65277ZM2.4332 9.07302L2.34135 9.30649L2.10966 9.39774C1.61784 9.59269 1.61784 10.2895 2.10966 10.4839L2.34135 10.5757L2.4332 10.8086C2.62697 11.3022 3.32381 11.3022 3.51758 10.8086L3.60943 10.5757L3.84053 10.4839C4.33235 10.2895 4.33235 9.59269 3.84053 9.39833L3.60943 9.30649L3.51758 9.07302C3.32381 8.58001 2.62697 8.58001 2.4332 9.07302ZM2.89184 9.52633L2.9748 9.31301L3.05894 9.52633C3.1182 9.67684 3.23671 9.79594 3.38722 9.85579L3.60291 9.94112L3.38722 10.0264C3.31288 10.0558 3.24538 10.1002 3.1889 10.1568C3.13243 10.2133 3.08819 10.2809 3.05894 10.3553L2.97539 10.5686L2.89184 10.3553C2.86259 10.2809 2.81835 10.2133 2.76188 10.1568C2.7054 10.1002 2.6379 10.0558 2.56356 10.0264L2.34787 9.94112L2.56356 9.85579C2.63796 9.82633 2.7055 9.78189 2.76197 9.72521C2.81845 9.66852 2.86265 9.60083 2.89184 9.52633Z"/>
  </mask>
  <path d="M8.93179 1.36976L8.67817 2.01565L8.03525 2.26985C7.54342 2.46421 7.54342 3.16106 8.03525 3.35542L8.67817 3.61022L8.93179 4.25552C9.12556 4.74853 9.8224 4.74853 10.0162 4.25552L10.2698 3.60963L10.9121 3.35542C11.4039 3.16106 11.4039 2.46421 10.9121 2.26985L10.2698 2.01505L10.0162 1.36976C9.8224 0.876748 9.12556 0.876748 8.93179 1.36976ZM9.47398 1.61034L9.71989 2.23548C9.77915 2.38599 9.89766 2.5051 10.0476 2.56495L10.6739 2.81264L10.0476 3.06092C9.97335 3.09037 9.90596 3.13476 9.84959 3.19133C9.79322 3.24791 9.74908 3.31545 9.71989 3.38979L9.47398 4.01494L9.22807 3.38979C9.19882 3.3154 9.15458 3.24781 9.09811 3.19124C9.04163 3.13466 8.97413 3.09031 8.89979 3.06092L8.27346 2.81264L8.89979 2.56495C8.97419 2.53549 9.04173 2.49104 9.0982 2.43436C9.15468 2.37768 9.19888 2.30999 9.22807 2.23548L9.47398 1.61034ZM1.63087 2.0749C1.83079 1.8749 2.06815 1.71624 2.3294 1.60799C2.59065 1.49974 2.87067 1.44403 3.15345 1.44403C3.43624 1.44403 3.71626 1.49974 3.97751 1.60799C4.23876 1.71624 4.47612 1.8749 4.67603 2.0749L11.9248 9.32367C12.3286 9.72748 12.5555 10.2752 12.5555 10.8462C12.5555 11.4173 12.3286 11.965 11.9248 12.3688C11.521 12.7726 10.9733 12.9995 10.4022 12.9995C9.83115 12.9995 9.28346 12.7726 8.87964 12.3688L1.63087 5.12006C1.43087 4.92014 1.27221 4.68278 1.16396 4.42153C1.05572 4.16028 1 3.88027 1 3.59748C1 3.31469 1.05572 3.03468 1.16396 2.77343C1.27221 2.51218 1.43087 2.27482 1.63087 2.0749ZM4.04733 2.70301C3.81018 2.46594 3.48857 2.33279 3.15324 2.33285C2.81792 2.3329 2.49635 2.46616 2.25928 2.70331C2.02221 2.94046 1.88906 3.26207 1.88912 3.59739C1.88917 3.93272 2.02243 4.25429 2.25958 4.49136L3.19878 5.43115L4.98653 3.6434L4.04674 2.70361L4.04733 2.70301ZM9.50835 11.7401C9.62573 11.8575 9.76509 11.9506 9.91846 12.0142C10.0718 12.0777 10.2362 12.1104 10.4022 12.1104C10.5682 12.1104 10.7326 12.0777 10.886 12.0142C11.0394 11.9506 11.1787 11.8575 11.2961 11.7401C11.4135 11.6227 11.5066 11.4834 11.5701 11.33C11.6337 11.1766 11.6664 11.0123 11.6664 10.8462C11.6664 10.6802 11.6337 10.5159 11.5701 10.3625C11.5066 10.2091 11.4135 10.0698 11.2961 9.95238L5.61642 4.27211L3.82867 6.05986L9.50894 11.7401H9.50835ZM12.3076 5.41278L12.3988 5.64566L12.6311 5.73751C13.123 5.93187 13.123 6.62871 12.6311 6.82307L12.3988 6.91492L12.3076 7.14839C12.1138 7.6414 11.417 7.6414 11.2232 7.14839L11.1314 6.91492L10.8997 6.82307C10.4079 6.62871 10.4079 5.93187 10.8997 5.73751L11.1314 5.64566L11.2232 5.41278C11.417 4.91918 12.1138 4.91918 12.3076 5.41278ZM11.7654 5.65277L11.6819 5.86609C11.6226 6.01601 11.5041 6.13571 11.3536 6.19496L11.1379 6.28029L11.3536 6.36562C11.5041 6.42487 11.6226 6.54457 11.6819 6.69449L11.7648 6.90781L11.849 6.69449C11.9082 6.54457 12.0267 6.42547 12.1772 6.36562L12.3929 6.28029L12.1772 6.19496C12.1029 6.16557 12.0354 6.12122 11.9789 6.06464C11.9224 6.00807 11.8782 5.94048 11.849 5.86609L11.7654 5.65277ZM2.4332 9.07302L2.34135 9.30649L2.10966 9.39774C1.61784 9.59269 1.61784 10.2895 2.10966 10.4839L2.34135 10.5757L2.4332 10.8086C2.62697 11.3022 3.32381 11.3022 3.51758 10.8086L3.60943 10.5757L3.84053 10.4839C4.33235 10.2895 4.33235 9.59269 3.84053 9.39833L3.60943 9.30649L3.51758 9.07302C3.32381 8.58001 2.62697 8.58001 2.4332 9.07302ZM2.89184 9.52633L2.9748 9.31301L3.05894 9.52633C3.1182 9.67684 3.23671 9.79594 3.38722 9.85579L3.60291 9.94112L3.38722 10.0264C3.31288 10.0558 3.24538 10.1002 3.1889 10.1568C3.13243 10.2133 3.08819 10.2809 3.05894 10.3553L2.97539 10.5686L2.89184 10.3553C2.86259 10.2809 2.81835 10.2133 2.76188 10.1568C2.7054 10.1002 2.6379 10.0558 2.56356 10.0264L2.34787 9.94112L2.56356 9.85579C2.63796 9.82633 2.7055 9.78189 2.76197 9.72521C2.81845 9.66852 2.86265 9.60083 2.89184 9.52633Z" fill="url(#c6hjx96cr__paint0_linear_8820_48324)" stroke="#595959" stroke-width=".0277762" mask="url(#c6hjx96cr__dj27xs3hva)"/>
  <defs>
    <linearGradient id="c6hjx96cr__paint0_linear_8820_48324" x1="1.08312" y1="1" x2="13.7552" y2="1.85897" gradientUnits="userSpaceOnUse">
      <stop stop-color="#2475FC"/>
      <stop offset=".52899" stop-color="#3C01FF"/>
      <stop offset="1" stop-color="#C20CFF"/>
    </linearGradient>
  </defs>
</svg>
