<svg width="48" height="48" viewBox="0 0 48 48" fill="none" xmlns="http://www.w3.org/2000/svg">
<path d="M27.888 0L43.597 15.9994V42.3994C43.597 45.493 41.136 48 38.0988 48H9.8225C6.7853 48 4.3241 45.4908 4.3241 42.3994V5.60064C4.32434 2.50704 6.78554 0 9.82274 0H27.888Z" fill="#00BDAD"/>
<path d="M43.597 15.9994H33.6634C30.6283 15.9994 27.888 13.2108 27.888 10.117V0L43.597 15.9994Z" fill="white" fill-opacity="0.4"/>
<path opacity="0.9" d="M33.8634 26.804C34.0474 26.34 34.3514 26.108 34.7754 26.108H34.8114C35.1154 26.108 35.3314 26.196 35.4594 26.372C35.5874 26.548 35.5994 26.776 35.4954 27.056L32.6634 34.28C32.4714 34.76 32.1234 35 31.6194 35H31.5954C31.0914 35 30.7434 34.76 30.5514 34.28L27.7194 27.056C27.6154 26.776 27.6274 26.548 27.7554 26.372C27.8914 26.196 28.1074 26.108 28.4034 26.108H28.4394C28.8634 26.108 29.1674 26.34 29.3514 26.804L31.6074 32.72L33.8634 26.804Z" fill="white"/>
<path opacity="0.9" d="M20.4837 33.308C20.3637 33.068 20.3597 32.864 20.4717 32.696C20.5837 32.52 20.7717 32.412 21.0357 32.372L21.1197 32.36C21.3357 32.328 21.5117 32.36 21.6477 32.456C21.7837 32.544 21.9277 32.7 22.0797 32.924C22.2877 33.228 22.5837 33.448 22.9677 33.584C23.3597 33.712 23.7517 33.724 24.1437 33.62C24.5437 33.516 24.8557 33.296 25.0797 32.96C25.2237 32.744 25.2997 32.528 25.3077 32.312C25.3157 32.088 25.2517 31.888 25.1157 31.712C24.9877 31.536 24.8037 31.404 24.5637 31.316C24.3797 31.252 24.0277 31.184 23.5077 31.112C23.4037 31.104 23.1237 31.064 22.6677 30.992C22.0837 30.888 21.6077 30.6 21.2397 30.128C20.8717 29.648 20.6877 29.104 20.6877 28.496C20.6877 27.888 20.8957 27.356 21.3117 26.9C21.7117 26.452 22.2197 26.164 22.8357 26.036C23.4597 25.9 24.0757 25.94 24.6837 26.156C25.2997 26.372 25.8037 26.748 26.1957 27.284C26.3557 27.508 26.3997 27.716 26.3277 27.908C26.2557 28.092 26.0997 28.232 25.8597 28.328L25.7997 28.352C25.5837 28.44 25.3957 28.452 25.2357 28.388C25.0757 28.316 24.9077 28.176 24.7317 27.968C24.5237 27.728 24.2837 27.568 24.0117 27.488C23.7397 27.408 23.4677 27.408 23.1957 27.488C22.9317 27.568 22.7037 27.716 22.5117 27.932C22.3357 28.124 22.2477 28.34 22.2477 28.58C22.2477 28.812 22.3237 29.024 22.4757 29.216C22.6277 29.4 22.8277 29.524 23.0757 29.588C23.1637 29.612 23.2797 29.636 23.4237 29.66C23.5677 29.676 23.7117 29.692 23.8557 29.708C24.4157 29.756 24.8397 29.832 25.1277 29.936C25.7357 30.16 26.1917 30.488 26.4957 30.92C26.8077 31.352 26.9557 31.832 26.9397 32.36C26.9317 32.88 26.7637 33.376 26.4357 33.848C26.0037 34.488 25.3757 34.888 24.5517 35.048C23.7357 35.208 22.9357 35.128 22.1517 34.808C21.3757 34.488 20.8197 33.988 20.4837 33.308Z" fill="white"/>
<path opacity="0.9" d="M15.992 35.132C15.16 35.132 14.4 34.928 13.712 34.52C13.032 34.104 12.496 33.548 12.104 32.852C11.72 32.148 11.528 31.38 11.528 30.548C11.528 29.724 11.72 28.964 12.104 28.268C12.496 27.564 13.032 27.008 13.712 26.6C14.4 26.184 15.16 25.976 15.992 25.976C16.576 25.976 17.116 26.08 17.612 26.288C18.108 26.496 18.56 26.792 18.968 27.176C19.16 27.36 19.248 27.548 19.232 27.74C19.216 27.924 19.104 28.1 18.896 28.268L18.86 28.292C18.668 28.444 18.484 28.512 18.308 28.496C18.132 28.48 17.948 28.384 17.756 28.208C17.5 27.968 17.232 27.792 16.952 27.68C16.672 27.56 16.352 27.5 15.992 27.5C15.424 27.5 14.92 27.632 14.48 27.896C14.048 28.152 13.708 28.512 13.46 28.976C13.22 29.44 13.1 29.964 13.1 30.548C13.1 31.14 13.22 31.668 13.46 32.132C13.7 32.596 14.04 32.96 14.48 33.224C14.92 33.48 15.424 33.608 15.992 33.608V35.132ZM17.768 32.936C17.96 32.768 18.14 32.676 18.308 32.66C18.484 32.636 18.668 32.696 18.86 32.84L18.896 32.864C19.112 33.024 19.228 33.204 19.244 33.404C19.268 33.596 19.184 33.78 18.992 33.956C18.592 34.316 18.136 34.604 17.624 34.82C17.112 35.028 16.568 35.132 15.992 35.132C15.16 35.132 14.4 34.928 13.712 34.52C13.032 34.104 12.496 33.548 12.104 32.852C11.72 32.148 11.528 31.38 11.528 30.548C11.528 29.724 11.72 28.964 12.104 28.268C12.496 27.564 13.032 27.008 13.712 26.6C14.4 26.184 15.16 25.976 15.992 25.976V27.5C15.424 27.5 14.92 27.632 14.48 27.896C14.048 28.152 13.708 28.512 13.46 28.976C13.22 29.44 13.1 29.964 13.1 30.548C13.1 31.14 13.22 31.668 13.46 32.132C13.7 32.596 14.04 32.96 14.48 33.224C14.92 33.48 15.424 33.608 15.992 33.608C16.344 33.608 16.664 33.552 16.952 33.44C17.248 33.32 17.52 33.152 17.768 32.936Z" fill="white"/>
</svg>
