<svg fill="none" xmlns="http://www.w3.org/2000/svg" viewBox="0 0 80 80" class="design-iconfont">
  <g clip-path="url(#ipvtazd4z__clip0_1039_22343)">
    <g clip-path="url(#ipvtazd4z__clip1_1039_22343)" opacity=".4">
      <g clip-path="url(#ipvtazd4z__clip2_1039_22343)">
        <mask id="ipvtazd4z__v28c6zvbsa" style="mask-type:luminance" maskUnits="userSpaceOnUse" x="0" y="0" width="92" height="92">
          <path d="M0 0H92V92H0V0Z" fill="#fff"/>
        </mask>
        <g mask="url(#ipvtazd4z__v28c6zvbsa)">
          <g filter="url(#ipvtazd4z__filter0_f_1039_22343)">
            <path fill-rule="evenodd" clip-rule="evenodd" d="M4.18298 77.6518L48.0863 103.001L79.0577 73.568L28.7364 63.8594L4.18298 77.6518Z" fill="#595656" fill-opacity=".316569"/>
          </g>
          <path d="M41.5846 19.6064L41.5714 39.7892L58.4195 29.9537L58.4338 9.76758L41.5846 19.6064Z" fill="url(#ipvtazd4z__paint0_linear_1039_22343)"/>
          <path d="M24.5721 30.0248L41.5713 39.7886L41.5846 19.6069L24.5876 9.83984L24.5721 30.0248Z" fill="url(#ipvtazd4z__paint1_linear_1039_22343)"/>
          <path d="M41.4367 0L24.5875 9.83878L41.5856 19.6059L58.4336 9.76708L41.4367 0Z" fill="url(#ipvtazd4z__paint2_linear_1039_22343)"/>
          <path d="M17.0125 61.4783L16.9993 81.6611L33.8473 71.8256L33.8617 51.6406L17.0125 61.4783Z" fill="url(#ipvtazd4z__paint3_linear_1039_22343)"/>
          <path d="M0 71.8959L16.9992 81.6597L17.0124 61.478L0.0154437 51.7109L0 71.8959Z" fill="url(#ipvtazd4z__paint4_linear_1039_22343)"/>
          <path d="M16.8634 41.8711L0.0153809 51.7099L17.0135 61.477L33.8615 51.6382L16.8634 41.8711Z" fill="url(#ipvtazd4z__paint5_linear_1039_22343)"/>
          <path d="M65.3713 64.2294L65.358 84.4111L82.205 74.5756L82.2204 54.3906L65.3713 64.2294Z" fill="url(#ipvtazd4z__paint6_linear_1039_22343)"/>
          <path d="M48.3588 74.6479L65.3579 84.4128L65.3712 64.23L48.3731 54.4629L48.3588 74.6479Z" fill="url(#ipvtazd4z__paint7_linear_1039_22343)"/>
          <path d="M65.2223 44.623L48.3743 54.4618L65.3712 64.2289L82.2204 54.3901L65.2223 44.623Z" fill="url(#ipvtazd4z__paint8_linear_1039_22343)"/>
          <path d="M40.209 76.2196L40.1958 96.4024L57.0438 86.567L57.0582 66.3809L40.209 76.2196Z" fill="url(#ipvtazd4z__paint9_linear_1039_22343)"/>
          <path d="M23.1965 86.6373L40.1957 96.4011L40.2089 76.2182L23.2109 66.4512L23.1965 86.6373Z" fill="url(#ipvtazd4z__paint10_linear_1039_22343)"/>
          <path d="M40.06 56.6152L23.2119 66.4529L40.2089 76.2211L57.058 66.3812L40.06 56.6152Z" fill="url(#ipvtazd4z__paint11_linear_1039_22343)"/>
          <path d="M65.3713 35.334L65.358 55.5157L82.205 45.6802L82.2204 25.4941L65.3713 35.334Z" fill="url(#ipvtazd4z__paint12_linear_1039_22343)"/>
          <path d="M48.3588 45.7495L65.3579 55.5143L65.3712 35.3315L48.3731 25.5645L48.3588 45.7495Z" fill="#3684F1"/>
          <path d="M65.2223 15.7266L48.3743 25.5653L65.3712 35.3324L82.2204 25.4936L65.2223 15.7266Z" fill="url(#ipvtazd4z__paint13_linear_1039_22343)"/>
          <path d="M18.3891 32.9735L18.3759 53.1563L35.2228 43.3198L35.2382 23.1348L18.3891 32.9735Z" fill="url(#ipvtazd4z__paint14_linear_1039_22343)"/>
          <path d="M1.37671 43.3931L18.3759 53.1569L18.3891 32.9741L1.39105 23.207L1.37671 43.3931Z" fill="url(#ipvtazd4z__paint15_linear_1039_22343)"/>
          <path d="M18.2401 13.3672L1.39099 23.206L18.3891 32.973L35.2382 23.1343L18.2401 13.3672Z" fill="url(#ipvtazd4z__paint16_linear_1039_22343)"/>
          <path d="M41.782 47.3232L41.7688 67.506L58.6157 57.6694L58.6312 37.4844L41.782 47.3232Z" fill="url(#ipvtazd4z__paint17_linear_1039_22343)"/>
          <path d="M24.7684 57.7416L41.7687 67.5065L41.782 47.3237L24.7839 37.5566L24.7684 57.7416Z" fill="url(#ipvtazd4z__paint18_linear_1039_22343)"/>
          <path d="M41.6331 27.7168L24.7839 37.5556L41.782 47.3227L58.6312 37.4839L41.6331 27.7168Z" fill="url(#ipvtazd4z__paint19_linear_1039_22343)"/>
        </g>
      </g>
    </g>
  </g>
  <defs>
    <linearGradient id="ipvtazd4z__paint0_linear_1039_22343" x1="57.4842" y1="9.30868" x2="42.5215" y2="40.2486" gradientUnits="userSpaceOnUse">
      <stop stop-color="#3C83ED"/>
      <stop offset="1" stop-color="#5485F0"/>
    </linearGradient>
    <linearGradient id="ipvtazd4z__paint1_linear_1039_22343" x1="37.339" y1="16.0062" x2="28.8198" y2="33.6221" gradientUnits="userSpaceOnUse">
      <stop stop-color="#5DA4FF"/>
      <stop offset="1" stop-color="#5BA2FC"/>
    </linearGradient>
    <linearGradient id="ipvtazd4z__paint2_linear_1039_22343" x1="49.494" y1="4.49524" x2="37.6826" y2="17.7184" gradientUnits="userSpaceOnUse">
      <stop stop-color="#459FFF"/>
      <stop offset="1" stop-color="#93C4FF"/>
    </linearGradient>
    <linearGradient id="ipvtazd4z__paint3_linear_1039_22343" x1="32.912" y1="51.1807" x2="17.9492" y2="82.1208" gradientUnits="userSpaceOnUse">
      <stop stop-color="#3C83ED"/>
      <stop offset="1" stop-color="#5485F0"/>
    </linearGradient>
    <linearGradient id="ipvtazd4z__paint4_linear_1039_22343" x1="12.7667" y1="57.8774" x2="4.24748" y2="75.4935" gradientUnits="userSpaceOnUse">
      <stop stop-color="#5DA4FF"/>
      <stop offset="1" stop-color="#5BA2FC"/>
    </linearGradient>
    <linearGradient id="ipvtazd4z__paint5_linear_1039_22343" x1="24.9218" y1="46.3664" x2="13.1105" y2="59.5896" gradientUnits="userSpaceOnUse">
      <stop stop-color="#459FFF"/>
      <stop offset="1" stop-color="#93C4FF"/>
    </linearGradient>
    <linearGradient id="ipvtazd4z__paint6_linear_1039_22343" x1="81.2706" y1="53.9308" x2="66.3078" y2="84.8709" gradientUnits="userSpaceOnUse">
      <stop stop-color="#3C83ED"/>
      <stop offset="1" stop-color="#5485F0"/>
    </linearGradient>
    <linearGradient id="ipvtazd4z__paint7_linear_1039_22343" x1="61.1254" y1="60.6296" x2="52.6061" y2="78.2455" gradientUnits="userSpaceOnUse">
      <stop stop-color="#5DA4FF"/>
      <stop offset="1" stop-color="#5BA2FC"/>
    </linearGradient>
    <linearGradient id="ipvtazd4z__paint8_linear_1039_22343" x1="73.2805" y1="49.1185" x2="61.4691" y2="62.3417" gradientUnits="userSpaceOnUse">
      <stop stop-color="#459FFF"/>
      <stop offset="1" stop-color="#93C4FF"/>
    </linearGradient>
    <linearGradient id="ipvtazd4z__paint9_linear_1039_22343" x1="56.1084" y1="65.9216" x2="41.1457" y2="96.8616" gradientUnits="userSpaceOnUse">
      <stop stop-color="#3C83ED"/>
      <stop offset="1" stop-color="#5485F0"/>
    </linearGradient>
    <linearGradient id="ipvtazd4z__paint10_linear_1039_22343" x1="35.9631" y1="72.6183" x2="27.444" y2="90.2342" gradientUnits="userSpaceOnUse">
      <stop stop-color="#5DA4FF"/>
      <stop offset="1" stop-color="#5BA2FC"/>
    </linearGradient>
    <linearGradient id="ipvtazd4z__paint11_linear_1039_22343" x1="48.1182" y1="61.1101" x2="36.3068" y2="74.3333" gradientUnits="userSpaceOnUse">
      <stop stop-color="#459FFF"/>
      <stop offset="1" stop-color="#93C4FF"/>
    </linearGradient>
    <linearGradient id="ipvtazd4z__paint12_linear_1039_22343" x1="81.2706" y1="25.0352" x2="66.3078" y2="55.9753" gradientUnits="userSpaceOnUse">
      <stop stop-color="#3C83ED"/>
      <stop offset="1" stop-color="#5485F0"/>
    </linearGradient>
    <linearGradient id="ipvtazd4z__paint13_linear_1039_22343" x1="73.2805" y1="20.2218" x2="61.4691" y2="33.445" gradientUnits="userSpaceOnUse">
      <stop stop-color="#459FFF"/>
      <stop offset="1" stop-color="#93C4FF"/>
    </linearGradient>
    <linearGradient id="ipvtazd4z__paint14_linear_1039_22343" x1="34.2881" y1="22.6753" x2="19.3253" y2="53.6152" gradientUnits="userSpaceOnUse">
      <stop stop-color="#3C83ED"/>
      <stop offset="1" stop-color="#5485F0"/>
    </linearGradient>
    <linearGradient id="ipvtazd4z__paint15_linear_1039_22343" x1="14.143" y1="29.3739" x2="5.62375" y2="46.9899" gradientUnits="userSpaceOnUse">
      <stop stop-color="#5DA4FF"/>
      <stop offset="1" stop-color="#5BA2FC"/>
    </linearGradient>
    <linearGradient id="ipvtazd4z__paint16_linear_1039_22343" x1="26.298" y1="17.863" x2="14.4866" y2="31.0862" gradientUnits="userSpaceOnUse">
      <stop stop-color="#459FFF"/>
      <stop offset="1" stop-color="#93C4FF"/>
    </linearGradient>
    <linearGradient id="ipvtazd4z__paint17_linear_1039_22343" x1="57.8776" y1="38.9116" x2="37.2492" y2="61.2499" gradientUnits="userSpaceOnUse">
      <stop stop-color="#EDF6FC"/>
      <stop offset="1" stop-color="#5485F0"/>
    </linearGradient>
    <linearGradient id="ipvtazd4z__paint18_linear_1039_22343" x1="26.1627" y1="41.6167" x2="43.1508" y2="67.485" gradientUnits="userSpaceOnUse">
      <stop stop-color="#F2F6FF"/>
      <stop offset="1" stop-color="#559BFC"/>
    </linearGradient>
    <linearGradient id="ipvtazd4z__paint19_linear_1039_22343" x1="38.8487" y1="29.6461" x2="41.6617" y2="44.9795" gradientUnits="userSpaceOnUse">
      <stop stop-color="#F6F6FF"/>
      <stop offset="1" stop-color="#93C4FF"/>
    </linearGradient>
    <clipPath id="ipvtazd4z__clip0_1039_22343">
      <path fill="#fff" d="M0 0H80V80H0z"/>
    </clipPath>
    <clipPath id="ipvtazd4z__clip1_1039_22343">
      <path fill="#fff" d="M0 0H80V80H0z"/>
    </clipPath>
    <clipPath id="ipvtazd4z__clip2_1039_22343">
      <path fill="#fff" d="M0 0H92V92H0z"/>
    </clipPath>
    <filter id="ipvtazd4z__filter0_f_1039_22343" x="-95.817" y="-36.1406" width="274.875" height="239.141" filterUnits="userSpaceOnUse" color-interpolation-filters="sRGB">
      <feFlood flood-opacity="0" result="BackgroundImageFix"/>
      <feBlend in="SourceGraphic" in2="BackgroundImageFix" result="shape"/>
      <feGaussianBlur stdDeviation="50" result="effect1_foregroundBlur_1039_22343"/>
    </filter>
  </defs>
</svg>
