<svg fill="none" xmlns="http://www.w3.org/2000/svg" viewBox="0 0 16 16" class="design-iconfont">
  <path fill-rule="evenodd" clip-rule="evenodd" d="M1.33464 3.33398C1.70283 3.33398 2.0013 3.63246 2.0013 4.00065V11.9822C2.01074 12.0005 2.04312 12.0493 2.14021 12.1258C2.30972 12.2594 2.59633 12.4088 3.00992 12.5467C3.83012 12.8201 5.00563 13.0007 6.33464 13.0007C7.01914 13.0007 7.66363 12.9528 8.24015 12.8687C7.81073 12.345 7.51137 11.71 7.39205 11.0125C7.35426 10.7916 7.33464 10.5648 7.33464 10.334C7.33464 9.30732 7.72232 8.36961 8.35819 7.66174C8.949 7.00402 9.7563 6.54244 10.668 6.38935V4.00065C10.668 3.63246 10.9664 3.33398 11.3346 3.33398C11.7028 3.33398 12.0013 3.63246 12.0013 4.00065V7.00065C12.0013 7.36884 11.7028 7.66732 11.3346 7.66732C10.5467 7.66732 9.83922 8.00823 9.35009 8.55276C8.92549 9.02543 8.66797 9.64885 8.66797 10.334C8.66797 10.4891 8.68115 10.6406 8.70629 10.7877C8.84309 11.5873 9.3376 12.2677 10.0215 12.6556C10.2535 12.7872 10.3848 13.0444 10.3552 13.3095C10.3256 13.5745 10.1409 13.7965 9.88561 13.8737C8.92228 14.1649 7.67706 14.334 6.33464 14.334C4.9022 14.334 3.57771 14.1414 2.58828 13.8116C2.09705 13.6479 1.65142 13.4382 1.31491 13.173C0.985915 12.9137 0.667969 12.5226 0.667969 12.0007V4.00065C0.667969 3.63246 0.966446 3.33398 1.33464 3.33398Z" fill="currentColor"/>
  <path d="M11.3346 4.00065C11.3346 4.92112 9.09603 5.66732 6.33459 5.66732C3.57316 5.66732 1.33459 4.92112 1.33459 4.00065C1.33459 3.08018 3.57316 2.33398 6.33459 2.33398C9.09603 2.33398 11.3346 3.08018 11.3346 4.00065Z" fill="currentColor"/>
  <path fill-rule="evenodd" clip-rule="evenodd" d="M1.99786 4.02691C1.99778 4.02691 1.99804 4.02587 1.9989 4.02383C1.99837 4.0259 1.99794 4.02692 1.99786 4.02691ZM2.01268 4.00032C2.03006 3.97542 2.06647 3.9333 2.14021 3.87519C2.30972 3.7416 2.59633 3.59213 3.00992 3.45427C3.83012 3.18087 5.00563 3.00033 6.33464 3.00033C7.66364 3.00033 8.83915 3.18087 9.65935 3.45427C10.0729 3.59213 10.3595 3.7416 10.5291 3.87519C10.6028 3.9333 10.6392 3.97542 10.6566 4.00032C10.6392 4.02523 10.6028 4.06735 10.5291 4.12546C10.3595 4.25905 10.0729 4.40852 9.65935 4.54638C8.83915 4.81978 7.66364 5.00033 6.33464 5.00033C5.00563 5.00033 3.83012 4.81978 3.00992 4.54638C2.59633 4.40852 2.30972 4.25905 2.14021 4.12546C2.06647 4.06735 2.03006 4.02523 2.01268 4.00032ZM10.6714 4.02691C10.6713 4.02692 10.6709 4.0259 10.6704 4.02383C10.6712 4.02587 10.6715 4.0269 10.6714 4.02691ZM10.6704 3.97681C10.6709 3.97475 10.6713 3.97373 10.6714 3.97374C10.6715 3.97374 10.6712 3.97478 10.6704 3.97681ZM1.9989 3.97682C1.99804 3.97478 1.99778 3.97374 1.99786 3.97374C1.99794 3.97373 1.99837 3.97475 1.9989 3.97682ZM2.58828 2.18936C3.57772 1.85955 4.9022 1.66699 6.33464 1.66699C7.76707 1.66699 9.09156 1.85955 10.081 2.18936C10.5722 2.3531 11.0179 2.56278 11.3544 2.82798C11.6834 3.08726 12.0013 3.47839 12.0013 4.00033C12.0013 4.52226 11.6834 4.91339 11.3544 5.17267C11.0179 5.43787 10.5722 5.64754 10.081 5.81129C9.09156 6.1411 7.76707 6.33366 6.33464 6.33366C4.9022 6.33366 3.57771 6.1411 2.58828 5.81129C2.09705 5.64754 1.65142 5.43787 1.31491 5.17267C0.985915 4.91339 0.667969 4.52226 0.667969 4.00033C0.667969 3.47839 0.985914 3.08726 1.31491 2.82798C1.65142 2.56278 2.09705 2.3531 2.58828 2.18936Z" fill="currentColor"/>
  <path fill-rule="evenodd" clip-rule="evenodd" d="M2.00104 9.3147C1.991 8.95528 1.69648 8.66699 1.33464 8.66699C0.966446 8.66699 0.667969 8.96547 0.667969 9.33366C0.667969 9.8556 0.985915 10.2467 1.31491 10.506C1.65142 10.7712 2.09705 10.9809 2.58828 11.1446C3.57771 11.4744 4.9022 11.667 6.33464 11.667C6.96277 11.667 7.56712 11.63 8.12969 11.5615C8.49518 11.5171 8.75543 11.1847 8.71096 10.8192C8.66648 10.4537 8.33414 10.1935 7.96865 10.238C7.46168 10.2997 6.91117 10.3337 6.33464 10.3337C5.00563 10.3337 3.83012 10.1531 3.00992 9.87971C2.59633 9.74185 2.30972 9.59238 2.14021 9.45879C2.04219 9.38154 2.01013 9.33256 2.00104 9.3147Z" fill="currentColor"/>
  <path fill-rule="evenodd" clip-rule="evenodd" d="M2.00104 6.64868C1.991 6.28926 1.69648 6.00098 1.33464 6.00098C0.966446 6.00098 0.667969 6.29945 0.667969 6.66764C0.667969 7.18958 0.985915 7.58071 1.31491 7.83999C1.65142 8.10519 2.09705 8.31486 2.58828 8.47861C3.57771 8.80842 4.9022 9.00098 6.33464 9.00098C7.29166 9.00098 8.19556 8.91508 8.98162 8.76194C9.34301 8.69153 9.57891 8.34149 9.5085 7.98009C9.43809 7.6187 9.08805 7.38281 8.72665 7.45321C8.03305 7.58834 7.21515 7.66764 6.33464 7.66764C5.00563 7.66764 3.83012 7.4871 3.00992 7.2137C2.59633 7.07583 2.30972 6.92637 2.14021 6.79277C2.04219 6.71553 2.01013 6.66655 2.00104 6.64868ZM1.9989 6.64413C1.99804 6.64209 1.99778 6.64106 1.99786 6.64106C1.99794 6.64105 1.99837 6.64207 1.9989 6.64413Z" fill="currentColor"/>
  <path d="M14.6673 10.3343C14.6673 12.1752 13.1749 13.6676 11.3339 13.6676C10.737 13.6676 10.1766 13.5107 9.69198 13.2358C8.83871 12.7519 8.21991 11.9025 8.04848 10.9004C8.01701 10.7164 8.00061 10.5273 8.00061 10.3343C8.00061 9.47841 8.32321 8.69784 8.85344 8.10758C9.46368 7.42824 10.3489 7.00098 11.3339 7.00098C13.1749 7.00098 14.6673 8.49338 14.6673 10.3343Z" fill="currentColor"/>
  <path fill-rule="evenodd" clip-rule="evenodd" d="M11.334 7.66732C10.546 7.66732 9.83859 8.00823 9.34945 8.55276L9.34945 8.55276C8.92485 9.02543 8.66733 9.64885 8.66733 10.334C8.66733 10.4891 8.68051 10.6406 8.70565 10.7877M8.35754 7.66175C9.08887 6.8476 10.1519 6.33398 11.334 6.33398C13.5431 6.33398 15.334 8.12486 15.334 10.334C15.334 12.5431 13.5431 14.334 11.334 14.334C10.6188 14.334 9.94547 14.1457 9.36316 13.8154M11.334 7.66732C12.8067 7.66732 14.0007 8.86124 14.0007 10.334ZM8.84991 8.10403L8.8535 8.10725L8.84991 8.10403C14.0007 11.8067 12.8067 13.0007 11.334 13.0007M8.70566 10.7877C8.84247 11.5873 9.33697 12.2677 10.0209 12.6556L10.0209 12.6556C10.4079 12.8751 10.8553 13.0007 11.334 13.0007" fill="currentColor"/>
  <path d="M11.333 9.00098V10.3343ZM12.4877 9.66764L11.333 10.3343ZM12.4877 11.001L11.333 10.3343ZM11.333 11.6676V10.3343ZM10.1783 11.001L11.333 10.3343ZM10.1783 9.66764L11.333 10.3343Z" fill="currentColor"/>
  <path d="M11.333 9.00098V10.3343M11.333 10.3343L12.4877 9.66764M11.333 10.3343L12.4877 11.001M11.333 10.3343V11.6676M11.333 10.3343L10.1783 11.001M11.333 10.3343L10.1783 9.66764" stroke="#fff" stroke-width="1.3" stroke-linecap="round" stroke-linejoin="round"/>
  <path d="M11.3324 9.00098V10.3343ZM12.4871 9.66764L11.3324 10.3343ZM12.4871 11.001L11.3324 10.3343ZM11.3324 11.6676V10.3343ZM10.1777 11.001L11.3324 10.3343ZM10.1777 9.66764L11.3324 10.3343Z" fill="currentColor"/>
  <path d="M11.3324 9.00098V10.3343M11.3324 10.3343L12.4871 9.66764M11.3324 10.3343L12.4871 11.001M11.3324 10.3343V11.6676M11.3324 10.3343L10.1777 11.001M11.3324 10.3343L10.1777 9.66764" stroke="#fff" stroke-width="1.3" stroke-linecap="round" stroke-linejoin="round"/>
</svg>
