<svg fill="none" xmlns="http://www.w3.org/2000/svg" viewBox="0 0 200 200" class="design-iconfont">
  <path d="M150.423 50.6513C149.245 48.8017 147.251 47.6552 145.082 47.5764C143.819 45.6217 141.654 44.4616 139.349 44.501C137.504 44.4833 135.726 45.2187 134.42 46.545C133.822 46.3524 133.198 46.2519 132.572 46.2519C129.669 46.2519 127.273 48.2878 127.026 50.864C124.813 51.3979 123.219 53.3568 123.125 55.6616C123.125 58.4375 125.634 60.6983 128.672 60.6983H149.974C153.056 60.6983 155.52 58.4375 155.52 55.6616C155.568 53.0243 153.29 50.8575 150.423 50.6513Z" fill="url(#cvfwmhc6r__paint0_linear_8004_46791)"/>
  <path d="M57.1146 49.61H53.5187C53.5187 42.4064 47.6796 36.5703 40.4826 36.5703C33.2808 36.5703 27.447 42.4064 27.447 49.61H24.8197C21.5046 49.61 18.8232 52.528 18.8232 56.1298C18.8232 59.7315 21.5093 62.6496 24.8197 62.6496H57.1146C60.4256 62.6496 63.1111 59.7315 63.1111 56.1298C63.1111 52.528 60.4256 49.61 57.1146 49.61Z" fill="url(#cvfwmhc6r__paint1_linear_8004_46791)"/>
  <path d="M180.101 38.3025H176.158C176.158 30.3982 169.754 24 161.86 24C153.966 24 147.562 30.3982 147.562 38.3025H144.679C141.045 38.3025 138.103 41.5019 138.103 45.4537C138.103 49.3979 141.045 52.605 144.679 52.605H180.101C183.736 52.605 186.678 49.3979 186.678 45.4537C186.678 41.5019 183.736 38.3025 180.101 38.3025Z" fill="url(#cvfwmhc6r__paint2_linear_8004_46791)"/>
  <path fill-rule="evenodd" clip-rule="evenodd" d="M97.4244 126.969C123.376 126.969 146.745 129.087 163.083 132.465C179.06 132.575 191.922 137.357 191.922 143.247C191.922 147.914 183.842 151.889 172.536 153.39C169.839 154.185 166.799 154.938 163.463 155.64C163.552 156.083 163.594 156.536 163.594 156.988C163.594 167.262 141.257 175.591 113.702 175.591C88.9134 175.591 68.3436 168.848 64.4664 160.015C31.3897 157.504 8 151.322 8 144.092C8 134.634 48.0358 126.969 97.4244 126.969Z" fill="url(#cvfwmhc6r__paint3_linear_8004_46791)" fill-opacity=".68"/>
  <path d="M173.027 120.867L173.158 121.311L173.268 121.729L173.319 122.068L173.217 122.761L172.921 123.361L172.465 123.847L171.889 124.182L171.39 124.207L170.913 124.232H170.409L166.291 124.287V128.646L166.329 130.592L166.422 132.354L166.554 134.156H162.748L162.829 133.137L162.879 131.504L162.909 128.752V124.757L162.427 125.053L161.902 125.15L161.475 125.095L161.125 124.938L160.825 124.693L160.583 124.363L157.594 124.207L156.795 123.886L156.144 123.332L155.818 122.862L155.628 122.343L155.561 121.755L155.586 121.467L155.666 121.205L156.326 119.691L156.436 119.133L156.655 118.622L156.973 118.156L157.357 117.759L161.505 110.161H161.531L162.089 109.303L162.723 108.593L163.213 108.237L163.797 108.018L164.49 107.941L165.399 108.068L166.198 108.436L166.854 109.011L167.319 109.743L170.651 116.19L171.213 116.452L171.703 116.816L172.13 117.29L172.452 117.835L172.646 118.431L172.709 119.091L172.578 119.979L173.027 120.867Z" fill="url(#cvfwmhc6r__paint4_linear_8004_46791)"/>
  <path d="M189.939 129.324L190.07 129.768L190.18 130.186L190.231 130.524L190.129 131.218L189.834 131.818L189.377 132.304L188.802 132.639L188.303 132.664L187.825 132.689H187.322L183.204 132.744V137.103L183.242 139.048L183.335 140.811L183.466 142.612H179.66L179.741 141.594L179.792 139.961L179.821 137.209V133.214L179.339 133.509L178.815 133.607L178.388 133.551L178.037 133.395L177.737 133.15L177.496 132.82L174.507 132.664L173.707 132.343L173.057 131.789L172.731 131.319L172.54 130.799L172.473 130.212L172.498 129.924L172.578 129.662L173.238 128.148L173.348 127.59L173.568 127.079L173.885 126.613L174.27 126.216L178.417 118.618H178.443L179.001 117.76L179.635 117.049L180.126 116.694L180.709 116.474L181.402 116.398L182.312 116.525L183.111 116.893L183.766 117.468L184.231 118.199L187.563 124.647L188.125 124.909L188.615 125.273L189.043 125.746L189.364 126.292L189.559 126.888L189.622 127.548L189.491 128.435L189.939 129.324Z" fill="url(#cvfwmhc6r__paint5_linear_8004_46791)"/>
  <path d="M40.5689 126.287L40.7545 126.917L40.9025 127.509L40.9789 127.991L40.9154 128.663L40.7292 129.272L40.4209 129.826L39.7824 130.515L38.9748 130.993L38.2687 131.031L37.6009 131.065H36.8943L31.1063 131.141V137.331L31.161 140.092L31.2878 142.59L31.474 145.148H26.1301L26.24 143.703L26.3157 141.386L26.3539 137.479V131.809L25.9057 132.122L25.4405 132.304L24.9419 132.363L24.3457 132.287L23.8464 132.067L23.4282 131.721L23.0858 131.251L18.8914 131.031L18.1178 130.756L17.4411 130.346L16.8491 129.788L16.3968 129.12L16.126 128.38L16.0332 127.547L16.0714 127.137L16.1812 126.769L17.111 124.617L17.2637 123.83L17.5721 123.099L18.0162 122.439L18.5571 121.877L24.3839 111.091H24.4215L25.2038 109.874L26.0919 108.868L26.785 108.36L27.6009 108.051L28.5824 107.941L29.4488 108.022L30.2435 108.254L30.9753 108.647L31.622 109.168L32.1466 109.78L32.5524 110.499L37.2285 119.654L38.0191 120.021L38.7087 120.537L39.309 121.21L39.7612 121.983L40.032 122.828L40.1248 123.767L40.0825 124.363L39.9386 125.027L40.5689 126.287Z" fill="url(#cvfwmhc6r__paint6_linear_8004_46791)"/>
  <path d="M129.709 141.465H70.1846C67.4069 141.465 65.1514 139.212 65.1514 136.432V70.6504C65.1514 67.8727 67.4039 65.6172 70.1846 65.6172H129.709C132.486 65.6172 134.742 67.8692 134.742 70.6504V136.432C134.742 139.212 132.49 141.465 129.709 141.465Z" fill="url(#cvfwmhc6r__paint7_linear_8004_46791)"/>
  <path d="M150.57 131.514C150.57 141.151 142.756 148.965 133.119 148.965C123.482 148.965 115.668 141.151 115.668 131.514C115.668 121.877 123.482 114.062 133.119 114.062C142.756 114.062 150.57 121.877 150.57 131.514Z" fill="url(#cvfwmhc6r__paint8_linear_8004_46791)"/>
  <path d="M132.154 122.676C132.154 125.688 132.154 128.699 132.154 131.711C134.919 133.188 137.681 134.665 140.446 136.142" stroke="#fff" stroke-width="3.52423" stroke-linecap="round"/>
  <path d="M79.6396 83.6641H116.279" stroke="#fff" stroke-width="4.1116" stroke-linecap="round"/>
  <path d="M79.6396 97.7031H109.204" stroke="#fff" stroke-width="4.1116" stroke-linecap="round"/>
  <path d="M79.6396 111.738H116.279" stroke="#fff" stroke-width="4.1116" stroke-linecap="round"/>
  <path d="M79.6396 125.777H102.858" stroke="#fff" stroke-width="4.1116" stroke-linecap="round"/>
  <path d="M114.242 60.8963H108.479V60.0828C108.479 54.3001 103.791 49.6094 98.0051 49.6094C92.2189 49.6094 87.5317 54.2966 87.5317 60.0828V60.8963H81.6715C80.9255 60.8963 80.3164 61.5019 80.3164 62.252V71.6452C80.3164 72.3918 80.922 73.0009 81.6715 73.0009H114.239C114.985 73.0009 115.594 72.3953 115.594 71.6452V62.252C115.597 61.5019 114.992 60.8963 114.242 60.8963ZM97.9599 63.5078C95.9158 63.5078 94.2565 61.8514 94.2565 59.8038C94.2565 57.7568 95.9129 56.1004 97.9599 56.1004C100.007 56.1004 101.664 57.7568 101.664 59.8038C101.664 61.8514 100.004 63.5078 97.9599 63.5078Z" fill="url(#cvfwmhc6r__paint9_linear_8004_46791)"/>
  <defs>
    <linearGradient id="cvfwmhc6r__paint0_linear_8004_46791" x1="139.351" y1="60.6984" x2="139.351" y2="44.5009" gradientUnits="userSpaceOnUse">
      <stop stop-color="#fff" stop-opacity=".1"/>
      <stop offset=".14" stop-color="#F8FBFF" stop-opacity=".27"/>
      <stop offset=".37" stop-color="#EDF5FF" stop-opacity=".52"/>
      <stop offset=".58" stop-color="#E4F0FF" stop-opacity=".73"/>
      <stop offset=".76" stop-color="#DEECFF" stop-opacity=".88"/>
      <stop offset=".91" stop-color="#DAEAFF" stop-opacity=".97"/>
      <stop offset="1" stop-color="#D9E9FF"/>
    </linearGradient>
    <linearGradient id="cvfwmhc6r__paint1_linear_8004_46791" x1="25.0623" y1="74.3772" x2="50.3649" y2="41.2821" gradientUnits="userSpaceOnUse">
      <stop stop-color="#fff" stop-opacity=".1"/>
      <stop offset=".09" stop-color="#FEFEFF" stop-opacity=".13"/>
      <stop offset=".23" stop-color="#FBFCFF" stop-opacity=".21"/>
      <stop offset=".4" stop-color="#F5F9FF" stop-opacity=".33"/>
      <stop offset=".59" stop-color="#EEF5FF" stop-opacity=".51"/>
      <stop offset=".79" stop-color="#E4EFFF" stop-opacity=".74"/>
      <stop offset="1" stop-color="#D9E9FF"/>
    </linearGradient>
    <linearGradient id="cvfwmhc6r__paint2_linear_8004_46791" x1="144.945" y1="65.4684" x2="172.699" y2="29.1689" gradientUnits="userSpaceOnUse">
      <stop stop-color="#fff" stop-opacity=".1"/>
      <stop offset=".09" stop-color="#FEFEFF" stop-opacity=".13"/>
      <stop offset=".23" stop-color="#FBFCFF" stop-opacity=".21"/>
      <stop offset=".4" stop-color="#F5F9FF" stop-opacity=".33"/>
      <stop offset=".59" stop-color="#EEF5FF" stop-opacity=".51"/>
      <stop offset=".79" stop-color="#E4EFFF" stop-opacity=".74"/>
      <stop offset="1" stop-color="#D9E9FF"/>
    </linearGradient>
    <linearGradient id="cvfwmhc6r__paint3_linear_8004_46791" x1="107.399" y1="177.334" x2="110.042" y2="103.442" gradientUnits="userSpaceOnUse">
      <stop offset=".2597" stop-color="#fff"/>
      <stop offset="1" stop-color="#6397F7"/>
    </linearGradient>
    <linearGradient id="cvfwmhc6r__paint4_linear_8004_46791" x1="171.99" y1="133.841" x2="162.802" y2="133.985" gradientUnits="userSpaceOnUse">
      <stop stop-color="#F3F8FF"/>
      <stop offset="1" stop-color="#E4EFFF"/>
    </linearGradient>
    <linearGradient id="cvfwmhc6r__paint5_linear_8004_46791" x1="188.902" y1="142.298" x2="179.714" y2="142.442" gradientUnits="userSpaceOnUse">
      <stop stop-color="#F3F8FF"/>
      <stop offset="1" stop-color="#E4EFFF"/>
    </linearGradient>
    <linearGradient id="cvfwmhc6r__paint6_linear_8004_46791" x1="39.1125" y1="144.702" x2="26.2052" y2="144.903" gradientUnits="userSpaceOnUse">
      <stop stop-color="#F3F8FF"/>
      <stop offset="1" stop-color="#E4EFFF"/>
    </linearGradient>
    <linearGradient id="cvfwmhc6r__paint7_linear_8004_46791" x1="74.3144" y1="72.8706" x2="123.389" y2="141.476" gradientUnits="userSpaceOnUse">
      <stop offset="4.5e-7" stop-color="#D9E9FF"/>
      <stop offset="1" stop-color="#5792F0"/>
    </linearGradient>
    <linearGradient id="cvfwmhc6r__paint8_linear_8004_46791" x1="119.014" y1="106.791" x2="144.094" y2="146.821" gradientUnits="userSpaceOnUse">
      <stop offset="4.5e-7" stop-color="#E4EFFF"/>
      <stop offset="1" stop-color="#5792F0"/>
    </linearGradient>
    <linearGradient id="cvfwmhc6r__paint9_linear_8004_46791" x1="82.5966" y1="53.5448" x2="116.635" y2="76.0117" gradientUnits="userSpaceOnUse">
      <stop offset="4.5e-7" stop-color="#E4EFFF"/>
      <stop offset="1" stop-color="#5792F0"/>
    </linearGradient>
  </defs>
</svg>
