<svg width="200" height="200" viewBox="0 0 200 200" fill="none" xmlns="http://www.w3.org/2000/svg">
<path d="M150.185 51.0433C149.013 49.203 147.029 48.0622 144.871 47.9839C143.614 46.0389 141.46 44.8847 139.167 44.9238C137.331 44.9063 135.563 45.638 134.262 46.9576C133.668 46.7659 133.047 46.666 132.424 46.666C129.536 46.666 127.152 48.6916 126.906 51.2549C124.704 51.7861 123.118 53.7352 123.025 56.0285C123.025 58.7905 125.521 61.0399 128.543 61.0399H149.739C152.805 61.0399 155.257 58.7905 155.257 56.0285C155.305 53.4044 153.038 51.2485 150.185 51.0433Z" fill="url(#paint0_linear_8962_35194)"/>
<path d="M57.3457 50.0072H53.7679C53.7679 42.8398 47.9581 37.033 40.7972 37.033C33.6315 37.033 27.827 42.8398 27.827 50.0072H25.2129C21.9144 50.0072 19.2465 52.9106 19.2465 56.4943C19.2465 60.078 21.919 62.9815 25.2129 62.9815H57.3457C60.6401 62.9815 63.3121 60.078 63.3121 56.4943C63.3121 52.9106 60.6401 50.0072 57.3457 50.0072Z" fill="url(#paint1_linear_8962_35194)"/>
<path d="M179.716 38.7569H175.792C175.792 30.8923 169.42 24.5261 161.566 24.5261C153.712 24.5261 147.34 30.8923 147.34 38.7569H144.472C140.855 38.7569 137.928 41.9403 137.928 45.8723C137.928 49.7967 140.855 52.9876 144.472 52.9876H179.716C183.333 52.9876 186.26 49.7967 186.26 45.8723C186.26 41.9403 183.333 38.7569 179.716 38.7569Z" fill="url(#paint2_linear_8962_35194)"/>
<path fill-rule="evenodd" clip-rule="evenodd" d="M97.4534 126.978C123.275 126.978 146.526 129.086 162.782 132.447C178.68 132.557 191.478 137.314 191.478 143.174C191.478 147.819 183.438 151.774 172.189 153.267C169.505 154.058 166.48 154.807 163.161 155.505C163.249 155.946 163.291 156.397 163.291 156.847C163.291 167.07 141.066 175.357 113.65 175.357C88.9851 175.357 68.5185 168.647 64.6607 159.859C31.7499 157.36 8.47754 151.21 8.47754 144.016C8.47754 134.605 48.3126 126.978 97.4534 126.978Z" fill="url(#paint3_linear_8962_35194)" fill-opacity="0.68"/>
<path d="M172.677 120.907L172.807 121.349L172.917 121.766L172.967 122.103L172.866 122.792L172.572 123.389L172.117 123.873L171.545 124.206L171.048 124.231L170.573 124.256H170.072L165.975 124.311V128.648L166.013 130.584L166.105 132.338L166.236 134.13H162.45L162.53 133.116L162.58 131.492L162.61 128.753V124.778L162.13 125.073L161.608 125.169L161.183 125.115L160.834 124.959L160.536 124.715L160.296 124.386L157.322 124.231L156.527 123.911L155.879 123.36L155.555 122.893L155.365 122.376L155.298 121.791L155.323 121.505L155.403 121.244L156.06 119.738L156.169 119.183L156.388 118.674L156.703 118.211L157.086 117.816L161.213 110.256H161.238L161.794 109.402L162.425 108.695L162.913 108.342L163.493 108.123L164.183 108.047L165.087 108.173L165.883 108.539L166.535 109.111L166.997 109.84L170.313 116.255L170.872 116.515L171.36 116.877L171.785 117.349L172.105 117.891L172.298 118.484L172.361 119.141L172.231 120.024L172.677 120.907Z" fill="url(#paint4_linear_8962_35194)"/>
<path d="M189.504 129.321L189.634 129.763L189.744 130.18L189.794 130.516L189.693 131.206L189.399 131.803L188.944 132.287L188.372 132.62L187.876 132.645L187.4 132.67H186.9L182.802 132.725V137.062L182.84 138.997L182.933 140.751L183.063 142.543H179.277L179.357 141.53L179.408 139.906L179.437 137.167V133.192L178.957 133.486L178.436 133.583L178.011 133.528L177.661 133.372L177.363 133.129L177.123 132.8L174.149 132.645L173.353 132.325L172.706 131.774L172.382 131.307L172.192 130.789L172.125 130.205L172.15 129.919L172.23 129.658L172.887 128.152L172.996 127.597L173.215 127.088L173.53 126.625L173.913 126.229L178.04 118.669H178.065L178.62 117.816L179.251 117.108L179.739 116.755L180.32 116.536L181.01 116.461L181.915 116.587L182.71 116.953L183.362 117.525L183.825 118.253L187.139 124.669L187.699 124.929L188.187 125.291L188.612 125.762L188.932 126.305L189.125 126.898L189.188 127.554L189.058 128.438L189.504 129.321Z" fill="url(#paint5_linear_8962_35194)"/>
<path d="M40.8831 126.301L41.0678 126.928L41.215 127.517L41.291 127.996L41.2279 128.665L41.0426 129.271L40.7358 129.822L40.1005 130.508L39.2969 130.983L38.5945 131.021L37.93 131.055H37.2269L31.468 131.13V137.289L31.5223 140.036L31.6486 142.522L31.8338 145.068H26.5167L26.626 143.629L26.7014 141.324L26.7394 137.437V131.795L26.2935 132.106L25.8306 132.287L25.3344 132.346L24.7413 132.27L24.2445 132.052L23.8284 131.707L23.4877 131.24L19.3143 131.021L18.5446 130.747L17.8713 130.339L17.2822 129.784L16.8322 129.12L16.5628 128.383L16.4705 127.555L16.5084 127.147L16.6177 126.78L17.5429 124.639L17.6948 123.856L18.0017 123.129L18.4435 122.472L18.9817 121.913L24.7792 111.181H24.8166L25.5951 109.97L26.4787 108.969L27.1684 108.464L27.9801 108.156L28.9567 108.047L29.8187 108.127L30.6095 108.359L31.3377 108.75L31.9811 109.267L32.503 109.877L32.9068 110.592L37.5595 119.701L38.3461 120.066L39.0322 120.58L39.6295 121.249L40.0795 122.018L40.3489 122.859L40.4413 123.793L40.3992 124.386L40.256 125.047L40.8831 126.301Z" fill="url(#paint6_linear_8962_35194)"/>
<path d="M138.044 87.4127L95.0892 82.0337V103.361L137.36 108.274L138.044 87.4127Z" fill="url(#paint7_linear_8962_35194)"/>
<path d="M61.0762 88.9831L95.0857 82.0337L95.0898 105.984L61.0762 112.891V88.9831Z" fill="url(#paint8_linear_8962_35194)"/>
<path d="M101.051 98.1888L137.636 88.8129V133.146L101.051 142.522V98.1888Z" fill="url(#paint9_linear_8962_35194)"/>
<path d="M61.5436 90.0988L101.518 98.0259L101.285 142.522L61.5436 133.695V90.0988Z" fill="url(#paint10_linear_8962_35194)"/>
<path d="M101.518 98.1813L61.1809 89.6311L52.6016 105.38L93.6236 115.054L101.518 98.1813Z" fill="url(#paint11_linear_8962_35194)"/>
<path d="M101.518 98.0236L138.088 87.9949L147.395 103.6L112.371 115.054L101.518 98.0236Z" fill="url(#paint12_linear_8962_35194)"/>
<path d="M62.5045 24.9352L60.7594 27.6148L59.3971 30.1079L58.3802 32.4404L57.6648 34.6209L57.2265 36.6693L57.0436 38.6125L57.0944 40.4581L57.3714 42.2277L57.8735 43.9378L58.6098 45.6011L59.5888 47.231L60.8318 48.8353L62.3683 50.4231L64.2279 51.9935L66.4499 53.5469L69.0798 55.0793L72.1615 56.5906L75.7452 58.0721" stroke="url(#paint13_linear_8962_35194)" stroke-width="0.0584426"/>
<path d="M58.9133 55.5592L60.6584 57.5556L62.2498 59.102L63.7056 60.2603L65.0375 61.0861L66.2677 61.6378L67.4126 61.9493L68.4979 62.0463" stroke="url(#paint14_linear_8962_35194)" stroke-width="0.0584426"/>
<path d="M143.714 6L143.671 8.16354L143.395 10.2254L142.884 12.2072L142.143 14.1177L141.156 15.9726L139.917 17.7808L138.397 19.5476L136.571 21.2839L134.413 22.9869L131.881 24.656L128.939 26.2872L125.543 27.8721L121.648 29.4057L117.196 30.8761L112.144 32.2752L106.427 33.5849" stroke="url(#paint15_linear_8962_35194)" stroke-width="0.0584426"/>
<path d="M147.045 22.5393L143.961 24.9822L141.288 26.8576L138.977 28.2462L136.984 29.224L135.263 29.8592L133.781 30.2023L132.493 30.3122" stroke="url(#paint16_linear_8962_35194)" stroke-width="0.0584426"/>
<path d="M136.759 52.5624L131.858 52.089L127.343 51.8774L123.182 51.9072L119.356 52.1568L115.841 52.6132L112.606 53.2561L109.63 54.0766L106.897 55.0661L104.385 56.2162L102.077 57.523L99.96 58.9864L98.0173 60.6058L96.2448 62.3907L94.6253 64.3403L93.1672 66.4758L91.8581 68.8012L90.7062 71.3388" stroke="url(#paint17_linear_8962_35194)" stroke-width="0.0584426"/>
<path d="M61.894 35.1041L66.4975 35.9428L70.1946 36.8445L73.1155 37.7843L75.3773 38.7498L77.0937 39.724L78.3543 40.6977L79.2444 41.6678L79.8318 42.6415L80.1596 43.6408L80.2449 44.6823L80.0831 45.8044L79.6447 47.0369L79.0141 48.138L78.3368 48.8744L77.6086 49.3279L76.8079 49.5394L75.8968 49.5096L74.8191 49.1964L73.5334 48.519L71.9747 47.3759L70.0923 45.6226L67.8265 43.116L65.1177 39.6732L61.894 35.1041Z" fill="url(#paint18_linear_8962_35194)"/>
<path d="M94.3884 76.8744L96.0131 73.9944L97.6764 71.555L99.3648 69.5077L101.088 67.8082L102.84 66.4255L104.631 65.3303L106.469 64.501L108.366 63.9218L110.343 63.5922L112.41 63.5074L114.593 63.681L116.91 64.1334L119.382 64.8902L122.032 65.9813L120.658 68.2647L119.177 70.2564L117.604 71.9816L115.928 73.4701L114.146 74.7261L112.244 75.7704L110.22 76.6038L108.051 77.2257L105.72 77.6353L103.21 77.8259L100.501 77.775L97.5659 77.4664L94.3884 76.8744Z" fill="url(#paint19_linear_8962_35194)"/>
<path d="M75.7446 45.3317L76.7247 45.6607L77.5745 46.1592L78.3097 46.8301L78.9391 47.6957L79.4674 48.7932L79.8771 50.1695L80.1477 51.879L80.2447 53.9812" stroke="url(#paint20_linear_8962_35194)" stroke-width="0.0584426" stroke-linecap="round"/>
<path d="M98.7714 85.6572L99.8135 83.9051L100.911 82.4598L102.068 81.2845L103.284 80.3494L104.568 79.6335L105.924 79.1198L107.377 78.8118L108.94 78.7025" stroke="url(#paint21_linear_8962_35194)" stroke-width="0.0584426"/>
<defs>
<linearGradient id="paint0_linear_8962_35194" x1="139.169" y1="61.0401" x2="139.169" y2="44.9237" gradientUnits="userSpaceOnUse">
<stop stop-color="white" stop-opacity="0.1"/>
<stop offset="0.14" stop-color="#F8FBFF" stop-opacity="0.27"/>
<stop offset="0.37" stop-color="#EDF5FF" stop-opacity="0.52"/>
<stop offset="0.58" stop-color="#E4F0FF" stop-opacity="0.73"/>
<stop offset="0.76" stop-color="#DEECFF" stop-opacity="0.88"/>
<stop offset="0.91" stop-color="#DAEAFF" stop-opacity="0.97"/>
<stop offset="1" stop-color="#D9E9FF"/>
</linearGradient>
<linearGradient id="paint1_linear_8962_35194" x1="25.4542" y1="74.6501" x2="50.6299" y2="41.7212" gradientUnits="userSpaceOnUse">
<stop stop-color="white" stop-opacity="0.1"/>
<stop offset="0.09" stop-color="#FEFEFF" stop-opacity="0.13"/>
<stop offset="0.23" stop-color="#FBFCFF" stop-opacity="0.21"/>
<stop offset="0.4" stop-color="#F5F9FF" stop-opacity="0.33"/>
<stop offset="0.59" stop-color="#EEF5FF" stop-opacity="0.51"/>
<stop offset="0.79" stop-color="#E4EFFF" stop-opacity="0.74"/>
<stop offset="1" stop-color="#D9E9FF"/>
</linearGradient>
<linearGradient id="paint2_linear_8962_35194" x1="144.737" y1="65.7866" x2="172.351" y2="29.6691" gradientUnits="userSpaceOnUse">
<stop stop-color="white" stop-opacity="0.1"/>
<stop offset="0.09" stop-color="#FEFEFF" stop-opacity="0.13"/>
<stop offset="0.23" stop-color="#FBFCFF" stop-opacity="0.21"/>
<stop offset="0.4" stop-color="#F5F9FF" stop-opacity="0.33"/>
<stop offset="0.59" stop-color="#EEF5FF" stop-opacity="0.51"/>
<stop offset="0.79" stop-color="#E4EFFF" stop-opacity="0.74"/>
<stop offset="1" stop-color="#D9E9FF"/>
</linearGradient>
<linearGradient id="paint3_linear_8962_35194" x1="107.378" y1="177.09" x2="110.008" y2="103.57" gradientUnits="userSpaceOnUse">
<stop offset="0.2597" stop-color="white"/>
<stop offset="1" stop-color="#6397F7"/>
</linearGradient>
<linearGradient id="paint4_linear_8962_35194" x1="171.645" y1="133.817" x2="162.503" y2="133.961" gradientUnits="userSpaceOnUse">
<stop stop-color="#F3F8FF"/>
<stop offset="1" stop-color="#E4EFFF"/>
</linearGradient>
<linearGradient id="paint5_linear_8962_35194" x1="188.472" y1="142.231" x2="179.33" y2="142.374" gradientUnits="userSpaceOnUse">
<stop stop-color="#F3F8FF"/>
<stop offset="1" stop-color="#E4EFFF"/>
</linearGradient>
<linearGradient id="paint6_linear_8962_35194" x1="39.434" y1="144.623" x2="26.5915" y2="144.823" gradientUnits="userSpaceOnUse">
<stop stop-color="#F3F8FF"/>
<stop offset="1" stop-color="#E4EFFF"/>
</linearGradient>
<linearGradient id="paint7_linear_8962_35194" x1="141.668" y1="105.937" x2="145.503" y2="78.9771" gradientUnits="userSpaceOnUse">
<stop stop-color="#5792F0"/>
<stop offset="1" stop-color="#E4EFFF"/>
</linearGradient>
<linearGradient id="paint8_linear_8962_35194" x1="92.2553" y1="101.904" x2="92.4628" y2="82.0553" gradientUnits="userSpaceOnUse">
<stop stop-color="#5792F0"/>
<stop offset="1" stop-color="#E4EFFF"/>
</linearGradient>
<linearGradient id="paint9_linear_8962_35194" x1="108.999" y1="84.2836" x2="127.846" y2="133.313" gradientUnits="userSpaceOnUse">
<stop stop-color="#E4EFFF"/>
<stop offset="1" stop-color="#5792F0"/>
</linearGradient>
<linearGradient id="paint10_linear_8962_35194" x1="65.6931" y1="90.0988" x2="94.4497" y2="137.204" gradientUnits="userSpaceOnUse">
<stop stop-color="#E4EFFF"/>
<stop offset="1" stop-color="#5792F0"/>
</linearGradient>
<linearGradient id="paint11_linear_8962_35194" x1="72.3259" y1="89.6311" x2="75.5034" y2="114.188" gradientUnits="userSpaceOnUse">
<stop stop-color="#D9E9FF"/>
<stop offset="1" stop-color="#5792F0"/>
</linearGradient>
<linearGradient id="paint12_linear_8962_35194" x1="126.853" y1="84.7805" x2="127.267" y2="112.843" gradientUnits="userSpaceOnUse">
<stop stop-color="#F3F8FF"/>
<stop offset="1" stop-color="#5792F0"/>
</linearGradient>
<linearGradient id="paint13_linear_8962_35194" x1="75.7452" y1="37.1677" x2="47.5096" y2="45.5748" gradientUnits="userSpaceOnUse">
<stop stop-color="#5792F0"/>
<stop offset="1" stop-color="#BFD4FA" stop-opacity="0.5"/>
</linearGradient>
<linearGradient id="paint14_linear_8962_35194" x1="68.4979" y1="57.9539" x2="58.6984" y2="65.5926" gradientUnits="userSpaceOnUse">
<stop stop-color="#5792F0"/>
<stop offset="1" stop-color="#BFD4FA" stop-opacity="0.5"/>
</linearGradient>
<linearGradient id="paint15_linear_8962_35194" x1="143.714" y1="16.183" x2="103.088" y2="45.154" gradientUnits="userSpaceOnUse">
<stop stop-color="#5792F0"/>
<stop offset="1" stop-color="#BFD4FA" stop-opacity="0.5"/>
</linearGradient>
<linearGradient id="paint16_linear_8962_35194" x1="147.045" y1="25.4087" x2="134.938" y2="37.3671" gradientUnits="userSpaceOnUse">
<stop stop-color="#5792F0"/>
<stop offset="1" stop-color="#BFD4FA" stop-opacity="0.5"/>
</linearGradient>
<linearGradient id="paint17_linear_8962_35194" x1="136.759" y1="59.0616" x2="107.175" y2="95.9957" gradientUnits="userSpaceOnUse">
<stop stop-color="#5792F0"/>
<stop offset="1" stop-color="#BFD4FA" stop-opacity="0.5"/>
</linearGradient>
<linearGradient id="paint18_linear_8962_35194" x1="87.1476" y1="42.3474" x2="66.5294" y2="36.5302" gradientUnits="userSpaceOnUse">
<stop stop-color="#5792F0"/>
<stop offset="1" stop-color="#F3F8FF"/>
</linearGradient>
<linearGradient id="paint19_linear_8962_35194" x1="126.649" y1="69.264" x2="85.2872" y2="55.7865" gradientUnits="userSpaceOnUse">
<stop stop-color="#5792F0"/>
<stop offset="1" stop-color="#F3F8FF"/>
</linearGradient>
<linearGradient id="paint20_linear_8962_35194" x1="78.9157" y1="53.9812" x2="74.3554" y2="46.375" gradientUnits="userSpaceOnUse">
<stop stop-color="#909AA9"/>
<stop offset="1" stop-color="#C0C7D2"/>
</linearGradient>
<linearGradient id="paint21_linear_8962_35194" x1="108.94" y1="81.2699" x2="98.4617" y2="89.3531" gradientUnits="userSpaceOnUse">
<stop stop-color="#5792F0"/>
<stop offset="1" stop-color="#BFD4FA" stop-opacity="0.5"/>
</linearGradient>
</defs>
</svg>
