<svg fill="none" xmlns="http://www.w3.org/2000/svg" viewBox="0 0 66 18" class="design-iconfont">
  <rect width="66" height="18" rx="4" fill="url(#6wv9u1d7f__paint0_linear_2872_19290)"/>
  <g clip-path="url(#6wv9u1d7f__clip0_2872_19290)">
    <path d="M12.125 2.50518C12.6665 2.19257 13.3335 2.19257 13.875 2.50518L18.1872 4.99482C18.7286 5.30743 19.0622 5.88515 19.0622 6.51036V11.4896C19.0622 12.1149 18.7286 12.6926 18.1872 13.0052L13.875 15.4948C13.3335 15.8074 12.6665 15.8074 12.125 15.4948L7.81282 13.0052C7.27137 12.6926 6.93782 12.1149 6.93782 11.4896V6.51036C6.93782 5.88515 7.27137 5.30743 7.81282 4.99482L12.125 2.50518Z" fill="#2475FC"/>
    <path d="M12.125 3.38018C12.6665 3.06757 13.3335 3.06757 13.875 3.38018L17.4294 5.43232C17.9709 5.74493 18.3044 6.32265 18.3044 6.94786V11.0521C18.3044 11.6774 17.9709 12.2551 17.4294 12.5677L13.875 14.6198C13.3335 14.9324 12.6665 14.9324 12.125 14.6198L8.57059 12.5677C8.02914 12.2551 7.69559 11.6774 7.69559 11.0521V6.94786C7.69559 6.32265 8.02914 5.74493 8.57059 5.43232L12.125 3.38018Z" fill="#164799"/>
    <path d="M10.3551 11.6483L9.9375 7.75457L11.627 8.41142L13 6.35254L14.4111 8.41142L16.0625 7.75457L15.617 11.6483H10.3551Z" fill="#C0D4F8"/>
    <mask id="6wv9u1d7f__mnqp28klca" style="mask-type:alpha" maskUnits="userSpaceOnUse" x="9" y="6" width="8" height="6">
      <path d="M10.3551 11.6483L9.9375 7.75457L11.627 8.41142L13 6.35254L14.4111 8.41142L16.0625 7.75457L15.617 11.6483H10.3551Z" fill="#C0D4F8"/>
    </mask>
    <g mask="url(#6wv9u1d7f__mnqp28klca)">
      <path d="M9.93774 7.75488L10.3554 11.6486H15.6173L17.1499 10.4573L11.6272 8.41174L9.93774 7.75488Z" fill="#6C99ED"/>
      <path d="M16.0623 7.75488L15.6446 11.6486H10.3827L8.85011 10.4573L14.3728 8.41174L16.0623 7.75488Z" fill="#6C99ED"/>
      <path fill-rule="evenodd" clip-rule="evenodd" d="M10.3527 11.625L10.1748 9.9663L12.9999 8.91992L15.825 9.9663L15.6471 11.625L15.6171 11.6483H10.3827L10.3527 11.625Z" fill="#4F8CFF"/>
    </g>
  </g>
  <path d="M30.6398 3.28275H31.2638C32.5657 4.94801 34.1433 6.25643 35.9964 7.20801L35.419 8.02875C33.5618 7.0177 32.0474 5.68549 30.8503 4.04401C29.3481 5.59033 27.4544 6.92254 25.1694 8.04064L24.8228 7.21991C27.0744 6.17317 29.0144 4.85285 30.6398 3.28275ZM30.4371 6.42296H31.3131L30.9562 9.09928H34.2322L34.1228 9.92001H30.8468L30.4566 12.8461H34.5966L34.4856 13.6787H24.5016L24.6126 12.8461H26.4246L27.0527 8.1358H27.9047L27.2766 12.8461H29.5806L30.4371 6.42296ZM41.2007 3.36601H42.0767L40.8158 12.8223H42.5198L43.7807 3.36601H44.6567L43.3958 12.8223H46.9958L46.8848 13.655H36.2528L36.3638 12.8223H39.9398L41.2007 3.36601ZM46.876 5.53086L47.6155 5.74496C46.8595 7.81464 46.0184 9.62264 45.0787 11.1809L44.3352 10.9073C45.2183 9.5037 46.0698 7.70759 46.876 5.53086ZM38.3712 5.50707C38.7811 7.11285 39.0992 8.95654 39.3137 11.0381L38.4947 11.2403C38.3165 9.33717 38.0207 7.50538 37.6075 5.74496L38.3712 5.50707ZM52.4191 3.37791H53.2591L52.8388 6.53001H53.5468L53.4342 7.37454H50.6022L50.5213 7.98117C50.4721 8.34991 50.4126 8.70675 50.3546 9.0517H52.6586L51.9845 14.107H51.1325L51.6971 9.87243H50.1971C49.8152 11.6566 49.3104 13.0126 48.6676 13.9642L48.0957 13.3933C48.7983 12.2633 49.3274 10.4553 49.6693 7.98117L50.2513 3.6158H51.1033L50.7148 6.53001H51.9988L52.4191 3.37791ZM54.8927 7.50538L54.7183 8.8138C54.3753 11.0262 53.7446 12.7866 52.8501 14.0951L52.3342 13.4646C53.0832 12.3465 53.615 10.7883 53.9263 8.8138L54.5559 4.09159C56.4431 4.0678 58.1804 3.81801 59.7558 3.34222L60.0847 4.11538C58.6148 4.5198 56.9991 4.7577 55.2496 4.82907L55.0006 6.69654H59.4406L59.3438 7.42212C58.8474 9.07549 58.1338 10.4672 57.2152 11.5972C57.6985 12.3822 58.3392 12.977 59.1341 13.4052L58.6022 14.1545C57.764 13.6906 57.0905 13.0721 56.5952 12.2871C55.8337 13.0483 54.9576 13.6787 53.9806 14.1664L53.6621 13.4052C54.6271 12.9175 55.4656 12.299 56.1879 11.5615C55.6514 10.4553 55.3522 9.09928 55.2887 7.50538H54.8927ZM56.0687 7.50538C56.1599 8.80191 56.4084 9.90812 56.8127 10.8359C57.5395 9.88433 58.1086 8.76622 58.4927 7.50538H56.0687Z" fill="#2475FC"/>
  <defs>
    <linearGradient id="6wv9u1d7f__paint0_linear_2872_19290" x1="66" y1="9.5" x2="1.97015" y2="9.5" gradientUnits="userSpaceOnUse">
      <stop stop-color="#D4DFEE"/>
      <stop offset="1" stop-color="#D4DFEE" stop-opacity="0"/>
    </linearGradient>
    <clipPath id="6wv9u1d7f__clip0_2872_19290">
      <path fill="#fff" transform="translate(6 2)" d="M0 0H14V14H0z"/>
    </clipPath>
  </defs>
</svg>
