<svg fill="none" xmlns="http://www.w3.org/2000/svg" viewBox="0 0 48 48" class="design-iconfont">
  <rect width="48" height="48" rx="14.5882" fill="#4876FF"/>
  <g filter="url(#nip5rmbnj__filter0_d_953_14848)">
    <path d="M33.169 12.1348H21.28C19.0864 12.1348 17.2877 13.9335 17.2877 16.1709V25.2522C17.2877 27.4896 19.0864 29.2883 21.28 29.2883H29.3117L32.1195 31.8767C32.9092 32.6225 34.2692 32.0961 34.2692 30.9993V29.2444C36.4188 29.2444 37.1613 27.4457 37.1613 25.2522V16.1709C37.1613 13.9335 35.3626 12.1348 33.169 12.1348Z" fill="#D6E0FF"/>
    <path d="M28.6415 13.2969H15.314C12.8551 13.2969 10.8387 15.3132 10.8387 17.8213V28.0014C10.8387 30.4603 12.8059 32.4767 15.2157 32.5258V34.493C15.2157 35.7225 16.7402 36.3126 17.6254 35.4766L20.7729 32.575H28.6415C31.1005 32.575 33.1168 30.5587 33.1168 28.0506V17.8213C33.1168 15.3132 31.1005 13.2969 28.6415 13.2969Z" fill="#EBF0FF"/>
    <path d="M14.3933 26.4845C14.3933 26.6827 14.3407 26.8344 14.2354 26.9397C14.1301 27.045 13.9784 27.0977 13.7802 27.0977H13.7616C13.5634 27.0977 13.4117 27.045 13.3064 26.9397C13.2011 26.8344 13.1484 26.6827 13.1484 26.4845V21.2076C13.1484 20.8855 13.2321 20.6409 13.3993 20.4737C13.5727 20.3002 13.8204 20.2135 14.1425 20.2135H14.3933V26.4845ZM16.7531 20.2135C16.9513 20.2135 17.0999 20.2631 17.199 20.3622C17.2981 20.4613 17.3477 20.6099 17.3477 20.8081V20.8267C17.3477 21.0187 17.2981 21.1673 17.199 21.2726C17.0999 21.3717 16.9513 21.4213 16.7531 21.4213H14.2447V20.2135H16.7531ZM16.4465 23.0471C16.6447 23.0471 16.7933 23.0966 16.8924 23.1957C16.9915 23.2948 17.0411 23.4435 17.0411 23.6417V23.6602C17.0411 23.8522 16.9915 24.0009 16.8924 24.1062C16.7933 24.2053 16.6447 24.2548 16.4465 24.2548H14.2447V23.0471H16.4465Z" fill="#4876FF"/>
    <path d="M23.0513 26.3637C23.1194 26.5557 23.107 26.726 23.0141 26.8747C22.9212 27.0233 22.7726 27.0977 22.5682 27.0977H22.531C22.3266 27.0977 22.1625 27.0388 22.0386 26.9211C21.9209 26.7973 21.8219 26.6177 21.7413 26.3823L19.939 21.4213H20.4593L18.6569 26.3823C18.5702 26.6177 18.468 26.7973 18.3504 26.9211C18.2389 27.0388 18.0778 27.0977 17.8673 27.0977H17.8301C17.6319 27.0977 17.4833 27.0233 17.3842 26.8747C17.2913 26.726 17.2789 26.5557 17.347 26.3637L19.3909 20.7524C19.5271 20.3931 19.7935 20.2135 20.1898 20.2135H20.2084C20.6048 20.2135 20.8711 20.3931 21.0074 20.7524L23.0513 26.3637ZM21.732 24.1247V25.3325H18.6662V24.1247H21.732Z" fill="#4876FF"/>
    <path d="M30.066 26.373C30.1837 26.5278 30.2426 26.6734 30.2426 26.8097C30.2488 26.9397 30.2023 27.0419 30.1032 27.1162C30.0041 27.1967 29.8709 27.237 29.7037 27.237H29.6851C29.4993 27.237 29.3445 27.1967 29.2206 27.1162C29.1029 27.0419 28.9791 26.9057 28.849 26.7075L27.8828 25.2675C27.8085 25.156 27.7775 25.0476 27.7899 24.9423C27.8023 24.837 27.8488 24.7503 27.9293 24.6822C28.0098 24.614 28.1089 24.58 28.2266 24.58H28.2451C28.4124 24.58 28.5548 24.6109 28.6725 24.6729C28.7902 24.7348 28.9017 24.8339 29.0069 24.9702L30.066 26.373ZM27.2789 26.0293C27.7249 26.0293 28.1213 25.9302 28.4681 25.732C28.8211 25.5276 29.0968 25.2489 29.2949 24.8958C29.4931 24.5366 29.5922 24.1309 29.5922 23.6788C29.5922 23.2205 29.4931 22.8117 29.2949 22.4525C29.0968 22.0871 28.8211 21.8022 28.4681 21.5978C28.1213 21.3934 27.7249 21.2912 27.2789 21.2912C26.833 21.2912 26.4335 21.3934 26.0805 21.5978C25.7337 21.8022 25.4611 22.0871 25.2629 22.4525C25.0648 22.8117 24.9657 23.2205 24.9657 23.6788C24.9657 24.1309 25.0648 24.5366 25.2629 24.8958C25.4611 25.2489 25.7337 25.5276 26.0805 25.732C26.4335 25.9302 26.833 26.0293 27.2789 26.0293ZM27.2789 27.2091C26.6348 27.2091 26.0371 27.0512 25.4859 26.7353C24.9409 26.4195 24.5042 25.9921 24.176 25.4533C23.8539 24.9144 23.6929 24.3229 23.6929 23.6788C23.6929 23.0347 23.8539 22.4401 24.176 21.8951C24.5042 21.3438 24.9409 20.9103 25.4859 20.5944C26.0371 20.2724 26.6348 20.1113 27.2789 20.1113C27.9231 20.1113 28.5177 20.2724 29.0627 20.5944C29.6139 20.9103 30.0506 21.3438 30.3726 21.8951C30.7009 22.4401 30.865 23.0347 30.865 23.6788C30.865 24.3229 30.704 24.9144 30.3819 25.4533C30.066 25.9921 29.6325 26.4195 29.0813 26.7353C28.5362 27.0512 27.9355 27.2091 27.2789 27.2091Z" fill="#4876FF"/>
  </g>
  <defs>
    <filter id="nip5rmbnj__filter0_d_953_14848" x="6.71375" y="12.1348" width="34.5725" height="31.9824" filterUnits="userSpaceOnUse" color-interpolation-filters="sRGB">
      <feFlood flood-opacity="0" result="BackgroundImageFix"/>
      <feColorMatrix in="SourceAlpha" values="0 0 0 0 0 0 0 0 0 0 0 0 0 0 0 0 0 0 127 0" result="hardAlpha"/>
      <feOffset dy="4.125"/>
      <feGaussianBlur stdDeviation="2.0625"/>
      <feComposite in2="hardAlpha" operator="out"/>
      <feColorMatrix values="0 0 0 0 0.502518 0 0 0 0 0.502518 0 0 0 0 0.502518 0 0 0 0.14 0"/>
      <feBlend in2="BackgroundImageFix" result="effect1_dropShadow_953_14848"/>
      <feBlend in="SourceGraphic" in2="effect1_dropShadow_953_14848" result="shape"/>
    </filter>
  </defs>
</svg>
