<svg width="40" height="40" viewBox="0 0 40 40" fill="none" xmlns="http://www.w3.org/2000/svg">
<rect width="40" height="40" rx="8" fill="#FE9519"/>
<path d="M23.4625 9.57031C20.6056 9.57031 18.2893 10.3888 18.2893 11.3986V14.4734C18.2893 14.5308 18.2988 14.5875 18.3146 14.6435C18.5665 15.5343 20.7745 16.2309 23.4625 16.2309C26.1505 16.2309 28.3585 15.5343 28.6104 14.6435C28.6261 14.5875 28.6357 14.5308 28.6357 14.4734V11.3986C28.6357 10.3888 26.3195 9.57031 23.4625 9.57031ZM27.7128 11.6411C27.4947 11.7996 27.171 11.9521 26.7766 12.0821C25.8835 12.3768 24.7065 12.5392 23.4625 12.5392C22.2185 12.5392 21.0415 12.3768 20.1484 12.0821C19.754 11.9521 19.4303 11.7996 19.2122 11.6411C19.044 11.519 18.9873 11.4274 18.9779 11.3986C18.9873 11.37 19.044 11.2784 19.2122 11.1562C19.4303 10.9978 19.754 10.8453 20.1484 10.7151C21.0415 10.4204 22.2185 10.2581 23.4625 10.2581C24.7065 10.2581 25.8835 10.4204 26.7767 10.7151C27.171 10.8453 27.4947 10.9978 27.7128 11.1562C27.881 11.2784 27.9377 11.37 27.9471 11.3986C27.9377 11.4273 27.881 11.519 27.7128 11.6411ZM25.8208 16.3874C25.113 16.5158 24.3129 16.5899 23.4625 16.5899C22.6121 16.5899 21.812 16.5158 21.1043 16.3874C19.4343 16.0843 18.2893 15.585 18.2893 14.8757V16.0822C17.667 15.9885 16.9819 15.9365 16.2627 15.9365C13.4057 15.9365 11.0894 16.755 11.0894 17.7648V20.8397C11.0894 20.8971 11.0989 20.9537 11.1147 21.0097C11.3667 21.9004 13.5746 22.5972 16.2627 22.5972C16.982 22.5972 17.6671 22.5472 18.2893 22.4571C18.3882 22.4427 18.4855 22.4274 18.5811 22.411C18.7313 22.3854 18.8773 22.3574 19.0187 22.327C20.3372 22.0443 21.2535 21.5647 21.4105 21.0097C21.4263 20.9537 21.4358 20.8971 21.4358 20.8397V21.2515C21.4358 21.8241 20.6895 22.2598 19.5231 22.566C19.3522 22.611 19.1723 22.653 18.9843 22.6924C18.8662 22.7171 18.7451 22.7407 18.6209 22.7633C18.5126 22.7828 18.4019 22.8011 18.2893 22.8182C17.6667 22.9124 16.9829 22.9656 16.2627 22.9656C15.4122 22.9656 14.6121 22.8917 13.9044 22.7633C12.2344 22.46 11.0894 21.9607 11.0894 21.2514V24.3263C11.0894 24.3836 11.0989 24.4403 11.1147 24.4963C11.3667 25.387 13.5747 26.0838 16.2627 26.0838C17.2812 26.0838 18.2307 25.9837 19.0311 25.8109C20.3429 25.5278 21.2541 25.0495 21.4106 24.4963C21.4263 24.4403 21.4358 24.3836 21.4358 24.3263V24.738C21.4358 25.3083 20.6956 25.7428 19.5376 26.0487C19.2553 26.1234 18.9482 26.1904 18.6209 26.2498C17.9131 26.3783 17.113 26.4522 16.2627 26.4522C15.4123 26.4522 14.6122 26.3783 13.9044 26.2498C12.2344 25.9466 11.0895 25.4473 11.0895 24.738V27.8129C11.0895 27.8702 11.0991 27.9268 11.1148 27.9829C11.3667 28.8736 13.5747 29.5703 16.2627 29.5703C18.9507 29.5703 21.1586 28.8736 21.4106 27.9829C21.4264 27.9268 21.4359 27.8702 21.4359 27.8129V26.5218C22.0582 26.612 22.7432 26.6619 23.4627 26.6619C26.1506 26.6619 28.3586 25.9653 28.6105 25.0746C28.6263 25.0186 28.6358 24.9618 28.6358 24.9045V21.8297C28.6358 22.539 27.4909 23.0383 25.8209 23.3415C25.1131 23.47 24.313 23.5439 23.4627 23.5439C22.7424 23.5439 22.0585 23.4906 21.4359 23.3964V23.0448C22.0582 23.135 22.7432 23.185 23.4627 23.185C26.1506 23.185 28.3586 22.4883 28.6105 21.5976C28.6263 21.5415 28.6358 21.4848 28.6358 21.4275V18.3526C28.6358 19.0619 27.4909 19.5614 25.8209 19.8645C25.1131 19.9929 24.313 20.0668 23.4627 20.0668C22.7424 20.0668 22.0585 20.0136 21.4359 19.9194V19.5678C22.0582 19.6581 22.7433 19.7079 23.4627 19.7079C26.1506 19.7079 28.3586 19.0113 28.6106 18.1206C28.6264 18.0646 28.6359 18.0078 28.6359 17.9505V14.8757C28.6357 15.585 27.4908 16.0843 25.8208 16.3874ZM20.5128 18.0072C20.2947 18.1658 19.971 18.3183 19.5767 18.4483C19.3201 18.533 19.0398 18.6068 18.7413 18.6689C18.6325 18.6915 18.5211 18.7126 18.4077 18.7321C18.3685 18.7389 18.329 18.7455 18.2893 18.7518C17.6626 18.8522 16.9736 18.9054 16.2625 18.9054C15.0186 18.9054 13.8416 18.7431 12.9484 18.4483C12.5541 18.3183 12.2304 18.1657 12.0123 18.0072C11.8441 17.8852 11.7874 17.7935 11.778 17.7648C11.7874 17.7361 11.8441 17.6445 12.0123 17.5224C12.2304 17.3639 12.5541 17.2114 12.9484 17.0813C13.8416 16.7866 15.0186 16.6243 16.2625 16.6243C16.9736 16.6243 17.6626 16.6774 18.2893 16.7779C18.7592 16.8531 19.194 16.9551 19.5767 17.0813C19.971 17.2114 20.2947 17.3639 20.5128 17.5223C20.681 17.6445 20.7377 17.7361 20.7471 17.7648C20.7377 17.7936 20.681 17.8852 20.5128 18.0072Z" fill="#FFF6EB"/>
</svg>
