<svg fill="none" xmlns="http://www.w3.org/2000/svg" viewBox="0 0 40 40" class="design-iconfont">
  <rect width="40" height="40" rx="8" fill="#4462FF"/>
  <path d="M28.733 11.8281C28.5714 11.5741 28.3609 11.3547 28.1139 11.1826C27.8668 11.0106 27.5881 10.8893 27.2938 10.8258L17.6133 8.73118C17.0227 8.6057 16.4065 8.71971 15.8999 9.04817C15.7617 9.13811 15.6339 9.24296 15.5186 9.36085C15.3422 8.98106 15.0803 8.64729 14.7533 8.3857C14.4263 8.12411 14.0432 7.94181 13.6339 7.8531L12.2118 7.56181C12.0448 7.52773 11.8712 7.56138 11.729 7.65537C11.5868 7.74935 11.4878 7.89597 11.4537 8.06297C11.4196 8.22997 11.4533 8.40366 11.5472 8.54585C11.6412 8.68803 11.7878 8.78705 11.9548 8.82114L13.3684 9.10813C13.737 9.18879 14.0585 9.41259 14.2622 9.7303C14.4658 10.048 14.5349 10.4336 14.4542 10.8022C14.3736 11.1709 14.1498 11.4924 13.8321 11.696C13.5143 11.8997 13.1288 11.9687 12.7601 11.8881L11.3166 11.5968C11.1496 11.5627 10.9759 11.5964 10.8337 11.6904C10.6916 11.7843 10.5925 11.931 10.5585 12.098C10.5244 12.265 10.558 12.4386 10.652 12.5808C10.746 12.723 10.8926 12.822 11.0596 12.8561L12.4731 13.1431C12.6616 13.1854 12.854 13.207 13.0471 13.2074C13.6882 13.2031 14.3071 12.9725 14.7947 12.5563C14.8503 12.7209 14.9265 12.8778 15.0218 13.0232C15.349 13.5337 15.8648 13.894 16.4567 14.0255L18.32 14.4281L22.2822 15.2848L20.9072 17.9791C20.8331 18.1301 20.8208 18.304 20.8728 18.4639C20.9247 18.6238 21.037 18.7572 21.1856 18.8358C21.2775 18.8811 21.3787 18.9046 21.4812 18.9043C21.599 18.9051 21.7147 18.8731 21.8153 18.8118C21.916 18.7505 21.9975 18.6624 22.0509 18.5574L23.5929 15.559L26.1629 16.1115C26.2701 16.1353 26.379 16.151 26.4885 16.1586L24.3125 20.4421C24.2603 20.5179 24.2249 20.6041 24.2089 20.6948C24.1929 20.7855 24.1965 20.8785 24.2196 20.9677C24.2427 21.0568 24.2847 21.14 24.3428 21.2115C24.4008 21.283 24.4735 21.3412 24.556 21.3821C24.6385 21.4231 24.7288 21.4458 24.8209 21.4488C24.9129 21.4517 25.0045 21.4349 25.0895 21.3993C25.1745 21.3638 25.2508 21.3104 25.3133 21.2428C25.3759 21.1752 25.4231 21.095 25.4519 21.0075L28.279 15.4776C28.5792 15.1681 28.7869 14.7809 28.8786 14.3596L29.0543 13.5543C29.118 13.2597 29.1224 12.9553 29.0673 12.6589C29.0121 12.3625 28.8985 12.0801 28.733 11.8281V11.8281ZM27.7221 13.1902C27.758 13.3797 27.7549 13.5745 27.7132 13.7627C27.6714 13.951 27.5917 14.1288 27.4791 14.2853C27.3664 14.4419 27.2231 14.5738 27.0579 14.6732C26.8926 14.7727 26.7089 14.8374 26.5178 14.8636C26.3268 14.8898 26.1324 14.8768 25.9465 14.8255C25.7606 14.7742 25.5871 14.6856 25.4365 14.5651C25.2859 14.4447 25.1614 14.2948 25.0705 14.1247C24.9797 13.9547 24.9243 13.7679 24.9079 13.5757C24.8803 13.3913 24.8904 13.2033 24.9375 13.0229C24.9846 12.8425 25.0678 12.6736 25.1821 12.5263C25.2945 12.3775 25.4353 12.2525 25.5963 12.1584C25.7573 12.0643 25.9353 12.003 26.1201 11.978C26.1857 11.9718 26.2516 11.9718 26.3172 11.978C26.66 11.9799 26.9907 12.1051 27.2487 12.3309C27.5067 12.5567 27.6748 12.8678 27.7221 13.2073V13.1902ZM16.1098 12.3335C16.0369 12.2229 15.9868 12.0989 15.9625 11.9687C15.9383 11.8385 15.9403 11.7048 15.9684 11.5754L16.144 10.7658C16.1943 10.5413 16.319 10.3404 16.4978 10.1958C16.6767 10.0512 16.8992 9.97126 17.1292 9.96908C17.2005 9.96276 17.2721 9.96276 17.3434 9.96908L18.5984 10.2561L17.9773 13.0532L16.7394 12.7833C16.6092 12.7542 16.4862 12.699 16.378 12.6209C16.2698 12.5429 16.1785 12.4437 16.1098 12.3293V12.3335Z" fill="#EBEEFF"/>
  <path d="M28.7287 21.8691H26.587C25.8929 20.7057 24.9087 19.7423 23.7307 19.0734C22.5526 18.4044 21.2211 18.0527 19.8663 18.0527C18.5116 18.0527 17.18 18.4044 16.002 19.0734C14.8239 19.7423 13.8397 20.7057 13.1456 21.8691H11.0039C10.7199 21.8691 10.4475 21.9819 10.2467 22.1827C10.0459 22.3836 9.93307 22.656 9.93307 22.94V26.9621C9.93126 27.1067 9.95877 27.2502 10.0139 27.3839C10.0691 27.5177 10.1508 27.6388 10.2541 27.7401C10.3574 27.8413 10.4801 27.9206 10.6148 27.9732C10.7496 28.0257 10.8936 28.0504 11.0382 28.0458H19.241V30.2646H17.3134C17.143 30.2646 16.9796 30.3323 16.8591 30.4528C16.7386 30.5733 16.6709 30.7367 16.6709 30.9071C16.6709 31.0775 16.7386 31.241 16.8591 31.3615C16.9796 31.482 17.143 31.5496 17.3134 31.5496H22.4535C22.6239 31.5496 22.7874 31.482 22.9078 31.3615C23.0283 31.241 23.096 31.0775 23.096 30.9071C23.096 30.7367 23.0283 30.5733 22.9078 30.4528C22.7874 30.3323 22.6239 30.2646 22.4535 30.2646H20.526V28.0458H28.7287C29.0127 28.0458 29.2851 27.933 29.4859 27.7321C29.6868 27.5313 29.7996 27.259 29.7996 26.9749V22.94C29.7996 22.656 29.6868 22.3836 29.4859 22.1828C29.2851 21.9819 29.0128 21.8691 28.7287 21.8691ZM19.8835 19.3376C20.8809 19.3392 21.8649 19.568 22.7607 20.0066C23.6565 20.4452 24.4407 21.0822 25.0536 21.8691H14.7134C15.3263 21.0822 16.1104 20.4452 17.0062 20.0066C17.902 19.568 18.886 19.3392 19.8835 19.3376Z" fill="#EBEEFF"/>
</svg>
