<svg width="62" height="62" viewBox="0 0 62 62" fill="none" xmlns="http://www.w3.org/2000/svg">
<path d="M0 14.5882C0 6.53137 6.53137 0 14.5882 0H47.4118C55.4686 0 62 6.53137 62 14.5882V47.4118C62 55.4686 55.4686 62 47.4118 62H14.5882C6.53137 62 0 55.4686 0 47.4118V14.5882Z" fill="#4876FF"/>
<g filter="url(#filter0_d_12561_5921)">
<path d="M47.301 29.0121H36.9984C36.7157 29.0022 36.434 29.0493 36.1699 29.1506C35.9058 29.252 35.6649 29.4054 35.4614 29.6019C35.2579 29.7984 35.0961 30.0338 34.9856 30.2942C34.875 30.5545 34.8181 30.8345 34.8181 31.1173C34.8181 31.4001 34.875 31.6801 34.9856 31.9404C35.0961 32.2008 35.2579 32.4362 35.4614 32.6327C35.6649 32.8292 35.9058 32.9826 36.1699 33.084C36.434 33.1853 36.7157 33.2324 36.9984 33.2225H47.301C47.5836 33.2324 47.8654 33.1853 48.1295 33.084C48.3935 32.9826 48.6345 32.8292 48.838 32.6327C49.0414 32.4362 49.2033 32.2008 49.3138 31.9404C49.4243 31.6801 49.4813 31.4001 49.4813 31.1173C49.4813 30.8345 49.4243 30.5545 49.3138 30.2942C49.2033 30.0338 49.0414 29.7984 48.838 29.6019C48.6345 29.4054 48.3935 29.252 48.1295 29.1506C47.8654 29.0493 47.5836 29.0022 47.301 29.0121ZM47.301 36.7661H32.9792C32.6965 36.7562 32.4148 36.8034 32.1507 36.9047C31.8866 37.006 31.6457 37.1595 31.4422 37.356C31.2387 37.5524 31.0769 37.7879 30.9664 38.0482C30.8559 38.3086 30.7989 38.5885 30.7989 38.8714C30.7989 39.1542 30.8559 39.4342 30.9664 39.6945C31.0769 39.9549 31.2387 40.1903 31.4422 40.3868C31.6457 40.5832 31.8866 40.7367 32.1507 40.8381C32.4148 40.9394 32.6965 40.9865 32.9792 40.9766H47.301C47.5836 40.9865 47.8654 40.9394 48.1295 40.8381C48.3935 40.7367 48.6345 40.5832 48.838 40.3868C49.0414 40.1903 49.2033 39.9549 49.3138 39.6945C49.4243 39.4342 49.4813 39.1542 49.4813 38.8714C49.4813 38.5885 49.4243 38.3086 49.3138 38.0482C49.2033 37.7879 49.0414 37.5524 48.838 37.356C48.6345 37.1595 48.3935 37.006 48.1295 36.9047C47.8654 36.8034 47.5836 36.7562 47.301 36.7661ZM47.301 44.0033H28.8359C28.5533 43.9934 28.2715 44.0405 28.0074 44.1418C27.7434 44.2432 27.5024 44.3967 27.2989 44.5931C27.0955 44.7896 26.9336 45.025 26.8231 45.2854C26.7126 45.5457 26.6556 45.8257 26.6556 46.1085C26.6556 46.3914 26.7126 46.6713 26.8231 46.9317C26.9336 47.192 27.0955 47.4274 27.2989 47.6239C27.5024 47.8204 27.7434 47.9739 28.0074 48.0752C28.2715 48.1765 28.5533 48.2237 28.8359 48.2137H47.301C47.5836 48.2237 47.8654 48.1765 48.1295 48.0752C48.3935 47.9739 48.6345 47.8204 48.838 47.6239C49.0414 47.4274 49.2033 47.192 49.3138 46.9317C49.4243 46.6713 49.4813 46.3914 49.4813 46.1085C49.4813 45.8257 49.4243 45.5457 49.3138 45.2854C49.2033 45.025 49.0414 44.7896 48.838 44.5931C48.6345 44.3967 48.3935 44.2432 48.1295 44.1418C47.8654 44.0405 47.5836 43.9934 47.301 44.0033ZM36.6805 19.5314C36.9781 19.0176 37.1696 18.4494 37.2437 17.8602C37.3177 17.2711 37.2728 16.6731 37.1115 16.1017C36.9503 15.5302 36.676 14.997 36.305 14.5334C35.9339 14.0699 35.4736 13.6855 34.9513 13.4031L33.3385 12.5347C32.3388 11.9932 31.1693 11.8569 30.0719 12.1537C28.9745 12.4505 28.0332 13.1579 27.4428 14.1294L24.1395 19.5573L33.4574 25.0833L36.6805 19.5314ZM22.9816 21.625L12.7307 39.6248L12.5188 49.4001C12.5159 49.5047 12.5413 49.6082 12.5921 49.6997C12.643 49.7911 12.7175 49.8673 12.8078 49.9201C12.8982 49.9729 13.001 50.0005 13.1057 50C13.2103 49.9995 13.3129 49.9708 13.4027 49.9171L21.971 44.8097L32.4183 26.8616L22.9816 21.625Z" fill="#EBF0FF"/>
</g>
<defs>
<filter id="filter0_d_12561_5921" x="8.51855" y="12" width="44.9626" height="46" filterUnits="userSpaceOnUse" color-interpolation-filters="sRGB">
<feFlood flood-opacity="0" result="BackgroundImageFix"/>
<feColorMatrix in="SourceAlpha" type="matrix" values="0 0 0 0 0 0 0 0 0 0 0 0 0 0 0 0 0 0 127 0" result="hardAlpha"/>
<feOffset dy="4"/>
<feGaussianBlur stdDeviation="2"/>
<feComposite in2="hardAlpha" operator="out"/>
<feColorMatrix type="matrix" values="0 0 0 0 0.0886636 0 0 0 0 0.202211 0 0 0 0 0.413084 0 0 0 0.14 0"/>
<feBlend mode="normal" in2="BackgroundImageFix" result="effect1_dropShadow_12561_5921"/>
<feBlend mode="normal" in="SourceGraphic" in2="effect1_dropShadow_12561_5921" result="shape"/>
</filter>
</defs>
</svg>
