<svg width="62" height="62" viewBox="0 0 62 62" fill="none" xmlns="http://www.w3.org/2000/svg">
<path d="M0 16C0 7.16344 7.16344 0 16 0H46C54.8366 0 62 7.16344 62 16V46C62 54.8366 54.8366 62 46 62H16C7.16344 62 0 54.8366 0 46V16Z" fill="#21A665"/>
<g filter="url(#filter0_d_11363_35451)">
<path d="M47.3011 29.0121H36.9985C36.7158 29.0022 36.4341 29.0493 36.17 29.1506C35.9059 29.252 35.665 29.4054 35.4615 29.6019C35.258 29.7984 35.0962 30.0338 34.9857 30.2942C34.8752 30.5545 34.8182 30.8345 34.8182 31.1173C34.8182 31.4001 34.8752 31.6801 34.9857 31.9404C35.0962 32.2008 35.258 32.4362 35.4615 32.6327C35.665 32.8292 35.9059 32.9826 36.17 33.084C36.4341 33.1853 36.7158 33.2324 36.9985 33.2225H47.3011C47.5838 33.2324 47.8655 33.1853 48.1296 33.084C48.3937 32.9826 48.6346 32.8292 48.8381 32.6327C49.0416 32.4362 49.2034 32.2008 49.3139 31.9404C49.4244 31.6801 49.4814 31.4001 49.4814 31.1173C49.4814 30.8345 49.4244 30.5545 49.3139 30.2942C49.2034 30.0338 49.0416 29.7984 48.8381 29.6019C48.6346 29.4054 48.3937 29.252 48.1296 29.1506C47.8655 29.0493 47.5838 29.0022 47.3011 29.0121ZM47.3011 36.7661H32.9793C32.6966 36.7562 32.4149 36.8034 32.1508 36.9047C31.8867 37.006 31.6458 37.1595 31.4423 37.356C31.2388 37.5524 31.077 37.7879 30.9665 38.0482C30.856 38.3086 30.799 38.5885 30.799 38.8714C30.799 39.1542 30.856 39.4342 30.9665 39.6945C31.077 39.9549 31.2388 40.1903 31.4423 40.3868C31.6458 40.5832 31.8867 40.7367 32.1508 40.8381C32.4149 40.9394 32.6966 40.9865 32.9793 40.9766H47.3011C47.5838 40.9865 47.8655 40.9394 48.1296 40.8381C48.3937 40.7367 48.6346 40.5832 48.8381 40.3868C49.0416 40.1903 49.2034 39.9549 49.3139 39.6945C49.4244 39.4342 49.4814 39.1542 49.4814 38.8714C49.4814 38.5885 49.4244 38.3086 49.3139 38.0482C49.2034 37.7879 49.0416 37.5524 48.8381 37.356C48.6346 37.1595 48.3937 37.006 48.1296 36.9047C47.8655 36.8034 47.5838 36.7562 47.3011 36.7661ZM47.3011 44.0033H28.8361C28.5534 43.9934 28.2716 44.0405 28.0075 44.1418C27.7435 44.2432 27.5025 44.3967 27.2991 44.5931C27.0956 44.7896 26.9338 45.025 26.8232 45.2854C26.7127 45.5457 26.6558 45.8257 26.6558 46.1085C26.6558 46.3914 26.7127 46.6713 26.8232 46.9317C26.9338 47.192 27.0956 47.4274 27.2991 47.6239C27.5025 47.8204 27.7435 47.9739 28.0075 48.0752C28.2716 48.1765 28.5534 48.2237 28.8361 48.2137H47.3011C47.5838 48.2237 47.8655 48.1765 48.1296 48.0752C48.3937 47.9739 48.6346 47.8204 48.8381 47.6239C49.0416 47.4274 49.2034 47.192 49.3139 46.9317C49.4244 46.6713 49.4814 46.3914 49.4814 46.1085C49.4814 45.8257 49.4244 45.5457 49.3139 45.2854C49.2034 45.025 49.0416 44.7896 48.8381 44.5931C48.6346 44.3967 48.3937 44.2432 48.1296 44.1418C47.8655 44.0405 47.5838 43.9934 47.3011 44.0033ZM36.6806 19.5314C36.9782 19.0176 37.1697 18.4494 37.2438 17.8602C37.3178 17.2711 37.2729 16.6731 37.1117 16.1017C36.9504 15.5302 36.6761 14.997 36.3051 14.5334C35.934 14.0699 35.4737 13.6855 34.9514 13.4031L33.3386 12.5347C32.3389 11.9932 31.1694 11.8569 30.072 12.1537C28.9746 12.4505 28.0333 13.1579 27.4429 14.1294L24.1397 19.5573L33.4575 25.0833L36.6806 19.5314ZM22.9817 21.625L12.7308 39.6248L12.5189 49.4001C12.5161 49.5047 12.5414 49.6082 12.5923 49.6997C12.6431 49.7911 12.7176 49.8673 12.8079 49.9201C12.8983 49.9729 13.0012 50.0005 13.1058 50C13.2105 49.9995 13.3131 49.9708 13.4029 49.9171L21.9711 44.8097L32.4184 26.8616L22.9817 21.625Z" fill="#EBFFF8"/>
</g>
<defs>
<filter id="filter0_d_11363_35451" x="8.51868" y="12" width="44.9628" height="46" filterUnits="userSpaceOnUse" color-interpolation-filters="sRGB">
<feFlood flood-opacity="0" result="BackgroundImageFix"/>
<feColorMatrix in="SourceAlpha" type="matrix" values="0 0 0 0 0 0 0 0 0 0 0 0 0 0 0 0 0 0 127 0" result="hardAlpha"/>
<feOffset dy="4"/>
<feGaussianBlur stdDeviation="2"/>
<feComposite in2="hardAlpha" operator="out"/>
<feColorMatrix type="matrix" values="0 0 0 0 0.0886636 0 0 0 0 0.202211 0 0 0 0 0.413084 0 0 0 0.14 0"/>
<feBlend mode="normal" in2="BackgroundImageFix" result="effect1_dropShadow_11363_35451"/>
<feBlend mode="normal" in="SourceGraphic" in2="effect1_dropShadow_11363_35451" result="shape"/>
</filter>
</defs>
</svg>
