<svg fill="none" xmlns="http://www.w3.org/2000/svg" viewBox="0 0 34 34" class="design-iconfont">
  <path d="M29.153 14.4266C29.4711 13.4713 29.5815 12.4591 29.4767 11.4577C29.3719 10.4563 29.0544 9.4889 28.5455 8.62016C27.791 7.30614 26.6386 6.26579 25.2546 5.64921C23.8705 5.03263 22.3263 4.87172 20.8448 5.18969C20.1766 4.43663 19.3552 3.83499 18.4357 3.42504C17.5161 3.0151 16.5196 2.80631 15.5128 2.81264C13.9982 2.80898 12.5215 3.28643 11.2956 4.17615C10.0698 5.06586 9.15817 6.32188 8.69219 7.7631C7.70546 7.96508 6.77326 8.37553 5.958 8.96695C5.14274 9.55838 4.46323 10.3171 3.96495 11.1924C3.20448 12.5028 2.87987 14.0209 3.03793 15.5277C3.19599 17.0345 3.82855 18.4521 4.84438 19.5762C4.52631 20.5314 4.41597 21.5436 4.52075 22.545C4.62553 23.5464 4.94301 24.5138 5.45193 25.3826C6.20645 26.6965 7.35886 27.7368 8.74292 28.3534C10.127 28.97 11.6711 29.1309 13.1526 28.813C13.8208 29.5661 14.6422 30.1677 15.5617 30.5777C16.4813 30.9876 17.4778 31.1964 18.4846 31.1901C20 31.194 21.4775 30.7164 22.7038 29.8261C23.9301 28.9358 24.8419 27.6789 25.3075 26.2368C26.2942 26.0348 27.2264 25.6244 28.0417 25.033C28.8569 24.4415 29.5364 23.6828 30.0347 22.8075C30.7942 21.4972 31.1181 19.9795 30.9597 18.4733C30.8012 16.9671 30.1686 15.5501 29.153 14.4266ZM18.4868 29.335C17.2429 29.3367 16.0379 28.9011 15.0826 28.1042C15.1257 28.0807 15.2012 28.0393 15.2505 28.0091L20.9008 24.7454C21.0426 24.6647 21.1604 24.5477 21.242 24.4064C21.3236 24.2651 21.3661 24.1046 21.3651 23.9415V15.9756L23.7534 17.3546C23.7659 17.3609 23.7767 17.3701 23.7848 17.3816C23.7929 17.393 23.798 17.4062 23.7998 17.4201V24.017C23.798 25.426 23.2379 26.7769 22.242 27.7736C21.2462 28.7704 19.8958 29.3319 18.4868 29.335ZM7.06087 24.455C6.43777 23.3784 6.2132 22.1169 6.42647 20.8914C6.46843 20.9166 6.54172 20.9613 6.5943 20.9915L12.2446 24.2553C12.3854 24.3376 12.5456 24.381 12.7087 24.381C12.8718 24.381 13.0319 24.3376 13.1727 24.2553L20.0711 20.2721V23.0301C20.0719 23.0442 20.0692 23.0583 20.0633 23.0711C20.0573 23.0838 20.0483 23.095 20.037 23.1034L14.3252 26.4013C13.1034 27.1049 11.6524 27.2952 10.2906 26.9303C8.92869 26.5655 7.76718 25.6752 7.06087 24.455ZM5.57445 12.12C6.19485 11.0419 7.17476 10.2165 8.34255 9.78826C8.34255 9.83693 8.33975 9.92309 8.33975 9.98294V16.5105C8.33876 16.6735 8.3812 16.8338 8.46271 16.975C8.54421 17.1162 8.66185 17.2331 8.80352 17.3138L15.7019 21.2964L13.3137 22.6755C13.3019 22.6832 13.2884 22.6879 13.2743 22.6892C13.2603 22.6905 13.2461 22.6882 13.2331 22.6827L7.52073 19.382C6.30112 18.6757 5.41134 17.5146 5.0465 16.1533C4.68165 14.792 4.87151 13.3415 5.57445 12.12ZM25.1961 16.6861L18.2977 12.7029L20.686 11.3245C20.6978 11.3167 20.7113 11.312 20.7253 11.3107C20.7394 11.3095 20.7535 11.3117 20.7665 11.3172L26.4789 14.6151C27.3541 15.1206 28.0671 15.865 28.5345 16.7611C29.0019 17.6572 29.2043 18.6679 29.1181 19.6748C29.0319 20.6818 28.6606 21.6434 28.0476 22.447C27.4347 23.2505 26.6055 23.8629 25.6571 24.2122V17.4895C25.6584 17.3267 25.6165 17.1665 25.5354 17.0254C25.4544 16.8842 25.3373 16.7671 25.1961 16.6861ZM27.5732 13.1085C27.5312 13.0828 27.4579 13.0386 27.4054 13.0084L21.755 9.74463C21.6142 9.66245 21.4541 9.61915 21.291 9.61915C21.1279 9.61915 20.9678 9.66245 20.8269 9.74463L13.9285 13.7278V10.9698C13.9277 10.9557 13.9304 10.9417 13.9364 10.9289C13.9423 10.9161 13.9514 10.905 13.9626 10.8965L19.6745 7.60142C20.5496 7.09685 21.5502 6.8519 22.5594 6.89522C23.5685 6.93854 24.5445 7.26835 25.3731 7.84605C26.2017 8.42376 26.8486 9.22548 27.2383 10.1574C27.6279 11.0894 27.7441 12.113 27.5732 13.1085ZM12.6301 18.0243L10.2413 16.6453C10.2287 16.639 10.218 16.6298 10.2099 16.6184C10.2018 16.607 10.1966 16.5937 10.1948 16.5798V9.98294C10.1955 8.97256 10.4839 7.98326 11.0264 7.13085C11.5689 6.27844 12.343 5.59819 13.258 5.16972C14.173 4.74126 15.1912 4.5823 16.1933 4.71147C17.1954 4.84063 18.14 5.25256 18.9165 5.89905C18.8734 5.92255 18.7984 5.96395 18.7486 5.99416L13.0983 9.25791C12.9565 9.33851 12.8388 9.45541 12.7572 9.59661C12.6756 9.7378 12.6331 9.89819 12.634 10.0613L12.6301 18.0243ZM13.9274 15.2271L16.9998 13.4526L20.0723 15.226V18.7739L16.9998 20.5474L13.9274 18.7739V15.2271Z" fill="#202123"/>
</svg>
