<svg fill="none" xmlns="http://www.w3.org/2000/svg" viewBox="0 0 80 80" class="design-iconfont">
  <g opacity=".4" clip-path="url(#ewvxwxtai__clip0_1039_22309)">
    <g filter="url(#ewvxwxtai__filter0_f_1039_22309)">
      <path fill-rule="evenodd" clip-rule="evenodd" d="M5.65234 71.5447L52.3235 98.4916L85.2475 67.2035L31.7537 56.8828L5.65234 71.5447Z" fill="#595656" fill-opacity=".316569"/>
    </g>
    <path fill-rule="evenodd" clip-rule="evenodd" d="M44.1755 93.7893L0.000976562 67.6891V50.9141L44.1755 77.0142V93.7893Z" fill="#5DA4FF"/>
    <path fill-rule="evenodd" clip-rule="evenodd" d="M28.9651 74.9838C28.8197 75.2348 28.7411 75.5162 28.7341 75.8035L28.7177 76.8296C28.713 78.0492 29.4119 79.1761 30.5412 79.7613L36.7739 82.9955C37.691 83.4728 38.8414 83.1515 39.3421 82.279C39.4488 82.0949 39.5192 81.8944 39.552 81.6868L39.5766 80.1448C39.4805 79.0378 38.8038 78.041 37.7648 77.5016L31.5333 74.2673C31.246 74.1172 30.9352 74.0469 30.628 74.0469C29.9584 74.0469 29.3087 74.3846 28.9651 74.9838Z" fill="url(#ewvxwxtai__paint0_linear_1039_22309)"/>
    <path fill-rule="evenodd" clip-rule="evenodd" d="M44.1757 93.7893L88.349 67.6891V50.9141L44.1757 77.0142V93.7893Z" fill="url(#ewvxwxtai__paint1_linear_1039_22309)"/>
    <path fill-rule="evenodd" clip-rule="evenodd" d="M0 50.9159L44.0948 77.0055L88.3374 50.9159L44.0948 26.4316L0 50.9159Z" fill="url(#ewvxwxtai__paint2_linear_1039_22309)"/>
    <path fill-rule="evenodd" clip-rule="evenodd" d="M21.5385 71.7371C21.3427 72.7831 21.9103 74.1094 22.8085 74.6993C23.7044 75.2879 24.591 74.9174 24.788 73.8702C24.9838 72.8242 24.4151 71.4979 23.518 70.9092C23.2295 70.7192 22.9422 70.6289 22.6784 70.6289C22.1225 70.6289 21.671 71.0276 21.5385 71.7371Z" fill="url(#ewvxwxtai__paint3_linear_1039_22309)"/>
    <path fill-rule="evenodd" clip-rule="evenodd" d="M44.8253 69.1057L0.650757 43.0055V26.2305L44.8253 52.3306V69.1057Z" fill="#5DA4FF"/>
    <path fill-rule="evenodd" clip-rule="evenodd" d="M28.9685 50.5882C28.8231 50.8555 28.7445 51.1546 28.7375 51.4583L28.7199 52.5465C28.7152 53.8412 29.4153 55.0373 30.5445 55.6588L36.7761 59.0912C37.6943 59.5966 38.8447 59.2566 39.3455 58.3313C39.4522 58.1355 39.5214 57.9221 39.5554 57.7028L39.58 56.0657C39.4827 54.8907 38.8072 53.833 37.7682 53.2595L31.5366 49.8283C31.2482 49.6688 30.9374 49.5938 30.6313 49.5938C29.9617 49.5938 29.3121 49.9526 28.9685 50.5882Z" fill="url(#ewvxwxtai__paint4_linear_1039_22309)"/>
    <path fill-rule="evenodd" clip-rule="evenodd" d="M44.8254 69.1057L89 43.0055V26.2305L44.8254 52.3306V69.1057Z" fill="url(#ewvxwxtai__paint5_linear_1039_22309)"/>
    <path fill-rule="evenodd" clip-rule="evenodd" d="M0.650757 26.4273L44.7456 52.212L88.9881 26.5856L44.0267 0L0.650757 26.4273Z" fill="url(#ewvxwxtai__paint6_linear_1039_22309)"/>
    <path fill-rule="evenodd" clip-rule="evenodd" d="M21.541 47.284C21.3451 48.33 21.9127 49.6563 22.811 50.2461C23.7069 50.8348 24.5934 50.4642 24.7904 49.417C24.9863 48.3722 24.4175 47.0459 23.5204 46.4561C23.232 46.2661 22.9435 46.1758 22.6796 46.1758C22.125 46.1758 21.6735 46.5757 21.541 47.284Z" fill="url(#ewvxwxtai__paint7_linear_1039_22309)"/>
  </g>
  <defs>
    <linearGradient id="ewvxwxtai__paint0_linear_1039_22309" x1="28.7172" y1="342.837" x2="816.168" y2="1028.5" gradientUnits="userSpaceOnUse">
      <stop stop-color="#FFF8FC"/>
      <stop offset="1" stop-color="#3F84EF"/>
    </linearGradient>
    <linearGradient id="ewvxwxtai__paint1_linear_1039_22309" x1="2644.98" y1="1183.37" x2="1771.7" y2="4113.42" gradientUnits="userSpaceOnUse">
      <stop stop-color="#3E83EE"/>
      <stop offset="1" stop-color="#5986F0"/>
    </linearGradient>
    <linearGradient id="ewvxwxtai__paint2_linear_1039_22309" x1="7114.17" y1="1868.08" x2="1922.38" y2="6124.55" gradientUnits="userSpaceOnUse">
      <stop stop-color="#459FFF"/>
      <stop offset="1" stop-color="#4B95F2"/>
    </linearGradient>
    <linearGradient id="ewvxwxtai__paint3_linear_1039_22309" x1="88.7473" y1="276.57" x2="287.59" y2="290.119" gradientUnits="userSpaceOnUse">
      <stop stop-color="#C5DCFA"/>
      <stop offset="1" stop-color="#FFF9FC"/>
    </linearGradient>
    <linearGradient id="ewvxwxtai__paint4_linear_1039_22309" x1="28.7204" y1="334.843" x2="856.157" y2="1013.75" gradientUnits="userSpaceOnUse">
      <stop stop-color="#FFF8FC"/>
      <stop offset="1" stop-color="#3F84EF"/>
    </linearGradient>
    <linearGradient id="ewvxwxtai__paint5_linear_1039_22309" x1="2645.64" y1="1158.69" x2="1772.36" y2="4088.74" gradientUnits="userSpaceOnUse">
      <stop stop-color="#3E83EE"/>
      <stop offset="1" stop-color="#5986F0"/>
    </linearGradient>
    <linearGradient id="ewvxwxtai__paint6_linear_1039_22309" x1="7114.82" y1="1901.34" x2="1790.78" y2="6129.21" gradientUnits="userSpaceOnUse">
      <stop stop-color="#459FFF"/>
      <stop offset="1" stop-color="#4B95F2"/>
    </linearGradient>
    <linearGradient id="ewvxwxtai__paint7_linear_1039_22309" x1="88.7497" y1="252.118" x2="287.592" y2="265.666" gradientUnits="userSpaceOnUse">
      <stop stop-color="#C5DCFA"/>
      <stop offset="1" stop-color="#FFF9FC"/>
    </linearGradient>
    <clipPath id="ewvxwxtai__clip0_1039_22309">
      <path fill="#fff" d="M0 0H80V80H0z"/>
    </clipPath>
    <filter id="ewvxwxtai__filter0_f_1039_22309" x="-2.16016" y="49.0703" width="95.2201" height="57.2344" filterUnits="userSpaceOnUse" color-interpolation-filters="sRGB">
      <feFlood flood-opacity="0" result="BackgroundImageFix"/>
      <feBlend in="SourceGraphic" in2="BackgroundImageFix" result="shape"/>
      <feGaussianBlur stdDeviation="3.90625" result="effect1_foregroundBlur_1039_22309"/>
    </filter>
  </defs>
</svg>
