<?xml version="1.0" standalone="no"?><!DOCTYPE svg PUBLIC "-//W3C//DTD SVG 1.1//EN" "http://www.w3.org/Graphics/SVG/1.1/DTD/svg11.dtd"><svg t="1747378274714" class="icon" viewBox="0 0 1024 1024" version="1.1" xmlns="http://www.w3.org/2000/svg" p-id="2545" xmlns:xlink="http://www.w3.org/1999/xlink" width="256" height="256"><path d="M512.5 981.2c-49.3 0-98.2-7.8-145.3-23.3-46.4-15.2-90.1-37.5-129.7-66.3-40.1-29.1-75.1-64-104.1-104-30-41.3-52.9-87.1-68.3-136.3C46.2 590.9 39.8 528.5 45.8 466c5.9-60.4 23.1-118.3 51.3-172.2 28.2-53.9 65.9-101.1 112.1-140.3 47.8-40.6 102.7-70.7 163-89.5 45.3-14.1 92.2-21.3 139.2-21.3 52.5 0 104.3 8.8 154.1 26.3 14.3 5 25.6 15.9 31.2 30 5.5 14.1 4.7 29.8-2.3 43.2-9 17.2-26.6 27.8-46 27.8-5.9 0-11.7-1-17.2-2.9-27.1-9.5-55.5-15.8-84.2-18.6-11.8-1.2-23.8-1.8-35.6-1.8-36.4 0-72.8 5.6-108.1 16.6-46.9 14.6-89.6 38-126.7 69.5-18.7 15.9-35.8 33.6-50.9 52.9l81.6 47.1c12 6.9 20.6 18.2 24.2 31.6 3.6 13.4 1.8 27.4-5.2 39.5-9.3 16-26.5 26-45.1 26-9.1 0-18.1-2.4-26-7L173.8 376c-7.9 19.8-14.1 40.2-18.4 60.9l260.3 150.3 29.6-17.1c4.6-2.6 9.7-4 15-4 10.7 0 20.6 5.7 26 15 4 6.9 5.1 15 3 22.8-2 7.6-6.8 13.9-13.6 18l39.8 23c6.9 4 11.9 10.5 14 18.2 2.1 7.7 1 15.8-3 22.8-5.3 9.3-15.3 15-26 15-5.3 0-10.4-1.4-15-4l-69.8-40.3-173.6 100.2c28.8 31.9 62.8 58.3 101.1 78.4 5.8 3 11.7 6 17.8 8.7l311.7-180-194.6-112.3c-24.8-14.3-33.4-46.2-19-71 2.4-4.1 5.2-7.8 8.5-11l-12.3 7.1c-4.6 2.6-9.7 4-15 4-9.8 0-19-4.8-24.6-12.8-1.4 3.8-3.6 7.3-6.5 10.3-5.6 5.8-13 9-21 9.2l-54 1.1-11.6 6.7c-4.6 2.6-9.7 4-15 4-10.7 0-20.6-5.7-26-15-8.3-14.3-3.3-32.7 11-41l9.3-5.4 63.5-85.3c4.6-8.5 11.3-15.4 19.7-20.3L733.5 131c7.9-4.6 16.9-7 26-7 14.5 0 28.2 6 38 16.5 76.6 59.1 132.4 139.2 161.3 232 18.9 60.4 25.3 122.8 19.3 185.3-5.9 60.4-23.1 118.3-51.3 172.2-28.2 53.9-65.9 101.1-112.1 140.3-47.8 40.6-102.7 70.7-163 89.5-45.3 14.2-92.2 21.4-139.2 21.4z m0.1-104c36.4 0 72.8-5.6 108.1-16.6 46.9-14.6 89.6-38 126.7-69.5 35.9-30.4 65.2-67.2 87.2-109.2s35.4-87.1 40-134.1c4.7-48.6-0.3-97.1-15-144.2-14.1-45.1-36.2-86.3-65.7-122.4L490.3 456.4c4.4-1.2 9.1-1.9 13.8-1.9 9.1 0 18.1 2.4 26 7l268.2 154.8c6.2 3.6 11.5 8.3 15.8 14.1 2.3 2.6 4.4 5.5 6.1 8.5 6.9 12 8.8 26 5.2 39.5-3.6 13.4-12.2 24.6-24.2 31.6L511.4 877.2h1.2zM147.8 501.8c-1.1 40 4.5 79.8 16.6 118.6 9.8 31.3 23.5 61 41 88.2l150.3-86.8-207.9-120z m239.8-74.4c10.1 0 19.1 5.1 24.5 12.8 1.6-4.4 4.3-8.4 7.8-11.7-2.9 0.5-5.8 0.8-8.8 0.8-8.5 0-16.6-2-23.8-5.7l-2.9 3.9 2.6-0.1h0.6z" fill="currentColor" p-id="2546"></path><path d="M939.8 378.6C911 286.3 855.3 209.9 784 155.4c-9.8-11.5-26.8-14.8-40.3-6.9L395.2 349.6c-5.8 3.4-10.2 8.3-12.9 14-0.3 0.3-0.5 0.6-0.8 0.9l-66 88.6-12.9 7.4c-4.8 2.8-6.4 8.9-3.7 13.7 2.8 4.8 8.9 6.4 13.7 3.7l14.8-8.6c0.4-0.2 0.7-0.4 1-0.7l59.3-1.2c5.5-0.1 9.9-4.7 9.8-10.2-0.1-5.5-4.7-9.9-10.2-9.8l-43.4 0.9 40.1-53.8c9.1 14.4 28.1 19.2 43 10.6l329-190c9.7 8 19.1 16.5 28 25.5L435.3 442c-4.8 2.8-6.4 8.9-3.7 13.7 2.8 4.8 8.9 6.4 13.7 3.7l353-203.8c2.3 2.6 4.6 5.3 6.9 8 33.2 39.3 58 84.5 73.5 134.2 15.5 49.7 20.8 100.9 15.8 152.1-4.8 49.5-19 97.1-42.2 141.4-23.2 44.3-54.1 83-92 115.1-39.2 33.2-84.1 57.9-133.7 73.3S526.1 900.4 475 895.3c-9.5-0.9-19-2.2-28.3-3.9l344.4-198.8c15.3-8.8 20.5-28.4 11.7-43.7-1.2-2.2-2.7-4.1-4.4-5.9-2.6-3.7-6-6.9-10.2-9.4L520.1 478.8c-15.3-8.8-34.9-3.6-43.7 11.7-8.8 15.3-3.6 34.9 11.7 43.7L712.7 664 362.2 866.3c-9.6-4.1-19-8.6-28.3-13.5-44.2-23.3-83-54.3-115.1-92.4-2.5-3-5-6.1-7.4-9.1l204.4-118 79.8 46.1c4.8 2.8 10.9 1.1 13.7-3.7 2.8-4.8 1.1-10.9-3.7-13.7l-69.8-40.3 29.6-17.1c4.8-2.8 6.4-8.9 3.7-13.7-2.8-4.8-8.9-6.4-13.7-3.7L415.8 610 133.1 447.2c5.8-34.5 16.3-67.9 31.3-99.7l100.9 58.3c15.3 8.8 34.9 3.6 43.7-11.7 8.8-15.3 3.6-34.9-11.7-43.7l-101-58.3c19.1-27.6 41.6-52.5 67.3-74.3 39.2-33.2 84.1-57.9 133.7-73.3 49.5-15.4 100.5-20.7 151.7-15.6 30.5 3 60.2 9.6 88.9 19.7 15 5.3 31.6-1.2 38.9-15.3 9.1-17.3 0.7-38.6-17.7-45-87.6-30.7-185.4-34.5-280.8-4.7C142 156.9 10.4 408.6 84.2 645.4c73.9 236.8 325.3 369 561.5 295.4 236.3-73.7 367.9-325.4 294.1-562.2z m-810.3 95.6l0.6-5.7 265.6 153.3-196.5 113.5c-23.5-33-41.6-69.6-53.9-108.9-15.5-49.7-20.8-100.9-15.8-152.2z" fill="currentColor" p-id="2547"></path><path d="M939.8 378.6C911 286.3 855.3 209.9 784 155.4c-9.8-11.5-26.8-14.8-40.3-6.9L395.2 349.6c-5.8 3.4-10.2 8.3-12.9 14-0.3 0.3-0.5 0.6-0.8 0.9l-66 88.6-12.9 7.4c-4.8 2.8-6.4 8.9-3.7 13.7 2.8 4.8 8.9 6.4 13.7 3.7l14.8-8.6c0.4-0.2 0.7-0.4 1-0.7l59.3-1.2c5.5-0.1 9.9-4.7 9.8-10.2-0.1-5.5-4.7-9.9-10.2-9.8l-43.4 0.9 40.1-53.8c9.1 14.4 28.1 19.2 43 10.6l329-190c9.7 8 19.1 16.5 28 25.5L435.3 442c-4.8 2.8-6.4 8.9-3.7 13.7 2.8 4.8 8.9 6.4 13.7 3.7l353-203.8c2.3 2.6 4.6 5.3 6.9 8 33.2 39.3 58 84.5 73.5 134.2 15.5 49.7 20.8 100.9 15.8 152.1-4.8 49.5-19 97.1-42.2 141.4-23.2 44.3-54.1 83-92 115.1-39.2 33.2-84.1 57.9-133.7 73.3S526.1 900.4 475 895.3c-9.5-0.9-19-2.2-28.3-3.9l344.4-198.8c15.3-8.8 20.5-28.4 11.7-43.7-1.2-2.2-2.7-4.1-4.4-5.9-2.6-3.7-6-6.9-10.2-9.4L520.1 478.8c-15.3-8.8-34.9-3.6-43.7 11.7-8.8 15.3-3.6 34.9 11.7 43.7L712.7 664 362.2 866.3c-9.6-4.1-19-8.6-28.3-13.5-44.2-23.3-83-54.3-115.1-92.4-2.5-3-5-6.1-7.4-9.1l204.4-118 79.8 46.1c4.8 2.8 10.9 1.1 13.7-3.7 2.8-4.8 1.1-10.9-3.7-13.7l-69.8-40.3 29.6-17.1c4.8-2.8 6.4-8.9 3.7-13.7-2.8-4.8-8.9-6.4-13.7-3.7L415.8 610 133.1 447.2c5.8-34.5 16.3-67.9 31.3-99.7l100.9 58.3c15.3 8.8 34.9 3.6 43.7-11.7 8.8-15.3 3.6-34.9-11.7-43.7l-101-58.3c19.1-27.6 41.6-52.5 67.3-74.3 39.2-33.2 84.1-57.9 133.7-73.3 49.5-15.4 100.5-20.7 151.7-15.6 30.5 3 60.2 9.6 88.9 19.7 15 5.3 31.6-1.2 38.9-15.3 9.1-17.3 0.7-38.6-17.7-45-87.6-30.7-185.4-34.5-280.8-4.7C142 156.9 10.4 408.6 84.2 645.4c73.9 236.8 325.3 369 561.5 295.4 236.3-73.7 367.9-325.4 294.1-562.2z m-810.3 95.6l0.6-5.7 265.6 153.3-196.5 113.5c-23.5-33-41.6-69.6-53.9-108.9-15.5-49.7-20.8-100.9-15.8-152.2z" fill="currentColor" p-id="2548"></path></svg>