<svg fill="none" xmlns="http://www.w3.org/2000/svg" viewBox="0 0 62 62" class="design-iconfont">
  <path d="M0 14.5882C0 6.53137 6.53137 0 14.5882 0H47.4118C55.4686 0 62 6.53137 62 14.5882V47.4118C62 55.4686 55.4686 62 47.4118 62H14.5882C6.53137 62 0 55.4686 0 47.4118V14.5882Z" fill="#FD912C"/>
  <g filter="url(#mnh1jwxx3__filter0_d_12661_13282)" stroke-width="2.83333" stroke-linejoin="round">
    <path d="M30.9998 45.4029C38.1718 45.4029 43.9859 39.5888 43.9859 32.4168C43.9859 25.2448 38.1718 19.4307 30.9998 19.4307C23.8277 19.4307 18.0137 25.2448 18.0137 32.4168C18.0137 39.5888 23.8277 45.4029 30.9998 45.4029Z" fill="#F5FFFD" stroke="#F5FFFD"/>
    <path d="M30.8297 24.8755L30.8289 32.6734L36.3342 38.1788" stroke="#FD912C" stroke-linecap="round"/>
    <path d="M16.8335 20.3752L21.7918 16.8335" stroke="#E0FFF9" stroke-linecap="round"/>
    <path d="M45.1668 20.3752L40.2085 16.8335" stroke="#E0FFF9" stroke-linecap="round"/>
  </g>
  <path d="M0 42C0 42 18.8686 44 31 44C43.1314 44 62 42 62 42V62H0V42Z" fill="#FD4B2C"/>
  <path d="M12.964 52.116C12.472 53.484 11.536 54.612 10.144 55.524L9.568 54.816C10.912 53.928 11.8 52.824 12.232 51.492C12.364 51.024 12.472 50.52 12.556 49.968H9.136V58.188H8.26V49.128H12.652C12.712 48.516 12.748 47.856 12.748 47.16H13.624C13.624 47.868 13.588 48.528 13.54 49.128H17.752V56.856C17.752 57.66 17.356 58.068 16.588 58.068H14.704L14.464 57.204L16.3 57.252C16.684 57.252 16.876 57.048 16.876 56.664V49.968H13.444C13.384 50.424 13.312 50.856 13.216 51.252C14.464 52.428 15.508 53.592 16.36 54.732L15.712 55.392C15.016 54.36 14.092 53.268 12.964 52.116ZM19.852 50.592H24.52L24.592 49.896H20.656V47.652H29.344V49.896H25.456L25.384 50.592H30.16V51.252H25.288C25.24 51.492 25.204 51.72 25.156 51.936H28.636V57.228H30.376V57.924H19.636V57.228H21.376V51.936H24.292C24.34 51.708 24.376 51.48 24.424 51.252H19.852V50.592ZM22.216 57.228H27.784V56.436H22.216V57.228ZM22.216 55.896H27.784V55.14H22.216V55.896ZM22.216 54.588H27.784V53.832H22.216V54.588ZM22.216 53.292H27.784V52.536H22.216V53.292ZM28.528 49.284V48.288H26.74V49.284H28.528ZM25.948 49.284V48.288H24.052V49.284H25.948ZM23.272 49.284V48.288H21.484V49.284H23.272ZM41.824 47.484L42.244 48.204C41.368 48.384 40.36 48.516 39.208 48.612V49.92H42.472V50.712H39.208V56.76H41.224V55.056H39.784V54.312H41.224V52.74H39.808V51.972H42.028V58.212H41.224V57.528H36.34V58.116H35.56V52.32C36.268 52.152 36.928 51.9 37.54 51.564L38.044 52.248C37.516 52.488 36.952 52.692 36.34 52.86V54.324H37.828V55.068H36.34V56.76H38.404V50.712H35.452V49.92H38.404V48.66C37.552 48.708 36.64 48.732 35.656 48.732L35.38 47.94C37.972 47.94 40.12 47.784 41.824 47.484ZM35.08 52.092V52.944C34.72 53.148 34.372 53.34 34.024 53.52V57.096C34.024 57.768 33.7 58.104 33.052 58.104H32.044L31.864 57.288C32.176 57.324 32.476 57.348 32.764 57.348C33.04 57.348 33.184 57.192 33.184 56.88V53.916C32.716 54.12 32.248 54.3 31.78 54.468L31.588 53.652C32.128 53.496 32.656 53.304 33.184 53.088V50.232H31.66V49.404H33.184V47.208H34.024V49.404H35.08V50.232H34.024V52.692C34.384 52.5 34.732 52.308 35.08 52.092ZM46.144 47.124L46.96 47.496C46.648 48.444 46.252 49.344 45.772 50.196V58.212H44.92V51.516C44.536 52.044 44.116 52.548 43.66 53.028L43.384 52.104C44.656 50.664 45.568 48.996 46.144 47.124ZM48.16 47.916L49.012 48.024C48.916 48.624 48.784 49.2 48.616 49.728H50.38V47.232H51.244V49.728H54.004V50.568H51.244V53.46H54.448V54.288H51.244V58.152H50.38V54.288H46.852V53.46H50.38V50.568H48.34C48.04 51.36 47.668 52.068 47.224 52.692L46.672 51.972C47.404 50.868 47.896 49.512 48.16 47.916Z" fill="#fff"/>
  <defs>
    <filter id="mnh1jwxx3__filter0_d_12661_13282" x="9.46496" y="14" width="43.0701" height="43.0701" filterUnits="userSpaceOnUse" color-interpolation-filters="sRGB">
      <feFlood flood-opacity="0" result="BackgroundImageFix"/>
      <feColorMatrix in="SourceAlpha" values="0 0 0 0 0 0 0 0 0 0 0 0 0 0 0 0 0 0 127 0" result="hardAlpha"/>
      <feOffset dy="4.53504"/>
      <feGaussianBlur stdDeviation="2.26752"/>
      <feColorMatrix values="0 0 0 0 0.103314 0 0 0 0 0.32111 0 0 0 0 0.367781 0 0 0 0.16 0"/>
      <feBlend in2="BackgroundImageFix" result="effect1_dropShadow_12661_13282"/>
      <feBlend in="SourceGraphic" in2="effect1_dropShadow_12661_13282" result="shape"/>
    </filter>
  </defs>
</svg>
