<svg width="70" height="24" viewBox="0 0 70 24" fill="none" xmlns="http://www.w3.org/2000/svg">
<rect x="2" width="24" height="24" rx="12" fill="#2475FC"/>
<path d="M8.01913 13.9758C8.40115 14.3578 8.84626 14.6578 9.3421 14.8675C9.85578 15.0848 10.4012 15.195 10.9628 15.195H11.0151C12.2313 15.195 13.2776 15.9223 13.7425 16.9657C13.7878 17.0673 13.8886 17.1326 13.9998 17.1326C14.1111 17.1326 14.2119 17.0673 14.2572 16.9657C14.7222 15.9224 15.7684 15.195 16.9846 15.195H17.0369C17.5985 15.195 18.1439 15.0848 18.6576 14.8675C19.1535 14.6578 19.5985 14.3577 19.9806 13.9758C20.3626 13.5938 20.6626 13.1487 20.8723 12.6528C21.0896 12.1392 21.1998 11.5938 21.1998 11.0321C21.1998 10.4705 21.0896 9.92512 20.8723 9.41144C20.6626 8.91552 20.3625 8.47049 19.9806 8.08847C19.5985 7.70645 19.1534 7.40646 18.6576 7.19673C18.144 6.97935 17.5987 6.86914 17.0371 6.86914H10.9628C10.4012 6.86914 9.85578 6.97935 9.3421 7.19664C8.84618 7.40637 8.40115 7.70645 8.01913 8.08838C7.63711 8.4704 7.33712 8.91552 7.12739 9.41136C6.91001 9.92512 6.7998 10.4705 6.7998 11.0321C6.7998 11.5938 6.91001 12.1392 7.12731 12.6528C7.33704 13.1488 7.63711 13.5938 8.01905 13.9758H8.01913ZM8.61163 8.68097C9.21331 8.0793 10.0446 7.70696 10.9628 7.70696H17.0371C18.8735 7.70696 20.3622 9.19566 20.3622 11.0321C20.3622 11.9504 19.9899 12.7816 19.3882 13.3833C18.7866 13.985 17.9553 14.3573 17.0371 14.3573H10.9628C9.1264 14.3573 7.63762 12.8686 7.63762 11.0321C7.63762 10.1139 8.00996 9.28264 8.61163 8.68097Z" fill="white"/>
<path d="M18.2749 11.0871C18.291 10.4106 17.7555 9.84914 17.079 9.83308C16.4025 9.81702 15.841 10.3524 15.825 11.029C15.8089 11.7055 16.3443 12.2669 17.0209 12.283C17.6974 12.299 18.2588 11.7636 18.2749 11.0871Z" fill="white"/>
<path d="M10.9758 12.2829C11.6524 12.2682 12.1889 11.7079 12.1743 11.0314C12.1597 10.3548 11.5993 9.81821 10.9228 9.83286C10.2462 9.8475 9.70963 10.4078 9.72427 11.0844C9.73891 11.7609 10.2992 12.2975 10.9758 12.2829Z" fill="white"/>
<path d="M67.0001 13.7493H65.208V4.70215H67.0001V13.7493Z" fill="#2475FC"/>
<path d="M60.2062 4.70215L63.8646 13.7493H61.9612L61.1702 11.6852H57.6478L56.8815 13.7493H55.0894L58.6365 4.70215H60.2062ZM60.5893 10.1527L59.3781 6.97629L58.2039 10.1527H60.5893Z" fill="#2475FC"/>
<path fill-rule="evenodd" clip-rule="evenodd" d="M48.328 4.40363L48.3289 4.40569H43.7806V8.16296C43.7806 9.28356 43.7559 10.1487 43.7064 10.7585C43.657 11.3682 43.5581 11.912 43.4098 12.3899C43.2615 12.8596 43.0225 13.4034 42.6929 14.0214L44.0154 14.8124C44.4191 14.0049 44.7075 13.2262 44.8806 12.4764L45.5233 13.218C45.9764 12.5341 46.3719 11.739 46.7098 10.8326V14.7258H47.9828V10.6101L48.6255 11.5495L49.5524 10.5854C49.4124 10.3877 49.1775 10.1034 48.848 9.73262C48.5266 9.35359 48.3289 9.12288 48.2547 9.04049L47.9828 8.74386V8.63262H49.2064V7.34724H47.9828V6.12365H46.7098V7.34724H45.4985V8.63262H46.4626C46.1412 9.5637 45.6716 10.5071 45.0536 11.4629C45.1607 10.7049 45.2143 9.7285 45.2143 8.53375V5.81467H53.9277V4.40569H49.985C49.9847 4.405 49.9844 4.40431 49.9841 4.40363H48.328ZM52.6052 11.7966C52.8195 12.291 53.0873 12.8019 53.4086 13.3292L54.4097 12.3528C54.0719 11.8832 53.7176 11.3023 53.3468 10.6101C52.9843 9.91801 52.6918 9.26296 52.4693 8.64498H53.7299V7.3596H52.0243V6.12365H50.7266V7.3596H49.5524V8.64498H50.294C50.0963 9.37007 49.8408 10.0457 49.5277 10.6719C49.2229 11.2899 48.8438 11.912 48.3907 12.5382L49.3176 13.6506C49.9109 12.7772 50.3805 11.7019 50.7266 10.4247V14.7258H52.0243V10.1528C52.1974 10.7461 52.391 11.294 52.6052 11.7966Z" fill="#2475FC"/>
<path d="M49.251 3.32703C49.5531 3.68317 49.719 4.04701 49.4227 4.29023C49.1263 4.53345 48.8025 4.31989 48.5004 3.96375C48.1983 3.60762 48.2064 3.04358 48.3112 2.95944C48.4161 2.87531 48.9489 2.9709 49.251 3.32703Z" fill="#2475FC"/>
<path fill-rule="evenodd" clip-rule="evenodd" d="M34.3505 5.99163H34.2389V6.71691H32.9416V5.80231H30.5067V4.36861H32.9416V3.44165H34.3505V4.36861H37.4157V3.44165H38.837V4.36861H41.3583V5.80231H38.837V6.71691H37.4157V5.80231H34.3505V5.99163ZM34.2389 7.58207V7.58231H37.4105V7.58207H40.5179V9.02813C39.8258 9.58019 38.8782 10.1982 37.6752 10.882C36.4805 11.5577 35.2734 12.1468 34.0539 12.6495C34.2929 12.7813 34.5812 12.8802 34.9191 12.9461C35.2569 13.012 35.7183 13.0656 36.3033 13.1068C37.185 13.1562 38.0543 13.1809 38.9112 13.1809C39.7846 13.1809 40.658 13.1562 41.5314 13.1068L41.1977 14.5281C40.4479 14.5858 39.6486 14.6146 38.7999 14.6146C37.9595 14.6146 37.1603 14.5858 36.4022 14.5281C35.397 14.4622 34.6389 14.3551 34.1281 14.2067C33.6254 14.0667 33.2052 13.8277 32.8674 13.4899C32.612 13.2427 32.3977 13.1191 32.2247 13.1191C32.1588 13.1191 32.0929 13.148 32.027 13.2056C31.9693 13.2551 31.8869 13.3498 31.7798 13.4899C31.5655 13.7618 31.2936 14.1367 30.964 14.6146L30 13.2921C30.4037 12.8225 30.8528 12.3199 31.3472 11.7843C31.5202 11.6113 31.6685 11.5 31.7921 11.4506C31.9157 11.3929 32.0723 11.3641 32.2618 11.3641C32.4431 11.3641 32.6449 11.4506 32.8674 11.6236C33.8562 11.2364 34.812 10.8161 35.7348 10.363C36.6576 9.90153 37.4734 9.44835 38.182 9.00341H31.2854V7.58207H34.2389Z" fill="#2475FC"/>
<path d="M36.2096 6.53173C36.4431 6.93617 36.5413 7.32382 36.2062 7.5101C35.8712 7.69638 35.5907 7.42832 35.3572 7.02388C35.1237 6.61945 35.2326 6.06596 35.3508 6.00194C35.469 5.93792 35.9761 6.1273 36.2096 6.53173Z" fill="#2475FC"/>
<path d="M66.108 18.4377C66.3731 18.4377 66.588 18.5345 66.7528 18.7279C66.9176 18.9178 67 19.1919 67 19.5501V21.2913H66.5486V19.7006C66.5486 19.4319 66.5021 19.2277 66.4089 19.088C66.3158 18.9447 66.1778 18.873 65.9951 18.873C65.8088 18.873 65.6494 18.9447 65.5168 19.088C65.3879 19.2313 65.3234 19.4373 65.3234 19.706V21.2913H64.872V19.7006C64.872 19.4355 64.8254 19.2313 64.7322 19.088C64.6391 18.9447 64.503 18.873 64.3238 18.873C64.1375 18.873 63.9781 18.9465 63.8456 19.0934C63.7166 19.2367 63.6521 19.4409 63.6521 19.706V21.2913H63.1953V18.5022H63.5984C63.6019 18.624 63.6109 18.7656 63.6252 18.9268C63.7184 18.7656 63.8348 18.6437 63.9745 18.5613C64.1178 18.4789 64.2737 18.4377 64.4421 18.4377C64.6284 18.4377 64.7914 18.4879 64.9311 18.5882C65.0744 18.6849 65.1783 18.83 65.2428 19.0235C65.3323 18.8265 65.4523 18.6796 65.6028 18.5828C65.7569 18.4861 65.9252 18.4377 66.108 18.4377Z" fill="#164799"/>
<path d="M59.3472 19.8941C59.3472 19.6146 59.4081 19.3638 59.5299 19.1417C59.6553 18.9196 59.8201 18.7476 60.0243 18.6258C60.2285 18.5004 60.4488 18.4377 60.6853 18.4377C60.9217 18.4377 61.1421 18.4986 61.3463 18.6205C61.5505 18.7423 61.7135 18.9142 61.8353 19.1364C61.9571 19.3585 62.018 19.611 62.018 19.8941C62.018 20.1771 61.9571 20.4297 61.8353 20.6518C61.7135 20.8703 61.5505 21.0423 61.3463 21.1677C61.1421 21.2895 60.9217 21.3504 60.6853 21.3504C60.4488 21.3504 60.2267 21.2895 60.0189 21.1677C59.8147 21.0423 59.6517 20.8703 59.5299 20.6518C59.4081 20.4297 59.3472 20.1771 59.3472 19.8941ZM59.8308 19.8941C59.8308 20.1054 59.8684 20.2882 59.9437 20.4422C60.0189 20.5963 60.121 20.7145 60.25 20.7969C60.379 20.8793 60.5241 20.9205 60.6853 20.9205C60.8465 20.9205 60.9916 20.8793 61.1206 20.7969C61.2495 20.7145 61.3498 20.5963 61.4215 20.4422C61.4967 20.2882 61.5343 20.1054 61.5343 19.8941C61.5343 19.6827 61.4967 19.5 61.4215 19.3459C61.3498 19.1919 61.2495 19.0737 61.1206 18.9913C60.9916 18.9089 60.8465 18.8677 60.6853 18.8677C60.5241 18.8677 60.379 18.9089 60.25 18.9913C60.121 19.0737 60.0189 19.1919 59.9437 19.3459C59.8684 19.5 59.8308 19.6827 59.8308 19.8941Z" fill="#164799"/>
<path d="M57.5442 20.9205C57.8164 20.9205 58.0296 20.7987 58.1836 20.5551L58.5437 20.7646C58.4434 20.9617 58.3072 21.1086 58.1353 21.2053C57.9669 21.302 57.7734 21.3504 57.5549 21.3504C57.3041 21.3504 57.0766 21.2895 56.8724 21.1677C56.6682 21.0459 56.507 20.8757 56.3888 20.6572C56.2705 20.435 56.2114 20.1807 56.2114 19.8941C56.2114 19.6075 56.2705 19.3549 56.3888 19.1364C56.507 18.9142 56.6682 18.7423 56.8724 18.6205C57.0766 18.4986 57.3041 18.4377 57.5549 18.4377C57.7734 18.4377 57.9669 18.4861 58.1353 18.5828C58.3072 18.6796 58.4434 18.8265 58.5437 19.0235L58.1836 19.2331C58.0296 18.9895 57.8164 18.8677 57.5442 18.8677C57.2934 18.8677 57.0892 18.959 56.9315 19.1417C56.7739 19.3244 56.6951 19.5752 56.6951 19.8941C56.6951 20.2129 56.7739 20.4637 56.9315 20.6464C57.0892 20.8291 57.2934 20.9205 57.5442 20.9205Z" fill="#164799"/>
<path d="M54.9684 21.3504C54.886 21.3504 54.8144 21.32 54.7535 21.2591C54.6961 21.1946 54.6675 21.1211 54.6675 21.0387C54.6675 20.9528 54.6961 20.8793 54.7535 20.8184C54.8144 20.7575 54.886 20.7271 54.9684 20.7271C55.0544 20.7271 55.1261 20.7575 55.1834 20.8184C55.2443 20.8793 55.2747 20.9528 55.2747 21.0387C55.2747 21.1247 55.2443 21.1982 55.1834 21.2591C55.1261 21.32 55.0544 21.3504 54.9684 21.3504Z" fill="#164799"/>
<path d="M53.1872 18.0025C53.1048 18.0025 53.0331 17.9721 52.9722 17.9112C52.9149 17.8467 52.8862 17.7732 52.8862 17.6908C52.8862 17.6084 52.9149 17.5368 52.9722 17.4759C53.0331 17.4114 53.1048 17.3792 53.1872 17.3792C53.2731 17.3792 53.3448 17.4096 53.4021 17.4705C53.463 17.5314 53.4935 17.6049 53.4935 17.6908C53.4935 17.7732 53.463 17.8467 53.4021 17.9112C53.3412 17.9721 53.2696 18.0025 53.1872 18.0025ZM53.4129 21.2913H52.9561V18.5023H53.4129V21.2913Z" fill="#164799"/>
<path d="M50.8888 19.6578L52.0442 21.2914H51.4692L50.5718 20.0125L50.0881 20.5498V21.2914H49.6313V17.2019H50.0881V19.9641L51.3671 18.5024H51.926L50.8888 19.6578Z" fill="#164799"/>
<path d="M48.0544 18.0025C47.972 18.0025 47.9003 17.9721 47.8394 17.9112C47.7821 17.8467 47.7534 17.7732 47.7534 17.6908C47.7534 17.6084 47.7821 17.5368 47.8394 17.4759C47.9003 17.4114 47.972 17.3792 48.0544 17.3792C48.1403 17.3792 48.212 17.4096 48.2693 17.4705C48.3302 17.5314 48.3607 17.6049 48.3607 17.6908C48.3607 17.7732 48.3302 17.8467 48.2693 17.9112C48.2084 17.9721 48.1368 18.0025 48.0544 18.0025ZM48.2801 21.2913H47.8233V18.5023H48.2801V21.2913Z" fill="#164799"/>
<path d="M44.9992 18.5024L45.7301 20.5983L46.4125 18.5024H46.8425L45.8537 21.2915H45.5527L44.8111 19.2494L44.1018 21.2915H43.7901L42.7637 18.5024H43.2419L43.9728 20.5983L44.6445 18.5024H44.9992Z" fill="#164799"/>
<path d="M42.1489 21.1998C42.002 21.3001 41.814 21.3503 41.5847 21.3503C41.0222 21.3503 40.741 21.0296 40.741 20.3884V18.8944H40.2788V18.4967H40.741V17.7175H41.1977V18.4967H42.0092V18.8944H41.1977V20.3346C41.1977 20.7251 41.3446 20.9204 41.6384 20.9204C41.7674 20.9204 41.8874 20.8881 41.9985 20.8236L42.1489 21.1998Z" fill="#164799"/>
<path d="M38.2628 18.4377C38.5781 18.4377 38.8361 18.5345 39.0367 18.7279C39.2373 18.9178 39.3376 19.1901 39.3376 19.5448V21.2913H38.9346C38.9238 21.1086 38.9167 20.9903 38.9131 20.9366C38.8271 21.0727 38.7107 21.1766 38.5638 21.2483C38.4205 21.3164 38.2557 21.3504 38.0694 21.3504C37.8902 21.3504 37.7219 21.3182 37.5642 21.2537C37.4102 21.1856 37.2866 21.0871 37.1934 20.9581C37.1003 20.8255 37.0537 20.6679 37.0537 20.4852C37.0537 20.2093 37.1648 19.9926 37.3869 19.835C37.6126 19.6737 37.9028 19.5931 38.2575 19.5931C38.4581 19.5931 38.6659 19.62 38.8808 19.6737V19.6254C38.8808 19.3638 38.8271 19.1704 38.7196 19.045C38.6157 18.916 38.4563 18.8515 38.2413 18.8515C38.0694 18.8515 37.9261 18.8874 37.8114 18.959C37.6968 19.0307 37.6001 19.1364 37.5212 19.2761L37.1719 19.0772C37.2579 18.8838 37.3976 18.7297 37.5911 18.6151C37.7881 18.4969 38.0121 18.4377 38.2628 18.4377ZM38.8808 20.0553C38.6551 19.998 38.4491 19.9693 38.2628 19.9693C38.03 19.9693 37.849 20.0141 37.7201 20.1037C37.5947 20.1932 37.532 20.3186 37.532 20.4798C37.532 20.6303 37.5857 20.7485 37.6932 20.8345C37.8007 20.9169 37.9404 20.9581 38.1124 20.9581C38.3237 20.9581 38.5047 20.8972 38.6551 20.7754C38.8056 20.65 38.8808 20.478 38.8808 20.2595V20.0553Z" fill="#164799"/>
<path d="M34.9079 18.4379C35.1981 18.4379 35.4346 18.5364 35.6173 18.7335C35.8 18.9305 35.8914 19.21 35.8914 19.5718V21.2914H35.4346V19.7008C35.4346 19.4357 35.3808 19.2314 35.2734 19.0881C35.1695 18.9448 35.0136 18.8732 34.8058 18.8732C34.6697 18.8732 34.5407 18.9054 34.4189 18.9699C34.3007 19.0308 34.2039 19.124 34.1287 19.2494C34.0535 19.3712 34.0159 19.5234 34.0159 19.7061V21.2914H33.5591V17.2019H34.0159V18.9216C34.1126 18.7639 34.238 18.6439 34.392 18.5615C34.5461 18.4791 34.7181 18.4379 34.9079 18.4379Z" fill="#164799"/>
<path d="M31.5681 20.9205C31.8404 20.9205 32.0535 20.7987 32.2076 20.5551L32.5676 20.7646C32.4673 20.9617 32.3312 21.1086 32.1592 21.2053C31.9908 21.302 31.7974 21.3504 31.5788 21.3504C31.328 21.3504 31.1005 21.2895 30.8963 21.1677C30.6921 21.0459 30.5309 20.8757 30.4127 20.6572C30.2945 20.435 30.2354 20.1807 30.2354 19.8941C30.2354 19.6075 30.2945 19.3549 30.4127 19.1364C30.5309 18.9142 30.6921 18.7423 30.8963 18.6205C31.1005 18.4986 31.328 18.4377 31.5788 18.4377C31.7974 18.4377 31.9908 18.4861 32.1592 18.5828C32.3312 18.6796 32.4673 18.8265 32.5676 19.0235L32.2076 19.2331C32.0535 18.9895 31.8404 18.8677 31.5681 18.8677C31.3173 18.8677 31.1131 18.959 30.9555 19.1417C30.7978 19.3244 30.719 19.5752 30.719 19.8941C30.719 20.2129 30.7978 20.4637 30.9555 20.6464C31.1131 20.8291 31.3173 20.9205 31.5681 20.9205Z" fill="#164799"/>
</svg>
