<svg fill="none" xmlns="http://www.w3.org/2000/svg" viewBox="0 0 34 34" class="design-iconfont">
  <path d="M16.2977 0.63592C16.4395 1.06138 16.9572 1.06138 17.099 0.63592C17.1593 0.454893 16.9795 0.306641 16.6983 0.306641C16.4174 0.306641 16.2373 0.454893 16.2977 0.63592ZM8.70037 3.80772C8.39529 4.60259 8.82289 5.25931 9.57549 5.15241C10.5569 5.01304 10.5569 3.56421 9.57549 3.42484C9.16105 3.36603 8.81095 3.51918 8.70037 3.80772ZM23.3283 3.77556C22.7565 4.46475 23.2383 5.25502 24.1655 5.14751C24.7934 5.0746 24.9686 4.88715 24.9686 4.28862C24.9686 3.39696 23.9158 3.06769 23.3283 3.77556ZM15.856 4.00682C15.2036 4.38695 15.1435 5.905 15.761 6.41745C16.5446 7.06774 17.8776 6.68486 18.2179 5.71142C18.4813 4.95974 18.4231 4.75574 17.8069 4.25646C17.0004 3.60342 16.63 3.55594 15.856 4.00682ZM11.0317 8.27061C10.2947 9.00758 10.2255 10.6148 10.8898 11.5631C11.1487 11.9325 11.9053 12.3818 12.5715 12.561C13.9318 12.9274 14.4326 13.9428 13.8282 15.1095C13.2637 16.1996 13.2371 17.2307 13.7385 18.5879C14.2825 20.0606 13.9027 21.4409 12.9525 21.443C12.0186 21.4448 10.5091 22.5687 10.355 23.3773C10.17 24.3428 10.797 25.8808 11.4822 26.1436C12.72 26.6187 13.8138 26.3378 14.881 25.2706C15.5261 24.6255 16.2536 24.1985 16.7075 24.1985C17.14 24.1985 17.9695 24.6565 18.6489 25.2706C20.6803 27.106 22.7779 26.5877 23.173 24.1529C23.419 22.6342 22.5598 21.6828 20.9024 21.6393C19.8027 21.6106 19.486 21.7619 18.5818 22.7491C17.3333 24.1122 16.3479 24.2206 15.3043 23.1099C14.6158 22.3766 14.5986 22.2758 15.0326 21.5018C15.3818 20.8791 15.8033 20.6347 16.7464 20.5075C19.2168 20.1749 20.3869 18.8373 20.1378 16.63C19.9387 14.8623 18.9987 13.868 17.2831 13.6107C15.3974 13.328 14.9438 12.9029 14.9974 11.4684C15.0774 9.31174 15.0538 9.14327 14.564 8.39588C13.9302 7.42857 11.9442 7.35812 11.0317 8.27061ZM19.1901 8.29296C17.7107 9.45693 18.3328 11.991 20.1988 12.4008C21.2148 12.6241 22.7926 11.9515 23.0937 11.1667C23.7308 9.50716 22.63 7.65799 21.0056 7.65799C20.4491 7.65799 19.6355 7.94255 19.1901 8.29296ZM2.35309 8.47491C2.00084 8.82716 2.12979 9.18952 2.60824 9.18952C2.86094 9.18952 3.0677 8.98277 3.0677 8.73006C3.0677 8.25161 2.70534 8.12235 2.35309 8.47491ZM30.6353 8.88322C30.6353 9.05169 30.7731 9.18952 30.9416 9.18952C31.11 9.18952 31.2479 9.05169 31.2479 8.88322C31.2479 8.71475 31.11 8.57691 30.9416 8.57691C30.7731 8.57691 30.6353 8.71475 30.6353 8.88322ZM5.92768 9.85788C4.46905 10.5633 5.08932 12.5589 6.76727 12.5589C8.02833 12.5589 8.58305 11.39 7.8519 10.2742C7.30177 9.43457 6.95657 9.36014 5.92768 9.85788ZM26.2707 9.70687C25.6152 9.87841 25.2262 11.2494 25.6437 11.9172C26.0275 12.5307 27.4662 12.7222 28.05 12.2373C28.7077 11.6914 28.583 10.514 27.8102 9.97275C27.4359 9.71055 27.057 9.51176 26.9679 9.53136C26.879 9.55096 26.5654 9.62999 26.2707 9.70687ZM6.9679 15.2391C6.15619 16.1402 6.06276 17.2181 6.70693 18.2608C7.39765 19.3782 8.45349 19.6698 9.78286 19.1108C12.2382 18.0785 11.4354 14.703 8.73437 14.703C7.9003 14.703 7.28186 14.8908 6.9679 15.2391ZM23.117 15.455C21.3159 17.2558 23.2778 20.1081 25.7298 19.2535C26.8196 18.8734 27.2659 18.1805 27.2659 16.8674C27.2659 14.8121 24.65 13.9216 23.117 15.455ZM1.60631 16.2869C1.15114 16.7421 1.11316 17.658 1.53893 17.9211C1.70893 18.0258 2.1304 18.0222 2.47561 17.9128C2.93813 17.7658 3.07842 17.4996 3.00889 16.9002C2.90536 16.007 2.19626 15.697 1.60631 16.2869ZM30.8806 16.3072C30.2962 16.7636 30.6469 18.0724 31.3536 18.0724C32.0688 18.0724 32.637 17.1755 32.2804 16.6101C31.8547 15.935 31.4651 15.8508 30.8806 16.3072ZM5.24768 22.1196C4.91381 23.0226 5.15732 23.8414 5.87439 24.2252C6.69314 24.6635 7.64422 24.2858 7.98606 23.3865C8.3521 22.4238 8.36098 22.4906 7.7937 21.923C7.05428 21.1839 5.55093 21.3 5.24768 22.1196ZM25.7956 21.8093C25.2544 22.3506 25.3484 23.4187 25.9886 23.9979C26.7054 24.647 27.0212 24.6359 27.8316 23.933C28.5613 23.3001 28.6887 22.3745 28.1236 21.8093C27.6497 21.3355 26.2695 21.3355 25.7956 21.8093ZM2.20759 25.1404C2.26794 25.3215 2.44835 25.4697 2.60824 25.4697C2.76813 25.4697 2.94855 25.3215 3.00889 25.1404C3.06923 24.9594 2.88943 24.8111 2.60824 24.8111C2.32736 24.8111 2.14725 24.9594 2.20759 25.1404ZM30.6353 25.2887C30.6353 25.5512 30.7731 25.6811 30.9416 25.5769C31.11 25.4728 31.2479 25.258 31.2479 25.0994C31.2479 24.9407 31.11 24.8111 30.9416 24.8111C30.7731 24.8111 30.6353 25.0262 30.6353 25.2887ZM15.6875 27.6292C15.1055 28.2115 15.2409 29.6483 15.9123 30.0076C16.8509 30.51 17.4114 30.3835 17.96 29.5463C18.6777 28.451 18.1358 27.2616 16.9192 27.2616C16.4444 27.2616 15.89 27.427 15.6878 27.6292H15.6875ZM8.63513 29.6128C8.71477 30.3047 8.88752 30.4778 9.50013 30.4778C10.1127 30.4778 10.2659 30.3247 10.2659 29.712C10.2659 29.0994 10.0928 28.9264 9.40089 28.847C8.6143 28.757 8.54507 28.8262 8.63513 29.6128ZM23.2962 29.2379C22.7819 29.8575 23.3259 30.5608 24.2825 30.5124C24.8011 30.4864 24.9686 30.2907 24.9686 29.712C24.9686 28.798 23.9103 28.4978 23.2962 29.2379ZM16.4432 32.9794C16.0909 33.3317 16.2199 33.694 16.6983 33.694C16.951 33.694 17.1578 33.4873 17.1578 33.2346C17.1578 32.7561 16.7954 32.6269 16.4432 32.9794Z" fill="#1679FF"/>
  <path d="M31.5495 25.1171C31.5495 25.2796 31.485 25.4354 31.3701 25.5503C31.2552 25.6652 31.0994 25.7297 30.9369 25.7297C30.7745 25.7297 30.6186 25.6652 30.5038 25.5503C30.3889 25.4354 30.3243 25.2796 30.3243 25.1171C30.3243 24.9546 30.3889 24.7988 30.5038 24.6839C30.6186 24.569 30.7745 24.5045 30.9369 24.5045C31.0994 24.5045 31.2552 24.569 31.3701 24.6839C31.485 24.7988 31.5495 24.9546 31.5495 25.1171ZM3.67567 17.1532C3.67567 17.3141 3.64398 17.4734 3.58241 17.622C3.52083 17.7707 3.43058 17.9057 3.31681 18.0195C3.20304 18.1333 3.06797 18.2235 2.91932 18.2851C2.77067 18.3467 2.61134 18.3784 2.45045 18.3784C2.28955 18.3784 2.13022 18.3467 1.98157 18.2851C1.83292 18.2235 1.69785 18.1333 1.58408 18.0195C1.47031 17.9057 1.38006 17.7707 1.31848 17.622C1.25691 17.4734 1.22522 17.3141 1.22522 17.1532C1.22522 16.8282 1.35431 16.5166 1.58408 16.2868C1.81385 16.057 2.1255 15.9279 2.45045 15.9279C2.7754 15.9279 3.08704 16.057 3.31681 16.2868C3.54658 16.5166 3.67567 16.8282 3.67567 17.1532ZM10.7207 29.7117C10.7207 30.0367 10.5916 30.3483 10.3619 30.5781C10.1321 30.8078 9.82044 30.9369 9.49549 30.9369C9.17054 30.9369 8.8589 30.8078 8.62913 30.5781C8.39935 30.3483 8.27027 30.0367 8.27027 29.7117C8.27027 29.3868 8.39935 29.0751 8.62913 28.8453C8.8589 28.6156 9.17054 28.4865 9.49549 28.4865C9.82044 28.4865 10.1321 28.6156 10.3619 28.8453C10.5916 29.0751 10.7207 29.3868 10.7207 29.7117ZM25.4234 29.7117C25.4234 29.8726 25.3917 30.0319 25.3302 30.1806C25.2686 30.3292 25.1783 30.4643 25.0646 30.5781C24.9508 30.6918 24.8157 30.7821 24.6671 30.8437C24.5184 30.9052 24.3591 30.9369 24.1982 30.9369C24.0373 30.9369 23.878 30.9052 23.7293 30.8437C23.5807 30.7821 23.4456 30.6918 23.3318 30.5781C23.2181 30.4643 23.1278 30.3292 23.0662 30.1806C23.0047 30.0319 22.973 29.8726 22.973 29.7117C22.973 29.3868 23.1021 29.0751 23.3318 28.8453C23.5616 28.6156 23.8732 28.4865 24.1982 28.4865C24.5231 28.4865 24.8348 28.6156 25.0646 28.8453C25.2943 29.0751 25.4234 29.3868 25.4234 29.7117ZM32.7748 17.1532C32.7748 17.3141 32.7431 17.4734 32.6815 17.622C32.6199 17.7707 32.5297 17.9057 32.4159 18.0195C32.3021 18.1333 32.1671 18.2235 32.0184 18.2851C31.8698 18.3467 31.7104 18.3784 31.5495 18.3784C31.3886 18.3784 31.2293 18.3467 31.0807 18.2851C30.932 18.2235 30.797 18.1333 30.6832 18.0195C30.5694 17.9057 30.4792 17.7707 30.4176 17.622C30.356 17.4734 30.3243 17.3141 30.3243 17.1532C30.3243 16.8282 30.4534 16.5166 30.6832 16.2868C30.913 16.057 31.2246 15.9279 31.5495 15.9279C31.8745 15.9279 32.1861 16.057 32.4159 16.2868C32.6457 16.5166 32.7748 16.8282 32.7748 17.1532ZM25.1171 4.28829C25.1171 4.4492 25.0855 4.60855 25.0239 4.75722C24.9623 4.9059 24.8721 5.04099 24.7583 5.15478C24.6446 5.26858 24.5095 5.35885 24.3608 5.42043C24.2121 5.48202 24.0528 5.51372 23.8919 5.51372C23.731 5.51372 23.5716 5.48202 23.423 5.42043C23.2743 5.35885 23.1392 5.26858 23.0255 5.15478C22.9117 5.04099 22.8214 4.9059 22.7599 4.75722C22.6983 4.60855 22.6666 4.4492 22.6667 4.28829C22.6667 3.96337 22.7958 3.65178 23.0256 3.42205C23.2554 3.19232 23.567 3.06326 23.8919 3.06326C24.2168 3.06326 24.5284 3.19232 24.7582 3.42205C24.988 3.65178 25.1171 3.96337 25.1171 4.28829ZM18.6847 5.51351C18.6847 6.00094 18.4911 6.4684 18.1464 6.81306C17.8017 7.15772 17.3343 7.35135 16.8468 7.35135C16.3594 7.35135 15.892 7.15772 15.5473 6.81306C15.2026 6.4684 15.009 6.00094 15.009 5.51351C15.009 5.02609 15.2026 4.55863 15.5473 4.21397C15.892 3.8693 16.3594 3.67568 16.8468 3.67568C17.3343 3.67568 17.8017 3.8693 18.1464 4.21397C18.4911 4.55863 18.6847 5.02609 18.6847 5.51351ZM28.7928 11.027C28.7928 11.5145 28.5992 11.9819 28.2545 12.3266C27.9098 12.6712 27.4424 12.8649 26.955 12.8649C26.4675 12.8649 26.0001 12.6712 25.6554 12.3266C25.3107 11.9819 25.1171 11.5145 25.1171 11.027C25.1171 10.5396 25.3107 10.0721 25.6554 9.72748C26.0001 9.38282 26.4675 9.18919 26.955 9.18919C27.4424 9.18919 27.9098 9.38282 28.2545 9.72748C28.5992 10.0721 28.7928 10.5396 28.7928 11.027ZM28.7928 22.973C28.7928 23.4604 28.5992 23.9279 28.2545 24.2725C27.9098 24.6172 27.4424 24.8108 26.955 24.8108C26.4675 24.8108 26.0001 24.6172 25.6554 24.2725C25.3107 23.9279 25.1171 23.4604 25.1171 22.973C25.1171 22.4855 25.3107 22.0181 25.6554 21.6734C26.0001 21.3288 26.4675 21.1351 26.955 21.1351C27.4424 21.1351 27.9098 21.3288 28.2545 21.6734C28.5992 22.0181 28.7928 22.4855 28.7928 22.973ZM18.6847 28.7928C18.6847 29.2802 18.4911 29.7477 18.1464 30.0923C17.8017 30.437 17.3343 30.6306 16.8468 30.6306C16.3594 30.6306 15.892 30.437 15.5473 30.0923C15.2026 29.7477 15.009 29.2802 15.009 28.7928C15.009 28.3054 15.2026 27.8379 15.5473 27.4932C15.892 27.1486 16.3594 26.955 16.8468 26.955C17.3343 26.955 17.8017 27.1486 18.1464 27.4932C18.4911 27.8379 18.6847 28.3054 18.6847 28.7928ZM8.57657 22.973C8.57657 23.2143 8.52904 23.4533 8.43668 23.6763C8.34432 23.8993 8.20894 24.1019 8.03828 24.2725C7.86762 24.4432 7.66502 24.5786 7.44204 24.6709C7.21907 24.7633 6.98008 24.8108 6.73873 24.8108C6.49739 24.8108 6.2584 24.7633 6.03542 24.6709C5.81245 24.5786 5.60985 24.4432 5.43919 24.2725C5.26853 24.1019 5.13315 23.8993 5.04079 23.6763C4.94843 23.4533 4.9009 23.2143 4.9009 22.973C4.9009 22.4855 5.09452 22.0181 5.43919 21.6734C5.78385 21.3288 6.25131 21.1351 6.73873 21.1351C7.22616 21.1351 7.69362 21.3288 8.03828 21.6734C8.38294 22.0181 8.57657 22.4855 8.57657 22.973ZM8.27027 11.027C8.27027 11.5145 8.07664 11.9819 7.73198 12.3266C7.38731 12.6712 6.91985 12.8649 6.43243 12.8649C5.945 12.8649 5.47754 12.6712 5.13288 12.3266C4.78822 11.9819 4.59459 11.5145 4.59459 11.027C4.59459 10.5396 4.78822 10.0721 5.13288 9.72748C5.47754 9.38282 5.945 9.18919 6.43243 9.18919C6.91985 9.18919 7.38731 9.38282 7.73198 9.72748C8.07664 10.0721 8.27027 10.5396 8.27027 11.027ZM10.7207 3.98198C10.7207 4.30693 10.5916 4.61857 10.3619 4.84835C10.1321 5.07812 9.82044 5.20721 9.49549 5.20721C9.17054 5.20721 8.8589 5.07812 8.62913 4.84835C8.39935 4.61857 8.27027 4.30693 8.27027 3.98198C8.27027 3.65703 8.39935 3.34539 8.62913 3.11562C8.8589 2.88584 9.17054 2.75676 9.49549 2.75676C9.82044 2.75676 10.1321 2.88584 10.3619 3.11562C10.5916 3.34539 10.7207 3.65703 10.7207 3.98198ZM17.4595 33.3874C17.4595 33.5499 17.3949 33.7057 17.28 33.8206C17.1651 33.9355 17.0093 34 16.8468 34C16.6844 34 16.5285 33.9355 16.4137 33.8206C16.2988 33.7057 16.2342 33.5499 16.2342 33.3874C16.2342 33.2249 16.2988 33.0691 16.4137 32.9542C16.5285 32.8393 16.6844 32.7748 16.8468 32.7748C17.0093 32.7748 17.1651 32.8393 17.28 32.9542C17.3949 33.0691 17.4595 33.2249 17.4595 33.3874ZM3.06306 25.1171C3.06306 25.1976 3.04721 25.2772 3.01643 25.3516C2.98564 25.4259 2.94051 25.4934 2.88363 25.5503C2.82674 25.6072 2.75921 25.6523 2.68488 25.6831C2.61056 25.7139 2.53089 25.7297 2.45045 25.7297C2.37 25.7297 2.29033 25.7139 2.21601 25.6831C2.14168 25.6523 2.07415 25.6072 2.01726 25.5503C1.96038 25.4934 1.91525 25.4259 1.88446 25.3516C1.85368 25.2772 1.83783 25.1976 1.83783 25.1171C1.83783 24.9546 1.90238 24.7988 2.01726 24.6839C2.13215 24.569 2.28797 24.5045 2.45045 24.5045C2.61292 24.5045 2.76874 24.569 2.88363 24.6839C2.99851 24.7988 3.06306 24.9546 3.06306 25.1171ZM3.06306 8.88288C3.06306 8.96333 3.04721 9.04299 3.01643 9.11732C2.98564 9.19165 2.94051 9.25918 2.88363 9.31607C2.82674 9.37295 2.75921 9.41808 2.68488 9.44886C2.61056 9.47965 2.53089 9.4955 2.45045 9.4955C2.37 9.4955 2.29033 9.47965 2.21601 9.44886C2.14168 9.41808 2.07415 9.37295 2.01726 9.31607C1.96038 9.25918 1.91525 9.19165 1.88446 9.11732C1.85368 9.04299 1.83783 8.96333 1.83783 8.88288C1.83783 8.72041 1.90238 8.56459 2.01726 8.4497C2.13215 8.33481 2.28797 8.27027 2.45045 8.27027C2.61292 8.27027 2.76874 8.33481 2.88363 8.4497C2.99851 8.56459 3.06306 8.72041 3.06306 8.88288ZM17.4595 0.612613C17.4595 0.775088 17.3949 0.930908 17.28 1.0458C17.1651 1.16068 17.0093 1.22523 16.8468 1.22523C16.6844 1.22523 16.5285 1.16068 16.4137 1.0458C16.2988 0.930908 16.2342 0.775088 16.2342 0.612613C16.2342 0.450138 16.2988 0.294317 16.4137 0.17943C16.5285 0.0645429 16.6844 0 16.8468 0C17.0093 0 17.1651 0.0645429 17.28 0.17943C17.3949 0.294317 17.4595 0.450138 17.4595 0.612613ZM31.5495 8.88288C31.5495 9.04536 31.485 9.20118 31.3701 9.31607C31.2552 9.43095 31.0994 9.4955 30.9369 9.4955C30.7745 9.4955 30.6186 9.43095 30.5038 9.31607C30.3889 9.20118 30.3243 9.04536 30.3243 8.88288C30.3243 8.72041 30.3889 8.56459 30.5038 8.4497C30.6186 8.33481 30.7745 8.27027 30.9369 8.27027C31.0994 8.27027 31.2552 8.33481 31.3701 8.4497C31.485 8.56459 31.5495 8.72041 31.5495 8.88288Z" fill="#1679FF"/>
</svg>
