<svg width="80" height="80" viewBox="0 0 80 80" fill="none" xmlns="http://www.w3.org/2000/svg">
<g opacity="0.05">
<mask id="mask0_63_1911" style="mask-type:alpha" maskUnits="userSpaceOnUse" x="0" y="0" width="80" height="80">
<rect width="80" height="80" rx="2" fill="#D9D9D9"/>
</mask>
<g mask="url(#mask0_63_1911)">
<path fill-rule="evenodd" clip-rule="evenodd" d="M22.7558 33.925C23.9302 31.4378 23.2384 28.3331 20.8446 26.9784L13.3672 22.7467C7.3968 19.3679 1.89473e-06 23.681 1.58881e-06 30.5412L0 66.1698C-3.0592e-07 73.03 7.3968 77.3431 13.3672 73.9643L21.3694 69.4356C23.8225 68.0473 24.4806 64.8323 23.1986 62.322C20.9471 57.9136 19.6801 52.9383 19.6801 47.6729C19.6801 42.7632 20.7817 38.1057 22.7558 33.925Z" fill="#2475FC"/>
<path fill-rule="evenodd" clip-rule="evenodd" d="M100 47.632C100 73.9385 78.6745 95.2641 52.368 95.2641C38.3738 95.2641 25.789 89.2291 17.0745 79.6197C15.2099 77.5637 15.8807 74.3842 18.2729 72.9767L21.505 71.0751C23.5389 69.8785 26.1216 70.4018 27.7819 72.0787C34.0791 78.4385 42.8161 82.3782 52.4731 82.3782C71.6629 82.3782 87.2192 66.8218 87.2192 47.6321C87.2192 28.4424 71.6629 12.886 52.4731 12.886C42.3242 12.886 33.1915 17.2373 26.8389 24.176C25.1913 25.9756 22.5148 26.5791 20.4118 25.3418L17.2372 23.4741C14.8973 22.0974 14.1922 19.0136 15.9426 16.9384C24.6801 6.5799 37.7556 0 52.368 0C78.6745 0 100 21.3256 100 47.632Z" fill="#2475FC"/>
<path d="M37.2566 54.5021C37.2566 52.6508 35.7014 51.1898 33.8329 51.1898C31.9645 51.1898 30.4092 52.6508 30.4092 54.5021C30.4092 64.925 40.0091 72.3454 52.7401 72.3454C65.4712 72.3454 75.0711 64.925 75.0711 54.5021C75.0711 52.6508 73.5158 51.1898 71.6473 51.1898C69.7789 51.1898 68.2236 52.6508 68.2236 54.5021C68.2236 60.1388 62.9705 65.721 52.7401 65.721C42.5097 65.721 37.2566 60.1388 37.2566 54.5021Z" fill="#2475FC" stroke="#2475FC" stroke-width="1.17531" stroke-linecap="round"/>
</g>
</g>
</svg>
