<svg width="64" height="64" viewBox="0 0 64 64" fill="none" xmlns="http://www.w3.org/2000/svg">
<path d="M51.5064 6.75635H26.2131C21.5464 6.75635 17.7197 10.583 17.7197 15.343V34.663C17.7197 39.423 21.5464 43.2497 26.2131 43.2497H43.3002L49.2736 48.7564C50.9536 50.343 53.8469 49.223 53.8469 46.8897V43.1563C58.4202 43.1563 59.9997 39.3297 59.9997 34.663V15.343C59.9997 10.583 56.1731 6.75635 51.5064 6.75635Z" fill="#2475FC"/>
<path d="M41.8745 9.22705H13.5209C8.28966 9.22705 4 13.5167 4 18.8526V40.5101C4 45.7414 8.18503 50.0311 13.3117 50.1357V54.3207C13.3117 56.9364 16.5551 58.1919 18.4384 56.4133L25.1344 50.2403H41.8745C47.1058 50.2403 51.3955 45.9507 51.3955 40.6148V18.8526C51.3955 13.5167 47.1058 9.22705 41.8745 9.22705Z" fill="#2CAAFF"/>
<path d="M40 28.5466C40 24.6563 38.9206 21.5701 36.7617 19.2878C34.6029 17.0055 31.6823 15.8609 28 15.854C24.3279 15.854 21.4108 16.9951 19.2485 19.2774C17.0863 21.5597 16.0034 24.6339 16 28.4999C16 32.3279 17.0777 35.39 19.2331 37.6861C21.3886 39.9822 24.2545 41.132 27.8309 41.1354C28.8183 41.1648 29.8053 41.0637 30.7669 40.8346C30.8591 40.9124 31.9402 42.5878 33.2724 43.3451C34.2043 43.8745 35.4549 43.9025 36.4035 43.8174C37.197 43.7462 37.6942 42.995 37.5728 42.2076C37.4524 41.4259 36.7496 40.8876 35.9858 40.6823C35.8271 40.6396 35.6705 40.5883 35.5166 40.5286C35.0996 40.289 34.7638 39.9274 34.5534 39.4911C38.1879 37.2677 40.0034 33.6195 40 28.5466ZM32.4577 35.0459L32.2118 35.3623C32.0991 35.5127 31.4125 33.9203 29.7421 33.4016C28.8698 33.1793 27.9668 33.1241 27.0792 33.236C26.5605 33.3015 26.2067 33.7675 26.2067 34.2903C26.2067 34.8933 26.6816 35.3789 27.26 35.5489C27.6656 35.6682 28.0557 35.8405 28.4202 36.0625C29.0914 36.5812 29.6806 37.2504 29.3937 37.3282C28.8919 37.4605 28.375 37.525 27.8565 37.5201C26.9593 37.5277 26.0755 37.2989 25.2921 36.856C24.5088 36.4131 23.8527 35.7714 23.3886 34.994C22.2716 33.2996 21.7114 31.0796 21.7079 28.3339C21.7045 25.5883 22.2647 23.3665 23.3886 21.6686C23.8773 20.9032 24.5476 20.2739 25.3384 19.8381C26.1292 19.4024 27.0151 19.1741 27.9155 19.1741C28.8158 19.1741 29.7018 19.4024 30.4925 19.8381C31.2833 20.2739 31.9536 20.9032 32.4424 21.6686C33.5798 23.325 34.1486 25.5364 34.1486 28.3028C34.1486 31.1418 33.585 33.3895 32.4577 35.0459Z" fill="white"/>
</svg>
