<svg fill="none" xmlns="http://www.w3.org/2000/svg" viewBox="0 0 62 62" class="design-iconfont">
  <path d="M0 14.5882C0 6.53137 6.53137 0 14.5882 0H47.4118C55.4686 0 62 6.53137 62 14.5882V47.4118C62 55.4686 55.4686 62 47.4118 62H14.5882C6.53137 62 0 55.4686 0 47.4118V14.5882Z" fill="#00BDE7"/>
  <g filter="url(#itgtkmo8m__filter0_d_7802_38767)">
    <path d="M33.5905 15L44.0631 25.6662V43.2662C44.0631 45.3286 42.4225 47 40.3977 47H21.5468C19.522 47 17.8812 45.3272 17.8812 43.2662V18.7338C17.8814 16.6714 19.5222 15 21.547 15H33.5905Z" fill="#EBFBFF"/>
    <path d="M30.8127 27.7734C31.7803 27.7734 32.5802 28.528 32.6366 29.4939L32.6711 30.0868C32.8896 33.8301 32.8896 37.5831 32.6711 41.3264L32.6366 41.9192C32.5802 42.8852 31.7803 43.6398 30.8127 43.6398C29.8452 43.6398 29.0452 42.8852 28.9889 41.9192L28.9544 41.3264C28.7359 37.5831 28.7359 33.8301 28.9544 30.0868L28.9889 29.4939C29.0452 28.528 29.8452 27.7734 30.8127 27.7734Z" fill="#00BDE7"/>
    <path d="M37.6254 29.0207C37.6254 29.991 36.874 30.7953 35.9057 30.8611L35.6723 30.8767C32.4363 31.0964 29.1891 31.0964 25.9531 30.8767L25.7197 30.8611C24.7518 30.7953 24 29.991 24 29.0207C24 28.0505 24.7514 27.2462 25.7197 27.1804L25.9531 27.1647C29.1891 26.9451 32.4363 26.9451 35.6723 27.1647L35.9057 27.1804C36.8736 27.2462 37.6254 28.0505 37.6254 29.0207Z" fill="#00BDE7"/>
    <path d="M44.0664 25.6662H37.444C35.4206 25.6662 33.5938 23.8072 33.5938 21.7446V15L44.0664 25.6662Z" fill="#C2F2FF"/>
  </g>
  <defs>
    <filter id="itgtkmo8m__filter0_d_7802_38767" x="10.75" y="15" width="40.5" height="40.5" filterUnits="userSpaceOnUse" color-interpolation-filters="sRGB">
      <feFlood flood-opacity="0" result="BackgroundImageFix"/>
      <feColorMatrix in="SourceAlpha" values="0 0 0 0 0 0 0 0 0 0 0 0 0 0 0 0 0 0 127 0" result="hardAlpha"/>
      <feOffset dy="4.25"/>
      <feGaussianBlur stdDeviation="2.125"/>
      <feColorMatrix values="0 0 0 0 0.0886636 0 0 0 0 0.388241 0 0 0 0 0.413084 0 0 0 0.14 0"/>
      <feBlend in2="BackgroundImageFix" result="effect1_dropShadow_7802_38767"/>
      <feBlend in="SourceGraphic" in2="effect1_dropShadow_7802_38767" result="shape"/>
    </filter>
  </defs>
</svg>
