<svg width="52" height="56" viewBox="0 0 52 56" fill="none" xmlns="http://www.w3.org/2000/svg">
<rect x="8.63867" width="32" height="32" rx="16" fill="#2475FC"/>
<path d="M16.6643 18.6318C17.1737 19.1412 17.7672 19.5412 18.4283 19.8208C19.1132 20.1105 19.8404 20.2575 20.5892 20.2575H20.659C22.2806 20.2575 23.6757 21.2272 24.2955 22.6184C24.3559 22.7538 24.4903 22.8408 24.6386 22.8408C24.7869 22.8408 24.9214 22.7538 24.9818 22.6184C25.6017 21.2273 26.9966 20.2575 28.6183 20.2575H28.688C29.4369 20.2575 30.1641 20.1105 30.849 19.8208C31.5102 19.5412 32.1036 19.141 32.6129 18.6318C33.1223 18.1224 33.5223 17.529 33.8019 16.8678C34.0916 16.1829 34.2386 15.4557 34.2386 14.7069C34.2386 13.9581 34.0916 13.2309 33.8019 12.546C33.5223 11.8847 33.1222 11.2914 32.6129 10.782C32.1036 10.2727 31.5101 9.87267 30.849 9.59303C30.1642 9.30319 29.4371 9.15625 28.6883 9.15625H20.5892C19.8404 9.15625 19.1132 9.30319 18.4283 9.59292C17.7671 9.87256 17.1737 10.2727 16.6643 10.7819C16.155 11.2913 15.755 11.8847 15.4754 12.5459C15.1855 13.2309 15.0386 13.9581 15.0386 14.7069C15.0386 15.4557 15.1855 16.1829 15.4752 16.8678C15.7549 17.5291 16.155 18.1224 16.6642 18.6318H16.6643ZM17.4543 11.572C18.2566 10.7698 19.3649 10.2733 20.5892 10.2733H28.6883C31.1368 10.2733 33.1218 12.2583 33.1218 14.7069C33.1218 15.9312 32.6254 17.0396 31.8231 17.8418C31.0209 18.644 29.9126 19.1405 28.6883 19.1405H20.5892C18.1407 19.1405 16.1557 17.1555 16.1557 14.7069C16.1557 13.4826 16.6521 12.3743 17.4543 11.572Z" fill="white"/>
<path d="M30.3385 14.7841C30.3599 13.8821 29.6461 13.1335 28.744 13.1121C27.842 13.0907 27.0934 13.8045 27.072 14.7066C27.0506 15.6086 27.7644 16.3572 28.6665 16.3786C29.5685 16.4 30.3171 15.6862 30.3385 14.7841Z" fill="white"/>
<path d="M20.6064 16.3759C21.5085 16.3564 22.2239 15.6092 22.2044 14.7072C22.1849 13.8051 21.4378 13.0897 20.5357 13.1092C19.6336 13.1287 18.9182 13.8758 18.9377 14.7779C18.9572 15.68 19.7043 16.3954 20.6064 16.3759Z" fill="white"/>
<path d="M4.56 41.264C5.568 41.264 6.408 41.528 7.056 42.056C7.68 42.56 8.052 43.256 8.184 44.12H6.816C6.672 43.556 6.408 43.148 6.012 42.884C5.628 42.62 5.136 42.5 4.536 42.5C3.636 42.5 2.964 42.8 2.508 43.424C2.088 43.976 1.884 44.744 1.884 45.728C1.884 46.736 2.088 47.516 2.496 48.056C2.94 48.632 3.636 48.932 4.572 48.932C5.184 48.932 5.688 48.776 6.072 48.488C6.48 48.164 6.768 47.672 6.936 47.024H8.304C8.112 48.032 7.668 48.812 6.96 49.376C6.3 49.904 5.508 50.168 4.584 50.168C3.156 50.168 2.088 49.712 1.392 48.824C0.78 48.056 0.48 47.024 0.48 45.728C0.48 44.456 0.792 43.412 1.428 42.62C2.148 41.708 3.192 41.264 4.56 41.264ZM9.50906 41.264H10.8771V44.624C11.1051 44.276 11.3931 44.024 11.7291 43.856C12.0291 43.7 12.3771 43.628 12.7731 43.628C13.5291 43.628 14.0931 43.844 14.4651 44.288C14.8131 44.708 14.9931 45.332 14.9931 46.16V50H13.6251V46.4C13.6251 45.872 13.5171 45.464 13.3131 45.188C13.0731 44.888 12.7251 44.744 12.2571 44.744C11.8251 44.744 11.4891 44.912 11.2491 45.248C10.9971 45.584 10.8771 46.004 10.8771 46.532V50H9.50906V41.264ZM19.2548 43.628C20.1668 43.628 20.8508 43.856 21.2828 44.312C21.6668 44.708 21.8588 45.284 21.8588 46.04V50H20.5868V49.184C20.3468 49.496 20.0468 49.724 19.6988 49.892C19.3028 50.072 18.8348 50.168 18.2948 50.168C17.6468 50.168 17.1428 50 16.7708 49.676C16.3868 49.34 16.1948 48.92 16.1948 48.404C16.1948 47.708 16.4588 47.168 17.0108 46.796C17.5148 46.436 18.2228 46.244 19.1348 46.22L20.4908 46.184V45.944C20.4908 45.128 20.0468 44.732 19.1588 44.732C18.7748 44.732 18.4748 44.792 18.2468 44.936C17.9828 45.092 17.8028 45.332 17.7308 45.656L16.3748 45.548C16.5068 44.864 16.8428 44.36 17.3828 44.048C17.8388 43.76 18.4628 43.628 19.2548 43.628ZM20.4908 47.168L19.2308 47.204C18.1388 47.228 17.5988 47.612 17.5988 48.356C17.5988 48.572 17.6828 48.752 17.8748 48.896C18.0668 49.04 18.3068 49.124 18.6068 49.124C19.1348 49.124 19.5788 48.968 19.9388 48.668C20.2988 48.356 20.4908 47.96 20.4908 47.48V47.168ZM25.246 41.792V43.796H26.626V44.924H25.246V48.428C25.246 48.572 25.27 48.68 25.342 48.764C25.414 48.836 25.51 48.872 25.654 48.872H26.47V50H25.426C24.886 50 24.49 49.856 24.238 49.568C23.998 49.304 23.878 48.932 23.878 48.428V44.924H22.762V43.796H23.878V42.356L25.246 41.792ZM26.9897 41.432H28.5737L30.1817 47.948H30.2297L31.9217 41.432H33.3737L35.0657 47.948H35.1137L36.7217 41.432H38.3057L35.8337 50H34.3457L32.6777 43.556H32.6297L30.9497 50H29.4497L26.9897 41.432ZM40.0112 41.264C40.2752 41.264 40.5032 41.348 40.6832 41.516C40.8512 41.684 40.9472 41.9 40.9472 42.164C40.9472 42.428 40.8512 42.656 40.6712 42.824C40.4912 42.992 40.2752 43.076 40.0112 43.076C39.7472 43.076 39.5312 42.992 39.3512 42.824C39.1712 42.644 39.0872 42.428 39.0872 42.164C39.0872 41.9 39.1712 41.684 39.3512 41.516C39.5312 41.348 39.7472 41.264 40.0112 41.264ZM39.3272 43.796H40.6952V50H39.3272V43.796ZM42.3919 41.264H43.7599V46.256L46.3039 43.796H48.0679L45.3199 46.364L48.3079 50H46.5559L44.3839 47.24L43.7599 47.828V50H42.3919V41.264ZM49.9487 41.264C50.2127 41.264 50.4407 41.348 50.6207 41.516C50.7887 41.684 50.8847 41.9 50.8847 42.164C50.8847 42.428 50.7887 42.656 50.6087 42.824C50.4287 42.992 50.2127 43.076 49.9487 43.076C49.6847 43.076 49.4687 42.992 49.2887 42.824C49.1087 42.644 49.0247 42.428 49.0247 42.164C49.0247 41.9 49.1087 41.684 49.2887 41.516C49.4687 41.348 49.6847 41.264 49.9487 41.264ZM49.2647 43.796H50.6327V50H49.2647V43.796Z" fill="#2475FC"/>
</svg>
