<svg fill="none" xmlns="http://www.w3.org/2000/svg" viewBox="0 0 24 24" class="design-iconfont">
  <g clip-path="url(#4l4zmm9lh__clip0_10573_72957)" fill="#666">
    <path d="M18.4313 1.94531C18.913 1.94531 19.3041 2.33644 19.3041 2.81812V4.70156H21.1876C21.3022 4.70156 21.4157 4.72414 21.5216 4.768C21.6275 4.81186 21.7237 4.87616 21.8047 4.9572C21.8858 5.03825 21.9501 5.13447 21.9939 5.24036C22.0378 5.34626 22.0604 5.45976 22.0604 5.57437C22.0604 5.68899 22.0378 5.80249 21.9939 5.90839C21.9501 6.01428 21.8858 6.1105 21.8047 6.19155C21.7237 6.27259 21.6275 6.33689 21.5216 6.38075C21.4157 6.42461 21.3022 6.44719 21.1876 6.44719H19.3041V8.33062C19.3041 8.56211 19.2122 8.78411 19.0485 8.9478C18.8848 9.11148 18.6628 9.20344 18.4313 9.20344C18.1998 9.20344 17.9778 9.11148 17.8141 8.9478C17.6505 8.78411 17.5585 8.56211 17.5585 8.33062V6.44719H15.6751C15.4436 6.44719 15.2216 6.35523 15.0579 6.19155C14.8942 6.02786 14.8022 5.80586 14.8022 5.57437C14.8022 5.34289 14.8942 5.12089 15.0579 4.9572C15.2216 4.79352 15.4436 4.70156 15.6751 4.70156H17.5585V2.81812C17.5585 2.33644 17.9496 1.94531 18.4313 1.94531Z"/>
    <path d="M3.68508 8.32594C3.68508 7.33908 4.0771 6.39265 4.77492 5.69484C5.47273 4.99703 6.41916 4.605 7.40602 4.605H13.3582C13.5897 4.605 13.8117 4.51304 13.9754 4.34936C14.1391 4.18568 14.231 3.96367 14.231 3.73219C14.231 3.5007 14.1391 3.2787 13.9754 3.11502C13.8117 2.95133 13.5897 2.85938 13.3582 2.85938H7.40602C5.95619 2.85938 4.56575 3.43531 3.54057 4.46049C2.51539 5.48567 1.93945 6.87611 1.93945 8.32594V13.3987C1.9396 14.7254 2.42205 16.0067 3.2969 17.004C4.17175 18.0013 5.37933 18.6465 6.69464 18.8194L7.25245 21.3748C7.28431 21.5209 7.35315 21.6563 7.45236 21.7681C7.55158 21.8799 7.67785 21.9644 7.81908 22.0134C7.9603 22.0624 8.11175 22.0743 8.2589 22.048C8.40605 22.0217 8.54397 21.958 8.65945 21.8631L12.0457 19.0845C12.2181 18.9429 12.4342 18.8655 12.6573 18.8653H16.5948C19.6136 18.8653 22.0601 16.4188 22.0601 13.3987V10.6425C22.0601 10.411 21.9681 10.189 21.8044 10.0253C21.6408 9.86164 21.4187 9.76969 21.1873 9.76969C20.9558 9.76969 20.7338 9.86164 20.5701 10.0253C20.4064 10.189 20.3145 10.411 20.3145 10.6425V13.3987C20.3145 13.8874 20.2182 14.3712 20.0312 14.8227C19.8442 15.2741 19.5701 15.6843 19.2246 16.0299C18.8791 16.3754 18.4689 16.6495 18.0175 16.8364C17.566 17.0234 17.0822 17.1197 16.5935 17.1197H12.6573C12.0313 17.1197 11.4236 17.3376 10.938 17.7353L8.6542 19.6095L8.26045 17.8061C8.21792 17.6115 8.11011 17.4373 7.95492 17.3125C7.79974 17.1876 7.60651 17.1196 7.40733 17.1197C6.91858 17.1199 6.43458 17.0237 5.98298 16.8368C5.53139 16.6499 5.12104 16.3759 4.77538 16.0303C4.42972 15.6848 4.15552 15.2745 3.96844 14.823C3.78137 14.3715 3.68508 13.8875 3.68508 13.3987V8.32594Z"/>
  </g>
  <defs>
    <clipPath id="4l4zmm9lh__clip0_10573_72957">
      <path fill="#fff" transform="translate(1.5 1.5)" d="M0 0H21V21H0z"/>
    </clipPath>
  </defs>
</svg>
