<svg fill="none" xmlns="http://www.w3.org/2000/svg" viewBox="0 0 40 40" class="design-iconfont">
  <path fill="url(#7jalxgqjs__paint0_linear_1582_12759)" d="M20 0A20 20 0 1 0 20 40A20 20 0 1 0 20 0Z"/>
  <path d="M20.9968 10.2478C21.4264 10.4497 21.7669 10.7934 21.9717 11.2052L29.771 26.7754C30.307 27.8799 29.8699 29.2129 28.7961 29.7735C28.2775 30.0202 27.6922 30.0703 27.1462 29.8995L21.6445 28.1966C21.1407 28.0407 20.7968 27.5719 20.7968 27.0409C20.7968 25.9517 19.9969 20.2752 19.9969 20.2752C19.9969 20.2752 19.197 25.9655 19.197 27.0365C19.197 27.5696 18.8505 28.0398 18.344 28.1939L12.8226 29.8743C11.671 30.2258 10.4428 29.5622 10.0978 28.3878C9.92823 27.8442 9.97971 27.2562 10.2478 26.7502L18.0471 11.2052C18.5976 10.1194 19.9221 9.68232 20.9968 10.2478Z" fill="#F5F9FF"/>
  <defs>
    <linearGradient id="7jalxgqjs__paint0_linear_1582_12759" x1="0" y1="0" x2="40" y2="40" gradientUnits="userSpaceOnUse">
      <stop stop-color="#36ABFF"/>
      <stop offset="1" stop-color="#2476FF"/>
    </linearGradient>
  </defs>
</svg>
