<svg fill="none" xmlns="http://www.w3.org/2000/svg" viewBox="0 0 16 16" class="design-iconfont">
  <path d="M14.6667 1.35156C15.0257 1.3516 15.3171 1.64299 15.3171 2.00195V12.002C15.3169 12.3607 15.0256 12.6513 14.6667 12.6514H9.93628L8.45972 14.1279C8.20595 14.3817 7.79463 14.3815 7.54077 14.1279L6.06421 12.6514H1.33374C0.974886 12.6514 0.683561 12.3608 0.68335 12.002V2.00195C0.68335 1.64297 0.974755 1.35156 1.33374 1.35156H14.6667ZM1.98315 11.3516H6.33374C6.50594 11.3517 6.67093 11.4202 6.79272 11.542L7.99976 12.749L9.20679 11.542C9.32869 11.4201 9.49436 11.3516 9.66675 11.3516H14.0164V2.65137H1.98315V11.3516ZM4.99976 6.35156C5.35874 6.35156 5.65015 6.64297 5.65015 7.00195C5.64994 7.36076 5.35861 7.65137 4.99976 7.65137H4.33374C3.97489 7.65137 3.68356 7.36076 3.68335 7.00195C3.68335 6.64297 3.97476 6.35156 4.33374 6.35156H4.99976ZM8.33374 6.35156C8.69273 6.35156 8.98413 6.64297 8.98413 7.00195C8.98392 7.36076 8.6926 7.65137 8.33374 7.65137H7.66675C7.30789 7.65137 7.01657 7.36076 7.01636 7.00195C7.01636 6.64297 7.30776 6.35156 7.66675 6.35156H8.33374ZM11.6667 6.35156C12.0257 6.35161 12.3171 6.643 12.3171 7.00195C12.3169 7.36073 12.0256 7.65132 11.6667 7.65137H11.0007C10.6419 7.65137 10.3506 7.36076 10.3503 7.00195C10.3503 6.64297 10.6417 6.35156 11.0007 6.35156H11.6667Z" fill="currentColor"/>
</svg>
