<svg fill="none" xmlns="http://www.w3.org/2000/svg" viewBox="0 0 16 16" class="design-iconfont">
  <path d="M7.99984 6.66667C9.2885 6.66667 10.3332 5.622 10.3332 4.33333C10.3332 3.04467 9.2885 2 7.99984 2C6.71117 2 5.6665 3.04467 5.6665 4.33333C5.6665 5.622 6.71117 6.66667 7.99984 6.66667Z" stroke="#8C8C8C" stroke-width="1.3" stroke-linecap="round" stroke-linejoin="round"/>
  <path d="M2 13.5987V13.9987H14V13.5987C14 12.1052 14 11.3585 13.7094 10.7881C13.4537 10.2863 13.0457 9.87833 12.544 9.62266C11.9735 9.33203 11.2268 9.33203 9.73333 9.33203H6.26667C4.7732 9.33203 4.02647 9.33203 3.45603 9.62266C2.95426 9.87833 2.54631 10.2863 2.29065 10.7881C2 11.3585 2 12.1052 2 13.5987Z" stroke="#8C8C8C" stroke-width="1.3" stroke-linecap="round" stroke-linejoin="round"/>
</svg>
