<svg fill="none" xmlns="http://www.w3.org/2000/svg" viewBox="0 0 14 14" class="design-iconfont">
  <path d="M11.1761 2.07266C9.70421 0.600781 7.30734 0.600781 5.83703 2.07266L1.7589 6.14766C1.73234 6.17422 1.71828 6.21016 1.71828 6.24766C1.71828 6.28516 1.73234 6.32109 1.7589 6.34766L2.33546 6.92422C2.36182 6.95046 2.39749 6.96519 2.43468 6.96519C2.47187 6.96519 2.50755 6.95046 2.5339 6.92422L6.61203 2.84922C7.11828 2.34297 7.79171 2.06484 8.50734 2.06484C9.22296 2.06484 9.8964 2.34297 10.4011 2.84922C10.9073 3.35547 11.1855 4.02891 11.1855 4.74297C11.1855 5.45859 10.9073 6.13047 10.4011 6.63672L6.24484 10.7914L5.5714 11.4648C4.94171 12.0945 3.91828 12.0945 3.28859 11.4648C2.9839 11.1602 2.81671 10.7555 2.81671 10.3242C2.81671 9.89297 2.9839 9.48828 3.28859 9.18359L7.41203 5.06172C7.51671 4.95859 7.65421 4.90078 7.80109 4.90078H7.80265C7.94953 4.90078 8.08546 4.95859 8.18859 5.06172C8.29328 5.16641 8.34953 5.30391 8.34953 5.45078C8.34953 5.59609 8.29171 5.73359 8.18859 5.83672L4.81828 9.20391C4.79171 9.23047 4.77765 9.26641 4.77765 9.30391C4.77765 9.34141 4.79171 9.37734 4.81828 9.40391L5.39484 9.98047C5.42119 10.0067 5.45687 10.0214 5.49406 10.0214C5.53125 10.0214 5.56692 10.0067 5.59328 9.98047L8.96203 6.61172C9.27296 6.30078 9.44328 5.88828 9.44328 5.44922C9.44328 5.01016 9.2714 4.59609 8.96203 4.28672C8.31984 3.64453 7.27609 3.64609 6.6339 4.28672L6.2339 4.68828L2.51203 8.40859C2.25942 8.65972 2.05918 8.9585 1.92293 9.2876C1.78667 9.61671 1.71711 9.96959 1.71828 10.3258C1.71828 11.0492 2.00109 11.7289 2.51203 12.2398C3.04171 12.768 3.73546 13.032 4.42921 13.032C5.12296 13.032 5.81671 12.768 6.34484 12.2398L11.1761 7.41172C11.887 6.69922 12.2808 5.75078 12.2808 4.74297C12.2823 3.73359 11.8886 2.78516 11.1761 2.07266Z" fill="currentColor"/>
</svg>
