<svg fill="none" xmlns="http://www.w3.org/2000/svg" viewBox="0 0 16 16" class="design-iconfont">
  <path d="M3.28612 6C2.07969 7 1.3335 8 1.3335 8C1.3335 8 4.31826 12 8.00016 12C8.4568 12 8.9027 11.9385 9.3335 11.8307M6.67743 4.16667C7.10496 4.06053 7.5473 4 8.00016 4C11.6821 4 14.6668 8 14.6668 8C14.6668 8 13.9206 9 12.7142 10" stroke="currentColor" stroke-width="1.33333" stroke-linecap="round" stroke-linejoin="round"/>
  <path d="M6.77156 6.87354C6.49953 7.17014 6.3335 7.56557 6.3335 7.99977C6.3335 8.92024 7.0797 9.66644 8.00016 9.66644C8.4544 9.66644 8.8662 9.4847 9.16683 9.19" stroke="currentColor" stroke-width="1.33333" stroke-linecap="round" stroke-linejoin="round"/>
  <path d="M14 14L2 2" stroke="currentColor" stroke-width="1.33333" stroke-linecap="round" stroke-linejoin="round"/>
</svg>
