<svg fill="none" xmlns="http://www.w3.org/2000/svg" viewBox="0 0 16 16" class="design-iconfont">
  <path d="M10.8333 7.83203C10.8333 8.38432 11.281 8.83203 11.8333 8.83203C12.3855 8.83203 12.8333 8.38432 12.8333 7.83203C12.8333 7.27975 12.3855 6.83203 11.8333 6.83203C11.281 6.83203 10.8333 7.27975 10.8333 7.83203Z" fill="#595959"/>
  <path d="M6.83325 7.83203C6.83325 8.38432 7.28097 8.83203 7.83325 8.83203C8.38554 8.83203 8.83325 8.38432 8.83325 7.83203C8.83325 7.27975 8.38554 6.83203 7.83325 6.83203C7.28097 6.83203 6.83325 7.27975 6.83325 7.83203Z" fill="#595959"/>
  <path d="M3.16675 7.83203C3.16675 8.38432 3.61446 8.83203 4.16675 8.83203C4.71903 8.83203 5.16675 8.38432 5.16675 7.83203C5.16675 7.27975 4.71903 6.83203 4.16675 6.83203C3.61446 6.83203 3.16675 7.27975 3.16675 7.83203Z" fill="#595959"/>
</svg>
