<svg fill="none" xmlns="http://www.w3.org/2000/svg" viewBox="0 0 16 16" class="design-iconfont">
  <path d="M14.1851 1.81598C15.4406 3.07142 15.1967 5.4938 13.7879 8.00056C15.1967 10.5083 15.4395 12.9307 14.1851 14.1851C12.9297 15.4406 10.5073 15.1977 8.00056 13.79C5.49277 15.1967 3.06936 15.4406 1.81495 14.1862C0.559511 12.9307 0.803395 10.5083 2.21113 8.00159C0.803395 5.49277 0.559511 3.06936 1.81495 1.81495C3.07039 0.559511 5.49277 0.803395 8.00056 2.21113C10.5073 0.803395 12.9297 0.559511 14.1851 1.81495V1.81598ZM2.97366 9.20455L2.94073 9.2704C2.09176 11.0507 1.98268 12.6066 2.68758 13.3125C3.40174 14.0267 4.98853 13.9052 6.79657 13.0285C6.05788 12.5034 5.36492 11.9168 4.7251 11.275C4.08376 10.6356 3.49784 9.943 2.97366 9.20455ZM13.0275 9.20455L12.8597 9.43608C12.3987 10.0617 11.8677 10.6812 11.275 11.275C10.6354 11.9167 9.94237 12.503 9.20352 13.0275C11.0105 13.9052 12.5973 14.0267 13.3115 13.3125C14.0256 12.5983 13.9042 11.0116 13.0275 9.20455ZM7.99953 3.6518L7.9028 3.71457C7.07205 4.26257 6.29965 4.89427 5.59773 5.59979C4.86502 6.32873 4.21233 7.1339 3.65077 8.00159C4.21306 8.86871 4.86607 9.6735 5.59876 10.4024C6.32765 11.1354 7.13282 11.7885 8.00056 12.3503C8.86768 11.7881 9.67247 11.135 10.4013 10.4024C11.1345 9.67282 11.7876 8.86695 12.3493 7.9985C11.7868 7.13246 11.1338 6.32871 10.4013 5.60082C9.67244 4.86775 8.86726 4.21471 7.99953 3.65283V3.6518ZM7.88016 6.62678C8.08286 6.62678 8.28359 6.6667 8.47086 6.74428C8.65813 6.82185 8.8283 6.93555 8.97163 7.07888C9.11496 7.22222 9.22866 7.39238 9.30624 7.57965C9.38381 7.76693 9.42373 7.96765 9.42373 8.17035C9.42373 8.37306 9.38381 8.57378 9.30624 8.76105C9.22866 8.94833 9.11496 9.11849 8.97163 9.26182C8.8283 9.40516 8.65813 9.51886 8.47086 9.59643C8.28359 9.674 8.08286 9.71392 7.88016 9.71392C7.47078 9.71392 7.07817 9.5513 6.78869 9.26182C6.49921 8.97235 6.33659 8.57973 6.33659 8.17035C6.33659 7.76097 6.49921 7.36836 6.78869 7.07888C7.07817 6.78941 7.47078 6.62678 7.88016 6.62678ZM6.79657 2.97366C4.98853 2.09588 3.40174 1.97548 2.68758 2.68861C1.97342 3.40277 2.09485 4.98956 2.97263 6.7976C3.49736 6.05895 4.08361 5.366 4.7251 4.72613C5.29772 4.1524 5.91277 3.62265 6.56504 3.14139L6.79657 2.97366ZM9.26937 2.94176L9.20352 2.97469C9.94197 3.49887 10.6346 4.08479 11.274 4.72613C11.9157 5.36544 12.5019 6.05808 13.0264 6.79657C13.9042 4.98956 14.0256 3.40277 13.3115 2.68861C12.6055 1.98371 11.0496 2.09279 9.26937 2.94176Z" fill="currentColor"/>
</svg>
