<svg fill="none" xmlns="http://www.w3.org/2000/svg" viewBox="0 0 20 20" class="design-iconfont">
  <g clip-path="url(#l1s0ls78g__clip0_12661_9869)">
    <path d="M0 5.16129C0 2.31079 2.31079 0 5.16129 0H14.8387C17.6892 0 20 2.31079 20 5.16129V14.8387C20 17.6892 17.6892 20 14.8387 20H5.16129C2.31079 20 0 17.6892 0 14.8387V5.16129Z" fill="#21A665"/>
    <g filter="url(#l1s0ls78g__filter0_d_12661_9869)" fill="#fff">
      <path d="M13.6493 6.62194C13.0672 5.45787 11.6537 4.37695 9.90763 4.37695C9.07616 4.37695 7.7458 4.70954 6.74803 5.95676C5.9997 6.70508 5.83341 7.70285 5.91655 8.61748C5.9997 9.28266 6.41544 10.1141 6.91432 10.6962C7.08062 9.28266 7.82895 8.20174 8.82672 7.45341C10.4897 6.12305 12.3189 6.2062 13.6493 6.62194Z"/>
      <path d="M15.0628 8.70059C13.9819 7.37023 12.2358 6.95449 10.5729 7.53653C10.656 7.53653 10.656 7.53653 10.7392 7.61967C13.1504 8.45115 14.4808 11.1119 13.6493 13.5231C13.3999 14.1883 13.0673 14.7704 12.6516 15.1861C13.1504 15.0198 13.7325 14.8535 14.1482 14.5209C15.9775 13.0243 16.3101 10.4467 15.0628 8.70059Z"/>
      <path d="M9.90769 13.0242C9.5751 13.0242 9.15936 12.9411 8.82677 12.9411H8.66047C8.57733 12.9411 8.49418 12.9411 8.41103 13.0242L7.24697 13.7725H7.16382C7.08067 13.7725 6.99752 13.6894 6.99752 13.6062V13.44C6.99752 13.44 7.16382 12.8579 7.16382 12.5253V12.4422C7.16382 12.359 7.08067 12.1927 6.99752 12.1927C5.83346 11.3613 5.00198 10.1141 4.83569 8.78369C4.58624 9.28258 4.5031 9.61517 4.3368 10.1972C3.75477 12.2759 5.00198 14.6872 7.08067 15.3523C9.49195 16.1007 11.7369 15.2692 12.5684 13.1905C12.6516 12.9411 12.7347 12.5253 12.8178 12.1927C11.9864 12.7748 11.0718 13.0242 9.90769 13.0242Z"/>
    </g>
    <path d="M0 13.5483C0 13.5483 6.08664 14.1935 10 14.1935C13.9134 14.1935 20 13.5483 20 13.5483V20H0V13.5483Z" fill="#0DC7A1"/>
    <path d="M4.18193 16.9406C4.02322 17.3819 3.72128 17.7458 3.27225 18.04L3.08644 17.8116C3.51999 17.5251 3.80644 17.169 3.9458 16.7393C3.98838 16.5884 4.02322 16.4258 4.05031 16.2477H2.94709V18.8993H2.66451V15.9768H4.08128C4.10064 15.7793 4.11225 15.5664 4.11225 15.3419H4.39483C4.39483 15.5703 4.38322 15.7832 4.36773 15.9768H5.72644V18.4697C5.72644 18.729 5.5987 18.8606 5.35096 18.8606H4.74322L4.6658 18.5819L5.25806 18.5974C5.38193 18.5974 5.44386 18.5316 5.44386 18.4077V16.2477H4.33677C4.31741 16.3948 4.29419 16.5342 4.26322 16.6619C4.6658 17.0413 5.00257 17.4168 5.27741 17.7845L5.06838 17.9974C4.84386 17.6645 4.5458 17.3122 4.18193 16.9406ZM6.40386 16.449H7.90967L7.9329 16.2245H6.66322V15.5006H9.4658V16.2245H8.21161L8.18838 16.449H9.72902V16.6619H8.15741C8.14193 16.7393 8.13031 16.8129 8.11483 16.8826H9.23741V18.5897H9.7987V18.8142H6.33419V18.5897H6.89548V16.8826H7.83612C7.8516 16.809 7.86322 16.7355 7.8787 16.6619H6.40386V16.449ZM7.16644 18.5897H8.96257V18.3342H7.16644V18.5897ZM7.16644 18.16H8.96257V17.9161H7.16644V18.16ZM7.16644 17.738H8.96257V17.4942H7.16644V17.738ZM7.16644 17.32H8.96257V17.0761H7.16644V17.32ZM9.20257 16.0271V15.7058H8.6258V16.0271H9.20257ZM8.37031 16.0271V15.7058H7.7587V16.0271H8.37031ZM7.50709 16.0271V15.7058H6.93031V16.0271H7.50709ZM13.4916 15.4464L13.6271 15.6787C13.3445 15.7368 13.0193 15.7793 12.6477 15.8103V16.2322H13.7006V16.4877H12.6477V18.4387H13.2981V17.889H12.8335V17.649H13.2981V17.1419H12.8413V16.8942H13.5574V18.9071H13.2981V18.6864H11.7226V18.8761H11.471V17.0064C11.6993 16.9522 11.9122 16.871 12.1097 16.7626L12.2722 16.9832C12.1019 17.0606 11.92 17.1264 11.7226 17.1806V17.6529H12.2026V17.8929H11.7226V18.4387H12.3884V16.4877H11.4361V16.2322H12.3884V15.8258C12.1135 15.8413 11.8193 15.849 11.5019 15.849L11.4129 15.5935C12.249 15.5935 12.9419 15.5432 13.4916 15.4464ZM11.3161 16.9329V17.2077C11.2 17.2735 11.0877 17.3355 10.9755 17.3935V18.5471C10.9755 18.7639 10.871 18.8722 10.6619 18.8722H10.3368L10.2787 18.609C10.3793 18.6206 10.4761 18.6284 10.569 18.6284C10.6581 18.6284 10.7045 18.578 10.7045 18.4774V17.5213C10.5535 17.5871 10.4026 17.6451 10.2516 17.6993L10.1897 17.4361C10.3639 17.3858 10.5342 17.3239 10.7045 17.2542V16.3329H10.2129V16.0658H10.7045V15.3574H10.9755V16.0658H11.3161V16.3329H10.9755V17.1264C11.0916 17.0645 11.2039 17.0026 11.3161 16.9329ZM14.8852 15.3303L15.1484 15.4503C15.0477 15.7561 14.92 16.0464 14.7652 16.3213V18.9071H14.4903V16.7471C14.3664 16.9174 14.231 17.08 14.0839 17.2348L13.9948 16.9368C14.4052 16.4722 14.6993 15.9342 14.8852 15.3303ZM15.5355 15.5858L15.8103 15.6206C15.7793 15.8142 15.7368 16 15.6826 16.1703H16.2516V15.3651H16.5303V16.1703H17.4206V16.4413H16.5303V17.3742H17.5639V17.6413H16.5303V18.8877H16.2516V17.6413H15.1135V17.3742H16.2516V16.4413H15.5935C15.4968 16.6968 15.3768 16.9251 15.2335 17.1264L15.0555 16.8942C15.2916 16.538 15.4503 16.1006 15.5355 15.5858Z" fill="#fff"/>
  </g>
  <defs>
    <clipPath id="l1s0ls78g__clip0_12661_9869">
      <path d="M0 5.16129C0 2.31079 2.31079 0 5.16129 0H14.8387C17.6892 0 20 2.31079 20 5.16129V14.8387C20 17.6892 17.6892 20 14.8387 20H5.16129C2.31079 20 0 17.6892 0 14.8387V5.16129Z" fill="#fff"/>
    </clipPath>
    <filter id="l1s0ls78g__filter0_d_12661_9869" x="2.93967" y="4.37695" width="14.1208" height="13.7535" filterUnits="userSpaceOnUse" color-interpolation-filters="sRGB">
      <feFlood flood-opacity="0" result="BackgroundImageFix"/>
      <feColorMatrix in="SourceAlpha" values="0 0 0 0 0 0 0 0 0 0 0 0 0 0 0 0 0 0 127 0" result="hardAlpha"/>
      <feOffset dy="1.25393"/>
      <feGaussianBlur stdDeviation=".626964"/>
      <feColorMatrix values="0 0 0 0 0.103314 0 0 0 0 0.32111 0 0 0 0 0.367781 0 0 0 0.16 0"/>
      <feBlend in2="BackgroundImageFix" result="effect1_dropShadow_12661_9869"/>
      <feBlend in="SourceGraphic" in2="effect1_dropShadow_12661_9869" result="shape"/>
    </filter>
  </defs>
</svg>
