<svg fill="none" xmlns="http://www.w3.org/2000/svg" viewBox="0 0 20 20" class="design-iconfont">
  <path d="M0 6C0 2.68629 2.68629 0 6 0H14C17.3137 0 20 2.68629 20 6V14C20 17.3137 17.3137 20 14 20H6C2.68629 20 0 17.3137 0 14V6Z" fill="#FF9326"/>
  <path d="M7.88462 4.61646C7.88462 4.32021 7.50367 4.07812 7.03844 4.07812C6.57326 4.07812 6.19231 4.32021 6.19231 4.61646V6.76984H4.5V10.0003H9.57694V6.76984H7.88462V4.61646ZM10.4231 12.1537C10.4231 12.8536 11.1337 13.4462 12.1154 13.6717V15.9226H13.8077V13.6717C14.7893 13.4519 15.5 12.8586 15.5 12.1537V11.0771H10.4231V12.1537H10.4231ZM4.5 12.1537C4.5 12.8536 5.21059 13.4462 6.19231 13.6717V15.9226H7.88462V13.6717C8.86629 13.4462 9.57694 12.8536 9.57694 12.1537V11.0771H4.5V12.1537ZM13.8077 4.61646C13.8077 4.32021 13.4267 4.07812 12.9615 4.07812C12.4963 4.07812 12.1153 4.32021 12.1153 4.61646V6.76984H10.423V10.0003H15.4999V6.76984H13.8076V4.61646H13.8077Z" fill="#fff"/>
</svg>
