<svg width="16" height="16" viewBox="0 0 16 16" fill="none" xmlns="http://www.w3.org/2000/svg">
<path fill-rule="evenodd" clip-rule="evenodd" d="M2.01758 3.6666C2.01758 3.30762 2.30859 3.0166 2.66758 3.0166H14.0009C14.3599 3.0166 14.6509 3.30762 14.6509 3.6666C14.6509 4.02559 14.3599 4.3166 14.0009 4.3166H2.66758C2.30859 4.3166 2.01758 4.02559 2.01758 3.6666Z" fill="#595959"/>
<path fill-rule="evenodd" clip-rule="evenodd" d="M2.01758 7.99998C2.01758 7.64099 2.30859 7.34998 2.66758 7.34998H14.0009C14.3599 7.34998 14.6509 7.64099 14.6509 7.99998C14.6509 8.35896 14.3599 8.64998 14.0009 8.64998H2.66758C2.30859 8.64998 2.01758 8.35896 2.01758 7.99998Z" fill="#595959"/>
<path fill-rule="evenodd" clip-rule="evenodd" d="M2.01758 12.3333C2.01758 11.9744 2.30859 11.6833 2.66758 11.6833H8.00091C8.3599 11.6833 8.65091 11.9744 8.65091 12.3333C8.65091 12.6923 8.3599 12.9833 8.00091 12.9833H2.66758C2.30859 12.9833 2.01758 12.6923 2.01758 12.3333Z" fill="#595959"/>
<path fill-rule="evenodd" clip-rule="evenodd" d="M14.46 13.0119C14.7139 12.758 14.7138 12.3465 14.46 12.0926L12.5744 10.207C12.3205 9.95321 11.909 9.95321 11.6551 10.207L9.76951 12.0926C9.51567 12.3465 9.51566 12.758 9.7695 13.0119C10.0233 13.2657 10.4349 13.2657 10.6887 13.0119L12.1148 11.5859L13.5408 13.0119C13.7946 13.2657 14.2062 13.2657 14.46 13.0119Z" fill="#595959"/>
</svg>
