<svg width="16" height="16" viewBox="0 0 16 16" fill="none" xmlns="http://www.w3.org/2000/svg">
<path fill-rule="evenodd" clip-rule="evenodd" d="M6.54871 2.41145C7.06219 2.4526 7.50801 2.78116 7.69932 3.25944L11.089 11.7337C11.3671 12.4289 11.0289 13.218 10.3337 13.4961C9.6384 13.7742 8.84932 13.4361 8.57121 12.7408L6.19671 6.80453L3.75062 10.8814H5.42351C6.17234 10.8814 6.77939 11.4884 6.77939 12.2372C6.77939 12.9861 6.17234 13.5931 5.42351 13.5931H1.35588C0.867393 13.5931 0.416669 13.3304 0.175993 12.9053C-0.0646827 12.4802 -0.0581011 11.9585 0.193222 11.5396L5.27776 3.0654C5.54279 2.62369 6.03524 2.37031 6.54871 2.41145Z" fill="#2475FC"/>
<path fill-rule="evenodd" clip-rule="evenodd" d="M14.1256 6.00816C14.8729 6.05575 15.4401 6.70014 15.3925 7.44746L15.0821 12.3224C15.0345 13.0697 14.3901 13.6369 13.6428 13.5894C12.8955 13.5418 12.3282 12.8974 12.3758 12.1501L12.6863 7.27513C12.7338 6.52782 13.3782 5.96057 14.1256 6.00816Z" fill="#2475FC"/>
<path d="M15.9999 4.18808C15.9999 5.03052 15.317 5.71344 14.4746 5.71344C13.6321 5.71344 12.9492 5.03052 12.9492 4.18808C12.9492 3.34565 13.6321 2.66272 14.4746 2.66272C15.317 2.66272 15.9999 3.34565 15.9999 4.18808Z" fill="#2475FC"/>
</svg>
