<svg width="72" height="22" viewBox="0 0 72 22" fill="none" xmlns="http://www.w3.org/2000/svg">
<rect width="72" height="22" rx="6" fill="#CCDFFF"/>
<path d="M14.0007 17.6637C15.8416 17.6637 17.5083 16.9175 18.7147 15.711C19.9211 14.5046 20.6673 12.8379 20.6673 10.997C20.6673 9.15606 19.9211 7.48939 18.7147 6.28294C17.5083 5.07652 15.8416 4.33032 14.0007 4.33032C12.1597 4.33032 10.4931 5.07652 9.2866 6.28294C8.08018 7.48939 7.33398 9.15606 7.33398 10.997C7.33398 12.8379 8.08018 14.5046 9.2866 15.711C10.4931 16.9175 12.1597 17.6637 14.0007 17.6637Z" fill="#2475FC"/>
<path d="M11.334 11L13.334 13L17.334 9" stroke="white" stroke-width="1.33" stroke-linecap="round" stroke-linejoin="round"/>
<path d="M35.816 11.058H27.136V14.908C27.136 15.44 27.402 15.706 27.934 15.706H34.92C35.172 15.706 35.41 15.622 35.606 15.454C35.83 15.244 35.97 14.404 36.054 12.934L37.356 13.354C37.188 15.118 36.95 16.168 36.656 16.49C36.32 16.798 35.872 16.966 35.298 16.994H27.57C26.38 16.994 25.792 16.378 25.792 15.146V7.866H27.136V9.784H34.458V6.452H25.218V5.178H35.816V11.058ZM39.442 9.014L40.548 4.926L41.878 5.15L41.15 7.74H43.222C43.488 6.704 43.698 5.612 43.866 4.464L45.224 4.632C45.056 5.738 44.846 6.774 44.608 7.74H51.02V9.014H44.272C44.132 9.476 43.978 9.91 43.838 10.33H49.438V11.45C49.074 12.598 48.388 13.634 47.352 14.558C48.416 15.146 49.704 15.692 51.202 16.196L50.516 17.456C48.822 16.84 47.394 16.154 46.246 15.426C45.14 16.196 43.782 16.896 42.172 17.526L41.472 16.266C42.872 15.762 44.076 15.202 45.07 14.6C44.16 13.872 43.474 13.088 43.026 12.262C42.018 14.334 40.744 15.986 39.218 17.218L38.532 15.986C40.464 14.278 41.906 11.954 42.858 9.014H39.442ZM43.992 11.534C44.454 12.36 45.182 13.13 46.176 13.83C47.058 13.116 47.702 12.346 48.094 11.534H43.992ZM47.576 4.478C48.542 5.206 49.354 5.948 50.012 6.69L49.06 7.642C48.5 6.914 47.716 6.158 46.68 5.36L47.576 4.478ZM59.266 8.244H60.554V9.854H64.418V14.614C64.418 15.58 63.928 16.07 62.948 16.07H61.674L61.352 14.838L62.528 14.88C62.934 14.88 63.144 14.684 63.144 14.32V11.086H60.554V17.442H59.266V11.086H56.648V16.182H55.374V10.974C54.744 11.618 54.058 12.22 53.316 12.78L52.462 11.66C54.114 10.442 55.444 9.056 56.424 7.516H52.938V6.214H57.152C57.432 5.626 57.67 5.038 57.866 4.45L59.21 4.618C59.028 5.178 58.832 5.71 58.608 6.214H65.202V7.516H57.978C57.502 8.342 56.97 9.126 56.382 9.854H59.266V8.244Z" fill="#2475FC"/>
</svg>
