<svg width="72" height="22" viewBox="0 0 72 22" fill="none" xmlns="http://www.w3.org/2000/svg">
<rect width="72" height="22" rx="6" fill="#BFBFBF"/>
<path d="M14.0007 17.6637C15.8416 17.6637 17.5083 16.9175 18.7147 15.711C19.9211 14.5046 20.6673 12.8379 20.6673 10.997C20.6673 9.15606 19.9211 7.48939 18.7147 6.28294C17.5083 5.07652 15.8416 4.33032 14.0007 4.33032C12.1597 4.33032 10.4931 5.07652 9.2866 6.28294C8.08018 7.48939 7.33398 9.15606 7.33398 10.997C7.33398 12.8379 8.08018 14.5046 9.2866 15.711C10.4931 16.9175 12.1597 17.6637 14.0007 17.6637Z" fill="white"/>
<path fill-rule="evenodd" clip-rule="evenodd" d="M13.9993 15.3363C14.4596 15.3363 14.8327 14.9632 14.8327 14.503C14.8327 14.0428 14.4596 13.6697 13.9993 13.6697C13.5391 13.6697 13.166 14.0428 13.166 14.503C13.166 14.9632 13.5391 15.3363 13.9993 15.3363Z" fill="#BFBFBF" stroke="#BFBFBF" stroke-linecap="round" stroke-linejoin="round"/>
<path d="M14 7V12.3333Z" fill="#BFBFBF"/>
<path d="M14 7V12.3333" stroke="#BFBFBF" stroke-width="1.3" stroke-linecap="round" stroke-linejoin="round"/>
<path d="M30.328 4.576H31.672V6.382H36.362V7.67H31.672V9.84H37.104V11.128H32.778C33.702 12.766 35.256 14.236 37.426 15.538L36.488 16.742C34.234 15.062 32.652 13.2 31.728 11.128H31.672V17.4H30.328V11.128H30.272C29.278 13.396 27.64 15.272 25.372 16.756L24.602 15.51C26.702 14.362 28.242 12.892 29.222 11.128H24.896V9.84H30.328V7.67H25.736V6.382H30.328V4.576ZM39.442 9.014L40.548 4.926L41.878 5.15L41.15 7.74H43.222C43.488 6.704 43.698 5.612 43.866 4.464L45.224 4.632C45.056 5.738 44.846 6.774 44.608 7.74H51.02V9.014H44.272C44.132 9.476 43.978 9.91 43.838 10.33H49.438V11.45C49.074 12.598 48.388 13.634 47.352 14.558C48.416 15.146 49.704 15.692 51.202 16.196L50.516 17.456C48.822 16.84 47.394 16.154 46.246 15.426C45.14 16.196 43.782 16.896 42.172 17.526L41.472 16.266C42.872 15.762 44.076 15.202 45.07 14.6C44.16 13.872 43.474 13.088 43.026 12.262C42.018 14.334 40.744 15.986 39.218 17.218L38.532 15.986C40.464 14.278 41.906 11.954 42.858 9.014H39.442ZM43.992 11.534C44.454 12.36 45.182 13.13 46.176 13.83C47.058 13.116 47.702 12.346 48.094 11.534H43.992ZM47.576 4.478C48.542 5.206 49.354 5.948 50.012 6.69L49.06 7.642C48.5 6.914 47.716 6.158 46.68 5.36L47.576 4.478ZM59.266 8.244H60.554V9.854H64.418V14.614C64.418 15.58 63.928 16.07 62.948 16.07H61.674L61.352 14.838L62.528 14.88C62.934 14.88 63.144 14.684 63.144 14.32V11.086H60.554V17.442H59.266V11.086H56.648V16.182H55.374V10.974C54.744 11.618 54.058 12.22 53.316 12.78L52.462 11.66C54.114 10.442 55.444 9.056 56.424 7.516H52.938V6.214H57.152C57.432 5.626 57.67 5.038 57.866 4.45L59.21 4.618C59.028 5.178 58.832 5.71 58.608 6.214H65.202V7.516H57.978C57.502 8.342 56.97 9.126 56.382 9.854H59.266V8.244Z" fill="white"/>
</svg>
