<svg width="200" height="200" viewBox="0 0 200 200" fill="none" xmlns="http://www.w3.org/2000/svg">
<path d="M150.185 51.0424C149.013 49.202 147.029 48.0612 144.871 47.9829C143.614 46.0379 141.46 44.8837 139.167 44.9228C137.331 44.9053 135.563 45.637 134.262 46.9566C133.668 46.7649 133.047 46.665 132.424 46.665C129.536 46.665 127.152 48.6906 126.906 51.2539C124.703 51.7852 123.118 53.7342 123.024 56.0275C123.024 58.7895 125.52 61.039 128.543 61.039H149.739C152.805 61.039 155.257 58.7895 155.257 56.0275C155.305 53.4034 153.038 51.2475 150.185 51.0424Z" fill="url(#paint0_linear_1544_9008)"/>
<path d="M57.3459 50.0074H53.768C53.768 42.8401 47.9582 37.0332 40.7973 37.0332C33.6316 37.0332 27.8271 42.8401 27.8271 50.0074H25.213C21.9145 50.0074 19.2466 52.9109 19.2466 56.4946C19.2466 60.0783 21.9192 62.9817 25.213 62.9817H57.3459C60.6403 62.9817 63.3123 60.0783 63.3123 56.4946C63.3123 52.9109 60.6403 50.0074 57.3459 50.0074Z" fill="url(#paint1_linear_1544_9008)"/>
<path d="M179.715 38.7562H175.792C175.792 30.8915 169.42 24.5254 161.566 24.5254C153.711 24.5254 147.339 30.8915 147.339 38.7562H144.472C140.855 38.7562 137.928 41.9395 137.928 45.8715C137.928 49.7959 140.855 52.9869 144.472 52.9869H179.715C183.332 52.9869 186.26 49.7959 186.26 45.8715C186.26 41.9395 183.332 38.7562 179.715 38.7562Z" fill="url(#paint2_linear_1544_9008)"/>
<path fill-rule="evenodd" clip-rule="evenodd" d="M97.4534 126.979C123.275 126.979 146.526 129.086 162.782 132.447C178.68 132.557 191.478 137.315 191.478 143.175C191.478 147.819 183.438 151.774 172.189 153.267C169.505 154.058 166.48 154.807 163.161 155.505C163.249 155.947 163.291 156.397 163.291 156.847C163.291 167.07 141.066 175.357 113.65 175.357C88.9851 175.357 68.5185 168.647 64.6607 159.859C31.7499 157.36 8.47754 151.21 8.47754 144.016C8.47754 134.605 48.3126 126.979 97.4534 126.979Z" fill="url(#paint3_linear_1544_9008)" fill-opacity="0.68"/>
<path d="M172.677 120.907L172.807 121.349L172.917 121.766L172.967 122.102L172.866 122.792L172.572 123.389L172.118 123.873L171.545 124.206L171.049 124.231L170.573 124.256H170.073L165.975 124.311V128.648L166.013 130.583L166.106 132.337L166.236 134.13H162.45L162.53 133.116L162.58 131.492L162.61 128.753V124.778L162.13 125.072L161.608 125.169L161.184 125.114L160.835 124.958L160.536 124.715L160.296 124.386L157.322 124.231L156.527 123.911L155.879 123.36L155.555 122.893L155.366 122.376L155.298 121.791L155.323 121.505L155.404 121.244L156.06 119.738L156.169 119.183L156.388 118.673L156.703 118.211L157.086 117.816L161.213 110.255H161.238L161.794 109.402L162.425 108.695L162.913 108.341L163.493 108.123L164.183 108.047L165.087 108.173L165.883 108.539L166.535 109.111L166.997 109.839L170.313 116.255L170.872 116.515L171.36 116.877L171.785 117.349L172.105 117.891L172.298 118.484L172.361 119.14L172.231 120.024L172.677 120.907Z" fill="url(#paint4_linear_1544_9008)"/>
<path d="M189.504 129.321L189.634 129.763L189.744 130.18L189.794 130.516L189.693 131.206L189.399 131.803L188.944 132.287L188.372 132.62L187.876 132.645L187.4 132.67H186.9L182.802 132.725V137.062L182.84 138.997L182.933 140.751L183.063 142.543H179.277L179.357 141.53L179.408 139.906L179.437 137.167V133.192L178.957 133.486L178.436 133.583L178.011 133.528L177.661 133.372L177.363 133.129L177.123 132.8L174.149 132.645L173.353 132.325L172.706 131.774L172.382 131.307L172.192 130.789L172.125 130.205L172.15 129.919L172.23 129.658L172.887 128.152L172.996 127.597L173.215 127.088L173.53 126.625L173.913 126.229L178.04 118.669H178.065L178.62 117.816L179.251 117.108L179.739 116.755L180.32 116.536L181.01 116.461L181.915 116.587L182.71 116.953L183.362 117.525L183.825 118.253L187.139 124.669L187.699 124.929L188.187 125.291L188.612 125.762L188.932 126.305L189.125 126.898L189.188 127.554L189.058 128.438L189.504 129.321Z" fill="url(#paint5_linear_1544_9008)"/>
<path d="M40.8828 126.301L41.0675 126.927L41.2148 127.516L41.2908 127.996L41.2276 128.665L41.0424 129.271L40.7356 129.822L40.1003 130.508L39.2967 130.983L38.5942 131.021L37.9297 131.055H37.2267L31.4677 131.13V137.289L31.5221 140.036L31.6483 142.522L31.8336 145.067H26.5165L26.6258 143.629L26.7012 141.323L26.7392 137.436V131.795L26.2932 132.106L25.8304 132.287L25.3342 132.346L24.741 132.27L24.2442 132.052L23.8281 131.707L23.4874 131.24L19.314 131.021L18.5443 130.747L17.8711 130.339L17.282 129.784L16.832 129.12L16.5626 128.383L16.4702 127.554L16.5082 127.146L16.6175 126.78L17.5426 124.639L17.6946 123.856L18.0014 123.129L18.4432 122.472L18.9815 121.913L24.779 111.181H24.8164L25.5949 109.97L26.4785 108.969L27.1681 108.464L27.9799 108.156L28.9565 108.047L29.8185 108.127L30.6092 108.358L31.3374 108.749L31.9809 109.267L32.5028 109.877L32.9066 110.592L37.5592 119.7L38.3458 120.066L39.032 120.579L39.6292 121.248L40.0793 122.018L40.3487 122.859L40.441 123.793L40.3989 124.386L40.2558 125.047L40.8828 126.301Z" fill="url(#paint6_linear_1544_9008)"/>
<path d="M138.045 87.4123L95.0894 82.0332V103.36L137.36 108.274L138.045 87.4123Z" fill="url(#paint7_linear_1544_9008)"/>
<path d="M61.0762 88.9826L95.0856 82.0332L95.0897 105.984L61.0762 112.891V88.9826Z" fill="url(#paint8_linear_1544_9008)"/>
<path d="M101.05 98.1884L137.635 88.8125V133.145L101.05 142.521V98.1884Z" fill="url(#paint9_linear_1544_9008)"/>
<path d="M61.5435 90.0996L101.518 98.0268L101.284 142.523L61.5435 133.695V90.0996Z" fill="url(#paint10_linear_1544_9008)"/>
<path d="M101.518 98.181L61.1809 89.6309L52.6016 105.38L93.6236 115.053L101.518 98.181Z" fill="url(#paint11_linear_1544_9008)"/>
<path d="M101.518 98.0229L138.088 87.9941L147.395 103.599L112.371 115.053L101.518 98.0229Z" fill="url(#paint12_linear_1544_9008)"/>
<path d="M62.5043 24.9355L60.7592 27.6151L59.3969 30.1083L58.38 32.4407L57.6647 34.6212L57.2264 36.6696L57.0435 38.6129L57.0943 40.4585L57.3713 42.2281L57.8733 43.9381L58.6097 45.6014L59.5886 47.2314L60.8317 48.8356L62.3682 50.4235L64.2278 51.9939L66.4498 53.5473L69.0797 55.0796L72.1614 56.591L75.7451 58.0725" stroke="url(#paint13_linear_1544_9008)" stroke-width="0.0584426"/>
<path d="M58.9131 55.5586L60.6582 57.555L62.2496 59.1014L63.7054 60.2597L65.0373 61.0855L66.2675 61.6372L67.4124 61.9487L68.4977 62.0457" stroke="url(#paint14_linear_1544_9008)" stroke-width="0.0584426"/>
<path d="M143.714 6L143.671 8.16354L143.395 10.2254L142.884 12.2072L142.143 14.1177L141.156 15.9726L139.917 17.7808L138.397 19.5476L136.571 21.2839L134.413 22.9869L131.881 24.656L128.939 26.2872L125.543 27.8721L121.648 29.4057L117.196 30.8761L112.144 32.2752L106.427 33.5849" stroke="url(#paint15_linear_1544_9008)" stroke-width="0.0584426"/>
<path d="M147.045 22.5391L143.961 24.982L141.288 26.8574L138.977 28.246L136.984 29.2237L135.263 29.859L133.781 30.2021L132.493 30.3119" stroke="url(#paint16_linear_1544_9008)" stroke-width="0.0584426"/>
<path d="M136.759 52.5619L131.858 52.0885L127.343 51.877L123.182 51.9068L119.356 52.1563L115.841 52.6127L112.606 53.2556L109.63 54.0761L106.897 55.0656L104.385 56.2157L102.077 57.5225L99.9598 58.9859L98.0172 60.6053L96.2447 62.3902L94.6252 64.3398L93.1671 66.4753L91.858 68.8007L90.7061 71.3383" stroke="url(#paint17_linear_1544_9008)" stroke-width="0.0584426"/>
<path d="M61.894 35.1035L66.4976 35.9422L70.1946 36.8439L73.1156 37.7837L75.3773 38.7492L77.0938 39.7234L78.3544 40.6971L79.2445 41.6672L79.8318 42.6408L80.1597 43.6402L80.245 44.6817L80.0831 45.8038L79.6448 47.0363L79.0142 48.1374L78.3369 48.8737L77.6087 49.3273L76.808 49.5388L75.8969 49.509L74.8192 49.1958L73.5335 48.5184L71.9748 47.3753L70.0924 45.622L67.8265 43.1154L65.1177 39.6726L61.894 35.1035Z" fill="url(#paint18_linear_1544_9008)"/>
<path d="M94.3887 76.8748L96.0134 73.9947L97.6767 71.5553L99.3651 69.5081L101.088 67.8086L102.84 66.4259L104.631 65.3306L106.469 64.5013L108.366 63.9222L110.343 63.5926L112.411 63.5078L114.593 63.6814L116.911 64.1337L119.382 64.8906L122.032 65.9817L120.658 68.265L119.178 70.2568L117.604 71.982L115.928 73.4705L114.146 74.7264L112.245 75.7708L110.22 76.6042L108.051 77.226L105.72 77.6357L103.211 77.8262L100.501 77.7754L97.5662 77.4668L94.3887 76.8748Z" fill="url(#paint19_linear_1544_9008)"/>
<path d="M75.7446 45.332L76.7247 45.6611L77.5745 46.1596L78.3097 46.8305L78.9391 47.696L79.4674 48.7936L79.8771 50.1699L80.1477 51.8794L80.2447 53.9815" stroke="url(#paint20_linear_1544_9008)" stroke-width="0.0584426" stroke-linecap="round"/>
<path d="M98.7715 85.6578L99.8135 83.9057L100.911 82.4604L102.068 81.2851L103.284 80.35L104.568 79.6341L105.924 79.1204L107.377 78.8124L108.94 78.7031" stroke="url(#paint21_linear_1544_9008)" stroke-width="0.0584426"/>
<defs>
<linearGradient id="paint0_linear_1544_9008" x1="139.169" y1="61.0391" x2="139.169" y2="44.9227" gradientUnits="userSpaceOnUse">
<stop stop-color="white" stop-opacity="0.1"/>
<stop offset="0.14" stop-color="#F8FBFF" stop-opacity="0.27"/>
<stop offset="0.37" stop-color="#EDF5FF" stop-opacity="0.52"/>
<stop offset="0.58" stop-color="#E4F0FF" stop-opacity="0.73"/>
<stop offset="0.76" stop-color="#DEECFF" stop-opacity="0.88"/>
<stop offset="0.91" stop-color="#DAEAFF" stop-opacity="0.97"/>
<stop offset="1" stop-color="#D9E9FF"/>
</linearGradient>
<linearGradient id="paint1_linear_1544_9008" x1="25.4544" y1="74.6503" x2="50.6301" y2="41.7214" gradientUnits="userSpaceOnUse">
<stop stop-color="white" stop-opacity="0.1"/>
<stop offset="0.09" stop-color="#FEFEFF" stop-opacity="0.13"/>
<stop offset="0.23" stop-color="#FBFCFF" stop-opacity="0.21"/>
<stop offset="0.4" stop-color="#F5F9FF" stop-opacity="0.33"/>
<stop offset="0.59" stop-color="#EEF5FF" stop-opacity="0.51"/>
<stop offset="0.79" stop-color="#E4EFFF" stop-opacity="0.74"/>
<stop offset="1" stop-color="#D9E9FF"/>
</linearGradient>
<linearGradient id="paint2_linear_1544_9008" x1="144.736" y1="65.7858" x2="172.35" y2="29.6683" gradientUnits="userSpaceOnUse">
<stop stop-color="white" stop-opacity="0.1"/>
<stop offset="0.09" stop-color="#FEFEFF" stop-opacity="0.13"/>
<stop offset="0.23" stop-color="#FBFCFF" stop-opacity="0.21"/>
<stop offset="0.4" stop-color="#F5F9FF" stop-opacity="0.33"/>
<stop offset="0.59" stop-color="#EEF5FF" stop-opacity="0.51"/>
<stop offset="0.79" stop-color="#E4EFFF" stop-opacity="0.74"/>
<stop offset="1" stop-color="#D9E9FF"/>
</linearGradient>
<linearGradient id="paint3_linear_1544_9008" x1="107.378" y1="177.091" x2="110.008" y2="103.57" gradientUnits="userSpaceOnUse">
<stop offset="0.2597" stop-color="white"/>
<stop offset="1" stop-color="#6397F7"/>
</linearGradient>
<linearGradient id="paint4_linear_1544_9008" x1="171.645" y1="133.817" x2="162.503" y2="133.96" gradientUnits="userSpaceOnUse">
<stop stop-color="#F3F8FF"/>
<stop offset="1" stop-color="#E4EFFF"/>
</linearGradient>
<linearGradient id="paint5_linear_1544_9008" x1="188.472" y1="142.231" x2="179.33" y2="142.374" gradientUnits="userSpaceOnUse">
<stop stop-color="#F3F8FF"/>
<stop offset="1" stop-color="#E4EFFF"/>
</linearGradient>
<linearGradient id="paint6_linear_1544_9008" x1="39.4338" y1="144.623" x2="26.5912" y2="144.823" gradientUnits="userSpaceOnUse">
<stop stop-color="#F3F8FF"/>
<stop offset="1" stop-color="#E4EFFF"/>
</linearGradient>
<linearGradient id="paint7_linear_1544_9008" x1="141.668" y1="105.936" x2="145.504" y2="78.9767" gradientUnits="userSpaceOnUse">
<stop stop-color="#5792F0"/>
<stop offset="1" stop-color="#E4EFFF"/>
</linearGradient>
<linearGradient id="paint8_linear_1544_9008" x1="92.2553" y1="101.904" x2="92.4627" y2="82.0548" gradientUnits="userSpaceOnUse">
<stop stop-color="#5792F0"/>
<stop offset="1" stop-color="#E4EFFF"/>
</linearGradient>
<linearGradient id="paint9_linear_1544_9008" x1="108.998" y1="84.2832" x2="127.846" y2="133.312" gradientUnits="userSpaceOnUse">
<stop stop-color="#E4EFFF"/>
<stop offset="1" stop-color="#5792F0"/>
</linearGradient>
<linearGradient id="paint10_linear_1544_9008" x1="65.6929" y1="90.0996" x2="94.4495" y2="137.205" gradientUnits="userSpaceOnUse">
<stop stop-color="#E4EFFF"/>
<stop offset="1" stop-color="#5792F0"/>
</linearGradient>
<linearGradient id="paint11_linear_1544_9008" x1="72.3259" y1="89.6309" x2="75.5034" y2="114.188" gradientUnits="userSpaceOnUse">
<stop stop-color="#D9E9FF"/>
<stop offset="1" stop-color="#5792F0"/>
</linearGradient>
<linearGradient id="paint12_linear_1544_9008" x1="126.853" y1="84.7798" x2="127.267" y2="112.843" gradientUnits="userSpaceOnUse">
<stop stop-color="#F3F8FF"/>
<stop offset="1" stop-color="#5792F0"/>
</linearGradient>
<linearGradient id="paint13_linear_1544_9008" x1="75.7451" y1="37.168" x2="47.5095" y2="45.5752" gradientUnits="userSpaceOnUse">
<stop stop-color="#5792F0"/>
<stop offset="1" stop-color="#BFD4FA" stop-opacity="0.5"/>
</linearGradient>
<linearGradient id="paint14_linear_1544_9008" x1="68.4977" y1="57.9533" x2="58.6981" y2="65.592" gradientUnits="userSpaceOnUse">
<stop stop-color="#5792F0"/>
<stop offset="1" stop-color="#BFD4FA" stop-opacity="0.5"/>
</linearGradient>
<linearGradient id="paint15_linear_1544_9008" x1="143.714" y1="16.183" x2="103.088" y2="45.154" gradientUnits="userSpaceOnUse">
<stop stop-color="#5792F0"/>
<stop offset="1" stop-color="#BFD4FA" stop-opacity="0.5"/>
</linearGradient>
<linearGradient id="paint16_linear_1544_9008" x1="147.045" y1="25.4084" x2="134.938" y2="37.3668" gradientUnits="userSpaceOnUse">
<stop stop-color="#5792F0"/>
<stop offset="1" stop-color="#BFD4FA" stop-opacity="0.5"/>
</linearGradient>
<linearGradient id="paint17_linear_1544_9008" x1="136.759" y1="59.0611" x2="107.175" y2="95.9952" gradientUnits="userSpaceOnUse">
<stop stop-color="#5792F0"/>
<stop offset="1" stop-color="#BFD4FA" stop-opacity="0.5"/>
</linearGradient>
<linearGradient id="paint18_linear_1544_9008" x1="87.1477" y1="42.3468" x2="66.5295" y2="36.5296" gradientUnits="userSpaceOnUse">
<stop stop-color="#5792F0"/>
<stop offset="1" stop-color="#F3F8FF"/>
</linearGradient>
<linearGradient id="paint19_linear_1544_9008" x1="126.649" y1="69.2644" x2="85.2874" y2="55.7869" gradientUnits="userSpaceOnUse">
<stop stop-color="#5792F0"/>
<stop offset="1" stop-color="#F3F8FF"/>
</linearGradient>
<linearGradient id="paint20_linear_1544_9008" x1="78.9157" y1="53.9815" x2="74.3554" y2="46.3753" gradientUnits="userSpaceOnUse">
<stop stop-color="#909AA9"/>
<stop offset="1" stop-color="#C0C7D2"/>
</linearGradient>
<linearGradient id="paint21_linear_1544_9008" x1="108.94" y1="81.2705" x2="98.4617" y2="89.3537" gradientUnits="userSpaceOnUse">
<stop stop-color="#5792F0"/>
<stop offset="1" stop-color="#BFD4FA" stop-opacity="0.5"/>
</linearGradient>
</defs>
</svg>
