<svg width="200" height="200" viewBox="0 0 200 200" fill="none" xmlns="http://www.w3.org/2000/svg">
<g clip-path="url(#clip0_8962_35220)">
<path d="M156.795 43.0471C155.636 41.228 153.675 40.0995 151.541 40.0221C150.298 38.0991 148.168 36.9578 145.901 36.9966C144.086 36.9792 142.337 37.7027 141.052 39.0074C140.464 38.8185 139.85 38.7191 139.234 38.7191C136.379 38.7191 134.021 40.7219 133.778 43.2562C131.601 43.7815 130.033 45.7091 129.941 47.976C129.941 50.7068 132.409 52.9309 135.397 52.9309H156.353C159.385 52.9309 161.81 50.7068 161.81 47.976C161.857 45.3815 159.616 43.2499 156.795 43.0471Z" fill="url(#paint0_linear_8962_35220)"/>
<path d="M46.6696 62.8245H43.1321C43.1321 55.7379 37.3878 49.9966 30.3076 49.9966C23.2228 49.9966 17.4832 55.7379 17.4832 62.8245H14.8991C11.6372 62.8245 9 65.6952 9 69.2385C9 72.7817 11.6424 75.6524 14.8991 75.6524H46.6696C49.9262 75.6524 52.5687 72.7817 52.5687 69.2385C52.5687 65.6952 49.9262 62.8245 46.6696 62.8245Z" fill="url(#paint1_linear_8962_35220)"/>
<path d="M185.529 35.2907H181.65C181.65 27.5154 175.35 21.2205 167.585 21.2205C159.819 21.2205 153.519 27.5154 153.519 35.2907H150.683C147.108 35.2907 144.213 38.4382 144.213 42.3258C144.213 46.2066 147.108 49.361 150.683 49.361H185.529C189.106 49.361 192 46.2066 192 42.3258C192 38.4382 189.106 35.2907 185.529 35.2907Z" fill="url(#paint2_linear_8962_35220)"/>
<path fill-rule="evenodd" clip-rule="evenodd" d="M96.9723 131.994C122.503 131.994 145.492 134.077 161.564 137.401C177.283 137.509 189.936 142.213 189.936 148.007C189.936 152.599 181.987 156.509 170.865 157.986C168.211 158.767 165.22 159.508 161.939 160.199C162.026 160.636 162.068 161.081 162.068 161.525C162.068 171.633 140.093 179.827 112.986 179.827C88.5995 179.827 68.3638 173.193 64.5495 164.504C32.0099 162.033 9 155.952 9 148.839C9 139.534 48.3857 131.994 96.9723 131.994Z" fill="url(#paint3_linear_8962_35220)" fill-opacity="0.68"/>
<path d="M171.347 125.992L171.476 126.428L171.585 126.84L171.634 127.173L171.534 127.855L171.243 128.446L170.794 128.924L170.228 129.252L169.737 129.277L169.267 129.302H168.772L164.721 129.356V133.645L164.759 135.558L164.85 137.292L164.979 139.064H161.236L161.315 138.062L161.364 136.457L161.394 133.748V129.818L160.919 130.109L160.403 130.205L159.983 130.151L159.638 129.997L159.343 129.756L159.106 129.431L156.165 129.277L155.379 128.961L154.738 128.416L154.418 127.954L154.231 127.443L154.165 126.865L154.189 126.582L154.269 126.324L154.918 124.835L155.026 124.286L155.242 123.783L155.554 123.325L155.932 122.934L160.013 115.459H160.038L160.587 114.615L161.211 113.917L161.693 113.567L162.267 113.351L162.949 113.276L163.843 113.401L164.63 113.763L165.275 114.328L165.732 115.048L169.01 121.391L169.563 121.649L170.045 122.007L170.465 122.473L170.781 123.009L170.973 123.595L171.035 124.244L170.906 125.118L171.347 125.992Z" fill="url(#paint4_linear_8962_35220)"/>
<path d="M187.985 134.31L188.114 134.747L188.222 135.159L188.272 135.492L188.172 136.174L187.881 136.764L187.432 137.243L186.866 137.571L186.375 137.596L185.905 137.621H185.41L181.359 137.675V141.963L181.396 143.877L181.488 145.611L181.617 147.384H177.873L177.952 146.381L178.003 144.775L178.031 142.068V138.137L177.557 138.428L177.042 138.524L176.622 138.47L176.276 138.316L175.981 138.075L175.744 137.75L172.803 137.596L172.017 137.28L171.377 136.735L171.056 136.274L170.869 135.762L170.802 135.184L170.827 134.901L170.906 134.643L171.555 133.154L171.663 132.605L171.88 132.102L172.191 131.644L172.57 131.253L176.65 123.778H176.675L177.224 122.934L177.848 122.236L178.331 121.886L178.905 121.67L179.587 121.595L180.481 121.72L181.267 122.081L181.912 122.647L182.37 123.366L185.647 129.71L186.2 129.968L186.683 130.325L187.103 130.791L187.419 131.328L187.611 131.914L187.673 132.563L187.544 133.437L187.985 134.31Z" fill="url(#paint5_linear_8962_35220)"/>
<path d="M41.0403 131.324L41.2229 131.943L41.3685 132.526L41.4436 133L41.3812 133.661L41.198 134.26L40.8947 134.805L40.2666 135.483L39.472 135.953L38.7775 135.99L38.1205 136.024H37.4254L31.7314 136.099V142.188L31.7851 144.904L31.9099 147.363L32.0931 149.879H26.836L26.944 148.457L27.0186 146.177L27.0561 142.334V136.756L26.6152 137.064L26.1576 137.243L25.667 137.301L25.0805 137.226L24.5894 137.01L24.1779 136.669L23.8411 136.207L19.7148 135.99L18.9537 135.72L18.2881 135.317L17.7056 134.768L17.2607 134.111L16.9943 133.383L16.903 132.563L16.9406 132.16L17.0486 131.798L17.9633 129.681L18.1136 128.907L18.4169 128.187L18.8538 127.538L19.386 126.985L25.1181 116.375H25.1551L25.9247 115.177L26.7984 114.187L27.4803 113.688L28.2829 113.384L29.2484 113.276L30.1007 113.355L30.8826 113.584L31.6025 113.97L32.2387 114.482L32.7547 115.086L33.154 115.792L37.7542 124.798L38.5319 125.159L39.2103 125.667L39.8008 126.328L40.2458 127.089L40.5122 127.922L40.6034 128.845L40.5618 129.431L40.4203 130.084L41.0403 131.324Z" fill="url(#paint6_linear_8962_35220)"/>
<path d="M75.1042 148.546L126.011 176.918L180.241 143.288L126.011 130.749L75.1042 148.546Z" fill="url(#paint7_linear_8962_35220)" fill-opacity="0.68"/>
<path d="M58.9965 21.8885L60.8953 21.198L66.2795 33.0378L62.4814 34.4188L58.9965 21.8885Z" fill="#8AB5F6"/>
<path d="M56.8291 31.8781L68.9751 27.4565L69.7396 27.2225L70.4937 27.0723L71.2437 26.9983L71.9914 27.0006L72.9824 27.1167L73.9306 27.3531L74.8471 27.7125L75.7115 28.1834L76.5037 28.7578L77.2277 29.4425L77.712 30.0146L78.1361 30.6358L78.5059 31.3118L78.8185 32.0445L83.9133 46.0431L84.1462 46.8082L84.2981 47.5622L84.3721 48.3123L84.3675 49.0577L84.2513 50.0504L84.015 50.9992L83.6561 51.9156L83.1846 52.7795L82.6103 53.5694L81.9261 54.2963L81.3558 54.78L80.7346 55.2047L80.0586 55.5745L79.3236 55.8871L67.1752 60.3081L66.413 60.5404L65.6584 60.6924L64.9089 60.7663L64.1612 60.7623L63.1702 60.6461L62.2197 60.4092L61.305 60.0504L60.4411 59.5795L59.6489 59.0045L58.9225 58.3204L58.4406 57.75L58.0142 57.1289L57.6467 56.4528L57.3341 55.7178L52.2387 41.7192L52.0065 40.957L51.8545 40.2006L51.7805 39.4529L51.7823 38.7052L51.899 37.7142L52.1376 36.7637L52.4947 35.8472L52.9657 34.9851L53.5423 34.1929L54.2265 33.4666L54.7968 32.9847L55.418 32.5582L56.094 32.1907L56.8291 31.8781Z" fill="url(#paint8_linear_8962_35220)"/>
<path d="M98.7717 38.0522L99.0063 38.9016L99.112 39.7799L99.0906 40.697L98.9323 41.6625L98.6682 42.5894L98.2857 43.5526L97.7749 44.5604L97.122 45.6166L96.4147 46.599L95.593 47.6044L94.6465 48.6393L93.5671 49.7042L92.0734 51.024L90.3879 52.3594L88.4955 53.7069L86.5453 54.9637L84.431 56.1997L82.1393 57.412L79.8049 58.5295L77.3358 59.5939L74.7268 60.6016L72.0821 61.5077L69.5073 62.2791L66.9977 62.9234L64.4651 63.4659L62.0509 63.8802L59.7482 64.1692L57.4329 64.3535L55.2827 64.4142L53.2909 64.3639L51.7782 64.2414L50.3885 64.0576L49.1126 63.8144L47.9402 63.5168L46.7614 63.1279L45.7219 62.6847L44.8095 62.1924L44.0109 61.6515L43.2696 61.0136L42.6634 60.3248L42.1821 59.5835L41.8146 58.7832L41.58 57.9338L41.4742 57.0549L41.4956 56.1402L41.6539 55.1729L41.918 54.2454L42.3 53.2822L42.8114 52.2744L43.4643 51.2187L44.1716 50.2382L44.9933 49.231L45.9397 48.1955L47.0191 47.1312L48.5128 45.8108L50.1984 44.476L52.0908 43.1285L54.0404 41.8711L56.1553 40.638L58.447 39.4234L60.7814 38.3059L63.2505 37.2409L65.8594 36.2338L68.5042 35.3295L71.079 34.5563L73.5885 33.912L76.1212 33.3695L78.5354 32.9575L80.838 32.6657L83.1528 32.4819L85.3035 32.4207L87.2953 32.4738L88.8081 32.594L90.1978 32.7778L91.4736 33.0204L92.6461 33.3186L93.8248 33.7075L94.8638 34.1507L95.7768 34.643L96.5747 35.1839L97.3167 35.8218L97.9228 36.5106L98.4042 37.2519L98.7717 38.0522Z" fill="#A2C5FE"/>
<path d="M98.7717 39.6089L99.0063 40.4583L99.112 41.3349L99.0906 42.2513L98.9323 43.2169L98.6682 44.1443L98.2857 45.1098L97.7749 46.117L97.122 47.1733L96.4147 48.1533L95.593 49.161L94.6465 50.1959L93.5671 51.2609L92.0734 52.5812L90.3879 53.9137L88.4955 55.2635L86.5453 56.5203L84.431 57.754L82.1393 58.9669L79.8049 60.0861L77.3358 61.1511L74.7268 62.1583L72.0821 63.0626L69.5073 63.8334L66.9977 64.4777L64.4651 65.0226L62.0509 65.4346L59.7482 65.7264L57.4329 65.9101L55.2827 65.9714L53.2909 65.9182L51.7782 65.798L50.3885 65.6143L49.1126 65.3716L47.9402 65.0734L46.7614 64.6845L45.7219 64.2413L44.8095 63.7467L44.0109 63.2082L43.2696 62.5702L42.6634 61.8815L42.1821 61.1401L41.8146 60.3398L41.58 59.4904L41.4742 58.6121L41.4956 57.6951L41.6539 56.7295L41.918 55.8027L42.3 54.8371L42.8114 53.8294L43.4643 52.7731L44.1716 51.7931L44.9933 50.7876L45.9397 49.7527L47.0191 48.6878L48.5128 47.3674L50.1984 46.0326L52.0908 44.6851L54.0404 43.4283L56.1553 42.1924L58.447 40.9801L60.7814 39.8625L63.2505 38.7982L65.8594 37.7904L68.5042 36.8838L71.079 36.113L73.5885 35.4687L76.1212 34.9261L78.5354 34.5118L80.838 34.2206L83.1528 34.0368L85.3035 33.9773L87.2953 34.0281L88.8081 34.1483L90.1978 34.3344L91.4736 34.5777L92.6461 34.8729L93.8248 35.2641L94.8638 35.7073L95.7768 36.1996L96.5747 36.7405L97.3167 37.3784L97.9228 38.0672L98.4042 38.8086L98.7717 39.6089Z" fill="url(#paint9_linear_8962_35220)"/>
<path d="M87.7495 44.7695L87.8703 45.2745L87.8888 45.809L87.7963 46.3834L87.5785 47.0127L87.1728 47.7945L86.5771 48.6416L85.7618 49.569L84.8725 50.4178L83.8058 51.3071L82.5427 52.2322L81.2373 53.088L79.7841 53.9455L78.1679 54.8053L76.5222 55.5952L74.761 56.3539L72.8807 57.0826L70.971 57.7332L69.1358 58.2845L67.3653 58.7363L65.5763 59.1165L63.9116 59.3956L62.3612 59.5794L60.7982 59.6805L59.4102 59.6869L58.1829 59.6065L56.9619 59.4211L55.9606 59.1524L55.1475 58.8166L54.5772 58.4746L54.1381 58.092L53.8064 57.672L53.5758 57.2091L53.4557 56.7041L53.4366 56.1702L53.5296 55.5952L53.7451 54.966L54.1525 54.1841L54.7483 53.337L55.5636 52.4096L56.4529 51.5585L57.5196 50.6715L58.781 49.7464L60.088 48.8906L61.5419 48.0331L63.1575 47.1733L64.8032 46.3834L66.565 45.6253L68.4447 44.896L70.3544 44.2454L72.1902 43.6942L73.9601 43.2423L75.7491 42.8621L77.4138 42.583L78.9641 42.3992L80.5272 42.2981L81.9151 42.2917L83.1424 42.3721L84.3634 42.5581L85.3648 42.8239L86.1778 43.162L86.7481 43.504L87.1879 43.8866L87.5172 44.3049L87.7495 44.7695Z" fill="url(#paint10_linear_8962_35220)"/>
<path d="M53.2061 56.1934L87.3797 43.7555L157.451 129.236L56.9874 148.653L53.2061 56.1934Z" fill="url(#paint11_linear_8962_35220)" fill-opacity="0.5"/>
<path d="M61.3113 21.046L61.4066 21.4557L61.3939 21.8527L61.2882 22.2265L61.094 22.5541L60.8236 22.82L60.4769 23.006L60.0926 23.0863L59.7142 23.0569L59.3553 22.9297L59.034 22.7102L58.77 22.4143L58.5781 22.0405L58.4851 21.6308L58.4955 21.2361L58.6036 20.8599L58.7954 20.5323L59.0658 20.2665L59.4125 20.0804L59.7968 20.0001L60.1747 20.0296L60.5341 20.1567L60.8571 20.3763L61.1195 20.6716L61.3113 21.046Z" fill="#5194FF"/>
<path d="M119.623 97.405L87.6588 103.516L92.6421 118.852L124.006 112.568L119.623 97.405Z" fill="url(#paint12_linear_8962_35220)"/>
<path d="M64.8494 116.528L87.6397 103.594L93.2418 120.823L70.4388 133.725L64.8494 116.528Z" fill="url(#paint13_linear_8962_35220)"/>
<path d="M95.4492 113.592L119.515 98.2753L129.933 130.341L105.868 145.658L95.4492 113.592Z" fill="url(#paint14_linear_8962_35220)" fill-opacity="0.98"/>
<path d="M65.4133 116.877L95.7681 113.364L106.078 145.658L75.6774 148.465L65.4133 116.877Z" fill="url(#paint15_linear_8962_35220)"/>
<path d="M95.8253 113.423L64.8199 116.619L62.3803 130.081L94.1438 127.542L95.8253 113.423Z" fill="url(#paint16_linear_8962_35220)"/>
<path d="M95.8253 113.423L119.676 97.6396L130.024 106.78L107.614 123.237L95.8253 113.423Z" fill="url(#paint17_linear_8962_35220)"/>
<path d="M72.4814 73.24L73.4192 69.7354L74.5853 70.048L75.069 68.24L73.9052 67.9274L76.2333 59.2414L74.3149 58.7259L71.9874 67.4137L69.3085 66.696L69.0213 66.5752L68.8272 66.4001L68.7191 66.1991L68.677 66.0072L68.6983 65.8148L68.8607 65.3965L72.0486 58.1198L70.1493 57.6107L66.658 65.5045L66.5332 65.8633L66.4552 66.269L66.4506 66.6157L66.5078 66.9092L66.7256 67.4079L67.0105 67.7817L67.3699 68.0539L67.8154 68.2336L71.5037 69.2223L70.5636 72.7269L72.4814 73.24Z" fill="#5893F1"/>
<path d="M85.3012 107.975L83.9855 103.068L85.6185 102.631L84.9401 100.103L83.3094 100.54L80.0499 88.377L77.3653 89.0952L80.6248 101.258L76.8729 102.263L76.4401 102.317L76.083 102.24L75.8103 102.073L75.6266 101.869L75.5191 101.621L75.4197 101L74.1924 89.9464L71.5349 90.6582L72.8258 102.673L72.9252 103.197L73.1176 103.742L73.3516 104.165L73.6284 104.482L74.1167 104.86L74.6044 105.107L75.0944 105.238L75.6034 105.261L76.1403 105.172L81.3026 103.789L82.6166 108.694L85.3012 107.975Z" fill="#5893F1"/>
<path d="M87.8639 82.9378L88.3389 82.999L88.9577 82.9482L89.4772 82.817L89.9065 82.6228L90.3307 82.3079L90.6982 81.8792L91.0131 81.3135L91.2685 80.5802L94.1565 69.803L94.268 69.1969L94.2744 68.6115L94.1796 68.0372L93.9791 67.4668L93.7549 67.0779L93.4527 66.7336L93.0598 66.4337L92.568 66.1783L91.9509 65.9668L87.5912 64.799L87.0335 64.7083L86.495 64.7314L85.9622 64.8689L85.426 65.1283L84.9505 65.4918L84.5535 65.946L84.2322 66.5036L83.9895 67.186L81.1148 77.9187L80.9877 78.6092L80.9923 79.2223L81.1102 79.7753L81.343 80.2803L81.7082 80.7743L82.1561 81.1759L82.6906 81.4909L83.3285 81.7208L87.8639 82.9378ZM87.5634 80.5317L84.3062 79.6591L83.9028 79.4968L83.6411 79.2789L83.4891 79.0044L83.4383 78.6537L83.5059 78.1955L86.3153 67.7141L86.4101 67.4836L86.5563 67.2975L86.7608 67.1502L86.9763 67.0739L87.23 67.0589L87.5386 67.1097L91.1269 68.0707L91.4713 68.2122L91.6932 68.4023L91.8244 68.6473L91.8666 68.9646L91.8013 69.3847L89.0444 79.6782L88.9005 80.0942L88.7445 80.3566L88.5839 80.5109L88.3579 80.5993L88.0303 80.616L87.5634 80.5317Z" fill="#5893F1"/>
</g>
<defs>
<linearGradient id="paint0_linear_8962_35220" x1="145.903" y1="52.9311" x2="145.903" y2="36.9965" gradientUnits="userSpaceOnUse">
<stop stop-color="white" stop-opacity="0.1"/>
<stop offset="0.14" stop-color="#F8FBFF" stop-opacity="0.27"/>
<stop offset="0.37" stop-color="#EDF5FF" stop-opacity="0.52"/>
<stop offset="0.58" stop-color="#E4F0FF" stop-opacity="0.73"/>
<stop offset="0.76" stop-color="#DEECFF" stop-opacity="0.88"/>
<stop offset="0.91" stop-color="#DAEAFF" stop-opacity="0.97"/>
<stop offset="1" stop-color="#D9E9FF"/>
</linearGradient>
<linearGradient id="paint1_linear_8962_35220" x1="15.1375" y1="87.1894" x2="40.0293" y2="54.632" gradientUnits="userSpaceOnUse">
<stop stop-color="white" stop-opacity="0.1"/>
<stop offset="0.09" stop-color="#FEFEFF" stop-opacity="0.13"/>
<stop offset="0.23" stop-color="#FBFCFF" stop-opacity="0.21"/>
<stop offset="0.4" stop-color="#F5F9FF" stop-opacity="0.33"/>
<stop offset="0.59" stop-color="#EEF5FF" stop-opacity="0.51"/>
<stop offset="0.79" stop-color="#E4EFFF" stop-opacity="0.74"/>
<stop offset="1" stop-color="#D9E9FF"/>
</linearGradient>
<linearGradient id="paint2_linear_8962_35220" x1="150.945" y1="62.0156" x2="178.248" y2="26.3055" gradientUnits="userSpaceOnUse">
<stop stop-color="white" stop-opacity="0.1"/>
<stop offset="0.09" stop-color="#FEFEFF" stop-opacity="0.13"/>
<stop offset="0.23" stop-color="#FBFCFF" stop-opacity="0.21"/>
<stop offset="0.4" stop-color="#F5F9FF" stop-opacity="0.33"/>
<stop offset="0.59" stop-color="#EEF5FF" stop-opacity="0.51"/>
<stop offset="0.79" stop-color="#E4EFFF" stop-opacity="0.74"/>
<stop offset="1" stop-color="#D9E9FF"/>
</linearGradient>
<linearGradient id="paint3_linear_8962_35220" x1="106.785" y1="181.54" x2="109.385" y2="108.849" gradientUnits="userSpaceOnUse">
<stop offset="0.2597" stop-color="white"/>
<stop offset="1" stop-color="#6397F7"/>
</linearGradient>
<linearGradient id="paint4_linear_8962_35220" x1="170.327" y1="138.755" x2="161.288" y2="138.897" gradientUnits="userSpaceOnUse">
<stop stop-color="#F3F8FF"/>
<stop offset="1" stop-color="#E4EFFF"/>
</linearGradient>
<linearGradient id="paint5_linear_8962_35220" x1="186.965" y1="147.074" x2="177.926" y2="147.216" gradientUnits="userSpaceOnUse">
<stop stop-color="#F3F8FF"/>
<stop offset="1" stop-color="#E4EFFF"/>
</linearGradient>
<linearGradient id="paint6_linear_8962_35220" x1="39.6076" y1="149.439" x2="26.9099" y2="149.637" gradientUnits="userSpaceOnUse">
<stop stop-color="#F3F8FF"/>
<stop offset="1" stop-color="#E4EFFF"/>
</linearGradient>
<linearGradient id="paint7_linear_8962_35220" x1="98.5065" y1="132.337" x2="143.723" y2="180.038" gradientUnits="userSpaceOnUse">
<stop stop-color="#5A91F7" stop-opacity="0.21"/>
<stop offset="0.9749" stop-color="white" stop-opacity="0.3"/>
</linearGradient>
<linearGradient id="paint8_linear_8962_35220" x1="77.7299" y1="40.8229" x2="55.1686" y2="26.1524" gradientUnits="userSpaceOnUse">
<stop stop-color="#5792F0"/>
<stop offset="1" stop-color="#D9E9FF"/>
</linearGradient>
<linearGradient id="paint9_linear_8962_35220" x1="99.0843" y1="47.5408" x2="45.8442" y2="43.3566" gradientUnits="userSpaceOnUse">
<stop stop-color="#5792F0"/>
<stop offset="1" stop-color="#E4EFFF"/>
</linearGradient>
<linearGradient id="paint10_linear_8962_35220" x1="70.6549" y1="49.3899" x2="84.0028" y2="59.7043" gradientUnits="userSpaceOnUse">
<stop stop-color="#F3F8FF"/>
<stop offset="1" stop-color="#5792F0"/>
</linearGradient>
<linearGradient id="paint11_linear_8962_35220" x1="105.328" y1="148.653" x2="105.328" y2="43.7557" gradientUnits="userSpaceOnUse">
<stop stop-color="#F3F8FF" stop-opacity="0.13"/>
<stop offset="1" stop-color="#5792F0"/>
</linearGradient>
<linearGradient id="paint12_linear_8962_35220" x1="102.869" y1="110.9" x2="104.949" y2="113.732" gradientUnits="userSpaceOnUse">
<stop stop-color="#D9E9FF"/>
<stop offset="1" stop-color="#5792F0"/>
</linearGradient>
<linearGradient id="paint13_linear_8962_35220" x1="77.1844" y1="105.671" x2="82.3271" y2="122.659" gradientUnits="userSpaceOnUse">
<stop stop-color="#E4EFFF"/>
<stop offset="1" stop-color="#5792F0"/>
</linearGradient>
<linearGradient id="paint14_linear_8962_35220" x1="98.911" y1="93.7387" x2="122.053" y2="135.516" gradientUnits="userSpaceOnUse">
<stop stop-color="#D9E9FF"/>
<stop offset="1" stop-color="#5792F0"/>
</linearGradient>
<linearGradient id="paint15_linear_8962_35220" x1="81.1137" y1="113.385" x2="89.03" y2="148.46" gradientUnits="userSpaceOnUse">
<stop stop-color="#E4EFFF"/>
<stop offset="1" stop-color="#5792F0"/>
</linearGradient>
<linearGradient id="paint16_linear_8962_35220" x1="64.8766" y1="117.719" x2="89.0011" y2="141.381" gradientUnits="userSpaceOnUse">
<stop stop-color="#D9E9FF"/>
<stop offset="1" stop-color="#5792F0"/>
</linearGradient>
<linearGradient id="paint17_linear_8962_35220" x1="109.803" y1="94.7788" x2="133.841" y2="115.147" gradientUnits="userSpaceOnUse">
<stop stop-color="#F3F8FF"/>
<stop offset="1" stop-color="#5792F0"/>
</linearGradient>
<clipPath id="clip0_8962_35220">
<rect width="183" height="159.829" fill="white" transform="translate(9 20)"/>
</clipPath>
</defs>
</svg>
