<svg width="16" height="12" viewBox="0 0 16 12" fill="none" xmlns="http://www.w3.org/2000/svg">
<path fill-rule="evenodd" clip-rule="evenodd" d="M6.54871 0.411452C7.06219 0.452596 7.50801 0.781157 7.69932 1.25944L11.089 9.73367C11.3671 10.4289 11.0289 11.218 10.3337 11.4961C9.6384 11.7742 8.84932 11.4361 8.57121 10.7408L6.19671 4.80453L3.75062 8.88135H5.42351C6.17234 8.88135 6.77939 9.4884 6.77939 10.2372C6.77939 10.9861 6.17234 11.5931 5.42351 11.5931H1.35588C0.867393 11.5931 0.416669 11.3304 0.175993 10.9053C-0.0646827 10.4802 -0.0581011 9.95851 0.193222 9.53964L5.27776 1.0654C5.54279 0.623689 6.03524 0.370308 6.54871 0.411452Z" fill="#A1A7B3"/>
<path fill-rule="evenodd" clip-rule="evenodd" d="M14.1256 4.00816C14.8729 4.05575 15.4401 4.70014 15.3925 5.44746L15.0821 10.3224C15.0345 11.0697 14.3901 11.6369 13.6428 11.5894C12.8955 11.5418 12.3282 10.8974 12.3758 10.1501L12.6863 5.27513C12.7338 4.52782 13.3782 3.96057 14.1256 4.00816Z" fill="#A1A7B3"/>
<path d="M15.9999 2.18808C15.9999 3.03052 15.317 3.71344 14.4746 3.71344C13.6321 3.71344 12.9492 3.03052 12.9492 2.18808C12.9492 1.34565 13.6321 0.66272 14.4746 0.66272C15.317 0.66272 15.9999 1.34565 15.9999 2.18808Z" fill="#A1A7B3"/>
</svg>
