<svg width="32" height="32" viewBox="0 0 32 32" fill="none" xmlns="http://www.w3.org/2000/svg">
<g clip-path="url(#clip0_7905_25743)">
<path fill-rule="evenodd" clip-rule="evenodd" d="M8.49219 25.5871V23.5893C8.49219 23.5592 8.47807 23.5309 8.45422 23.5126C5.86455 21.5278 4.2168 18.5414 4.2168 15.2015C4.2168 13.5524 4.61851 11.9895 5.33696 10.5908C5.35171 10.5621 5.35135 10.5283 5.33624 10.4998C4.70247 9.30424 4.70054 7.14079 4.79481 5.63945C4.85134 4.73902 5.69188 4.13628 6.55238 4.40742C7.5838 4.73241 8.86375 5.26133 9.58901 6.03144C9.62049 6.06487 9.67078 6.0728 9.71049 6.04974C11.5301 4.99309 13.6866 4.38148 15.9986 4.38148C18.3103 4.38148 20.4666 4.99292 22.286 6.04931C22.3257 6.07237 22.376 6.06445 22.4075 6.03103C23.1328 5.26114 24.4125 4.73235 25.4437 4.40742C26.3042 4.13628 27.1447 4.73902 27.2013 5.63945C27.2955 7.14035 27.2936 9.30297 26.6604 10.4988C26.6453 10.5273 26.645 10.561 26.6597 10.5897C27.3785 11.9887 27.7804 13.552 27.7804 15.2015C27.7804 21.1773 22.5055 26.0216 15.9986 26.0216C14.8076 26.0216 13.6578 25.8592 12.5741 25.5574C12.5461 25.5496 12.5162 25.5547 12.4925 25.5714L10.7855 26.7758L10.7838 26.7769L10.6799 26.8503L9.75338 27.504C9.22343 27.8779 8.49219 27.4989 8.49219 26.8503V25.7164V25.5892V25.5871ZM9.89757 3.38029C8.95233 2.8037 7.937 2.43922 7.24159 2.2201C4.89699 1.48133 2.65166 3.1755 2.50598 5.49574C2.45523 6.30394 2.42675 7.33659 2.50601 8.36118C2.55508 8.99553 2.65254 9.74165 2.86765 10.4692C2.25892 11.9358 1.92346 13.5326 1.92346 15.2015C1.92346 18.932 3.59118 22.2593 6.19885 24.6164V26.8503C6.19885 29.3581 9.02633 30.8236 11.0755 29.3779L13.0039 28.0173C13.971 28.2125 14.9733 28.3149 15.9986 28.3149C23.5843 28.3149 30.0738 22.6238 30.0738 15.2015C30.0738 13.5319 29.7381 11.9346 29.1289 10.4676C29.3438 9.7403 29.4411 8.99448 29.4902 8.36026C29.5693 7.33599 29.5408 6.30371 29.4901 5.49573C29.3444 3.1755 27.0991 1.48133 24.7545 2.2201C24.0592 2.4392 23.0441 2.8036 22.099 3.37999C20.247 2.54965 18.1757 2.08815 15.9986 2.08815C13.8213 2.08815 11.7497 2.54976 9.89757 3.38029Z" fill="#2475FC"/>
<path fill-rule="evenodd" clip-rule="evenodd" d="M18.0584 16.7051C18.4329 16.7051 18.7365 17.0087 18.7365 17.3832C18.7365 18.3115 18.0663 18.8522 17.5197 19.1135C16.9608 19.3808 16.3023 19.486 15.7686 19.486C15.235 19.486 14.5765 19.3808 14.0175 19.1135C13.471 18.8522 12.8008 18.3115 12.8008 17.3832C12.8008 17.0087 13.1044 16.7051 13.4789 16.7051L13.8995 16.7051C14.2658 16.7051 14.5621 17.0033 14.5597 17.3697C14.6222 17.4474 14.6489 17.4609 14.7782 17.5228C15.044 17.6499 15.4286 17.7227 15.7686 17.7227C16.1087 17.7227 16.4933 17.6499 16.7591 17.5228C16.8884 17.4609 16.9559 17.396 16.9775 17.3697C16.9752 17.0033 17.2715 16.7051 17.6378 16.7051L18.0584 16.7051Z" fill="#2475FC"/>
<circle cx="10.6637" cy="14.1578" r="1.56017" fill="#2475FC"/>
<circle cx="20.8746" cy="14.1578" r="1.56017" fill="#2475FC"/>
</g>
<defs>
<clipPath id="clip0_7905_25743">
<rect width="28.8" height="28.8" fill="white" transform="translate(1.59961 1.59961)"/>
</clipPath>
</defs>
</svg>
