<svg fill="none" xmlns="http://www.w3.org/2000/svg" viewBox="0 0 100 24" class="design-iconfont">
  <rect x="1.63879" width="24" height="24" rx="12" fill="#2475FC"/>
  <path d="M7.65811 13.9758C8.04013 14.3578 8.48524 14.6578 8.98108 14.8675C9.49476 15.0848 10.0401 15.195 10.6018 15.195H10.6541C11.8703 15.195 12.9166 15.9223 13.3815 16.9657C13.4267 17.0673 13.5276 17.1326 13.6388 17.1326C13.75 17.1326 13.8509 17.0673 13.8962 16.9657C14.3611 15.9224 15.4073 15.195 16.6235 15.195H16.6759C17.2375 15.195 17.7829 15.0848 18.2966 14.8675C18.7925 14.6578 19.2375 14.3577 19.6195 13.9758C20.0016 13.5938 20.3015 13.1487 20.5113 12.6528C20.7286 12.1392 20.8388 11.5938 20.8388 11.0321C20.8388 10.4705 20.7286 9.92512 20.5113 9.41144C20.3015 8.91552 20.0015 8.47049 19.6195 8.08847C19.2375 7.70645 18.7924 7.40646 18.2966 7.19673C17.783 6.97935 17.2377 6.86914 16.676 6.86914H10.6018C10.0401 6.86914 9.49476 6.97935 8.98108 7.19664C8.48516 7.40637 8.04013 7.70645 7.65811 8.08838C7.27609 8.4704 6.9761 8.91552 6.76637 9.41136C6.54899 9.92512 6.43878 10.4705 6.43878 11.0321C6.43878 11.5938 6.54899 12.1392 6.76629 12.6528C6.97601 13.1488 7.27609 13.5938 7.65803 13.9758H7.65811ZM8.25061 8.68097C8.85228 8.0793 9.68354 7.70696 10.6018 7.70696H16.676C18.5124 7.70696 20.0012 9.19566 20.0012 11.0321C20.0012 11.9504 19.6289 12.7816 19.0272 13.3833C18.4255 13.985 17.5943 14.3573 16.676 14.3573H10.6018C8.76538 14.3573 7.2766 12.8686 7.2766 11.0321C7.2766 10.1139 7.64894 9.28264 8.25061 8.68097Z" fill="#fff"/>
  <path d="M17.9137 11.0871C17.9297 10.4106 17.3943 9.84914 16.7178 9.83308C16.0413 9.81702 15.4798 10.3524 15.4638 11.029C15.4477 11.7055 15.9831 12.2669 16.6596 12.283C17.3362 12.299 17.8976 11.7636 17.9137 11.0871Z" fill="#fff"/>
  <path d="M10.6149 12.2829C11.2915 12.2682 11.828 11.7079 11.8134 11.0314C11.7988 10.3548 11.2384 9.81821 10.5619 9.83286C9.88531 9.8475 9.34872 10.4078 9.36337 11.0844C9.37801 11.7609 9.93834 12.2975 10.6149 12.2829Z" fill="#fff"/>
  <path d="M97.0573 8.74841C96.7157 8.74841 96.4156 8.61905 96.1569 8.36032C95.9085 8.09124 95.7843 7.78077 95.7843 7.42889C95.7843 7.06667 95.9085 6.7562 96.1569 6.49747C96.4053 6.23874 96.7054 6.10938 97.0573 6.10938C97.4091 6.10938 97.7144 6.24391 97.9732 6.51299C98.2319 6.77172 98.3612 7.07702 98.3612 7.42889C98.3612 7.78077 98.2319 8.09124 97.9732 8.36032C97.7144 8.61905 97.4091 8.74841 97.0573 8.74841ZM98.1594 17.8143H96.0016V9.77298H98.1594V17.8143Z" fill="#2475FC"/>
  <path d="M91.8095 12.9857L95.0539 17.8136H92.4615L90.3502 14.6157L89.1394 15.9507V17.8136H86.9816V6H89.1394V13.3272L92.1976 9.77227H94.6969L91.8095 12.9857Z" fill="#2475FC"/>
  <path d="M83.8834 8.74841C83.5419 8.74841 83.2418 8.61905 82.983 8.36032C82.7347 8.09124 82.6105 7.78077 82.6105 7.42889C82.6105 7.06667 82.7347 6.7562 82.983 6.49747C83.2314 6.23874 83.5316 6.10938 83.8834 6.10938C84.2353 6.10938 84.5406 6.24391 84.7993 6.51299C85.0581 6.77172 85.1874 7.07702 85.1874 7.42889C85.1874 7.78077 85.0581 8.09124 84.7993 8.36032C84.5406 8.61905 84.2353 8.74841 83.8834 8.74841ZM84.9856 17.8143H82.8278V9.77298H84.9856V17.8143Z" fill="#2475FC"/>
  <path d="M75.0054 6.44922L77.3651 14.0869L79.5384 6.44922H81.7117L78.1723 17.8126H76.4336L74.043 10.3923L71.7299 17.8126H70.0068L66.3121 6.44922H68.6407L70.9693 14.0869L73.2047 6.44922H75.0054Z" fill="#2475FC"/>
  <path d="M64.2367 17.3486C63.7089 17.7832 62.9741 18.0006 62.0323 18.0006C61.163 18.0006 60.4592 17.7729 59.9211 17.3175C59.3933 16.8518 59.1294 16.0239 59.1294 14.8337V11.5892H57.7012V9.77297H59.1294V7.30469H61.2872V9.77297H63.7089V11.5892H61.2872V14.4767C61.2872 15.0148 61.3803 15.4236 61.5666 15.703C61.7529 15.9825 62.053 16.1222 62.467 16.1222C62.8292 16.1222 63.1707 16.0135 63.4915 15.7962L64.2367 17.3486Z" fill="#2475FC"/>
  <path d="M53.3307 9.57031C54.4174 9.57031 55.266 9.88079 55.8766 10.5017C56.4872 11.1123 56.7925 11.9868 56.7925 13.1253V17.8134H54.9762C54.9659 17.7306 54.9504 17.5961 54.9297 17.4098C54.9193 17.2132 54.8986 17.0424 54.8676 16.8975C54.6295 17.2701 54.3191 17.5495 53.9361 17.7358C53.5636 17.9117 53.1082 17.9997 52.57 17.9997C52.0112 17.9997 51.4989 17.9014 51.0332 17.7048C50.5778 17.5081 50.2156 17.2235 49.9465 16.851C49.6774 16.468 49.5429 16.0178 49.5429 15.5004C49.5429 14.9622 49.693 14.4965 49.9931 14.1033C50.3036 13.6996 50.7175 13.3892 51.235 13.1718C51.7525 12.9545 52.3217 12.8458 52.9426 12.8458C53.5015 12.8458 54.0758 12.939 54.6658 13.1253C54.6347 11.9351 54.1276 11.34 53.1444 11.34C52.3579 11.34 51.7835 11.6919 51.4213 12.3956L49.8844 11.5108C50.1742 10.9105 50.6192 10.4396 51.2195 10.0981C51.8197 9.74625 52.5235 9.57031 53.3307 9.57031ZM54.6658 14.5534C54.1483 14.4292 53.6981 14.3672 53.3152 14.3672C52.8081 14.3672 52.4148 14.4603 52.1354 14.6466C51.8559 14.8225 51.7162 15.0761 51.7162 15.4072C51.7162 15.7074 51.8249 15.9402 52.0422 16.1058C52.2699 16.2714 52.5597 16.3542 52.9116 16.3542C53.3773 16.3542 53.7861 16.2248 54.1379 15.9661C54.4898 15.697 54.6658 15.3296 54.6658 14.8639V14.5534Z" fill="#2475FC"/>
  <path d="M45.1728 9.57046C46.0525 9.57046 46.7511 9.86542 47.2685 10.4553C47.7963 11.0349 48.0602 11.8835 48.0602 13.0012V17.8136H45.9024V13.6998C45.9024 12.2302 45.416 11.4954 44.4432 11.4954C43.9257 11.4954 43.5066 11.6972 43.1858 12.1008C42.8753 12.4941 42.7201 13.053 42.7201 13.7774V17.8136H40.5623V6H42.7201V10.8434C43.2375 9.99478 44.0551 9.57046 45.1728 9.57046Z" fill="#2475FC"/>
  <path d="M35.0411 15.9349C35.5896 15.9349 36.0605 15.79 36.4538 15.5002C36.8574 15.2104 37.1782 14.8068 37.4163 14.2894L39.2946 15.376C39.0152 16.1419 38.5029 16.7732 37.7578 17.2699C37.0126 17.7563 36.1226 17.9995 35.0877 17.9995C34.0838 17.9995 33.1679 17.7563 32.34 17.2699C31.5121 16.7835 30.8549 16.0953 30.3685 15.2053C29.8821 14.3049 29.6389 13.2751 29.6389 12.116C29.6389 10.9569 29.8769 9.93235 30.3529 9.04232C30.8394 8.1523 31.4965 7.46408 32.3245 6.97766C33.1627 6.49125 34.0838 6.24805 35.0877 6.24805C36.1226 6.24805 37.0126 6.49643 37.7578 6.99319C38.5029 7.4796 39.0152 8.10572 39.2946 8.87156L37.4163 9.95823C37.1782 9.44077 36.8574 9.03715 36.4538 8.74737C36.0605 8.4576 35.5896 8.31271 35.0411 8.31271C34.4616 8.31271 33.9441 8.46794 33.4887 8.77842C33.0334 9.0889 32.6712 9.53391 32.4021 10.1135C32.1434 10.6827 32.014 11.3502 32.014 12.116C32.014 12.8819 32.1434 13.5546 32.4021 14.1341C32.6712 14.7137 33.0334 15.1587 33.4887 15.4692C33.9441 15.7796 34.4616 15.9349 35.0411 15.9349Z" fill="#2475FC"/>
</svg>
