<svg width="102" height="28" viewBox="0 0 102 28" fill="none" xmlns="http://www.w3.org/2000/svg">
<path d="M35.5159 16.472C36.3079 16.472 36.8839 16.056 37.2439 15.224L38.9599 16.232C38.8318 16.616 38.6119 16.9721 38.2999 17.3C37.9879 17.6201 37.5958 17.876 37.1239 18.068C36.6598 18.26 36.1399 18.356 35.5639 18.356C34.7719 18.356 34.048 18.168 33.3919 17.792C32.7358 17.4161 32.2159 16.884 31.8319 16.196C31.4479 15.5 31.2559 14.7 31.2559 13.796C31.2559 12.8921 31.4479 12.096 31.8319 11.408C32.2159 10.7201 32.7358 10.188 33.3919 9.81205C34.048 9.43606 34.7719 9.24805 35.5639 9.24805C36.1399 9.24805 36.6598 9.34405 37.1239 9.53605C37.5958 9.72805 37.9879 9.98806 38.2999 10.316C38.6119 10.6361 38.8318 10.988 38.9599 11.372L37.2439 12.38C36.8839 11.5481 36.3079 11.132 35.5159 11.132C35.1238 11.132 34.768 11.24 34.4479 11.456C34.1359 11.664 33.8839 11.972 33.6919 12.38C33.508 12.78 33.4159 13.2521 33.4159 13.796C33.4159 14.34 33.508 14.816 33.6919 15.224C33.8839 15.632 34.1359 15.944 34.4479 16.16C34.768 16.368 35.1238 16.472 35.5159 16.472ZM42.6598 12.74H46.2838V9.41605H48.3358V18.2H46.2838V14.552H42.6598V18.2H40.6078V9.41605H42.6598V12.74ZM55.1644 9.41605L58.7284 18.2H56.5684L55.8964 16.424H52.5724L51.9244 18.2H49.8844L53.3524 9.41605H55.1644ZM55.2484 14.708L54.2044 11.972L53.2084 14.708H55.2484ZM58.3129 9.41605H65.6329V11.228H62.9929V18.2H60.9529V11.228H58.3129V9.41605ZM76.6909 9.41605L78.3709 14.816L79.9189 9.41605H81.8869L79.1149 18.2H77.5429L75.8389 12.956L74.1829 18.2H72.6229L69.7429 9.41605H71.8549L73.4989 14.816L75.0829 9.41605H76.6909ZM85.4917 18.2H83.4397V9.41605H85.4917V18.2ZM92.4808 12.92L96.1408 18.2H93.5008L90.9808 14.516L89.8768 15.716V18.2H87.8248V9.41605H89.8768V13.256L93.2248 9.41605H95.7568L92.4808 12.92ZM99.4534 18.2H97.4014V9.41605H99.4534V18.2Z" fill="#242933"/>
<path d="M14 26C20.6274 26 26 20.6274 26 14C26 7.37258 20.6274 2 14 2C7.37258 2 2 7.37258 2 14C2 20.6274 7.37258 26 14 26Z" fill="#2475FC"/>
<path d="M18.6204 15.4422C18.7239 15.1859 18.8252 14.9197 18.924 14.6435C21.4985 8.78028 20.1442 7.43532 19.8166 7.14801C19.7928 7.12722 19.7665 7.09986 19.7362 7.06833C19.3474 6.66432 18.2985 5.57424 13.5892 8.78028C10.6689 10.7684 9.00756 12.7967 8.25537 14.6228C8.25537 14.6228 16.8462 11.3869 17.0498 11.9626C15.4109 14.8409 13.3126 17.286 13.3126 17.286L18.6204 15.4422Z" fill="white"/>
<path d="M18.2981 16.1932L11.6162 18.5143L16.2137 12.4883L7.99938 15.3512C7.4307 17.3102 7.92139 18.9804 8.99458 20.0312C11.0148 22.0094 15.4 22.5466 18.2981 16.1932Z" fill="white"/>
</svg>
