<svg width="116" height="32" viewBox="0 0 116 32" fill="none" xmlns="http://www.w3.org/2000/svg">
<g clip-path="url(#clip0_9384_49412)">
<path fill-rule="evenodd" clip-rule="evenodd" d="M8.49255 25.5842V23.5864C8.49255 23.5563 8.47844 23.528 8.45458 23.5097C5.86492 21.5249 4.21716 18.5385 4.21716 15.1986C4.21716 13.5495 4.61887 11.9866 5.33733 10.5879C5.35207 10.5592 5.35172 10.5254 5.3366 10.4969C4.70284 9.30131 4.70091 7.13786 4.79517 5.63652C4.85171 4.73609 5.69225 4.13335 6.55274 4.40449C7.58416 4.72948 8.86412 5.2584 9.58938 6.02851C9.62086 6.06194 9.67114 6.06987 9.71086 6.04681C11.5304 4.99016 13.6869 4.37855 15.999 4.37855C18.3107 4.37855 20.4669 4.98999 22.2864 6.04638C22.3261 6.06944 22.3764 6.06152 22.4078 6.0281C23.1332 5.25821 24.4128 4.72942 25.4441 4.40449C26.3046 4.13335 27.1451 4.73609 27.2017 5.63652C27.2959 7.13742 27.294 9.30004 26.6608 10.4958C26.6457 10.5243 26.6453 10.5581 26.6601 10.5868C27.3789 11.9858 27.7808 13.5491 27.7808 15.1986C27.7808 21.1743 22.5059 26.0186 15.999 26.0186C14.8079 26.0186 13.6581 25.8563 12.5744 25.5545C12.5465 25.5467 12.5165 25.5518 12.4928 25.5685L10.7859 26.7728L10.7842 26.774L10.6803 26.8474L9.75375 27.501C9.2238 27.8749 8.49255 27.4959 8.49255 26.8474V25.7135V25.5862V25.5842ZM9.89794 3.37736C8.9527 2.80077 7.93737 2.43629 7.24195 2.21717C4.89736 1.4784 2.65203 3.17257 2.50635 5.49281C2.4556 6.30101 2.42711 7.33366 2.50637 8.35825C2.55545 8.9926 2.65291 9.73872 2.86801 10.4663C2.25929 11.9329 1.92383 13.5296 1.92383 15.1986C1.92383 18.9291 3.59154 22.2563 6.19922 24.6135V26.8474C6.19922 29.3551 9.0267 30.8207 11.0758 29.3749L13.0043 28.0143C13.9714 28.2096 14.9736 28.312 15.999 28.312C23.5847 28.312 30.0741 22.6208 30.0741 15.1986C30.0741 13.529 29.7384 11.9317 29.1293 10.4647C29.3441 9.73737 29.4415 8.99155 29.4905 8.35733C29.5697 7.33306 29.5412 6.30078 29.4905 5.4928C29.3448 3.17257 27.0995 1.4784 24.7549 2.21717C24.0595 2.43627 23.0444 2.80067 22.0994 3.37706C20.2474 2.54672 18.1761 2.08522 15.999 2.08522C13.8216 2.08522 11.7501 2.54683 9.89794 3.37736Z" fill="#2475FC"/>
<path fill-rule="evenodd" clip-rule="evenodd" d="M18.0584 16.7041C18.4329 16.7041 18.7365 17.0077 18.7365 17.3822C18.7365 18.3105 18.0663 18.8512 17.5197 19.1126C16.9608 19.3798 16.3023 19.485 15.7686 19.485C15.235 19.485 14.5765 19.3798 14.0175 19.1126C13.471 18.8512 12.8008 18.3105 12.8008 17.3822C12.8008 17.0077 13.1044 16.7041 13.4789 16.7041L13.8995 16.7041C14.2658 16.7041 14.5621 17.0023 14.5597 17.3687C14.6222 17.4464 14.6489 17.46 14.7782 17.5218C15.044 17.6489 15.4286 17.7218 15.7686 17.7218C16.1087 17.7218 16.4933 17.6489 16.7591 17.5218C16.8884 17.46 16.9559 17.395 16.9775 17.3687C16.9752 17.0023 17.2715 16.7041 17.6378 16.7041L18.0584 16.7041Z" fill="#2475FC"/>
<circle cx="10.6637" cy="14.1578" r="1.56017" fill="#2475FC"/>
<circle cx="20.8746" cy="14.1578" r="1.56017" fill="#2475FC"/>
</g>
<path d="M42.84 8.896C44.352 8.896 45.612 9.292 46.584 10.084C47.52 10.84 48.078 11.884 48.276 13.18H46.224C46.008 12.334 45.612 11.722 45.018 11.326C44.442 10.93 43.704 10.75 42.804 10.75C41.454 10.75 40.446 11.2 39.762 12.136C39.132 12.964 38.826 14.116 38.826 15.592C38.826 17.104 39.132 18.274 39.744 19.084C40.41 19.948 41.454 20.398 42.858 20.398C43.776 20.398 44.532 20.164 45.108 19.732C45.72 19.246 46.152 18.508 46.404 17.536H48.456C48.168 19.048 47.502 20.218 46.44 21.064C45.45 21.856 44.262 22.252 42.876 22.252C40.734 22.252 39.132 21.568 38.088 20.236C37.17 19.084 36.72 17.536 36.72 15.592C36.72 13.684 37.188 12.118 38.142 10.93C39.222 9.562 40.788 8.896 42.84 8.896ZM50.2636 8.896H52.3156V13.936C52.6576 13.414 53.0896 13.036 53.5936 12.784C54.0436 12.55 54.5656 12.442 55.1596 12.442C56.2936 12.442 57.1396 12.766 57.6976 13.432C58.2196 14.062 58.4896 14.998 58.4896 16.24V22H56.4376V16.6C56.4376 15.808 56.2756 15.196 55.9696 14.782C55.6096 14.332 55.0876 14.116 54.3856 14.116C53.7376 14.116 53.2336 14.368 52.8736 14.872C52.4956 15.376 52.3156 16.006 52.3156 16.798V22H50.2636V8.896ZM64.8823 12.442C66.2503 12.442 67.2763 12.784 67.9243 13.468C68.5003 14.062 68.7883 14.926 68.7883 16.06V22H66.8803V20.776C66.5203 21.244 66.0703 21.586 65.5483 21.838C64.9543 22.108 64.2523 22.252 63.4423 22.252C62.4703 22.252 61.7143 22 61.1563 21.514C60.5803 21.01 60.2923 20.38 60.2923 19.606C60.2923 18.562 60.6883 17.752 61.5163 17.194C62.2723 16.654 63.3343 16.366 64.7023 16.33L66.7363 16.276V15.916C66.7363 14.692 66.0703 14.098 64.7383 14.098C64.1623 14.098 63.7123 14.188 63.3703 14.404C62.9743 14.638 62.7043 14.998 62.5963 15.484L60.5623 15.322C60.7603 14.296 61.2643 13.54 62.0743 13.072C62.7583 12.64 63.6943 12.442 64.8823 12.442ZM66.7363 17.752L64.8463 17.806C63.2083 17.842 62.3983 18.418 62.3983 19.534C62.3983 19.858 62.5243 20.128 62.8123 20.344C63.1003 20.56 63.4603 20.686 63.9103 20.686C64.7023 20.686 65.3683 20.452 65.9083 20.002C66.4483 19.534 66.7363 18.94 66.7363 18.22V17.752ZM73.869 9.688V12.694H75.939V14.386H73.869V19.642C73.869 19.858 73.905 20.02 74.013 20.146C74.121 20.254 74.265 20.308 74.481 20.308H75.705V22H74.139C73.329 22 72.735 21.784 72.357 21.352C71.997 20.956 71.817 20.398 71.817 19.642V14.386H70.143V12.694H71.817V10.534L73.869 9.688ZM76.4845 9.148H78.8605L81.2725 18.922H81.3445L83.8825 9.148H86.0605L88.5985 18.922H88.6705L91.0825 9.148H93.4585L89.7505 22H87.5185L85.0165 12.334H84.9445L82.4245 22H80.1745L76.4845 9.148ZM96.0168 8.896C96.4128 8.896 96.7548 9.022 97.0248 9.274C97.2768 9.526 97.4208 9.85 97.4208 10.246C97.4208 10.642 97.2768 10.984 97.0068 11.236C96.7368 11.488 96.4128 11.614 96.0168 11.614C95.6208 11.614 95.2968 11.488 95.0268 11.236C94.7568 10.966 94.6308 10.642 94.6308 10.246C94.6308 9.85 94.7568 9.526 95.0268 9.274C95.2968 9.022 95.6208 8.896 96.0168 8.896ZM94.9908 12.694H97.0428V22H94.9908V12.694ZM99.5878 8.896H101.64V16.384L105.456 12.694H108.102L103.98 16.546L108.462 22H105.834L102.576 17.86L101.64 18.742V22H99.5878V8.896ZM110.923 8.896C111.319 8.896 111.661 9.022 111.931 9.274C112.183 9.526 112.327 9.85 112.327 10.246C112.327 10.642 112.183 10.984 111.913 11.236C111.643 11.488 111.319 11.614 110.923 11.614C110.527 11.614 110.203 11.488 109.933 11.236C109.663 10.966 109.537 10.642 109.537 10.246C109.537 9.85 109.663 9.526 109.933 9.274C110.203 9.022 110.527 8.896 110.923 8.896ZM109.897 12.694H111.949V22H109.897V12.694Z" fill="#2475FC"/>
<defs>
<clipPath id="clip0_9384_49412">
<rect width="28.8" height="28.8" fill="white" transform="translate(1.59961 1.59961)"/>
</clipPath>
</defs>
</svg>
