<svg fill="none" xmlns="http://www.w3.org/2000/svg" viewBox="0 0 48 48" class="design-iconfont">
  <rect width="48" height="48" rx="12.3871" fill="#21A665"/>
  <path d="M32.2717 16.3425C30.9524 13.704 27.7484 11.2539 23.7906 11.2539C21.9059 11.2539 18.8905 12.0078 16.6289 14.8348C14.9326 16.531 14.5557 18.7926 14.7442 20.8658C14.9326 22.3735 15.875 24.2582 17.0058 25.5775C17.3827 22.3735 19.0789 19.9234 21.3405 18.2272C25.1099 15.2117 29.2562 15.4002 32.2717 16.3425Z" fill="#fff"/>
  <path d="M35.4756 21.0542C33.0255 18.0387 29.0677 17.0964 25.2984 18.4157C25.4868 18.4157 25.4868 18.4157 25.6753 18.6041C31.1409 20.4888 34.1564 26.5198 32.2717 31.9853C31.7063 33.4931 30.9524 34.8123 30.0101 35.7547C31.1409 35.3777 32.4601 35.0008 33.4025 34.2469C37.5488 30.8545 38.3026 25.012 35.4756 21.0542Z" fill="#fff"/>
  <path d="M23.7906 30.8545C23.0368 30.8545 22.0944 30.6661 21.3406 30.6661H20.9636C20.7752 30.6661 20.5867 30.6661 20.3982 30.8545L17.7597 32.5508H17.5712C17.3827 32.5508 17.1943 32.3623 17.1943 32.1738V31.7969C17.1943 31.7969 17.5712 30.4776 17.5712 29.7237V29.5353C17.5712 29.3468 17.3827 28.9699 17.1943 28.9699C14.5557 27.0852 12.671 24.2582 12.2941 21.2427C11.7287 22.3735 11.5402 23.1274 11.1633 24.4466C9.84402 29.1583 12.671 34.6239 17.3827 36.1316C22.8483 37.8278 27.9369 35.9432 29.8216 31.2315C30.0101 30.6661 30.1985 29.7237 30.387 28.9699C28.5023 30.2891 26.4292 30.8545 23.7906 30.8545Z" fill="#fff"/>
</svg>
