<svg width="18" height="18" viewBox="0 0 18 18" fill="none" xmlns="http://www.w3.org/2000/svg">
<path d="M9.4898 3.2889C9.85047 3.2889 10.1429 3.58129 10.1429 3.94196C10.1429 4.30264 9.85047 4.59503 9.4898 4.59503H5.57143C4.70542 4.59503 3.87487 4.93905 3.26251 5.55141C2.65014 6.16377 2.30612 6.99432 2.30612 7.86033V11.7787C2.30612 12.2075 2.39058 12.6321 2.55468 13.0283C2.71878 13.4244 2.9593 13.7844 3.26251 14.0876C3.87487 14.7 4.70542 15.044 5.57143 15.044H12.102C12.5308 15.044 12.9555 14.9595 13.3516 14.7954C13.7478 14.6314 14.1077 14.3908 14.411 14.0876C14.7142 13.7844 14.9547 13.4244 15.1188 13.0283C15.2829 12.6321 15.3673 12.2075 15.3673 11.7787V8.51339C15.3673 8.15272 15.6597 7.86033 16.0204 7.86033C16.3811 7.86033 16.6735 8.15272 16.6735 8.51339V11.7787C16.6735 12.9911 16.1918 14.1539 15.3345 15.0112C14.4772 15.8685 13.3145 16.3501 12.102 16.3501H5.57143C4.35901 16.3501 3.19625 15.8685 2.33894 15.0112C1.48163 14.1539 1 12.9911 1 11.7787V7.86033C1 6.64791 1.48163 5.48515 2.33894 4.62784C3.19625 3.77053 4.35901 3.2889 5.57143 3.2889H9.4898ZM11.2792 8.0876C11.4781 7.88727 11.8019 7.88669 12.0015 8.08629L12.1027 8.18752C12.3576 8.44246 12.3575 8.85584 12.1024 9.11059L11.6932 9.51911L11.4359 9.77641L11.3928 9.81952L12.1017 10.5276C12.3572 10.7828 12.3573 11.1969 12.1019 11.4523C11.8466 11.7076 11.4327 11.7076 11.1774 11.4523L10.007 10.2819C9.9462 10.2212 9.89795 10.1492 9.86503 10.0698C9.83211 9.99047 9.81516 9.90541 9.81516 9.81952C9.81516 9.73361 9.83211 9.64856 9.86503 9.56922C9.89795 9.48988 9.9462 9.41781 10.007 9.35715L10.3597 9.00449L10.7698 8.59568L11.2008 8.16335L11.2792 8.0876ZM6.38776 7.86033C6.8386 7.86033 7.20408 8.22581 7.20408 8.67666V10.9624C7.20408 11.4132 6.8386 11.7787 6.38776 11.7787C5.93691 11.7787 5.57143 11.4132 5.57143 10.9624V8.67666C5.57143 8.22581 5.93691 7.86033 6.38776 7.86033ZM14.3773 1.90049C14.5432 2.53658 14.8227 3.04727 15.2158 3.44172C15.6077 3.83356 16.1197 4.11307 16.7571 4.27894C17.081 4.36384 17.081 4.82621 16.7571 4.91111C16.1197 5.07698 15.6077 5.35649 15.2158 5.74964C14.824 6.14147 14.5432 6.65347 14.3773 7.29086C14.2924 7.61478 13.83 7.61478 13.7451 7.29086C13.5793 6.65347 13.2998 6.14147 12.9066 5.74964C12.5148 5.3578 12.0028 5.07698 11.3654 4.91111C11.0415 4.82621 11.0415 4.36384 11.3654 4.27894C12.0028 4.11307 12.5148 3.83356 12.9066 3.44041C13.2985 3.04858 13.5793 2.53658 13.7451 1.89919C13.83 1.57527 14.2924 1.57527 14.3773 1.89919V1.90049Z" fill="currentColor"/>
</svg>
