<svg fill="none" xmlns="http://www.w3.org/2000/svg" viewBox="0 0 20 20" class="design-iconfont">
  <rect width="20" height="20" rx="6" fill="#2469F1"/>
  <path fill-rule="evenodd" clip-rule="evenodd" d="M8.13965 4.41084C8.62106 4.45199 9.03903 4.78056 9.21839 5.25886L12.3963 13.7334C12.6571 14.4287 12.34 15.2178 11.6882 15.4959C11.0363 15.7741 10.2966 15.4359 10.0358 14.7406L7.80964 8.80409L5.51634 12.8811H7.08473C7.78679 12.8811 8.35592 13.4881 8.35592 14.237C8.35592 14.9859 7.78679 15.5929 7.08473 15.5929H3.27118C2.81321 15.5929 2.39064 15.3302 2.165 14.9051C1.93936 14.48 1.94553 13.9583 2.18115 13.5394L6.94809 5.06482C7.19657 4.62309 7.65825 4.3697 8.13965 4.41084Z" fill="#fff"/>
  <path fill-rule="evenodd" clip-rule="evenodd" d="M15.2431 8.00767C15.9438 8.05526 16.4756 8.69968 16.431 9.44703L16.1399 14.3221C16.0953 15.0695 15.4912 15.6367 14.7905 15.5892C14.0899 15.5416 13.5581 14.8971 13.6027 14.1498L13.8937 9.27469C13.9384 8.52735 14.5425 7.96008 15.2431 8.00767Z" fill="#fff"/>
  <path d="M16.9998 6.18753C16.9998 7.03 16.3595 7.71295 15.5697 7.71295C14.7799 7.71295 14.1396 7.03 14.1396 6.18753C14.1396 5.34506 14.7799 4.66211 15.5697 4.66211C16.3595 4.66211 16.9998 5.34506 16.9998 6.18753Z" fill="#fff"/>
</svg>
