<svg width="16" height="16" viewBox="0 0 16 16" fill="none" xmlns="http://www.w3.org/2000/svg">
<path fill-rule="evenodd" clip-rule="evenodd" d="M6.5492 2.41145C7.06268 2.4526 7.50849 2.78116 7.69981 3.25944L11.0895 11.7337C11.3676 12.4289 11.0294 13.218 10.3342 13.4961C9.63889 13.7742 8.84981 13.4361 8.5717 12.7408L6.1972 6.80453L3.7511 10.8814H5.424C6.17283 10.8814 6.77988 11.4884 6.77988 12.2372C6.77988 12.9861 6.17283 13.5931 5.424 13.5931H1.35637C0.867881 13.5931 0.417157 13.3304 0.176481 12.9053C-0.0641944 12.4802 -0.0576128 11.9585 0.193711 11.5396L5.27825 3.0654C5.54328 2.62369 6.03572 2.37031 6.5492 2.41145Z" fill="currentColor"/>
<path fill-rule="evenodd" clip-rule="evenodd" d="M14.1256 6.00816C14.8729 6.05575 15.4401 6.70014 15.3925 7.44746L15.0821 12.3224C15.0345 13.0697 14.3901 13.6369 13.6428 13.5894C12.8955 13.5418 12.3282 12.8974 12.3758 12.1501L12.6863 7.27513C12.7338 6.52782 13.3782 5.96057 14.1256 6.00816Z" fill="currentColor"/>
<path d="M15.9999 4.18808C15.9999 5.03052 15.317 5.71344 14.4746 5.71344C13.6321 5.71344 12.9492 5.03052 12.9492 4.18808C12.9492 3.34565 13.6321 2.66272 14.4746 2.66272C15.317 2.66272 15.9999 3.34565 15.9999 4.18808Z" fill="currentColor"/>
</svg>
