<svg fill="none" xmlns="http://www.w3.org/2000/svg" viewBox="0 0 16 16" class="design-iconfont">
  <g clip-path="url(#qmg2ohdjt__clip0_9131_73475)" fill="currentColor">
    <path d="M13.216 2.97085H9.136C9.256 3.45085 9.368 3.89085 9.464 4.33085C9.47468 4.39683 9.50738 4.45724 9.55676 4.50227C9.60615 4.5473 9.66932 4.57429 9.736 4.57885L13.008 5.29885C13.2133 5.32683 13.3997 5.43335 13.528 5.59599C13.6563 5.75863 13.7165 5.96471 13.696 6.17085V9.81885C13.7164 10.0262 13.6551 10.2334 13.5251 10.3962C13.3951 10.5591 13.2067 10.6648 13 10.6909L9.704 11.4189C9.624 11.4189 9.52 11.4909 9.496 11.5549C9.36 12.0269 9.248 12.5069 9.12 13.0189H13.2C13.5715 13.0358 13.9425 12.9753 14.2894 12.8411C14.6363 12.7069 14.9514 12.502 15.2148 12.2394C15.4782 11.9768 15.684 11.6622 15.8192 11.3158C15.9543 10.9693 16.0159 10.5984 16 10.2269V5.75485C16.0146 5.38533 15.9526 5.01678 15.8179 4.67238C15.6832 4.32799 15.4786 4.0152 15.2171 3.7537C14.9557 3.49221 14.6429 3.28766 14.2985 3.15293C13.9541 3.0182 13.5855 2.95621 13.216 2.97085ZM6.288 11.4189L2.992 10.6829C2.79123 10.655 2.60853 10.5519 2.48082 10.3945C2.35311 10.2371 2.28991 10.0371 2.304 9.83485V6.16285C2.2858 5.95679 2.34812 5.75169 2.47789 5.5906C2.60766 5.42951 2.79479 5.32494 3 5.29885L6.272 4.57085C6.352 4.57085 6.48 4.49085 6.496 4.42685C6.632 3.95485 6.744 3.47485 6.864 2.98685H2.552C1.88338 3.01256 1.2491 3.28968 0.775964 3.76281C0.302829 4.23595 0.0257063 4.87023 0 5.53885L0 10.4029C0.0104514 11.0975 0.292699 11.7605 0.786219 12.2495C1.27974 12.7386 1.94524 13.0147 2.64 13.0189H6.872C6.744 12.5229 6.64 12.0429 6.504 11.5789C6.48176 11.5381 6.45091 11.5027 6.41361 11.4751C6.37632 11.4474 6.33345 11.4283 6.288 11.4189Z"/>
    <path d="M9.6399 7.99762C9.6399 7.86162 9.6399 7.76562 9.4479 7.76562H6.5599C6.3999 7.76562 6.3999 7.86162 6.3999 7.99762C6.3999 8.13362 6.3999 8.22162 6.5999 8.21362H9.4719C9.5999 8.21362 9.6479 8.14162 9.6399 7.99762Z"/>
  </g>
  <defs>
    <clipPath id="qmg2ohdjt__clip0_9131_73475">
      <path fill="#fff" d="M0 0H16V16H0z"/>
    </clipPath>
  </defs>
</svg>
