<svg width="18" height="18" viewBox="0 0 18 18" fill="none" xmlns="http://www.w3.org/2000/svg">
<path d="M15.0677 9.51042V15.066C15.0677 15.1607 15.0435 15.2539 14.9973 15.3366C14.9512 15.4193 14.8846 15.4889 14.804 15.5387C14.7234 15.5884 14.6314 15.6168 14.5368 15.621C14.4421 15.6252 14.348 15.6051 14.2633 15.5626L13.3277 15.0949L12.8444 14.8538L12.7977 14.8293L12.5977 14.7293L12.4722 14.6671L12.3266 14.5938C12.2221 14.5419 12.107 14.5147 11.9903 14.5144L10.6233 14.5104C10.4932 14.5105 10.3673 14.4649 10.2674 14.3817C10.1675 14.2984 10.1 14.1828 10.0766 14.0549L10.0677 13.9549V10.6215C10.0677 10.4742 10.1262 10.3329 10.2304 10.2287C10.3346 10.1245 10.4759 10.066 10.6233 10.066H11.0511C11.7781 10.066 12.4952 9.89685 13.1456 9.57199L14.2633 9.01375C14.348 8.97131 14.4421 8.95123 14.5368 8.95543C14.6314 8.95962 14.7234 8.98795 14.804 9.03772C14.8846 9.08749 14.9512 9.15705 14.9973 9.23978C15.0435 9.32252 15.0677 9.41568 15.0677 9.51042ZM8.40104 12.8438C8.70787 12.8438 8.9566 13.0925 8.9566 13.3993C8.9566 13.7061 8.70787 13.9549 8.40104 13.9549H7.5666C7.10645 13.9549 6.73351 14.328 6.73382 14.7882L6.734 15.0656C6.73421 15.3726 6.48542 15.6215 6.17845 15.6215C5.87177 15.6215 5.6231 15.373 5.62289 15.0663L5.62271 14.7882C5.6224 14.3279 5.24915 13.9549 4.78882 13.9549H4.51215C3.77544 13.9549 3.0689 13.6622 2.54797 13.1413C2.02703 12.6203 1.73438 11.9138 1.73438 11.1771V5.62153C1.73438 4.88482 2.02703 4.17828 2.54797 3.65734C3.0689 3.13641 3.77544 2.84375 4.51215 2.84375H13.401C14.1378 2.84375 14.8443 3.13641 15.3652 3.65734C15.8862 4.17828 16.1788 4.88482 16.1788 5.62153V7.28819C16.1788 7.59502 15.9301 7.84375 15.6233 7.84375C15.3164 7.84375 15.0677 7.59502 15.0677 7.2882V5.62153C15.0677 5.1795 14.8921 4.75558 14.5796 4.44302C14.267 4.13046 13.8431 3.95486 13.401 3.95486H4.51215C4.07013 3.95486 3.6462 4.13046 3.33364 4.44302C3.02108 4.75558 2.84549 5.1795 2.84549 5.62153V11.1771C2.84549 11.6191 3.02108 12.043 3.33364 12.3556C3.6462 12.6682 4.07013 12.8438 4.51215 12.8438H8.40104ZM13.9566 10.4093L12.5388 11.1182C12.4616 11.1569 12.3763 11.1771 12.2899 11.1771H11.1788V13.3993H12.2899C12.3473 13.3994 12.4042 13.4084 12.4588 13.426L12.5388 13.4582L12.9688 13.6738L13.0944 13.736L13.2499 13.8138L13.341 13.8593L13.8244 14.1004C13.885 14.131 13.9566 14.0869 13.9566 14.019V10.4093ZM16.1788 11.1771C16.4856 11.1771 16.7344 11.4258 16.7344 11.7326V12.8438C16.7344 13.1506 16.4856 13.3993 16.1788 13.3993C15.872 13.3993 15.6233 13.1506 15.6233 12.8438V11.7326C15.6233 11.4258 15.872 11.1771 16.1788 11.1771ZM10.9478 6.73276C11.165 6.51548 11.5172 6.51543 11.7344 6.73265C11.9516 6.94987 11.9516 7.30205 11.7343 7.51922L9.62723 9.62549C9.41016 9.84248 9.05838 9.84269 8.84104 9.62597L7.84549 8.62931L6.40987 10.0658C6.19269 10.2831 5.84045 10.2832 5.6232 10.0659C5.406 9.84871 5.406 9.49656 5.6232 9.27937L7.45215 7.45042C7.66956 7.23362 8.02141 7.23362 8.23882 7.45042L9.23438 8.44708L10.9478 6.73276Z" fill="currentColor"/>
</svg>
