<svg fill="none" xmlns="http://www.w3.org/2000/svg" viewBox="0 0 18 18" class="design-iconfont">
  <g clip-path="url(#lxbrxar53__clip0_1138_38096)" fill="currentColor" stroke="currentColor" stroke-width=".1">
    <path d="M8.73584 1.32812C8.90923 1.22736 9.12496 1.22737 9.29834 1.32812L15.5386 4.92969C15.7114 5.03029 15.8187 5.21485 15.8188 5.41602V12.6211C15.8187 12.8222 15.7114 13.0069 15.5386 13.1074L9.29834 16.7109H9.29736C9.21105 16.7599 9.11317 16.7861 9.01709 16.7861C8.92098 16.7861 8.82313 16.7599 8.73682 16.7109H8.73584L2.49658 13.1074H2.49561C2.32285 13.0069 2.21551 12.8222 2.21533 12.6211V5.41602C2.21545 5.21485 2.32285 5.03029 2.49561 4.92969H2.49658L8.73584 1.32812ZM3.33936 5.74023V12.2979L9.01709 15.5742L14.6948 12.2979V5.74023L9.01709 2.46387L3.33936 5.74023Z"/>
    <path d="M12.5616 6.50586C12.8306 6.3516 13.1746 6.44244 13.3292 6.71191C13.4835 6.98084 13.3925 7.32476 13.1232 7.47949L9.57239 9.53027V13.5635C9.57229 13.8747 9.32205 14.1249 9.01086 14.125C8.69958 14.125 8.44846 13.8748 8.44836 13.5635V9.52246L4.91125 7.48145C4.64175 7.32673 4.55081 6.98288 4.7052 6.71387L4.71204 6.70117L4.71497 6.69922C4.8753 6.442 5.20828 6.35406 5.47278 6.50586L9.01672 8.55176L12.5607 6.50586H12.5616Z"/>
  </g>
  <defs>
    <clipPath id="lxbrxar53__clip0_1138_38096">
      <path fill="#fff" transform="matrix(-1 0 0 1 18 0)" d="M0 0H18V18H0z"/>
    </clipPath>
  </defs>
</svg>
