<svg width="14" height="14" viewBox="0 0 14 14" fill="none" xmlns="http://www.w3.org/2000/svg">
<path d="M6.70833 12.5417C9.93 12.5417 12.5417 9.93 12.5417 6.70833C12.5417 3.48667 9.93 0.875 6.70833 0.875C3.48667 0.875 0.875 3.48667 0.875 6.70833C0.875 9.93 3.48667 12.5417 6.70833 12.5417Z" stroke="currentColor" stroke-width="1.3" stroke-linecap="round" stroke-linejoin="round"/>
<path d="M8.16699 6.70573C8.45542 6.70573 8.73738 6.62021 8.97722 6.45997C9.21702 6.2997 9.40395 6.07194 9.51432 5.80547C9.62469 5.53901 9.65359 5.24579 9.5973 4.96291C9.54104 4.67999 9.40214 4.42014 9.19818 4.21621C8.99425 4.01225 8.7344 3.87336 8.45152 3.81709C8.1686 3.7608 7.87539 3.78971 7.60892 3.90007C7.34245 4.01044 7.11469 4.19737 6.95445 4.43721C6.79418 4.67701 6.70866 4.95897 6.70866 5.2474V8.16406C6.70866 8.45249 6.62314 8.73445 6.4629 8.97429C6.30263 9.21409 6.0749 9.40102 5.8084 9.51139C5.54194 9.62176 5.24872 9.65066 4.96584 9.59437C4.68292 9.53811 4.42307 9.39921 4.21914 9.19525C4.01518 8.99132 3.87629 8.73147 3.82002 8.44859C3.76373 8.16567 3.79264 7.87246 3.903 7.60599C4.01337 7.33952 4.2003 7.11176 4.44014 6.95152C4.67994 6.79125 4.9619 6.70573 5.25033 6.70573" stroke="currentColor" stroke-width="1.3" stroke-linecap="round" stroke-linejoin="round"/>
</svg>
