<svg width="16" height="16" viewBox="0 0 16 16" fill="none" xmlns="http://www.w3.org/2000/svg">
<path d="M2 2.91845L8.00287 1.16656L14 2.91845V6.51113C14 10.2873 11.5834 13.6397 8.00087 14.8334C4.41737 13.6397 2 10.2866 2 6.50947V2.91845Z" stroke="black" stroke-width="1.3" stroke-linejoin="round"/>
<path fill-rule="evenodd" clip-rule="evenodd" d="M6 6.83325C6 5.7287 6.89544 4.83325 8 4.83325C9.10456 4.83325 10 5.7287 10 6.83325C10 7.93781 9.10456 8.83325 8 8.83325C6.89544 8.83325 6 7.93781 6 6.83325ZM8 6.16659C7.63182 6.16659 7.33333 6.46508 7.33333 6.83325C7.33333 7.20143 7.63182 7.49992 8 7.49992C8.36818 7.49992 8.66667 7.20143 8.66667 6.83325C8.66667 6.46508 8.36818 6.16659 8 6.16659Z" fill="black"/>
<path fill-rule="evenodd" clip-rule="evenodd" d="M5.3335 10.1666C5.3335 8.69385 6.52741 7.49994 8.00016 7.49994C9.47292 7.49994 10.6668 8.69385 10.6668 10.1666C10.6668 10.5348 10.3684 10.8333 10.0002 10.8333C9.63197 10.8333 9.3335 10.5348 9.3335 10.1666C9.3335 9.43023 8.73654 8.83327 8.00016 8.83327C7.26379 8.83327 6.66683 9.43023 6.66683 10.1666C6.66683 10.5348 6.36835 10.8333 6.00016 10.8333C5.63197 10.8333 5.3335 10.5348 5.3335 10.1666Z" fill="black"/>
</svg>
