<svg fill="none" xmlns="http://www.w3.org/2000/svg" viewBox="0 0 34 34" class="design-iconfont">
  <path d="M12.5999 4.54102H20.4269L12.3024 28.613C12.219 28.8607 12.06 29.076 11.8478 29.2285C11.6355 29.381 11.3808 29.463 11.1194 29.463H5.02777C4.82989 29.4631 4.63484 29.4161 4.45877 29.3258C4.2827 29.2354 4.1307 29.1045 4.01534 28.9437C3.89999 28.7829 3.82461 28.597 3.79545 28.4013C3.7663 28.2055 3.7842 28.0057 3.84768 27.8183L11.4184 5.3896C11.5019 5.14217 11.6611 4.9272 11.8733 4.77497C12.0855 4.62274 12.3401 4.54091 12.6013 4.54102H12.5999Z" fill="#01579B"/>
  <path d="M23.9728 20.6875H11.5628C11.4473 20.687 11.3343 20.7214 11.2386 20.7862C11.143 20.851 11.0691 20.9432 11.0267 21.0507C10.9843 21.1581 10.9754 21.2759 11.001 21.3885C11.0266 21.5012 11.0857 21.6035 11.1704 21.682L19.1448 29.1238C19.3757 29.3405 19.6831 29.4609 19.999 29.4609H27.0257L23.9728 20.6875Z" fill="#1976D2"/>
  <path d="M22.5959 5.38677C22.5123 5.14009 22.3535 4.92583 22.1418 4.77411C21.9301 4.6224 21.6762 4.54088 21.4158 4.54102H12.6934C12.954 4.54079 13.2081 4.62226 13.4201 4.77397C13.632 4.92567 13.791 5.13998 13.8749 5.38677L21.4441 27.8154C21.5073 28.003 21.5249 28.2028 21.4956 28.3985C21.4662 28.5942 21.3907 28.7801 21.2752 28.9408C21.1598 29.1016 21.0077 29.2325 20.8316 29.3228C20.6555 29.4131 20.4605 29.4602 20.2626 29.4602H28.985C29.1829 29.4604 29.3779 29.4136 29.554 29.3234C29.7301 29.2333 29.8822 29.1025 29.9977 28.9419C30.1132 28.7812 30.1887 28.5954 30.2181 28.3998C30.2474 28.2041 30.2298 28.0043 30.1665 27.8169L22.5959 5.38818V5.38677Z" fill="#29B6F6"/>
</svg>
