<svg fill="none" xmlns="http://www.w3.org/2000/svg" viewBox="0 0 34 34" class="design-iconfont">
  <path d="M14.9194 18.1394V6.33661C14.9194 5.74238 14.9194 5.74083 15.523 5.74005H21.0444C21.5407 5.74005 21.5593 5.75249 21.5593 6.24094C21.5593 11.4777 21.5578 16.7153 21.5554 21.9552C21.5554 24.5973 21.5694 27.2394 21.5749 29.8807C21.5749 30.4827 21.5749 30.4858 20.941 30.4866H15.4196C14.9334 30.4866 14.9241 30.4781 14.9241 30.0122V18.1378L14.9194 18.1394ZM3 30.6173C3.25122 30.1195 3.44178 29.7259 3.64556 29.3371C4.28956 28.0864 4.94756 26.8404 5.57522 25.5819C5.681 25.3688 5.70122 25.1028 5.702 24.8609C5.70978 20.5474 5.70978 16.2354 5.702 11.9249C5.69733 11.4521 5.80311 10.9838 6.01 10.5553C6.7184 9.0711 7.41505 7.58135 8.09989 6.08616C8.215 5.83494 8.369 5.72449 8.65678 5.73072C9.63833 5.74238 10.6199 5.73461 11.6014 5.73694C12.1062 5.73694 12.1171 5.74705 12.1171 6.23472V19.9882C12.1171 21.6347 12.1303 23.2813 12.1101 24.9278C12.1039 25.2444 12.0323 25.5571 11.8986 25.8456C11.2359 27.2845 10.5374 28.7086 9.86389 30.1436C9.70833 30.4742 9.503 30.6087 9.10478 30.6041C7.30189 30.5885 5.49744 30.6103 3.69533 30.6181L3 30.6173ZM24.3383 21.7265V13.4494C24.3383 12.9018 24.3383 12.8941 24.9123 12.8933C26.7526 12.8902 28.5928 12.8902 30.4346 12.8933C30.972 12.8933 30.9883 12.9166 30.9883 13.4377L31 29.9585C31 30.0767 30.9922 30.1949 30.9876 30.3139C30.9798 30.5146 30.8818 30.6079 30.664 30.6079C28.6651 30.6079 26.6662 30.6111 24.6689 30.6173C24.4534 30.6173 24.3484 30.5356 24.3539 30.3248V21.7265H24.3383ZM27.64 10.8042C26.6724 10.8042 25.7033 10.7925 24.7358 10.8104C24.4239 10.8158 24.3352 10.7093 24.3368 10.4215C24.3461 9.02538 24.3368 7.62849 24.3368 6.23161C24.3368 5.76649 24.3632 5.74316 24.8307 5.74161C26.7549 5.73772 28.6791 5.74161 30.6041 5.73149C30.8919 5.73149 30.9883 5.82405 30.9868 6.10172C30.9813 7.49938 30.9946 8.89627 30.9969 10.2924C30.9969 10.7645 30.9704 10.7847 30.4696 10.7855H27.6384L27.6408 10.8042H27.64Z" fill="#E06639"/>
</svg>
