<svg fill="none" xmlns="http://www.w3.org/2000/svg" viewBox="0 0 16 16" class="design-iconfont">
  <path d="M6.2 2H2.6C2.26863 2 2 2.26863 2 2.6V6.2C2 6.53138 2.26863 6.8 2.6 6.8H6.2C6.53138 6.8 6.8 6.53138 6.8 6.2V2.6C6.8 2.26863 6.53138 2 6.2 2Z" fill="currentColor" stroke="currentColor" stroke-width="1.2" stroke-linejoin="round"/>
  <path d="M6.2 9.20312H2.6C2.26863 9.20312 2 9.47174 2 9.80312V13.4031C2 13.7345 2.26863 14.0031 2.6 14.0031H6.2C6.53138 14.0031 6.8 13.7345 6.8 13.4031V9.80312C6.8 9.47174 6.53138 9.20312 6.2 9.20312Z" fill="currentColor" stroke="currentColor" stroke-width="1.2" stroke-linejoin="round"/>
  <path d="M13.4002 2H9.8002C9.46882 2 9.2002 2.26863 9.2002 2.6V6.2C9.2002 6.53138 9.46882 6.8 9.8002 6.8H13.4002C13.7316 6.8 14.0002 6.53138 14.0002 6.2V2.6C14.0002 2.26863 13.7316 2 13.4002 2Z" fill="currentColor" stroke="currentColor" stroke-width="1.2" stroke-linejoin="round"/>
  <path d="M9.2002 9.20312H14.0002" stroke="currentColor" stroke-width="1.2" stroke-linecap="round" stroke-linejoin="round"/>
  <path d="M11.6001 11.6016H14.0001" stroke="currentColor" stroke-width="1.2" stroke-linecap="round" stroke-linejoin="round"/>
  <path d="M9.2002 14H14.0002" stroke="currentColor" stroke-width="1.2" stroke-linecap="round" stroke-linejoin="round"/>
  <path d="M6.2 2H2.6C2.26863 2 2 2.26863 2 2.6V6.2C2 6.53138 2.26863 6.8 2.6 6.8H6.2C6.53138 6.8 6.8 6.53138 6.8 6.2V2.6C6.8 2.26863 6.53138 2 6.2 2Z" fill="currentColor" stroke="currentColor" stroke-width="1.2" stroke-linejoin="round"/>
  <path d="M6.2 9.20312H2.6C2.26863 9.20312 2 9.47174 2 9.80312V13.4031C2 13.7345 2.26863 14.0031 2.6 14.0031H6.2C6.53138 14.0031 6.8 13.7345 6.8 13.4031V9.80312C6.8 9.47174 6.53138 9.20312 6.2 9.20312Z" fill="currentColor" stroke="currentColor" stroke-width="1.2" stroke-linejoin="round"/>
  <path d="M13.4002 2H9.8002C9.46882 2 9.2002 2.26863 9.2002 2.6V6.2C9.2002 6.53138 9.46882 6.8 9.8002 6.8H13.4002C13.7316 6.8 14.0002 6.53138 14.0002 6.2V2.6C14.0002 2.26863 13.7316 2 13.4002 2Z" fill="currentColor" stroke="currentColor" stroke-width="1.2" stroke-linejoin="round"/>
  <path d="M9.2002 9.20312H14.0002" stroke="currentColor" stroke-width="1.2" stroke-linecap="round" stroke-linejoin="round"/>
  <path d="M11.6001 11.6016H14.0001" stroke="currentColor" stroke-width="1.2" stroke-linecap="round" stroke-linejoin="round"/>
  <path d="M9.2002 14H14.0002" stroke="currentColor" stroke-width="1.2" stroke-linecap="round" stroke-linejoin="round"/>
</svg>
