<svg fill="none" xmlns="http://www.w3.org/2000/svg" viewBox="0 0 20 20" class="design-iconfont">
  <rect width="20" height="20" rx="6" fill="#38F"/>
  <path d="M12.4647 6.7C12.573 6.69991 12.6803 6.72119 12.7804 6.76263C12.8805 6.80406 12.9714 6.86484 13.048 6.94148C13.1246 7.01811 13.1853 7.1091 13.2266 7.20923C13.268 7.30936 13.2892 7.41667 13.289 7.525V14.675C13.289 14.8937 13.2022 15.1034 13.0476 15.2581C12.893 15.4128 12.6834 15.4998 12.4647 15.5H5.32363C5.21533 15.5001 5.10807 15.4788 5.00801 15.4374C4.90796 15.3959 4.81706 15.3351 4.74055 15.2585C4.66403 15.1818 4.6034 15.0908 4.56212 14.9907C4.52084 14.8906 4.49973 14.7833 4.5 14.675V7.525C4.5 7.30643 4.58673 7.0968 4.74115 6.94212C4.89557 6.78744 5.10506 6.70036 5.32363 6.7H12.4654H12.4647ZM8.8945 8.7625C8.82228 8.76241 8.75075 8.77658 8.68402 8.80419C8.61729 8.83181 8.55667 8.87233 8.50563 8.92343C8.4546 8.97453 8.41415 9.0352 8.38662 9.10197C8.35909 9.16873 8.34501 9.24028 8.34519 9.3125V10.55H7.10906C7.00013 10.5497 6.89358 10.5818 6.80294 10.6423C6.71231 10.7027 6.64168 10.7887 6.60005 10.8894C6.55841 10.99 6.54765 11.1008 6.56912 11.2076C6.59059 11.3144 6.64332 11.4124 6.72063 11.4891C6.82375 11.5922 6.96331 11.65 7.10906 11.65H8.34519V12.8875C8.34537 12.9961 8.37768 13.1021 8.43804 13.1924C8.4984 13.2826 8.58412 13.3529 8.68439 13.3946C8.78466 13.4362 8.895 13.4472 9.00151 13.4262C9.10803 13.4052 9.20595 13.3532 9.28294 13.2766C9.334 13.2255 9.37449 13.1648 9.40209 13.0981C9.42969 13.0313 9.44387 12.9597 9.44381 12.8875V11.65H10.6799C10.7887 11.6501 10.8951 11.618 10.9856 11.5576C11.0761 11.4972 11.1466 11.4113 11.1882 11.3108C11.2298 11.2103 11.2406 11.0996 11.2193 10.993C11.198 10.8863 11.1454 10.7883 11.0684 10.7116C11.0174 10.6604 10.9569 10.6198 10.8902 10.5921C10.8236 10.5644 10.7521 10.5501 10.6799 10.55H9.44313V9.3125C9.44313 9.16675 9.38527 9.02696 9.28228 8.92383C9.17928 8.82071 9.03956 8.76268 8.89381 8.7625H8.8945ZM14.8139 4.5C14.9839 4.5003 15.1477 4.56357 15.2738 4.67758C15.3999 4.7916 15.4792 4.94828 15.4966 5.11737L15.5 5.1875V12.0666C15.5003 12.1982 15.4628 12.327 15.392 12.4379C15.3213 12.5488 15.2202 12.637 15.1007 12.6922C14.9813 12.7473 14.8486 12.7671 14.7183 12.7491C14.588 12.731 14.4656 12.676 14.3656 12.5905C14.2316 12.4752 14.1471 12.3127 14.1298 12.1367L14.1264 12.0666V6.14931C14.1263 6.08512 14.1038 6.02296 14.0628 5.97361C14.0217 5.92427 13.9647 5.89084 13.9016 5.87912L13.8521 5.87431H7.93269C7.76272 5.87433 7.5988 5.81127 7.47268 5.69734C7.34655 5.58341 7.2672 5.42672 7.25 5.25762L7.24656 5.1875C7.24649 5.01749 7.30941 4.85349 7.42318 4.72715C7.53694 4.60082 7.69348 4.52112 7.86256 4.50344L7.93338 4.5H14.8125H14.8139Z" fill="#fff"/>
</svg>
