<svg fill="none" xmlns="http://www.w3.org/2000/svg" viewBox="0 0 16 16" class="design-iconfont">
  <g clip-path="url(#95j9o4drj__clip0_1040_18976)">
    <path d="M13.4522 3.79667L8.95171 1.22509C8.4276 0.925408 7.57361 0.924533 7.04818 1.22509L2.54769 3.79667C2.02357 4.09636 1.5957 4.83222 1.5957 5.43815V10.5616C1.5957 11.168 2.02182 11.903 2.54769 12.2031L7.04818 14.7747C7.5723 15.0744 8.42628 15.0752 8.95171 14.7747L13.4522 12.2031C13.9763 11.9034 14.4042 11.1676 14.4042 10.5616V5.43815C14.4042 4.83222 13.9781 4.0968 13.4522 3.79667ZM11.5229 7.37318L10.3985 8.49185C10.1649 8.7246 10.0192 9.18309 10.0743 9.51121L10.3394 11.0914C10.3946 11.4196 10.2034 11.5613 9.91507 11.4064L8.52516 10.6601C8.23641 10.5052 7.76392 10.5052 7.47561 10.6601L6.0857 11.4064C5.79695 11.5617 5.60577 11.42 5.66133 11.0914L5.92645 9.51121C5.98157 9.18309 5.83545 8.72416 5.60183 8.49185L4.47747 7.37318C4.24385 7.14043 4.31691 6.91119 4.63978 6.86306L6.19376 6.63251C6.51663 6.58438 6.89856 6.30089 7.04293 6.00252L7.73811 4.56491C7.88248 4.2661 8.11873 4.2661 8.2631 4.56491L8.95784 6.00252C9.10221 6.30132 9.48458 6.58482 9.80701 6.63251L11.3606 6.86306C11.683 6.91075 11.756 7.14043 11.5224 7.37318H11.5229Z" fill="#2475FC"/>
  </g>
  <defs>
    <clipPath id="95j9o4drj__clip0_1040_18976">
      <path fill="#fff" transform="translate(1 1)" d="M0 0H14V14H0z"/>
    </clipPath>
  </defs>
</svg>
