<svg fill="none" xmlns="http://www.w3.org/2000/svg" viewBox="0 0 18 18" class="design-iconfont">
  <g clip-path="url(#kiv86y2ca__clip0_1139_57685)" fill="currentColor">
    <path d="M13.8234 1.45312C14.1846 1.45312 14.478 1.74647 14.478 2.10773V3.52031H15.8905C15.9765 3.52031 16.0616 3.53724 16.1411 3.57014C16.2205 3.60304 16.2926 3.65126 16.3534 3.71204C16.4142 3.77283 16.4624 3.84499 16.4953 3.92441C16.5282 4.00383 16.5452 4.08896 16.5452 4.17492C16.5452 4.26089 16.5282 4.34601 16.4953 4.42543C16.4624 4.50485 16.4142 4.57701 16.3534 4.6378C16.2926 4.69859 16.2205 4.7468 16.1411 4.7797C16.0616 4.8126 15.9765 4.82953 15.8905 4.82953H14.478V6.24211C14.478 6.41572 14.409 6.58223 14.2862 6.70499C14.1635 6.82775 13.997 6.89672 13.8234 6.89672C13.6497 6.89672 13.4832 6.82775 13.3605 6.70499C13.2377 6.58223 13.1687 6.41572 13.1687 6.24211V4.82953H11.7562C11.5826 4.82953 11.4161 4.76056 11.2933 4.6378C11.1705 4.51504 11.1016 4.34853 11.1016 4.17492C11.1016 4.00131 11.1705 3.83481 11.2933 3.71204C11.4161 3.58928 11.5826 3.52031 11.7562 3.52031H13.1687V2.10773C13.1687 1.74647 13.4621 1.45312 13.8234 1.45312Z"/>
    <path d="M2.76479 6.2425C2.76479 5.50236 3.0588 4.79253 3.58216 4.26917C4.10552 3.74582 4.81535 3.4518 5.55549 3.4518H10.0196C10.1932 3.4518 10.3597 3.38283 10.4825 3.26007C10.6053 3.1373 10.6742 2.9708 10.6742 2.79719C10.6742 2.62357 10.6053 2.45707 10.4825 2.33431C10.3597 2.21155 10.1932 2.14258 10.0196 2.14258H5.55549C4.46812 2.14258 3.42529 2.57453 2.65641 3.34342C1.88752 4.1123 1.45557 5.15513 1.45557 6.2425V10.0471C1.45568 11.0421 1.81751 12.0031 2.47365 12.751C3.12979 13.499 4.03548 13.9829 5.02196 14.1126L5.44032 16.0292C5.46421 16.1387 5.51584 16.2403 5.59025 16.3241C5.66466 16.408 5.75936 16.4713 5.86528 16.5081C5.9712 16.5448 6.08479 16.5538 6.19515 16.534C6.30551 16.5143 6.40896 16.4665 6.49557 16.3953L9.03525 14.3114C9.16455 14.2052 9.32666 14.1471 9.49397 14.147H12.4471C14.7112 14.147 16.546 12.3122 16.546 10.0471V7.97992C16.546 7.80631 16.4771 7.63981 16.3543 7.51704C16.2315 7.39428 16.065 7.32531 15.8914 7.32531C15.7178 7.32531 15.5513 7.39428 15.4285 7.51704C15.3058 7.63981 15.2368 7.80631 15.2368 7.97992V10.0471C15.2368 10.4136 15.1646 10.7765 15.0244 11.1151C14.8841 11.4536 14.6786 11.7613 14.4194 12.0204C14.1603 12.2796 13.8527 12.4851 13.5141 12.6254C13.1755 12.7656 12.8126 12.8378 12.4461 12.8378H9.49397C9.02443 12.8378 8.56866 13.0012 8.20444 13.2995L6.49163 14.7052L6.19632 13.3526C6.16442 13.2067 6.08356 13.0761 5.96717 12.9824C5.85078 12.8888 5.70586 12.8377 5.55647 12.8378C5.18991 12.8379 4.82691 12.7659 4.48821 12.6257C4.14952 12.4855 3.84176 12.2799 3.58251 12.0208C3.32327 11.7616 3.11762 11.4539 2.97731 11.1153C2.837 10.7766 2.76479 10.4137 2.76479 10.0471V6.2425Z"/>
  </g>
  <defs>
    <clipPath id="kiv86y2ca__clip0_1139_57685">
      <path fill="#fff" transform="translate(1.125 1.12305)" d="M0 0H15.75V15.75H0z"/>
    </clipPath>
  </defs>
</svg>
