<svg fill="none" xmlns="http://www.w3.org/2000/svg" viewBox="0 0 40 40" class="design-iconfont">
  <path d="M31.6194 22.1391H15.7352C13.316 22.1391 11.3545 20.1776 11.3545 17.7584V9.9027C11.3545 7.48352 13.316 5.52197 15.7352 5.52197H31.6194C34.0386 5.52197 36.0001 7.48352 36.0001 9.9027V17.7584C36.0001 20.1776 34.0386 22.1391 31.6194 22.1391Z" fill="#2475FC"/>
  <path d="M27.6433 29.4327H19.9034L13.3845 34.178C12.4009 34.8939 10.9673 34.2483 10.9521 33.0843L10.9084 29.4327H9.1918C6.32448 29.4327 4.00024 27.2604 4.00024 24.583V14.8075C4.00024 12.1282 6.32448 9.95776 9.1918 9.95776H27.6452C30.5125 9.95776 32.8367 12.1301 32.8367 14.8075V24.5811C32.8367 27.2604 30.5125 29.4327 27.6433 29.4327Z" fill="#2CAAFF"/>
  <path d="M25.5317 18.6604H10.9482C10.1792 18.6604 9.55444 18.0375 9.55444 17.2666C9.55444 16.4956 10.1773 15.8728 10.9482 15.8728H25.5317C26.3007 15.8728 26.9254 16.4956 26.9254 17.2666C26.9254 18.0375 26.3007 18.6604 25.5317 18.6604ZM17.3 24.3475H10.9482C10.1792 24.3475 9.55444 23.7247 9.55444 22.9537C9.55444 22.1828 10.1773 21.56 10.9482 21.56H17.3C18.069 21.56 18.6938 22.1828 18.6938 22.9537C18.6938 23.7247 18.069 24.3475 17.3 24.3475Z" fill="#fff"/>
</svg>
