<svg width="16" height="16" viewBox="0 0 16 16" fill="none" xmlns="http://www.w3.org/2000/svg">
<g clip-path="url(#clip0_2698_57368)">
<path d="M12.6984 0.328125C13.0596 0.328125 13.353 0.621469 13.353 0.982734V2.39531H14.7655C14.8515 2.39531 14.9366 2.41224 15.0161 2.44514C15.0955 2.47804 15.1676 2.52626 15.2284 2.58704C15.2892 2.64783 15.3374 2.71999 15.3703 2.79941C15.4032 2.87883 15.4202 2.96396 15.4202 3.04992C15.4202 3.13589 15.4032 3.22101 15.3703 3.30043C15.3374 3.37985 15.2892 3.45201 15.2284 3.5128C15.1676 3.57359 15.0955 3.6218 15.0161 3.6547C14.9366 3.6876 14.8515 3.70453 14.7655 3.70453H13.353V5.11711C13.353 5.29072 13.284 5.45722 13.1612 5.57999C13.0385 5.70275 12.872 5.77172 12.6984 5.77172C12.5247 5.77172 12.3582 5.70275 12.2355 5.57999C12.1127 5.45722 12.0437 5.29072 12.0437 5.11711V3.70453H10.6312C10.4576 3.70453 10.2911 3.63556 10.1683 3.5128C10.0455 3.39004 9.97656 3.22354 9.97656 3.04992C9.97656 2.87631 10.0455 2.70981 10.1683 2.58704C10.2911 2.46428 10.4576 2.39531 10.6312 2.39531H12.0437V0.982734C12.0437 0.621469 12.3371 0.328125 12.6984 0.328125Z" fill="currentColor"/>
<path d="M1.6393 5.11555C1.6393 4.37541 1.93332 3.66558 2.45667 3.14222C2.98003 2.61886 3.68986 2.32484 4.43 2.32484H8.89414C9.06775 2.32484 9.23426 2.25588 9.35702 2.13311C9.47978 2.01035 9.54875 1.84385 9.54875 1.67023C9.54875 1.49662 9.47978 1.33012 9.35702 1.20736C9.23426 1.08459 9.06775 1.01562 8.89414 1.01562H4.43C3.34263 1.01563 2.2998 1.44758 1.53092 2.21646C0.762033 2.98535 0.330078 4.02818 0.330078 5.11555V8.92016C0.330188 9.91512 0.692023 10.8761 1.34816 11.6241C2.0043 12.372 2.90999 12.8559 3.89647 12.9856L4.31483 14.9022C4.33872 15.0117 4.39035 15.1133 4.46476 15.1972C4.53917 15.281 4.63388 15.3444 4.73979 15.3811C4.84571 15.4179 4.9593 15.4268 5.06966 15.4071C5.18002 15.3873 5.28347 15.3396 5.37008 15.2684L7.90977 13.1845C8.03906 13.0783 8.20117 13.0202 8.36848 13.0201H11.3216C13.5857 13.0201 15.4205 11.1852 15.4205 8.92016V6.85297C15.4205 6.67936 15.3516 6.51285 15.2288 6.39009C15.1061 6.26733 14.9396 6.19836 14.7659 6.19836C14.5923 6.19836 14.4258 6.26733 14.3031 6.39009C14.1803 6.51285 14.1113 6.67936 14.1113 6.85297V8.92016C14.1113 9.28664 14.0391 9.64953 13.8989 9.98811C13.7587 10.3267 13.5531 10.6343 13.2939 10.8935C13.0348 11.1526 12.7272 11.3582 12.3886 11.4984C12.05 11.6387 11.6871 11.7109 11.3206 11.7109H8.36848C7.89894 11.7109 7.44317 11.8743 7.07895 12.1725L5.36614 13.5782L5.07083 12.2257C5.03893 12.0797 4.95807 11.9491 4.84168 11.8555C4.72529 11.7618 4.58037 11.7108 4.43098 11.7109C4.06442 11.711 3.70142 11.6389 3.36273 11.4987C3.02403 11.3585 2.71627 11.153 2.45702 10.8938C2.19778 10.6347 1.99213 10.327 1.85182 9.98834C1.71151 9.64969 1.6393 9.28672 1.6393 8.92016V5.11555Z" fill="currentColor"/>
</g>
<defs>
<clipPath id="clip0_2698_57368">
<rect width="15.75" height="15.75" fill="white"/>
</clipPath>
</defs>
</svg>
