<?xml version="1.0" standalone="no"?><!DOCTYPE svg PUBLIC "-//W3C//DTD SVG 1.1//EN" "http://www.w3.org/Graphics/SVG/1.1/DTD/svg11.dtd"><svg t="1749805141445" class="icon" viewBox="0 0 1024 1024" version="1.1" xmlns="http://www.w3.org/2000/svg" p-id="4323" xmlns:xlink="http://www.w3.org/1999/xlink" width="256" height="256"><path d="M754.833067 521.391787h-111.064747l17.314133-139.354454h93.75232c19.247787 0 34.8416-15.593813 34.8416-34.83648 0-19.23584-15.593813-34.839893-34.8416-34.839893h-85.092693l10.489173-84.44416c2.37568-19.101013-11.175253-36.50048-30.272853-38.87104-19.094187-2.373973-36.498773 11.18208-38.87104 30.281387l-11.55584 93.03552h-140.424533l13.69088-110.214827c2.37568-19.10272-11.180373-36.502187-30.272854-38.87616-19.094187-2.368853-36.497067 11.183787-38.869333 30.283093l-14.76096 118.807894h-119.72096c-19.24608 0-34.8416 15.604053-34.8416 34.839893 0 19.242667 15.59552 34.83648 34.8416 34.83648h111.064747l-17.314134 139.354453h-93.75232c-19.24608 0-34.8416 15.60064-34.8416 34.838187 0 19.244373 15.59552 34.83648 34.8416 34.83648h85.092694l-10.489174 84.44416c-2.37568 19.099307 11.183787 36.503893 30.276267 38.874453 19.0976 2.372267 36.49536-11.18208 38.867627-30.281386l11.55584-93.038934h140.424533l-13.69088 110.219947c-2.37568 19.0976 11.1872 36.497067 30.27456 38.869333 19.0976 2.372267 36.49536-11.18208 38.867627-30.281386l14.76096-118.807894h119.72096c19.247787 0 34.8416-15.592107 34.8416-34.83648 0-19.237547-15.593813-34.838187-34.8416-34.838186z m-321.701547 0l17.312427-139.354454h140.424533l-17.312427 139.354454h-140.424533z" fill="#262626" p-id="4324"></path><path d="M895.003307 9.045333H128.55808c-57.623893 0-104.512853 46.890667-104.512853 104.511147v661.927253c0 57.6256 46.890667 104.517973 104.512853 104.517974h67.416747v134.157653l241.600853-134.157653h457.427627c57.623893 0 104.51456-46.89408 104.51456-104.517974V113.55648c0-57.622187-46.890667-104.511147-104.51456-104.511147z m34.8416 766.4384c0 19.247787-15.60576 34.839893-34.8416 34.839894H437.57568a69.666133 69.666133 0 0 0-33.824427 8.777386l-138.13248 76.644694v-15.744c0-38.434133-31.255893-69.67808-69.6832-69.67808H128.55808c-19.191467 0-34.83648-15.607467-34.83648-34.839894V113.55648c0-19.193173 15.645013-34.839893 34.83648-34.839893h766.445227c19.234133 0 34.8416 15.64672 34.8416 34.839893v661.927253z m0 0" fill="#262626" p-id="4325"></path></svg>