<svg fill="none" xmlns="http://www.w3.org/2000/svg" viewBox="0 0 16 16" class="design-iconfont">
  <path d="M12.6658 7.23707C12.6145 4.33597 10.2467 2 7.33333 2C4.3878 2 2 4.3878 2 7.33333C2 8.72337 2.53177 9.9892 3.40297 10.9385L3.00348 13.3419L5.375 12.3233C6.4199 12.6707 7.406 12.7576 8.33333 12.5839" stroke="#595959" stroke-width="1.3" stroke-linecap="round" stroke-linejoin="round"/>
  <path d="M12.6658 7.23707C12.6145 4.33597 10.2467 2 7.33333 2C4.3878 2 2 4.3878 2 7.33333C2 8.72337 2.53177 9.9892 3.40297 10.9385L3.00348 13.3419L5.375 12.3233C6.4199 12.6707 7.406 12.7576 8.33333 12.5839" stroke="#595959" stroke-width="1.3" stroke-linecap="round" stroke-linejoin="round"/>
  <path d="M5.375 6.82363C5.7892 6.82363 6.125 6.48537 6.125 6.06807C6.125 5.6508 5.7892 5.3125 5.375 5.3125C4.9608 5.3125 4.625 5.6508 4.625 6.06807C4.625 6.48537 4.9608 6.82363 5.375 6.82363Z" fill="#595959"/>
  <path d="M8.375 6.82363C8.7892 6.82363 9.125 6.48537 9.125 6.06807C9.125 5.6508 8.7892 5.3125 8.375 5.3125C7.9608 5.3125 7.625 5.6508 7.625 6.06807C7.625 6.48537 7.9608 6.82363 8.375 6.82363Z" fill="#595959"/>
  <path d="M13.254 13.3098C12.6712 13.7434 11.949 14 11.1667 14C9.23375 14 7.66675 12.433 7.66675 10.5C7.66675 8.567 9.23375 7 11.1667 7C13.0997 7 14.6667 8.567 14.6667 10.5C14.6667 11.0332 14.5475 11.5386 14.3342 11.9909" stroke="#595959" stroke-width="1.3" stroke-linecap="round" stroke-linejoin="round"/>
  <path d="M13.254 13.3098C12.6712 13.7434 11.949 14 11.1667 14C9.23375 14 7.66675 12.433 7.66675 10.5C7.66675 8.567 9.23375 7 11.1667 7C13.0997 7 14.6667 8.567 14.6667 10.5C14.6667 11.0332 14.5475 11.5386 14.3342 11.9909" stroke="#595959" stroke-width="1.3" stroke-linecap="round" stroke-linejoin="round"/>
  <path d="M14.3341 11.9922L14.6666 14.0013L13.2539 13.311" stroke="#595959" stroke-width="1.3" stroke-linecap="round" stroke-linejoin="round"/>
  <path d="M12.2292 10.2661C11.9186 10.2661 11.6667 10.0124 11.6667 9.69948C11.6667 9.38651 11.9186 9.13281 12.2292 9.13281C12.5399 9.13281 12.7917 9.38651 12.7917 9.69948C12.7917 10.0124 12.5399 10.2661 12.2292 10.2661Z" fill="#595959"/>
  <path d="M9.97925 10.2661C9.66858 10.2661 9.41675 10.0124 9.41675 9.69948C9.41675 9.38651 9.66858 9.13281 9.97925 9.13281C10.2899 9.13281 10.5417 9.38651 10.5417 9.69948C10.5417 10.0124 10.2899 10.2661 9.97925 10.2661Z" fill="#595959"/>
</svg>
