<svg fill="none" xmlns="http://www.w3.org/2000/svg" viewBox="0 0 14 14" class="design-iconfont">
  <path d="M11.1762 2.07461C9.70434 0.602734 7.30746 0.602734 5.83715 2.07461L1.75902 6.14961C1.73246 6.17617 1.7184 6.21211 1.7184 6.24961C1.7184 6.28711 1.73246 6.32305 1.75902 6.34961L2.33559 6.92617C2.36194 6.95241 2.39762 6.96714 2.4348 6.96714C2.47199 6.96714 2.50767 6.95241 2.53402 6.92617L6.61215 2.85117C7.1184 2.34492 7.79184 2.0668 8.50746 2.0668C9.22309 2.0668 9.89652 2.34492 10.4012 2.85117C10.9075 3.35742 11.1856 4.03086 11.1856 4.74492C11.1856 5.46055 10.9075 6.13242 10.4012 6.63867L6.24496 10.7934L5.57152 11.4668C4.94184 12.0965 3.9184 12.0965 3.28871 11.4668C2.98402 11.1621 2.81684 10.7574 2.81684 10.3262C2.81684 9.89492 2.98402 9.49024 3.28871 9.18555L7.41215 5.06367C7.51684 4.96055 7.65434 4.90273 7.80121 4.90273H7.80277C7.94965 4.90273 8.08559 4.96055 8.18871 5.06367C8.2934 5.16836 8.34965 5.30586 8.34965 5.45273C8.34965 5.59805 8.29184 5.73555 8.18871 5.83867L4.8184 9.20586C4.79184 9.23242 4.77777 9.26836 4.77777 9.30586C4.77777 9.34336 4.79184 9.3793 4.8184 9.40586L5.39496 9.98242C5.42132 10.0087 5.45699 10.0234 5.49418 10.0234C5.53137 10.0234 5.56704 10.0087 5.5934 9.98242L8.96215 6.61367C9.27309 6.30273 9.4434 5.89023 9.4434 5.45117C9.4434 5.01211 9.27152 4.59805 8.96215 4.28867C8.31996 3.64648 7.27621 3.64805 6.63402 4.28867L6.23402 4.69023L2.51215 8.41055C2.25954 8.66167 2.0593 8.96045 1.92305 9.28956C1.78679 9.61866 1.71723 9.97154 1.7184 10.3277C1.7184 11.0512 2.00121 11.7309 2.51215 12.2418C3.04184 12.7699 3.73559 13.034 4.42934 13.034C5.12309 13.034 5.81684 12.7699 6.34496 12.2418L11.1762 7.41367C11.8871 6.70117 12.2809 5.75273 12.2809 4.74492C12.2825 3.73555 11.8887 2.78711 11.1762 2.07461Z" fill="currentColor"/>
</svg>
