<svg width="16" height="16" viewBox="0 0 16 16" fill="none" xmlns="http://www.w3.org/2000/svg">
<path fill-rule="evenodd" clip-rule="evenodd" d="M1.33335 1.66602C0.965164 1.66602 0.666687 1.96449 0.666687 2.33268V10.9993C0.666687 11.3675 0.965164 11.666 1.33335 11.666H7.33336V12.9995H4.00003C3.63184 12.9995 3.33336 13.298 3.33336 13.6662C3.33336 14.0344 3.63184 14.3328 4.00003 14.3328H12C12.3682 14.3328 12.6667 14.0344 12.6667 13.6662C12.6667 13.298 12.3682 12.9995 12 12.9995H8.66669V11.666H14.6667C15.0349 11.666 15.3334 11.3675 15.3334 10.9993V2.33268C15.3334 1.96449 15.0349 1.66602 14.6667 1.66602H1.33335Z" fill="currentColor"/>
</svg>
