<svg viewBox="0 0 16 16" xmlns="http://www.w3.org/2000/svg">
<path fill-rule="evenodd" clip-rule="evenodd" d="M1.98464 3.32704C1.98418 3.32813 1.98359 3.32983 1.98359 3.33333V12.6667C1.98359 12.6702 1.98418 12.6719 1.98464 12.673C1.98528 12.6745 1.9865 12.6765 1.98848 12.6784C1.99046 12.6804 1.99245 12.6816 1.99397 12.6823C1.99506 12.6827 1.99676 12.6833 2.00026 12.6833H14.0003C14.002 12.6833 14.0034 12.6832 14.0044 12.683C14.0053 12.6828 14.006 12.6825 14.0065 12.6823C14.0081 12.6816 14.0101 12.6804 14.012 12.6784C14.014 12.6765 14.0152 12.6745 14.0159 12.673C14.0163 12.6719 14.0169 12.6702 14.0169 12.6667V3.33333C14.0169 3.32983 14.0163 3.32813 14.0159 3.32704C14.0152 3.32552 14.014 3.32352 14.012 3.32154C14.0101 3.31956 14.0081 3.31835 14.0065 3.31771C14.0055 3.31724 14.0038 3.31666 14.0003 3.31666H2.00026C1.99676 3.31666 1.99506 3.31724 1.99397 3.31771C1.99245 3.31835 1.99046 3.31956 1.98848 3.32154C1.9865 3.32352 1.98528 3.32552 1.98464 3.32704ZM0.683594 3.33333C0.683594 2.60615 1.27309 2.01666 2.00026 2.01666H14.0003C14.7274 2.01666 15.3169 2.60615 15.3169 3.33333V12.6667C15.3169 13.3938 14.7274 13.9833 14.0003 13.9833H2.00026C1.27309 13.9833 0.683594 13.3938 0.683594 12.6667V3.33333Z" />
<path fill-rule="evenodd" clip-rule="evenodd" d="M3.50708 5.57697C3.74071 5.30441 4.15105 5.27285 4.42361 5.50647L6.75695 7.50647C6.90102 7.62996 6.98393 7.81024 6.98393 7.99999C6.98393 8.18974 6.90102 8.37002 6.75695 8.4935L4.42361 10.4935C4.15105 10.7271 3.74071 10.6956 3.50708 10.423C3.27346 10.1504 3.30502 9.7401 3.57758 9.50647L5.33515 7.99999L3.57758 6.4935C3.30502 6.25988 3.27346 5.84953 3.50708 5.57697Z"  />
<path fill-rule="evenodd" clip-rule="evenodd" d="M7.0166 10.6667C7.0166 10.3077 7.30762 10.0167 7.6666 10.0167H11.9999C12.3589 10.0167 12.6499 10.3077 12.6499 10.6667C12.6499 11.0256 12.3589 11.3167 11.9999 11.3167H7.6666C7.30762 11.3167 7.0166 11.0256 7.0166 10.6667Z" />
</svg>
