<svg fill="none" xmlns="http://www.w3.org/2000/svg" viewBox="0 0 34 34" class="design-iconfont">
  <path d="M12.0695 19.6693C12.8232 19.6693 14.3236 19.6273 16.3934 18.7744C18.8085 17.7804 23.613 15.9743 27.0782 14.1215C29.5026 12.8265 30.5643 11.1091 30.5643 8.8013C30.5645 8.03916 30.4145 7.28446 30.1229 6.58031C29.8313 5.87616 29.4038 5.23635 28.8649 4.69744C28.326 4.15853 27.6862 3.73107 26.9821 3.43948C26.2779 3.14789 25.5232 2.99789 24.7611 2.99805H11.3333C9.12273 2.99805 7.00268 3.8762 5.43956 5.43932C3.87644 7.00244 2.99829 9.12249 2.99829 11.3331C2.99829 15.9358 6.49144 19.6693 12.0695 19.6693Z" fill="#39594D"/>
  <path d="M14.34 25.4099C14.3398 24.3064 14.6666 23.2276 15.2792 22.3097C15.8918 21.3919 16.7627 20.6762 17.7818 20.253L22.0123 18.4982C26.2895 16.7248 30.9984 19.8668 30.9984 24.4987C30.9984 25.3519 30.8302 26.1968 30.5036 26.9851C30.177 27.7733 29.6982 28.4895 29.0947 29.0927C28.4912 29.6958 27.7748 30.1742 26.9864 30.5004C26.198 30.8266 25.353 30.9942 24.4997 30.9938H19.9215C19.1884 30.9936 18.4625 30.8491 17.7852 30.5684C17.1079 30.2877 16.4926 29.8763 15.9743 29.3578C15.456 28.8393 15.0449 28.2238 14.7645 27.5464C14.4841 26.869 14.3398 26.143 14.34 25.4099Z" fill="#D18EE2"/>
  <path d="M7.80283 20.7676C7.17169 20.7676 6.54674 20.8919 5.96368 21.1335C5.38061 21.3751 4.85086 21.7292 4.40468 22.1756C3.95851 22.622 3.60466 23.1519 3.36335 23.7351C3.12203 24.3183 2.99799 24.9433 2.99829 25.5745V26.1963C2.99829 27.4707 3.50454 28.6929 4.40568 29.594C5.30682 30.4952 6.52902 31.0014 7.80342 31.0014C9.07781 31.0014 10.3 30.4952 11.2012 29.594C12.1023 28.6929 12.6085 27.4707 12.6085 26.1963V25.5745C12.6085 24.9434 12.4842 24.3186 12.2427 23.7356C12.0012 23.1526 11.6472 22.6229 11.2009 22.1767C10.7546 21.7306 10.2249 21.3767 9.64181 21.1353C9.05876 20.8939 8.43387 20.7698 7.80283 20.7699V20.7676Z" fill="#FF7759"/>
</svg>
