<svg fill="none" xmlns="http://www.w3.org/2000/svg" viewBox="0 0 16 16" class="design-iconfont">
  <path d="M2.66675 3.66602H13.3334" stroke="#262626" stroke-width="1.33333" stroke-linecap="round" stroke-linejoin="round"/>
  <path d="M6 1.66602H10" stroke="#262626" stroke-width="1.33333" stroke-linecap="round" stroke-linejoin="round"/>
  <path d="M4 5.66602H12V13.3327C12 13.885 11.5523 14.3327 11 14.3327H5C4.4477 14.3327 4 13.885 4 13.3327V5.66602Z" stroke="#262626" stroke-width="1.33333" stroke-linejoin="round"/>
  <path d="M7.71852 8.16074C7.81517 7.89956 8.18459 7.89956 8.28123 8.16074L8.65384 9.1677C8.68423 9.24981 8.74897 9.31455 8.83108 9.34494L9.83804 9.71755C10.0992 9.81419 10.0992 10.1836 9.83804 10.2803L8.83108 10.6529C8.74897 10.6832 8.68423 10.748 8.65384 10.8301L8.28123 11.8371C8.18459 12.0982 7.81517 12.0982 7.71852 11.8371L7.34592 10.8301C7.31553 10.748 7.25079 10.6832 7.16867 10.6529L6.16172 10.2803C5.90053 10.1836 5.90053 9.81419 6.16172 9.71755L7.16867 9.34494C7.25079 9.31455 7.31553 9.24981 7.34592 9.1677L7.71852 8.16074Z" fill="#262626"/>
</svg>
