<svg fill="none" xmlns="http://www.w3.org/2000/svg" viewBox="0 0 16 16" class="design-iconfont">
  <g clip-path="url(#pf4518hhk__clip0_12011_139456)">
    <path d="M14.6666 8.00065C14.6666 11.6826 11.6818 14.6673 7.99993 14.6673C6.00876 14.6673 1.33325 14.6673 1.33325 14.6673C1.33325 14.6673 1.33325 9.69138 1.33325 8.00065C1.33325 4.31875 4.31803 1.33398 7.99993 1.33398C11.6818 1.33398 14.6666 4.31875 14.6666 8.00065Z" stroke="#262626" stroke-width="1.3" stroke-linecap="round" stroke-linejoin="round"/>
    <path d="M7.73109 4.54368C7.84122 4.32102 8.15878 4.32102 8.26891 4.54368L9.27873 6.58537C9.3079 6.64435 9.35565 6.6921 9.41463 6.72127L11.4563 7.73109C11.679 7.84122 11.679 8.15878 11.4563 8.26891L9.41463 9.27873C9.35565 9.3079 9.3079 9.35565 9.27873 9.41463L8.26891 11.4563C8.15878 11.679 7.84122 11.679 7.73109 11.4563L6.72127 9.41463C6.6921 9.35565 6.64435 9.3079 6.58537 9.27873L4.54368 8.26891C4.32102 8.15878 4.32102 7.84122 4.54368 7.73109L6.58537 6.72127C6.64435 6.6921 6.6921 6.64435 6.72127 6.58537L7.73109 4.54368Z" fill="#262626"/>
  </g>
  <defs>
    <clipPath id="pf4518hhk__clip0_12011_139456">
      <path fill="#fff" d="M0 0H16V16H0z"/>
    </clipPath>
  </defs>
</svg>
