<svg fill="none" xmlns="http://www.w3.org/2000/svg" viewBox="0 0 16 16" class="design-iconfont">
  <path d="M0.68335 2.33262C0.68335 1.97363 0.974365 1.68262 1.33335 1.68262H14.6667C15.0257 1.68262 15.3167 1.97363 15.3167 2.33262V5.99928C15.3167 6.35827 15.0257 6.64928 14.6667 6.64928C14.3077 6.64928 14.0167 6.35827 14.0167 5.99928V2.98262H1.98335V11.6826H3.66668C4.02567 11.6826 4.31668 11.9736 4.31668 12.3326V12.9476L6.70933 11.7512C6.79958 11.7061 6.89911 11.6826 7.00002 11.6826H8.50002C8.859 11.6826 9.15002 11.9736 9.15002 12.3326C9.15002 12.6916 8.859 12.9826 8.50002 12.9826H7.15346L3.95737 14.5807C3.75588 14.6814 3.51659 14.6706 3.32496 14.5522C3.13333 14.4338 3.01668 14.2246 3.01668 13.9993V12.9826H1.33335C0.974365 12.9826 0.68335 12.6916 0.68335 12.3326V2.33262Z" fill="currentColor"/>
  <path fill-rule="evenodd" clip-rule="evenodd" d="M8.68335 9.33262C8.68335 7.86906 9.86979 6.68262 11.3333 6.68262C12.7969 6.68262 13.9833 7.86906 13.9833 9.33262C13.9833 9.72434 13.8984 10.0962 13.7458 10.4308L15.0728 11.4924C15.3531 11.7166 15.3985 12.1257 15.1743 12.406C14.95 12.6863 14.541 12.7318 14.2607 12.5075L12.9331 11.4455C12.4885 11.7826 11.9343 11.9826 11.3333 11.9826C9.86979 11.9826 8.68335 10.7962 8.68335 9.33262ZM11.3333 7.98262C10.5878 7.98262 9.98335 8.58703 9.98335 9.33262C9.98335 10.0782 10.5878 10.6826 11.3333 10.6826C12.0789 10.6826 12.6833 10.0782 12.6833 9.33262C12.6833 8.58703 12.0789 7.98262 11.3333 7.98262Z" fill="currentColor"/>
  <path d="M3.35004 4.99961C3.35004 4.64062 3.64105 4.34961 4.00004 4.34961H6.00004C6.35902 4.34961 6.65004 4.64062 6.65004 4.99961C6.65004 5.35859 6.35902 5.64961 6.00004 5.64961H4.00004C3.64105 5.64961 3.35004 5.35859 3.35004 4.99961Z" fill="currentColor"/>
  <path d="M4.00004 6.34961C3.64105 6.34961 3.35004 6.64062 3.35004 6.99961C3.35004 7.35859 3.64105 7.64961 4.00004 7.64961H8.00004C8.35902 7.64961 8.65004 7.35859 8.65004 6.99961C8.65004 6.64062 8.35902 6.34961 8.00004 6.34961H4.00004Z" fill="currentColor"/>
</svg>
