<svg fill="none" xmlns="http://www.w3.org/2000/svg" viewBox="0 0 16 16" class="design-iconfont">
  <path d="M2.66675 14.6673V2.00065C2.66675 1.63246 2.96522 1.33398 3.33341 1.33398H12.6667C13.0349 1.33398 13.3334 1.63246 13.3334 2.00065V14.6673L8.00008 11.9098L2.66675 14.6673Z" stroke="#262626" stroke-width="1.33333" stroke-linejoin="round"/>
  <path d="M7.73109 3.00462C7.84122 2.78195 8.15878 2.78195 8.26891 3.00462L9.27873 5.0463C9.3079 5.10528 9.35565 5.15304 9.41463 5.18221L11.4563 6.19203C11.679 6.30216 11.679 6.61971 11.4563 6.72984L9.41463 7.73967C9.35565 7.76884 9.3079 7.81659 9.27873 7.87557L8.26891 9.91726C8.15878 10.1399 7.84122 10.1399 7.73109 9.91726L6.72127 7.87557C6.6921 7.81659 6.64435 7.76884 6.58537 7.73967L4.54368 6.72984C4.32102 6.61971 4.32102 6.30216 4.54368 6.19203L6.58537 5.18221C6.64435 5.15304 6.6921 5.10528 6.72127 5.0463L7.73109 3.00462Z" fill="#262626"/>
</svg>
