<svg fill="none" xmlns="http://www.w3.org/2000/svg" viewBox="0 0 40 40" class="design-iconfont">
  <g clip-path="url(#w2vzv154q__clip0_12511_12959)">
    <path d="M27.1139 36.5579H9.24395C6.37195 36.5579 4.04395 34.2299 4.04395 31.3579V8.4959C4.04395 5.6239 6.37195 3.2959 9.24395 3.2959H27.1139C29.9859 3.2959 32.3139 5.6239 32.3139 8.4959V31.3579C32.3139 34.2299 29.9859 36.5579 27.1139 36.5579Z" fill="#2475FC"/>
    <path d="M16.7775 12.1349C17.095 11.5633 17.917 11.5633 18.2345 12.1349L20.6637 16.5084C20.7393 16.6445 20.8515 16.7567 20.9876 16.8322L25.3611 19.2614C25.9327 19.5789 25.9327 20.4009 25.3611 20.7184L20.9876 23.1476C20.8515 23.2232 20.7393 23.3354 20.6637 23.4714L18.2345 27.845C17.917 28.4166 17.095 28.4166 16.7775 27.845L14.3484 23.4714C14.2728 23.3354 14.1606 23.2232 14.0245 23.1476L9.65097 20.7184C9.07937 20.4009 9.07937 19.5789 9.65097 19.2614L14.0245 16.8322C14.1606 16.7567 14.2728 16.6445 14.3484 16.5084L16.7775 12.1349Z" fill="#fff"/>
    <path d="M21.48 29.004C21.48 30.9719 22.2617 32.8592 23.6532 34.2507C25.0448 35.6422 26.9321 36.424 28.9 36.424C30.8679 36.424 32.7552 35.6422 34.1467 34.2507C35.5382 32.8592 36.32 30.9719 36.32 29.004C36.32 27.0361 35.5382 25.1488 34.1467 23.7573C32.7552 22.3657 30.8679 21.584 28.9 21.584C26.9321 21.584 25.0448 22.3657 23.6532 23.7573C22.2617 25.1488 21.48 27.0361 21.48 29.004Z" fill="#24BBFC"/>
    <path d="M26 29H32" stroke="#E0F6FF" stroke-width="2.5" stroke-linecap="round"/>
    <path d="M29.0049 26.0049L29.0049 32.0049" stroke="#E0F6FF" stroke-width="2.5" stroke-linecap="round"/>
  </g>
  <defs>
    <clipPath id="w2vzv154q__clip0_12511_12959">
      <path fill="#fff" d="M0 0H40V40H0z"/>
    </clipPath>
  </defs>
</svg>
