<svg fill="none" xmlns="http://www.w3.org/2000/svg" viewBox="0 0 40 40" class="design-iconfont">
  <g clip-path="url(#ev9w18ole__clip0_12511_12659)">
    <path d="M18.598 32.0584H25.574C25.634 32.0584 25.692 32.0744 25.744 32.1044L31.556 35.4644C32.132 35.7964 32.852 35.3824 32.854 34.7184L32.86 32.3984C32.86 32.2104 33.012 32.0604 33.2 32.0604H32.954C35.906 32.0604 38.3 29.6664 38.3 26.7144V15.7884C38.3 12.8364 35.906 10.4424 32.954 10.4424H18.598C15.646 10.4424 13.252 12.8364 13.252 15.7884V26.7144C13.252 29.6664 15.646 32.0584 18.598 32.0584Z" fill="#24BBFC"/>
    <path d="M28.26 27.8316H16.556C16.496 27.8316 16.438 27.8476 16.386 27.8776L10.574 31.2376C9.99798 31.5696 9.27798 31.1556 9.27598 30.4916L9.26998 28.1716C9.26998 27.9836 9.11798 27.8336 8.92998 27.8336H7.32598C4.37398 27.8336 1.97998 25.4396 1.97998 22.4876V10.3616C1.97998 7.40963 4.37398 5.01562 7.32598 5.01562H28.26C31.212 5.01562 33.606 7.40963 33.606 10.3616V22.4876C33.604 25.4396 31.212 27.8316 28.26 27.8316Z" fill="#2475FC"/>
    <path d="M25.5006 18.25C20.9441 22.8065 13.5565 22.8065 9 18.25" stroke="#fff" stroke-width="3" stroke-linecap="round"/>
  </g>
  <defs>
    <clipPath id="ev9w18ole__clip0_12511_12659">
      <path fill="#fff" d="M0 0H40V40H0z"/>
    </clipPath>
  </defs>
</svg>
