<svg fill="none" xmlns="http://www.w3.org/2000/svg" viewBox="0 0 16 16" class="design-iconfont">
  <path fill-rule="evenodd" clip-rule="evenodd" d="M2.3501 2.00026C2.3501 1.27309 2.93959 0.683594 3.66676 0.683594H13.0001C13.7273 0.683594 14.3168 1.27309 14.3168 2.00026V14.0003C14.3168 14.7274 13.7273 15.3169 13.0001 15.3169H3.66676C2.9396 15.3169 2.3501 14.7275 2.3501 14.0003V2.00026ZM3.65114 1.99397C3.65068 1.99506 3.6501 1.99676 3.6501 2.00026V14.0003C3.6501 14.0038 3.65068 14.0055 3.65114 14.0066C3.65179 14.0081 3.653 14.0101 3.65498 14.012C3.65696 14.014 3.65895 14.0152 3.66047 14.0159C3.66156 14.0163 3.66326 14.0169 3.66676 14.0169H13.0001C13.0027 14.0169 13.0043 14.0166 13.0054 14.0162L13.0064 14.0159C13.0079 14.0152 13.0099 14.014 13.0119 14.012C13.0139 14.0101 13.0151 14.0081 13.0157 14.0066L13.016 14.0058L13.0165 14.0038C13.0167 14.0029 13.0168 14.0017 13.0168 14.0003V2.00026C13.0168 1.99676 13.0162 1.99506 13.0157 1.99397C13.0151 1.99244 13.0139 1.99045 13.0119 1.98847C13.0099 1.98649 13.0079 1.98528 13.0064 1.98464C13.0053 1.98418 13.0036 1.98359 13.0001 1.98359H3.66676C3.66326 1.98359 3.66157 1.98418 3.66048 1.98464C3.65895 1.98528 3.65696 1.9865 3.65498 1.98848C3.653 1.99046 3.65178 1.99245 3.65114 1.99397ZM5.0166 5.65C5.0166 5.29101 5.30762 5 5.6666 5H10.3333C10.6923 5 10.9833 5.29101 10.9833 5.65C10.9833 6.00899 10.6923 6.3 10.3333 6.3H5.6666C5.30762 6.3 5.0166 6.00899 5.0166 5.65ZM5.6666 7C5.30762 7 5.0166 7.29101 5.0166 7.65C5.0166 8.00899 5.30762 8.3 5.6666 8.3H7.99994H10.3333C10.6923 8.3 10.9833 8.00899 10.9833 7.65C10.9833 7.29101 10.6923 7 10.3333 7H7.99994H5.6666ZM5.0166 9.65C5.0166 9.29101 5.30762 9 5.6666 9H8C8.35898 9 8.65 9.29101 8.65 9.65C8.65 10.009 8.35898 10.3 8 10.3H5.6666C5.30762 10.3 5.0166 10.009 5.0166 9.65Z" fill="#262626"/>
</svg>
