<svg fill="none" xmlns="http://www.w3.org/2000/svg" viewBox="0 0 20 20" class="design-iconfont">
  <rect width="20" height="20" rx="6" fill="#38F"/>
  <g clip-path="url(#cmdkkm1o9__clip0_12048_97931)" stroke="#fff" stroke-width="1.16667" stroke-linecap="round" stroke-linejoin="round">
    <path d="M6.79163 13.2109H5.04163V14.9609"/>
    <path d="M14.9584 14.9609H13.2084V13.2109"/>
    <path d="M13.2084 6.78906H14.9584V5.03906"/>
    <path d="M5.04163 5.03906H6.79163V6.78906"/>
    <path d="M6.79163 5.125C5.21015 6.16842 4.16663 7.96112 4.16663 9.99757C4.16663 10.295 4.18888 10.5871 4.23181 10.8726"/>
    <path d="M10.875 15.7708C10.5896 15.8137 10.2974 15.8359 10 15.8359C7.96357 15.8359 6.17086 14.7924 5.12744 13.2109"/>
    <path d="M15.7682 9.125C15.8111 9.41043 15.8334 9.70262 15.8334 10C15.8334 12.0364 14.7898 13.8291 13.2084 14.8726"/>
    <path d="M9.125 4.22925C9.41043 4.18632 9.70262 4.16406 10 4.16406C12.0364 4.16406 13.8291 5.20758 14.8726 6.78906"/>
  </g>
  <defs>
    <clipPath id="cmdkkm1o9__clip0_12048_97931">
      <path fill="#fff" transform="translate(3 3)" d="M0 0H14V14H0z"/>
    </clipPath>
  </defs>
</svg>
