<svg fill="none" xmlns="http://www.w3.org/2000/svg" viewBox="0 0 34 34" class="design-iconfont">
  <path d="M8.73927 27.0214C-2.46384 22.0705 -1.16796 6.50506 10.4532 6.50506C11.8745 6.50506 13.9646 6.22781 15.1351 5.95056C17.5596 5.31685 19.1899 5.55449 17.9777 6.34663C17.6014 6.62388 17.3506 7.09916 17.4342 7.45562C17.6432 8.24775 23.9136 13.7135 24.6661 13.7135C25.7948 13.7135 25.7948 12.4461 24.7079 11.4955C22.9522 9.99045 22.4505 8.01011 23.2448 6.02978L23.621 5L25.8366 7.01994C27.2997 8.36657 28.2193 8.92107 28.6373 8.72303C29.0136 8.56461 29.8914 8.36657 30.6439 8.24775C31.3963 8.16854 32.2324 7.85169 32.4832 7.53483C33.2774 6.62388 34.2389 6.86152 33.9463 7.89129C33.8209 8.36657 33.6955 8.96068 33.6955 9.23792C33.6955 10.1489 31.1455 12.4857 29.9332 12.7233C28.9718 12.9214 28.6791 13.1986 28.6791 13.9115C28.6791 15.6938 27.0906 19.6545 25.5857 21.5952L24.039 23.5756L25.5439 24.1697C27.8431 25.0806 27.216 25.7935 23.9972 25.8332C22.2415 25.8728 20.9038 26.1104 20.235 26.5461C17.4342 28.2888 12.1253 28.4868 8.73927 27.0214ZM19.0227 23.6944C18.0195 22.625 16.3056 20.6051 15.2187 19.1396C12.3761 15.3374 8.73927 13.3174 4.76802 13.3174C3.22132 13.3174 3.17952 13.357 3.17952 14.664C3.17952 18.3079 7.23438 23.9716 10.3278 24.6053C11.9163 24.9618 12.7523 24.3281 11.9581 23.4567C11.6655 23.1003 11.54 22.5458 11.7073 22.2289C11.9163 21.6744 12.0835 21.6744 13.2958 22.2685C14.0482 22.625 15.3441 23.4171 16.1383 24.0112C17.6014 25.0806 18.5211 25.4767 20.0678 25.5559C20.653 25.5955 20.444 25.1598 19.0227 23.6944ZM22.6178 18.0702C22.9522 17.5553 21.3219 15.0205 20.3186 14.5056C19.9006 14.268 19.2317 14.1096 18.8973 14.1096C17.9359 14.1096 18.0613 15.1789 19.0645 15.4166C19.608 15.5354 19.9006 15.9711 19.9006 16.5652C19.9006 17.0801 20.1096 17.7138 20.4022 17.991C21.0293 18.5851 22.2833 18.6247 22.6178 18.0702Z" fill="#4D6BFE"/>
</svg>
