<svg width="16" height="16" viewBox="0 0 16 16" fill="none" xmlns="http://www.w3.org/2000/svg">
<g clip-path="url(#clip0_983_5783)">
<path d="M6.6666 6.01562C7.02559 6.01562 7.3166 6.30664 7.3166 6.66563V10.999C7.3166 11.3579 7.02559 11.649 6.6666 11.649C6.30762 11.649 6.0166 11.3579 6.0166 10.999V6.66563C6.0166 6.30664 6.30762 6.01562 6.6666 6.01562Z" fill="currentColor"/>
<path d="M9.98359 6.66563C9.98359 6.30664 9.69258 6.01562 9.33359 6.01562C8.97461 6.01562 8.68359 6.30664 8.68359 6.66563V10.999C8.68359 11.3579 8.97461 11.649 9.33359 11.649C9.69258 11.649 9.98359 11.3579 9.98359 10.999V6.66563Z" fill="currentColor"/>
<path fill-rule="evenodd" clip-rule="evenodd" d="M6.42993 0.683594C6.19255 0.683594 5.97405 0.812994 5.85995 1.02115L4.94865 2.68359H1.33359C0.974609 2.68359 0.683594 2.97461 0.683594 3.33359C0.683594 3.69258 0.974609 3.98359 1.33359 3.98359H2.3501V14.6669C2.3501 15.0259 2.64111 15.3169 3.0001 15.3169H13.0001C13.3591 15.3169 13.6501 15.0259 13.6501 14.6669V3.98359H14.6669C15.0259 3.98359 15.3169 3.69258 15.3169 3.33359C15.3169 2.97461 15.0259 2.68359 14.6669 2.68359H11.0556L10.1652 1.02601C10.052 0.815146 9.83199 0.683594 9.59263 0.683594H6.42993ZM9.57994 2.68359L9.20394 1.98359H6.81487L6.43115 2.68359H9.57994ZM3.6501 3.98359V14.0169H12.3501V3.98359H3.6501Z" fill="currentColor"/>
</g>
<defs>
<clipPath id="clip0_983_5783">
<rect width="16" height="16" fill="white"/>
</clipPath>
</defs>
</svg>
