<svg width="16" height="16" viewBox="0 0 16 16" fill="none" xmlns="http://www.w3.org/2000/svg">
<path d="M5.66665 5.33398H4.33331C2.67646 5.33398 1.33331 6.67712 1.33331 8.33398C1.33331 9.99085 2.67646 11.334 4.33331 11.334C5.15858 11.334 5.90601 11.0008 6.44841 10.4615C6.99495 9.91815 7.99998 8.33398 7.99998 8.33398C7.99998 8.33398 9.00188 6.75682 9.54398 6.21402C10.087 5.67032 10.8375 5.33398 11.6666 5.33398C13.3235 5.33398 14.6666 6.67712 14.6666 8.33398C14.6666 9.99085 13.3235 11.334 11.6666 11.334H10.3333" stroke="#262626" stroke-width="1.3" stroke-linecap="round" stroke-linejoin="round"/>
<path d="M11.6666 10L10.3333 11.3333L11.6666 12.6667" stroke="#262626" stroke-width="1.3" stroke-linecap="round" stroke-linejoin="round"/>
<path d="M4.33331 4L5.66665 5.33333L4.33331 6.66667" stroke="#262626" stroke-width="1.3" stroke-linecap="round" stroke-linejoin="round"/>
</svg>
