<svg fill="none" xmlns="http://www.w3.org/2000/svg" viewBox="0 0 24 24" class="design-iconfont">
  <rect width="24" height="24" rx="4.8" fill="#2475FC"/>
  <g filter="url(#iwy0zeq7u__filter0_d_341_3700)" fill-rule="evenodd" clip-rule="evenodd">
    <path d="M6.30335 11.1H16.5003C16.5993 11.1 16.6893 11.082 16.7703 11.037L16.7791 11.0321C16.9156 10.9576 18.3003 10.2012 18.3003 8.39995C18.3003 6.54595 16.8333 5.78995 16.7703 5.76295C16.6893 5.71795 16.5903 5.69995 16.5003 5.69995H6.30335C6.02435 5.69995 5.79035 5.88895 5.71835 6.15895C5.65535 6.42895 5.78135 6.70795 6.02435 6.83395C6.06035 6.85195 6.90635 7.31095 6.90635 8.39995C6.90635 9.45901 6.12325 9.91372 6.0388 9.96276L6.03335 9.96595C5.78135 10.092 5.65535 10.371 5.71835 10.641C5.78135 10.911 6.02435 11.1 6.30335 11.1ZM7.5002 17.697H17.6882C17.9672 17.697 18.2102 17.508 18.2732 17.238C18.3362 16.968 18.2102 16.689 17.9582 16.563C17.9582 16.5623 17.9522 16.5583 17.9412 16.5511C17.8202 16.4717 17.0942 15.9953 17.0942 14.997C17.0942 13.938 17.8773 13.4832 17.9617 13.4342C17.9641 13.4328 17.966 13.4318 17.9672 13.431C18.2192 13.305 18.3452 13.026 18.2822 12.756C18.2192 12.486 17.9762 12.297 17.6972 12.297H7.5002C7.4012 12.297 7.3112 12.315 7.2302 12.36C7.1672 12.387 5.7002 13.143 5.7002 14.997C5.7002 16.851 7.1672 17.607 7.2302 17.634C7.3112 17.679 7.4102 17.697 7.5002 17.697Z" fill="#333"/>
    <path d="M6.30335 11.1H16.5003C16.5993 11.1 16.6893 11.082 16.7703 11.037L16.7791 11.0321C16.9156 10.9576 18.3003 10.2012 18.3003 8.39995C18.3003 6.54595 16.8333 5.78995 16.7703 5.76295C16.6893 5.71795 16.5903 5.69995 16.5003 5.69995H6.30335C6.02435 5.69995 5.79035 5.88895 5.71835 6.15895C5.65535 6.42895 5.78135 6.70795 6.02435 6.83395C6.06035 6.85195 6.90635 7.31095 6.90635 8.39995C6.90635 9.45901 6.12325 9.91372 6.0388 9.96276L6.03335 9.96595C5.78135 10.092 5.65535 10.371 5.71835 10.641C5.78135 10.911 6.02435 11.1 6.30335 11.1ZM7.5002 17.697H17.6882C17.9672 17.697 18.2102 17.508 18.2732 17.238C18.3362 16.968 18.2102 16.689 17.9582 16.563C17.9582 16.5623 17.9522 16.5583 17.9412 16.5511C17.8202 16.4717 17.0942 15.9953 17.0942 14.997C17.0942 13.938 17.8773 13.4832 17.9617 13.4342C17.9641 13.4328 17.966 13.4318 17.9672 13.431C18.2192 13.305 18.3452 13.026 18.2822 12.756C18.2192 12.486 17.9762 12.297 17.6972 12.297H7.5002C7.4012 12.297 7.3112 12.315 7.2302 12.36C7.1672 12.387 5.7002 13.143 5.7002 14.997C5.7002 16.851 7.1672 17.607 7.2302 17.634C7.3112 17.679 7.4102 17.697 7.5002 17.697Z" fill="url(#iwy0zeq7u__paint0_linear_341_3700)"/>
  </g>
  <defs>
    <linearGradient id="iwy0zeq7u__paint0_linear_341_3700" x1="5.7002" y1="11.6985" x2="18.3002" y2="11.6985" gradientUnits="userSpaceOnUse">
      <stop stop-color="#EBF3FF"/>
      <stop offset="1" stop-color="#C2D9FF"/>
    </linearGradient>
    <filter id="iwy0zeq7u__filter0_d_341_3700" x="3.3002" y="4.5002" width="17.4001" height="16.7971" filterUnits="userSpaceOnUse" color-interpolation-filters="sRGB">
      <feFlood flood-opacity="0" result="BackgroundImageFix"/>
      <feColorMatrix in="SourceAlpha" values="0 0 0 0 0 0 0 0 0 0 0 0 0 0 0 0 0 0 127 0" result="hardAlpha"/>
      <feOffset dy="1.2"/>
      <feGaussianBlur stdDeviation="1.2"/>
      <feComposite in2="hardAlpha" operator="out"/>
      <feColorMatrix values="0 0 0 0 0.070708 0 0 0 0 0.175495 0 0 0 0 0.348845 0 0 0 0.32 0"/>
      <feBlend in2="BackgroundImageFix" result="effect1_dropShadow_341_3700"/>
      <feBlend in="SourceGraphic" in2="effect1_dropShadow_341_3700" result="shape"/>
    </filter>
  </defs>
</svg>
