<svg fill="none" xmlns="http://www.w3.org/2000/svg" viewBox="0 0 16 16" class="design-iconfont">
  <path fill-rule="evenodd" clip-rule="evenodd" d="M2.31764 2.65999C2.31718 2.66108 2.3166 2.66278 2.3166 2.66628V13.3329C2.3166 13.3364 2.31718 13.3381 2.31764 13.3392C2.31829 13.3408 2.3195 13.3428 2.32148 13.3447C2.32346 13.3467 2.32545 13.3479 2.32698 13.3486C2.32807 13.349 2.32976 13.3496 2.33327 13.3496H13.6666C13.6681 13.3496 13.6693 13.3495 13.6702 13.3493C13.6715 13.3491 13.6723 13.3488 13.6729 13.3486C13.674 13.3481 13.6753 13.3473 13.6768 13.3462C13.6773 13.3458 13.6778 13.3453 13.6784 13.3447C13.6804 13.3428 13.6816 13.3408 13.6822 13.3392C13.6827 13.3382 13.6833 13.3365 13.6833 13.3329V4.66628C13.6833 4.66277 13.6827 4.66107 13.6822 4.65998C13.6816 4.65845 13.6804 4.65646 13.6784 4.65449C13.6764 4.65251 13.6744 4.6513 13.6729 4.65065C13.6718 4.65019 13.6701 4.64961 13.6666 4.64961H7.99994C7.80703 4.64961 7.62409 4.56392 7.50059 4.41573L6.02882 2.64961H2.33327C2.32977 2.64961 2.32807 2.65019 2.32698 2.65065C2.32546 2.6513 2.32346 2.65251 2.32148 2.65449C2.3195 2.65647 2.31829 2.65846 2.31764 2.65999ZM1.0166 2.66628C1.0166 1.9391 1.60609 1.34961 2.33327 1.34961H6.33327C6.52618 1.34961 6.70912 1.43529 6.83261 1.58349L8.30438 3.34961H13.6666C14.3938 3.34961 14.9833 3.93909 14.9833 4.66628V13.3329C14.9833 14.0601 14.3938 14.6496 13.6666 14.6496H2.33327C1.6061 14.6496 1.0166 14.0601 1.0166 13.3329V2.66628Z" fill="#2475FC"/>
  <path fill-rule="evenodd" clip-rule="evenodd" d="M7.54048 6.20796C7.79412 5.95432 8.20528 5.95409 8.45921 6.20745L10.4592 8.20302C10.7133 8.45657 10.7138 8.86813 10.4602 9.12225C10.2067 9.37638 9.79511 9.37683 9.54099 9.12327L8.00061 7.58631L6.45972 9.1272C6.20588 9.38104 5.79432 9.38104 5.54048 9.1272C5.28664 8.87336 5.28664 8.4618 5.54048 8.20796L7.54048 6.20796Z" fill="#2475FC"/>
  <path fill-rule="evenodd" clip-rule="evenodd" d="M8.0001 6.01758C8.35908 6.01758 8.6501 6.30859 8.6501 6.66758V11.3342C8.6501 11.6932 8.35908 11.9842 8.0001 11.9842C7.64111 11.9842 7.3501 11.6932 7.3501 11.3342V6.66758C7.3501 6.30859 7.64111 6.01758 8.0001 6.01758Z" fill="#2475FC"/>
</svg>
