<svg fill="none" xmlns="http://www.w3.org/2000/svg" viewBox="0 0 24 24" class="design-iconfont">
  <path d="M13.9428 0L21.2244 7.4162C21.5916 7.79016 21.7973 8.29331 21.7973 8.8174V21.1997C21.7973 22.7465 20.5668 24 19.0482 24H4.91009C3.39149 24 2.16089 22.7454 2.16089 21.1997V2.80032C2.16101 1.25352 3.39161 0 4.91021 0H13.9428Z" fill="#4A8DFF"/>
  <path d="M15.0944 17.3275C15.4612 17.717 16.1301 17.4655 16.1301 16.938V11.3931C16.1301 11.064 15.8633 10.7972 15.5342 10.7972C15.2051 10.7972 14.9382 11.064 14.9382 11.3931V15.448L12.5699 12.932C12.457 12.8121 12.2973 12.7438 12.1298 12.7438C11.9625 12.7438 11.8028 12.8121 11.6899 12.932L9.32149 15.448V11.3926C9.32149 11.0636 9.05479 10.7969 8.72581 10.7969C8.39682 10.7969 8.13013 11.0636 8.13013 11.3926V16.938C8.13013 17.4655 8.79914 17.717 9.16596 17.3275L12.1301 14.1787L15.0944 17.3275Z" fill="#fff"/>
  <path d="M21.7998 7.99968H16.833C15.3155 7.99968 13.9453 6.6054 13.9453 5.05848V0L21.7998 7.99968V7.99968Z" fill="#fff" fill-opacity=".4"/>
</svg>
