<svg width="16" height="16" viewBox="0 0 16 16" fill="none" xmlns="http://www.w3.org/2000/svg">
<g clip-path="url(#clip0_451_11823)">
<path d="M9.33331 2.66602L7.99998 1.33268L6.66665 2.66602" stroke="#595959" stroke-width="1.33333" stroke-linecap="round" stroke-linejoin="round"/>
<path d="M8.00006 1.33398V5.33398" stroke="#595959" stroke-width="1.33333" stroke-linecap="round" stroke-linejoin="round"/>
<path d="M6.66669 13.3337L8.00002 14.667L9.33335 13.3337" stroke="#595959" stroke-width="1.33333" stroke-linecap="round" stroke-linejoin="round"/>
<path d="M8 14.667V10.667" stroke="#595959" stroke-width="1.33333" stroke-linecap="round" stroke-linejoin="round"/>
<path d="M13.3334 6.66699L14.6667 8.00033L13.3334 9.33366" stroke="#595959" stroke-width="1.33333" stroke-linecap="round" stroke-linejoin="round"/>
<path d="M14.6667 8H10.6667" stroke="#595959" stroke-width="1.33333" stroke-linecap="round" stroke-linejoin="round"/>
<path d="M2.66663 6.66699L1.33329 8.00033L2.66663 9.33366" stroke="#595959" stroke-width="1.33333" stroke-linecap="round" stroke-linejoin="round"/>
<path d="M1.33337 8H5.33337" stroke="#595959" stroke-width="1.33333" stroke-linecap="round" stroke-linejoin="round"/>
<path d="M7.99998 8.66634C8.36818 8.66634 8.66665 8.36787 8.66665 7.99967C8.66665 7.63147 8.36818 7.33301 7.99998 7.33301C7.63178 7.33301 7.33331 7.63147 7.33331 7.99967C7.33331 8.36787 7.63178 8.66634 7.99998 8.66634Z" stroke="#595959" stroke-width="1.33333" stroke-linecap="round" stroke-linejoin="round"/>
</g>
<defs>
<clipPath id="clip0_451_11823">
<rect width="16" height="16" fill="white"/>
</clipPath>
</defs>
</svg>
