<svg fill="none" xmlns="http://www.w3.org/2000/svg" viewBox="0 0 16 16" class="design-iconfont">
  <path d="M5.70999 7.44846V8.39753C5.70999 8.77626 6.01699 9.08326 6.39575 9.08326C6.77449 9.08326 7.08145 8.77626 7.08145 8.39753V7.44846C7.08145 7.0698 6.77449 6.7627 6.39575 6.7627C6.01699 6.7627 5.70999 7.0698 5.70999 7.44846Z" fill="currentColor"/>
  <path d="M9.10419 7.44846C9.10419 7.0698 9.41122 6.7627 9.78992 6.7627C10.1687 6.7627 10.4757 7.0698 10.4757 7.44846V8.39753C10.4757 8.77626 10.1687 9.08326 9.78992 9.08326C9.41122 9.08326 9.10419 8.77626 9.10419 8.39753V7.44846Z" fill="currentColor"/>
  <path fill-rule="evenodd" clip-rule="evenodd" d="M2.86958 12.3289C1.77379 11.1261 1.10716 9.53817 1.10716 7.7971C1.10716 4.04237 4.20599 0.998535 8.02855 0.998535C11.8512 0.998535 14.95 4.04237 14.95 7.7971C14.95 10.452 13.4002 12.7505 11.1412 13.8697C9.75902 14.5903 8.18225 14.9985 6.50845 14.9985C4.45755 14.9985 2.55232 14.3857 0.972351 13.3362C0.972351 13.3362 2.03215 13.2204 2.86958 12.3289ZM11.2799 11.1618C13.0706 9.3712 13.0706 6.46803 11.2799 4.6774C10.4496 3.8471 9.38005 3.40207 8.29315 3.34183C8.26041 2.52773 8.69784 1.97722 8.70144 1.97269C7.45224 2.21401 6.25929 2.81799 5.29199 3.7853C4.55015 4.5271 4.02195 5.4016 3.70705 6.33233C3.75315 6.21027 3.80455 6.08973 3.86125 5.97113C3.79599 6.13757 3.73702 6.30763 3.68369 6.48163C3.15927 8.0736 3.52942 9.89573 4.79549 11.1618C6.58615 12.9525 9.48932 12.9525 11.2799 11.1618Z" fill="currentColor"/>
</svg>
