<svg width="16" height="16" viewBox="0 0 16 16" fill="none" xmlns="http://www.w3.org/2000/svg">
<g clip-path="url(#clip0_3020_62790)">
<path d="M14 5.0026L11.3333 6.33594M11.3333 6.33594L11 6.5026L7.99998 8.0026M11.3333 6.33594V8.66927M11.3333 6.33594L4.99998 3.0026M7.99998 8.0026L1.99998 5.0026M7.99998 8.0026V14.3359M10.3853 2.25727L11.7186 2.95727C13.1526 3.70994 13.87 4.08594 14.2686 4.7626C14.6666 5.4386 14.6666 6.2806 14.6666 7.96394V8.04194C14.6666 9.7246 14.6666 10.5666 14.2686 11.2426C13.87 11.9193 13.1526 12.2959 11.7186 13.0486L10.3853 13.7479C9.21465 14.3619 8.62931 14.6693 7.99998 14.6693C7.37065 14.6693 6.78531 14.3626 5.61465 13.7479L4.28131 13.0479C2.84731 12.2953 2.12998 11.9193 1.73131 11.2426C1.33331 10.5666 1.33331 9.7246 1.33331 8.0426V7.9646C1.33331 6.28127 1.33331 5.43927 1.73131 4.76327C2.12998 4.0866 2.84731 3.70994 4.28131 2.95794L5.61465 2.25794C6.78531 1.64327 7.37065 1.33594 7.99998 1.33594C8.62931 1.33594 9.21465 1.6426 10.3853 2.25727Z" stroke="currentColor" stroke-width="1.17" stroke-linecap="round"/>
</g>
<defs>
<clipPath id="clip0_3020_62790">
<rect width="16" height="16" fill="white"/>
</clipPath>
</defs>
</svg>
