<svg width="16" height="16" viewBox="0 0 16 16" fill="none" xmlns="http://www.w3.org/2000/svg">
<path d="M5.54048 4.53999C5.79432 4.28615 6.20588 4.28615 6.45972 4.53999L8.0001 6.08037L9.54048 4.53999C9.79432 4.28615 10.2059 4.28615 10.4597 4.53999C10.7136 4.79383 10.7136 5.20539 10.4597 5.45923L8.90234 7.0166H10.3335C10.6925 7.0166 10.9835 7.30762 10.9835 7.6666C10.9835 8.02559 10.6925 8.3166 10.3335 8.3166H8.6501V9.0166H10.3335C10.6925 9.0166 10.9835 9.30762 10.9835 9.6666C10.9835 10.0256 10.6925 10.3166 10.3335 10.3166H8.6501V11.3333C8.6501 11.6923 8.35908 11.9833 8.0001 11.9833C7.64111 11.9833 7.3501 11.6923 7.3501 11.3333V10.3166H5.66685C5.30786 10.3166 5.01685 10.0256 5.01685 9.6666C5.01685 9.30762 5.30786 9.0166 5.66685 9.0166H7.3501V8.3166H5.66685C5.30786 8.3166 5.01685 8.02559 5.01685 7.6666C5.01685 7.30762 5.30786 7.0166 5.66685 7.0166H7.09785L5.54048 5.45923C5.28664 5.20539 5.28664 4.79383 5.54048 4.53999Z" fill="#262626"/>
<path fill-rule="evenodd" clip-rule="evenodd" d="M0.68335 3.99928C0.68335 2.71983 1.72056 1.68262 3.00002 1.68262H13C14.2795 1.68262 15.3167 2.71982 15.3167 3.99928V11.9993C15.3167 13.2787 14.2795 14.316 13 14.316H3.00002C1.72056 14.316 0.68335 13.2787 0.68335 11.9993V3.99928ZM3.00002 2.98262C2.43853 2.98262 1.98335 3.4378 1.98335 3.99928V11.9993C1.98335 12.5608 2.43853 13.016 3.00002 13.016H13C13.5615 13.016 14.0167 12.5608 14.0167 11.9993V3.99928C14.0167 3.4378 13.5615 2.98262 13 2.98262H3.00002Z" fill="#262626"/>
</svg>
