<svg width="16" height="16" viewBox="0 0 16 16" fill="none" xmlns="http://www.w3.org/2000/svg">
<path fill-rule="evenodd" clip-rule="evenodd" d="M10.2316 1.34961C10.4041 1.34958 10.5695 1.4181 10.6915 1.54008L13.1265 3.97608C13.3802 4.2299 13.3802 4.64131 13.1265 4.89513L6.23215 11.7925C6.11025 11.9144 5.94487 11.9829 5.77243 11.9829H3.33343C2.97445 11.9829 2.68343 11.6919 2.68343 11.3329V8.90628C2.68343 8.73402 2.75181 8.56881 2.87354 8.44693L9.77187 1.54027C9.89376 1.41823 10.0592 1.34964 10.2316 1.34961ZM10.2319 2.91922L3.98343 9.17528V10.6829H5.50311L11.7477 4.43561L10.2319 2.91922Z" fill="currentColor"/>
<path d="M1.3501 13.9996C1.3501 13.6406 1.64111 13.3496 2.0001 13.3496H14.0001C14.3591 13.3496 14.6501 13.6406 14.6501 13.9996C14.6501 14.3586 14.3591 14.6496 14.0001 14.6496H2.0001C1.64111 14.6496 1.3501 14.3586 1.3501 13.9996Z" fill="currentColor"/>
</svg>
