<svg width="16" height="16" viewBox="0 0 16 16" fill="none" xmlns="http://www.w3.org/2000/svg">
<path fill-rule="evenodd" clip-rule="evenodd" d="M7.33333 1C6.59695 1 6 1.59695 6 2.33333V7H3.33333C2.59695 7 2 7.59695 2 8.33333V13.6665H1.33334C0.965149 13.6665 0.666672 13.965 0.666672 14.3332C0.666672 14.7014 0.965149 14.9998 1.33334 14.9998H3.31227L3.33333 15H6L6.02107 14.9998H7.3122L7.33333 15H12.6667L12.6878 14.9998H14.6667C15.0349 14.9998 15.3333 14.7014 15.3333 14.3332C15.3333 13.965 15.0349 13.6665 14.6667 13.6665H14V2.33333C14 1.59695 13.403 1 12.6667 1H7.33333ZM8.66667 11.0024C8.66667 10.6343 8.96515 10.3358 9.33334 10.3358H10.6667C11.0349 10.3358 11.3333 10.6343 11.3333 11.0024C11.3333 11.3706 11.0349 11.6691 10.6667 11.6691H9.33334C8.96515 11.6691 8.66667 11.3706 8.66667 11.0024ZM4 10.3358C3.63181 10.3358 3.33333 10.6343 3.33333 11.0024C3.33333 11.3706 3.63181 11.6691 4 11.6691H5.33333C5.70152 11.6691 6 11.3706 6 11.0024C6 10.6343 5.70152 10.3358 5.33333 10.3358H4ZM8.66667 8.00244C8.66667 7.63425 8.96515 7.33577 9.33334 7.33577H10.6667C11.0349 7.33577 11.3333 7.63425 11.3333 8.00244C11.3333 8.37063 11.0349 8.66911 10.6667 8.66911H9.33334C8.96515 8.66911 8.66667 8.37063 8.66667 8.00244ZM9.33334 4.33577C8.96515 4.33577 8.66667 4.63425 8.66667 5.00244C8.66667 5.37063 8.96515 5.66911 9.33334 5.66911H10.6667C11.0349 5.66911 11.3333 5.37063 11.3333 5.00244C11.3333 4.63425 11.0349 4.33577 10.6667 4.33577H9.33334Z" fill="#A1A7B3"/>
</svg>
