<svg fill="none" xmlns="http://www.w3.org/2000/svg" viewBox="0 0 24 24" class="design-iconfont">
  <path d="M13.9441 0L21.7985 7.99968V21.1997C21.7985 22.7465 20.5681 24 19.0495 24H4.91131C3.39271 24 2.16211 22.7454 2.16211 21.1997V2.80032C2.16223 1.25352 3.39283 0 4.91143 0H13.9441Z" fill="#00C090"/>
  <path d="M21.7986 7.99968H16.8318C15.3143 7.99968 13.9441 6.6054 13.9441 5.05848V0L21.7986 7.99968V7.99968Z" fill="#fff" fill-opacity=".4"/>
  <path d="M14.876 10.7305L8.12085 17.2994C8.06548 17.3551 8.02178 17.4214 7.99232 17.4942C7.96285 17.5671 7.94822 17.6451 7.94927 17.7237C7.95032 17.8022 7.96704 17.8798 7.99844 17.9519C8.02984 18.0239 8.07529 18.089 8.13214 18.1432C8.37148 18.3748 8.75773 18.3788 9.00209 18.1521L15.7569 11.5832C15.9202 11.4317 15.9861 11.2064 15.929 10.9943C15.8721 10.7823 15.7011 10.617 15.4823 10.5622C15.2636 10.5074 15.0314 10.5718 14.8757 10.7305H14.8759H14.876Z" fill="#fff"/>
  <path d="M8.12107 11.5673L14.8762 18.1359C15.1206 18.3625 15.5068 18.3586 15.7462 18.127C15.803 18.0727 15.8485 18.0077 15.8798 17.9356C15.9112 17.8636 15.9279 17.786 15.929 17.7075C15.9301 17.6289 15.9154 17.5509 15.886 17.4781C15.8565 17.4052 15.8128 17.339 15.7575 17.2832L9.00262 10.7143C8.75825 10.4877 8.372 10.4916 8.13259 10.7232C8.07575 10.7775 8.03031 10.8425 7.99891 10.9145C7.96752 10.9866 7.95081 11.0641 7.94976 11.1427C7.94871 11.2213 7.96334 11.2993 7.99279 11.3721C8.02225 11.445 8.06594 11.5112 8.1213 11.567L8.12107 11.5673V11.5673Z" fill="#fff"/>
</svg>
