<svg fill="none" xmlns="http://www.w3.org/2000/svg" viewBox="0 0 16 16" class="design-iconfont">
  <g clip-path="url(#4f9846fr4__clip0_12833_126304)" stroke="#262626" stroke-width="1.33333">
    <path d="M4 3.30905V2.33337C4 1.78109 4.4477 1.33337 5 1.33337H13.6667C14.219 1.33337 14.6667 1.78109 14.6667 2.33337V11C14.6667 11.5523 14.219 12 13.6667 12H12.6725"/>
    <path d="M11.6667 3.33337H2.33337C1.78109 3.33337 1.33337 3.78109 1.33337 4.33337V13.6667C1.33337 14.219 1.78109 14.6667 2.33337 14.6667H11.6667C12.219 14.6667 12.6667 14.219 12.6667 13.6667V4.33337C12.6667 3.78109 12.219 3.33337 11.6667 3.33337Z" stroke-linejoin="round"/>
    <path d="M4 9L10 9" stroke-linecap="round" stroke-linejoin="round"/>
    <path d="M7 6L10 9L7 12" stroke-linecap="round" stroke-linejoin="round"/>
  </g>
  <defs>
    <clipPath id="4f9846fr4__clip0_12833_126304">
      <path fill="#fff" d="M0 0H16V16H0z"/>
    </clipPath>
  </defs>
</svg>
