<svg fill="none" xmlns="http://www.w3.org/2000/svg" viewBox="0 0 20 20" class="design-iconfont">
  <rect width="20" height="20" rx="6" fill="#001EFF"/>
  <path d="M10 4C6.694 4 4 6.694 4 10C4 13.306 6.694 16 10 16C13.306 16 16 13.306 16 10C16 6.694 13.306 4 10 4ZM11.05 13.408C10.816 13.54 10.636 13.642 10.498 13.708C10.348 13.78 10.186 13.816 10.018 13.81C9.766 13.822 9.52 13.714 9.364 13.516C9.208 13.3 9.124 13.036 9.136 12.766C9.136 12.646 9.142 12.526 9.154 12.406C9.166 12.28 9.184 12.148 9.214 11.992L9.502 10.54C9.526 10.408 9.55 10.27 9.568 10.138C9.586 10.024 9.592 9.91 9.592 9.796C9.604 9.658 9.574 9.52 9.508 9.406C9.43 9.322 9.316 9.28 9.196 9.292C9.118 9.292 9.04 9.31 8.968 9.346C8.902 9.376 8.83 9.406 8.77 9.442L8.848 8.986C9.04 8.872 9.22 8.782 9.394 8.704C9.55 8.632 9.712 8.59 9.886 8.584C10.132 8.572 10.372 8.68 10.528 8.872C10.69 9.088 10.768 9.358 10.756 9.628C10.756 9.694 10.738 9.808 10.738 9.964C10.732 10.114 10.708 10.258 10.678 10.408L10.39 11.872C10.366 11.986 10.342 12.124 10.324 12.274C10.306 12.388 10.3 12.496 10.294 12.61C10.282 12.748 10.312 12.886 10.384 13.006C10.468 13.084 10.582 13.126 10.696 13.114L10.702 13.108C10.78 13.102 10.858 13.084 10.93 13.054C10.996 13.03 11.062 13 11.122 12.958L11.05 13.408ZM10.978 7.492C10.678 7.792 10.198 7.786 9.898 7.492C9.748 7.354 9.664 7.156 9.67 6.952C9.67 6.532 10.018 6.19 10.438 6.19H10.444C10.648 6.19 10.9 6.292 11.038 6.436C11.338 6.736 11.278 7.198 10.978 7.492Z" fill="#EBEDFF"/>
</svg>
