<svg t="1736306538587" class="icon" viewBox="0 0 1024 1024" version="1.1" xmlns="http://www.w3.org/2000/svg" p-id="4283" width="256" height="256"><path d="M863.38266946 101.16481782a37.65249042 37.65249042 0 0 0-53.27139798-1e-8l-50.28446283 50.28446366-74.29836978 74.2852109-176.79498816 176.79498816A37.66564847 37.66564847 0 0 0 562.00484869 455.79429989v-0.00657943l176.8015676-176.78182928 74.29179034-74.29836979 50.28446283-50.27788421a37.67222791 37.67222791 0 0 0 0-53.26481937z" fill="currentColor" p-id="4284"></path><path d="M776.47206476 375.89707126a37.65906903 37.65906903 0 0 0-37.66564847 36.94194086v408.03246303a37.67222791 37.67222791 0 0 1-37.66564847 37.67222792H203.93447089a37.66564847 37.66564847 0 0 1-37.66564848-37.67222791V263.40014084a37.66564847 37.66564847 0 0 1 37.66564848-37.66564847h349.35958026a37.67222791 37.67222791 0 1 0 0-75.34445499H156.85405475C120.45160385 150.39661682 90.93752548 179.90411575 90.93752548 216.31972552v651.63216577c0 36.4024509 29.51407837 65.9231087 65.91652927 65.92310871h591.36712838c36.4024509 0 65.91652927-29.51407837 65.9165301-65.92310871V411.31922803a37.64591098 37.64591098 0 0 0-37.66564847-35.42215677z" fill="currentColor" p-id="4285"></path><path d="M211.47417969 594.87100573a37.66564847 37.66564847 0 0 0 37.66564847 37.66564847h346.53054501a37.67222791 37.67222791 0 0 0 0-75.33787637H249.13982816a37.67222791 37.67222791 0 0 0-37.66564847 37.6722279z m203.39450107-203.40108049h-165.7288526a37.67222791 37.67222791 0 0 0 0 75.33787554h165.7288526a37.67222791 37.67222791 0 0 0 0-75.33787554z" fill="currentColor" p-id="4286"></path></svg>