<?xml version="1.0" standalone="no"?><!DOCTYPE svg PUBLIC "-//W3C//DTD SVG 1.1//EN" "http://www.w3.org/Graphics/SVG/1.1/DTD/svg11.dtd"><svg t="1768446393731" class="icon" viewBox="0 0 1024 1024" version="1.1" xmlns="http://www.w3.org/2000/svg" p-id="5581" xmlns:xlink="http://www.w3.org/1999/xlink" width="300" height="300"><path d="M631.893333 93.866667l11.946667 7.850666c14.762667 9.685333 30.122667 26.026667 43.52 42.496 14.250667 17.578667 29.525333 39.296 43.733333 63.146667 17.92 29.909333 35.669333 65.621333 47.189334 102.4 62.165333-10.88 134.186667-4.778667 215.381333 30.933333 34.389333 15.146667 41.045333 61.226667 12.202667 85.461334-8.064 6.741333-29.013333 27.733333-46.165334 64.853333l-6.613333 14.592c-12.757333 28.416-31.445333 69.973333-56.917333 109.824-73.728 134.997333-233.557333 308.48-518.570667 315.008-81.578667 1.877333-161.877333-17.493333-225.664-41.984-32-12.373333-60.672-26.325333-84.053333-40.277333-22.272-13.354667-43.221333-28.757333-56.533334-45.098667A50.432 50.432 0 0 1 0 771.157333V354.432C0 311.04 55.978667 282.88 89.045333 321.237333c41.472 48.128 120.106667 123.690667 221.952 190.677334 31.274667 20.565333 64.469333 40.192 99.242667 57.898666 9.045333-5.674667 22.4-14.976 39.552-28.8 7.594667-6.101333 15.061333-12.373333 22.4-18.773333C361.386667 334.336 236.8 241.92 163.541333 187.733333c-39.082667-28.842667-19.072-91.136 29.866667-91.392L631.808 93.866667z m-89.472 360.533333l1.792-1.92c26.794667-28.330667 74.965333-79.189333 143.701334-112.981333-8.234667-26.624-22.016-55.765333-38.485334-83.370667-12.074667-20.181333-24.746667-38.144-35.925333-51.925333a234.24 234.24 0 0 0-13.226667-15.018667l-279.68 1.578667c67.370667 58.752 147.2 142.165333 221.824 263.637333z m-239.274666 164.864c-15.018667-8.96-29.866667-18.261333-44.458667-27.861333a1284.053333 1284.053333 0 0 1-163.541333-128v288.597333c5.12 3.968 12.245333 8.917333 21.589333 14.506667 18.176 10.837333 41.856 22.528 69.418667 33.109333 55.424 21.333333 123.178667 37.205333 189.269333 35.712 118.613333-2.730667 211.285333-39.253333 282.24-89.386667a114.944 114.944 0 0 1-9.045333-2.048c-121.557333-14.464-234.538667-60.501333-331.093334-116.181333l-17.024-7.253333 2.645334-1.194667z m515.072-58.581333c20.010667-31.872 34.901333-64.938667 47.445333-92.629334 2.645333-5.930667 5.205333-11.52 7.68-16.896 7.552-16.384 15.786667-30.805333 24.021333-43.306666-66.218667-16.128-119.338667-5.290667-161.706666 14.293333-56.106667 25.898667-96.298667 68.266667-124.288 97.792l-0.768 0.853333a1075.2 1075.2 0 0 1-93.184 87.850667c47.232 18.432 96.469333 34.389333 147.84 41.386667 27.904 2.901333 56.021333-6.741333 83.925333-25.216 27.434667-18.218667 51.2-42.837333 69.034667-64.128z" p-id="5582"></path></svg>