<svg fill="none" xmlns="http://www.w3.org/2000/svg" viewBox="0 0 16 16" class="design-iconfont">
  <path fill-rule="evenodd" clip-rule="evenodd" d="M0.667969 2.33268C0.667969 1.96449 0.966446 1.66602 1.33464 1.66602H14.668C15.0362 1.66602 15.3346 1.96449 15.3346 2.33268V12.3327C15.3346 12.7009 15.0362 12.9993 14.668 12.9993H9.94411L8.47271 14.4708C8.21236 14.7311 7.79025 14.7311 7.5299 14.4708L6.05849 12.9993H1.33464C0.966446 12.9993 0.667969 12.7009 0.667969 12.3327V2.33268ZM4.66602 4.68301C4.30703 4.68301 4.01602 4.97402 4.01602 5.33301C4.01602 5.69199 4.30703 5.98301 4.66602 5.98301H6.66602C7.025 5.98301 7.31602 5.69199 7.31602 5.33301C7.31602 4.97402 7.025 4.68301 6.66602 4.68301H4.66602ZM4.01602 8C4.01602 7.64102 4.30703 7.35 4.66602 7.35H5.33268C5.69167 7.35 5.98268 7.64102 5.98268 8C5.98268 8.35898 5.69167 8.65 5.33268 8.65H4.66602C4.30703 8.65 4.01602 8.35898 4.01602 8ZM9.96546 4.07071C10.1494 4.16269 10.2723 4.32824 10.3162 4.51387L11.8993 7.68006C11.9103 7.69947 11.9203 7.71951 11.9293 7.7401L12.5807 9.04297C12.7413 9.36406 12.6111 9.75449 12.29 9.91504C11.969 10.0756 11.5785 9.94543 11.418 9.62435L10.9308 8.65H8.42117L7.93027 9.6318C7.76561 9.96112 7.36516 10.0946 7.03584 9.92994C6.70652 9.76528 6.57304 9.36484 6.7377 9.03552L9.07103 4.36885C9.23569 4.03953 9.63614 3.90605 9.96546 4.07071ZM9.07117 7.35H10.2808L9.67598 6.14037L9.07117 7.35Z" fill="currentColor"/>
</svg>
