<svg fill="none" xmlns="http://www.w3.org/2000/svg" viewBox="0 0 24 24" class="design-iconfont">
  <path d="M13.9441 0L21.7985 7.99968V21.1997C21.7985 22.7465 20.5681 24 19.0495 24H4.91131C3.39271 24 2.16211 22.7454 2.16211 21.1997V2.80032C2.16223 1.25352 3.39283 0 4.91143 0H13.9441Z" fill="#D0D8E1"/>
  <path d="M12 16.4336V14.4336C13.6568 14.4336 15 13.0904 15 11.4336C15 9.77674 13.6568 8.43359 12 8.43359C10.3432 8.43359 9 9.77674 9 11.4336" stroke="#fff" stroke-width="1.5" stroke-linecap="round" stroke-linejoin="round"/>
  <path fill-rule="evenodd" clip-rule="evenodd" d="M11.9844 19.9336C12.3986 19.9336 12.7344 19.5978 12.7344 19.1836C12.7344 18.7694 12.3986 18.4336 11.9844 18.4336C11.5702 18.4336 11.2344 18.7694 11.2344 19.1836C11.2344 19.5978 11.5702 19.9336 11.9844 19.9336Z" fill="#fff"/>
  <path d="M21.7986 7.99968H16.8318C15.3143 7.99968 13.9441 6.6054 13.9441 5.05848V0L21.7986 7.99968V7.99968Z" fill="#fff" fill-opacity=".4"/>
</svg>
