<svg fill="none" xmlns="http://www.w3.org/2000/svg" viewBox="0 0 16 16" class="design-iconfont">
  <path fill-rule="evenodd" clip-rule="evenodd" d="M3.33327 0.682617C2.60609 0.682617 2.0166 1.27211 2.0166 1.99928V13.9993C2.0166 14.7265 2.6061 15.316 3.33327 15.316H6.99994C7.35892 15.316 7.64994 15.0249 7.64994 14.666C7.64994 14.307 7.35892 14.016 6.99994 14.016H3.33327C3.32976 14.016 3.32698 14.0149 3.32698 14.0149C3.32698 14.0149 3.32346 14.013 3.32148 14.0111C3.3195 14.0091 3.31764 14.0056 3.31764 14.0056C3.31764 14.0056 3.3166 14.0028 3.3166 13.9993V1.99928C3.3166 1.99578 3.31764 1.993 3.31764 1.993C3.31764 1.993 3.3195 1.98948 3.32148 1.9875C3.32346 1.98552 3.32698 1.98366 3.32698 1.98366C3.32698 1.98366 3.32977 1.98262 3.33327 1.98262H12.6666C12.6701 1.98262 12.6729 1.98366 12.6729 1.98366C12.6729 1.98366 12.6764 1.98552 12.6784 1.9875C12.6804 1.98948 12.6822 1.99299 12.6822 1.99299C12.6822 1.99299 12.6833 1.99578 12.6833 1.99928V8.99928C12.6833 9.35827 12.9743 9.64928 13.3333 9.64928C13.6923 9.64928 13.9833 9.35827 13.9833 8.99928V1.99928C13.9833 1.27212 13.3938 0.682617 12.6666 0.682617H3.33327ZM5.6666 3.34961C5.30762 3.34961 5.0166 3.64062 5.0166 3.99961C5.0166 4.35859 5.30762 4.64961 5.6666 4.64961H10.3333C10.6923 4.64961 10.9833 4.35859 10.9833 3.99961C10.9833 3.64062 10.6923 3.34961 10.3333 3.34961H5.6666ZM5.6666 6.0166C5.30762 6.0166 5.0166 6.30762 5.0166 6.6666C5.0166 7.02559 5.30762 7.3166 5.6666 7.3166H10.3333C10.6923 7.3166 10.9833 7.02559 10.9833 6.6666C10.9833 6.30762 10.6923 6.0166 10.3333 6.0166H5.6666ZM5.6666 8.68262C5.30762 8.68262 5.0166 8.97363 5.0166 9.33262C5.0166 9.6916 5.30762 9.98262 5.6666 9.98262H7.6666C8.02559 9.98262 8.3166 9.6916 8.3166 9.33262C8.3166 8.97363 8.02559 8.68262 7.6666 8.68262H5.6666ZM8.34991 12.3333C8.34991 11.0538 9.38713 10.0166 10.6666 10.0166C11.946 10.0166 12.9832 11.0538 12.9832 12.3333C12.9832 12.7364 12.8799 13.1159 12.6987 13.4462L13.4595 14.207C13.7134 14.4608 13.7134 14.8724 13.4595 15.1262C13.2057 15.3801 12.7941 15.3801 12.5403 15.1262L11.7795 14.3654C11.4492 14.5466 11.0697 14.6499 10.6666 14.6499C9.38713 14.6499 8.34991 13.6127 8.34991 12.3333ZM10.6666 13.3478C11.2268 13.3478 11.6808 12.8937 11.6808 12.3336C11.6808 11.7734 11.2268 11.3193 10.6666 11.3193C10.1065 11.3193 9.6524 11.7734 9.6524 12.3336C9.6524 12.8937 10.1065 13.3478 10.6666 13.3478Z" fill="currentColor"/>
</svg>
