<svg fill="none" xmlns="http://www.w3.org/2000/svg" viewBox="0 0 16 16" class="design-iconfont">
  <g clip-path="url(#2nqtwfry7__clip0_915_17953)">
    <path d="M14 14L2 2" stroke="#595959" stroke-width="1.33333" stroke-linecap="round" stroke-linejoin="round"/>
    <path d="M3.02148 4.64844C2.37599 5.60533 2.00007 6.759 2 8C2.00018 11.3135 4.68655 13.9998 8 14C9.2409 13.9999 10.3937 13.6229 11.3506 12.9775L12.3057 13.9326C11.0963 14.8119 9.6096 15.3329 8 15.333C3.95017 15.3328 0.666191 12.0498 0.666016 8C0.666088 6.39022 1.1858 4.90202 2.06543 3.69238L3.02148 4.64844ZM8 0.666016C12.0498 0.666191 15.3328 3.95017 15.333 8C15.3329 9.6096 14.8119 11.0963 13.9326 12.3057L12.9775 11.3506C13.6229 10.3937 13.9999 9.2409 14 8C13.9998 4.68655 11.3134 2.00018 8 2C6.759 2.00007 5.60533 2.37599 4.64844 3.02148L3.69238 2.06543C4.90202 1.1858 6.39021 0.666086 8 0.666016ZM4.71777 8.34082C5.04297 8.29095 5.35627 8.48604 5.45508 8.7998C5.79505 9.88221 6.80713 10.6659 8 10.666C8.31089 10.666 8.60909 10.6116 8.88672 10.5137L9.89355 11.5205C9.32969 11.8246 8.68586 12 8 12C7.04122 11.9999 6.16324 11.6597 5.47461 11.0977C5.42699 11.419 5.15389 11.6659 4.81934 11.666C4.45141 11.6658 4.15252 11.3679 4.15234 11V9C4.15251 8.67113 4.39275 8.39089 4.71777 8.34082ZM11.3799 8.36328C11.731 8.47357 11.9265 8.84806 11.8164 9.19922C11.7402 9.44169 11.6382 9.67239 11.5195 9.89258L10.5137 8.88672C10.5239 8.85774 10.5357 8.82924 10.5449 8.7998C10.6553 8.44909 11.029 8.25356 11.3799 8.36328ZM8 4C8.95794 4.00006 9.83507 4.3392 10.5234 4.90039C10.5716 4.5797 10.8466 4.33317 11.1807 4.33301C11.5487 4.33311 11.8465 4.63203 11.8467 5V7C11.8465 7.32903 11.6065 7.60832 11.2812 7.6582C10.9561 7.70784 10.6435 7.51311 10.5449 7.19922C10.2048 6.11704 9.19273 5.33312 8 5.33301C7.6888 5.33305 7.39018 5.38723 7.1123 5.48535L6.10449 4.47754C6.66867 4.17339 7.31394 4.00006 8 4ZM5.48535 7.1123C5.47516 7.14119 5.4643 7.16989 5.45508 7.19922C5.34475 7.55049 4.97041 7.74607 4.61914 7.63574C4.26817 7.52523 4.07234 7.15091 4.18262 6.7998C4.25883 6.55721 4.35972 6.32573 4.47852 6.10547L5.48535 7.1123Z" fill="#595959"/>
  </g>
  <defs>
    <clipPath id="2nqtwfry7__clip0_915_17953">
      <path fill="#fff" d="M0 0H16V16H0z"/>
    </clipPath>
  </defs>
</svg>
