<svg fill="none" xmlns="http://www.w3.org/2000/svg" viewBox="0 0 16 16" class="design-iconfont">
  <path d="M7.12305 7.125H4.06055C2.36914 7.125 0.998047 5.75391 0.998047 4.0625C0.998047 2.37109 2.36914 1 4.06055 1C5.75195 1 7.12305 2.37109 7.12305 4.0625V7.125ZM11.9355 7.125H8.87305V4.0625C8.87305 2.37109 10.2441 1 11.9355 1C13.627 1 14.998 2.37109 14.998 4.0625C14.998 5.75391 13.627 7.125 11.9355 7.125ZM4.06055 15C2.36914 15 0.998047 13.6289 0.998047 11.9375C0.998047 10.2461 2.36914 8.875 4.06055 8.875H7.12305V11.9375C7.12305 13.6289 5.75195 15 4.06055 15ZM11.9355 15C10.2441 15 8.87305 13.6289 8.87305 11.9375V8.875H11.9355C13.627 8.875 14.998 10.2461 14.998 11.9375C14.998 13.6289 13.627 15 11.9355 15Z" fill="currentColor"/>
</svg>
