<svg fill="none" xmlns="http://www.w3.org/2000/svg" viewBox="0 0 40 40" class="design-iconfont">
  <rect width="40" height="40" rx="8" fill="#2487FF"/>
  <path d="M20.997 10.2472L30.3226 17.7081C30.4137 17.7812 30.4799 17.8808 30.512 17.9931C30.5441 18.1055 30.5406 18.225 30.5019 18.3353C30.4632 18.4455 30.3912 18.541 30.2959 18.6086C30.2006 18.6762 30.0867 18.7126 29.9698 18.7127H27.6283V28.3069H29.6036C29.8281 28.3069 30.0434 28.3961 30.2022 28.5548C30.3609 28.7136 30.4501 28.9289 30.4501 29.1535C30.4501 29.378 30.3609 29.5933 30.2022 29.7521C30.0434 29.9108 29.8281 30 29.6036 30H10.9795C10.7549 30 10.5396 29.9108 10.3809 29.7521C10.2221 29.5933 10.1329 29.378 10.1329 29.1535C10.1329 28.9289 10.2221 28.7136 10.3809 28.5548C10.5396 28.3961 10.7549 28.3069 10.9795 28.3069H12.9547V18.7127H10.6126C10.4667 18.7125 10.3266 18.6559 10.2215 18.5546L10.1724 18.501C10.1261 18.4432 10.0916 18.3767 10.0709 18.3055C10.0503 18.2343 10.0439 18.1597 10.052 18.086C10.0602 18.0123 10.0828 17.941 10.1186 17.876C10.1543 17.8111 10.2026 17.7538 10.2605 17.7075L19.5866 10.2472C19.7867 10.0872 20.0353 10 20.2915 10C20.5477 10 20.7963 10.0872 20.9964 10.2472H20.997ZM23.1133 25.4851H17.4697C17.32 25.4851 17.1764 25.5445 17.0706 25.6504C16.9648 25.7562 16.9053 25.8998 16.9053 26.0494C16.9053 26.1991 16.9648 26.3427 17.0706 26.4485C17.1764 26.5543 17.32 26.6138 17.4697 26.6138H23.1133C23.263 26.6138 23.4066 26.5543 23.5124 26.4485C23.6182 26.3427 23.6777 26.1991 23.6777 26.0494C23.6777 25.8998 23.6182 25.7562 23.5124 25.6504C23.4066 25.5445 23.263 25.4851 23.1133 25.4851ZM20.6104 15.2949C20.4869 15.2103 20.3349 15.1783 20.1878 15.2058C20.0406 15.2333 19.9105 15.3181 19.8259 15.4416L18.8129 16.9202C18.7394 17.0271 18.6314 17.1054 18.507 17.142L16.7874 17.6488C16.6993 17.6747 16.6189 17.7217 16.5531 17.7856C16.4873 17.8496 16.4381 17.9287 16.4097 18.0159C16.3814 18.1032 16.3747 18.1961 16.3904 18.2865C16.406 18.377 16.4435 18.4622 16.4995 18.5349L17.5927 19.9548C17.6719 20.0578 17.7132 20.185 17.7095 20.3149L17.6604 22.1068C17.6579 22.1985 17.6777 22.2894 17.7182 22.3717C17.7587 22.454 17.8186 22.5252 17.8928 22.5791C17.967 22.633 18.0533 22.668 18.1441 22.6811C18.2348 22.6942 18.3274 22.685 18.4139 22.6542L20.1024 22.0532C20.2247 22.0097 20.3583 22.0097 20.4806 22.0532L22.1692 22.6536C22.2556 22.6844 22.3482 22.6936 22.439 22.6806C22.5297 22.6675 22.616 22.6324 22.6902 22.5785C22.7644 22.5246 22.8243 22.4534 22.8648 22.3711C22.9053 22.2888 22.9251 22.1979 22.9226 22.1062L22.8735 20.3149C22.8698 20.185 22.9111 20.0578 22.9903 19.9548L24.0835 18.5343C24.1394 18.4617 24.1768 18.3764 24.1923 18.2861C24.2079 18.1957 24.2012 18.1029 24.1729 18.0157C24.1446 17.9285 24.0954 17.8496 24.0297 17.7856C23.9639 17.7217 23.8836 17.6747 23.7957 17.6488L22.076 17.142C21.9515 17.1053 21.8435 17.0268 21.7701 16.9197L20.7571 15.441C20.7176 15.3837 20.6679 15.3341 20.6104 15.2949Z" fill="#EBF4FF"/>
</svg>
