<svg fill="none" xmlns="http://www.w3.org/2000/svg" viewBox="0 0 16 16" class="design-iconfont">
  <path d="M8.99683 0.984377C9.2548 0.984101 9.51029 1.03464 9.74873 1.1331C9.98717 1.23157 10.2039 1.37603 10.3865 1.55825C10.5691 1.74046 10.714 1.95686 10.813 2.19508C10.912 2.43331 10.963 2.68869 10.9633 2.94666C10.9633 3.89524 10.2843 4.69892 9.36157 4.87463L9.33356 4.87813L9.08294 6.22576L9.18795 6.27686C9.56547 6.47247 9.88909 6.7579 10.1303 7.10802C10.3715 7.45815 10.523 7.86222 10.5713 8.28465L10.5839 8.43866L10.5881 8.57797C10.5881 8.893 10.5307 9.20383 10.4166 9.50206L10.3977 9.54546L12.2087 11.2312C12.47 11.1113 12.7544 11.0502 13.0418 11.052C13.4311 11.0538 13.8112 11.171 14.1338 11.3889C14.4564 11.6068 14.7072 11.9156 14.8542 12.276C15.0013 12.6365 15.0381 13.0325 14.96 13.4139C14.8818 13.7954 14.6923 14.145 14.4153 14.4186C14.2297 14.601 14.0098 14.7448 13.7683 14.8417C13.5268 14.9385 13.2684 14.9865 13.0082 14.9829C12.6716 14.9792 12.3416 14.8892 12.0497 14.7216C11.7579 14.5539 11.5139 14.3142 11.3412 14.0252C11.1684 13.7363 11.0727 13.4079 11.0632 13.0715C11.0537 12.735 11.1306 12.4017 11.2867 12.1035L9.64649 10.5732L9.59049 10.6201C9.22225 10.9071 8.78401 11.0891 8.32197 11.1486L8.14836 11.1647L7.99014 11.1696C7.33978 11.1701 6.71301 10.926 6.23438 10.4856L5.4083 11.3068L5.41531 11.3243C5.46851 11.4601 5.50631 11.6009 5.52802 11.7458L5.54482 11.8914L5.54972 12.0384C5.54953 12.2964 5.49854 12.5518 5.39965 12.79C5.30076 13.0283 5.15591 13.2447 4.97337 13.427C4.79083 13.6093 4.57418 13.7538 4.33578 13.8524C4.09738 13.9509 3.8419 14.0016 3.58394 14.0014C3.32597 14.0016 3.07048 13.9511 2.83204 13.8526C2.59361 13.7542 2.3769 13.6097 2.1943 13.4275C2.01169 13.2453 1.86676 13.0289 1.76779 12.7907C1.66882 12.5524 1.61773 12.2971 1.61746 12.0391C1.61748 11.7039 1.70326 11.3743 1.86664 11.0817C2.03002 10.789 2.26557 10.543 2.55087 10.3671C2.83616 10.1912 3.16173 10.0912 3.49658 10.0767C3.83143 10.0622 4.16444 10.1335 4.46392 10.284L4.59693 10.3575L4.71804 10.4366L5.59032 9.57137C5.48099 9.30877 5.41593 9.02986 5.3978 8.74599L5.3936 8.63608L3.96827 8.30005C3.66304 8.71869 3.1737 8.97561 2.64025 8.97561C2.42507 8.97589 2.21194 8.93376 2.01304 8.85165C1.81414 8.76954 1.63336 8.64904 1.48104 8.49704C1.32872 8.34505 1.20784 8.16453 1.1253 7.96581C1.04276 7.76708 1.00018 7.55404 1 7.33886C1.00018 7.12368 1.04276 6.91064 1.1253 6.71191C1.20784 6.51319 1.32872 6.33267 1.48104 6.18068C1.63336 6.02868 1.81414 5.90818 2.01304 5.82607C2.21194 5.74396 2.42507 5.70183 2.64025 5.70211C3.50973 5.70211 4.221 6.37697 4.2763 7.23805L5.60432 7.55238L5.62532 7.50408C5.8127 7.0943 6.1034 6.74029 6.4689 6.47678C6.83439 6.21327 7.26213 6.04933 7.71012 6.00104L7.85573 5.98914L8.00904 5.98634L8.23446 4.75422L8.14416 4.71502C7.85069 4.57413 7.59685 4.36249 7.40549 4.09915C7.21412 3.8358 7.09122 3.52901 7.04785 3.20638L7.03455 3.07337L7.03035 2.94666C7.03063 2.68863 7.08174 2.43319 7.18075 2.19492C7.27977 1.95665 7.42476 1.74022 7.60744 1.558C7.79012 1.37577 8.00691 1.23132 8.24542 1.1329C8.48394 1.03448 8.73951 0.984009 8.99753 0.984377H8.99683ZM12.6813 12.2253C12.4975 12.302 12.3459 12.4399 12.2522 12.6157C12.1586 12.7914 12.1286 12.9941 12.1675 13.1895C12.2063 13.3848 12.3115 13.5607 12.4653 13.6872C12.619 13.8138 12.8119 13.8832 13.011 13.8838C13.361 13.8845 13.6782 13.6744 13.8126 13.3517C13.947 13.0297 13.8735 12.6586 13.6257 12.4115C13.5043 12.2906 13.3498 12.2084 13.1817 12.1753C13.0136 12.1421 12.8395 12.1595 12.6813 12.2253ZM3.25491 11.2396C3.0716 11.3165 2.9205 11.4544 2.82716 11.6299C2.73382 11.8055 2.70398 12.0078 2.74268 12.2028C2.78138 12.3978 2.88625 12.5734 3.03955 12.7C3.19284 12.8266 3.38515 12.8963 3.58394 12.8974C3.73248 12.8979 3.87865 12.8601 4.00835 12.7877C4.13806 12.7153 4.24692 12.6108 4.32445 12.484C4.40198 12.3573 4.44556 12.2128 4.45098 12.0644C4.4564 11.9159 4.42349 11.7686 4.35541 11.6366L4.3064 11.5567L4.3015 11.5455L4.08938 11.3341L4.06628 11.3173C3.94763 11.2389 3.81153 11.1908 3.66993 11.1772C3.52834 11.1637 3.38559 11.1851 3.25421 11.2396H3.25491ZM7.42169 7.19885C7.10242 7.33054 6.83873 7.56892 6.6756 7.87332C6.51248 8.17773 6.46002 8.52931 6.52718 8.86808C6.59434 9.20684 6.77695 9.51182 7.04387 9.73097C7.31079 9.95013 7.64548 10.0699 7.99084 10.0698C8.28665 10.0706 8.57606 9.98368 8.82252 9.82009C9.06897 9.65649 9.26142 9.42353 9.37557 9.15063C9.48928 8.87807 9.51938 8.57787 9.46204 8.28817C9.40469 7.99847 9.2625 7.73236 9.05354 7.52368C8.844 7.31447 8.57721 7.17198 8.2868 7.11417C7.99639 7.05636 7.69537 7.08583 7.42169 7.19885ZM2.64025 6.78091C2.56836 6.78063 2.49712 6.79452 2.43059 6.82178C2.36406 6.84903 2.30356 6.88913 2.25253 6.93977C2.2015 6.99041 2.16094 7.0506 2.13317 7.11692C2.10541 7.18323 2.09098 7.25437 2.0907 7.32626C2.09215 7.45852 2.14169 7.58574 2.23006 7.68416C2.31843 7.78258 2.4396 7.84547 2.57094 7.86111L2.63885 7.86531L2.74526 7.86391L2.77536 7.85901C2.88214 7.83205 2.97832 7.77355 3.05137 7.69113C3.12442 7.60872 3.17095 7.50621 3.1849 7.39697L3.1891 7.32836C3.18901 7.25637 3.17474 7.18511 3.14711 7.11864C3.11948 7.05218 3.07902 6.9918 3.02806 6.94096C2.97709 6.89013 2.91661 6.84983 2.85007 6.82237C2.78353 6.7949 2.71223 6.78082 2.64025 6.78091ZM8.6699 2.14998C8.48584 2.22632 8.33389 2.36404 8.23987 2.53974C8.14586 2.71543 8.11558 2.91826 8.15418 3.11375C8.19278 3.30924 8.29789 3.48533 8.45163 3.6121C8.60537 3.73887 8.79827 3.80849 8.99753 3.80914C9.34757 3.80984 9.664 3.60052 9.79911 3.27849C9.93352 2.95646 9.86001 2.58542 9.61289 2.3383C9.49194 2.2172 9.33784 2.13463 9.17002 2.10099C9.0022 2.06735 8.82818 2.08416 8.6699 2.14928V2.14998Z" fill="currentColor"/>
</svg>
