<svg fill="none" xmlns="http://www.w3.org/2000/svg" viewBox="0 0 66 58" class="design-iconfont">
  <path d="M53.8312 51.3236H17.5312C12.9937 51.3236 9.28122 47.5682 9.28122 42.9783V8.3453C9.28122 3.75539 12.9937 0 17.5312 0H49.7062C56.5125 0 62.0812 5.63308 62.0812 12.5179V42.7697C62.0812 47.5682 58.3687 51.3236 53.8312 51.3236Z" fill="#C5D9FC"/>
  <path d="M49.5 55.7048H13.2C8.66251 55.7048 4.95001 51.9494 4.95001 47.3595V12.9351C4.95001 8.34523 8.66251 4.58984 13.2 4.58984H49.5C54.0375 4.58984 57.75 8.34523 57.75 12.9351V47.3595C57.75 51.9494 54.0375 55.7048 49.5 55.7048Z" fill="#EAF2FF"/>
  <path d="M57.75 58.0003H8.25C3.7125 58.0003 0 54.2449 0 49.655V17.317C0 12.7271 3.7125 8.97168 8.25 8.97168H28.875C31.35 8.97168 33.6188 10.4321 34.8563 12.7271L36.5063 15.2307C37.7438 16.8997 39.8063 17.9429 41.8688 17.9429H57.75C62.2875 17.9429 66 21.6983 66 26.2882V49.655C66 54.2449 62.2875 58.0003 57.75 58.0003Z" fill="#A8C8FF"/>
</svg>
