<svg width="16" height="16" viewBox="0 0 16 16" fill="none" xmlns="http://www.w3.org/2000/svg">
<path fill-rule="evenodd" clip-rule="evenodd" d="M6.60018 4.69531C6.40179 4.69531 6.21426 4.78591 6.09096 4.94133L5.15763 6.1178C4.9669 6.35822 4.9703 6.69928 5.16579 6.93584L7.49913 9.75937C7.62261 9.9088 7.80634 9.99531 8.00018 9.99531C8.19402 9.99531 8.37775 9.9088 8.50123 9.75937L10.8346 6.93584C11.0301 6.69928 11.0335 6.35822 10.8427 6.1178L9.9094 4.94133C9.7861 4.78591 9.59857 4.69531 9.40018 4.69531H6.60018ZM6.50317 6.51343L6.91422 5.99531H9.08614L9.49718 6.51343L8.00018 8.32494L6.50317 6.51343Z" fill="#262626"/>
<path fill-rule="evenodd" clip-rule="evenodd" d="M1.33335 1.34961C0.974365 1.34961 0.68335 1.64062 0.68335 1.99961V11.9996C0.68335 12.3586 0.974365 12.6496 1.33335 12.6496H6.06411L7.5404 14.1259C7.79424 14.3797 8.2058 14.3797 8.45964 14.1259L9.93592 12.6496H14.6667C15.0257 12.6496 15.3167 12.3586 15.3167 11.9996V1.99961C15.3167 1.64062 15.0257 1.34961 14.6667 1.34961H1.33335ZM1.98335 11.3496V2.64961H14.0167V11.3496H9.66668C9.49429 11.3496 9.32896 11.4181 9.20706 11.54L8.00002 12.747L6.79297 11.54C6.67107 11.4181 6.50574 11.3496 6.33335 11.3496H1.98335Z" fill="#262626"/>
</svg>
