<svg fill="none" xmlns="http://www.w3.org/2000/svg" viewBox="0 0 18 18" class="design-iconfont">
  <g clip-path="url(#ndgcsjjmr__clip0_1139_57707)" fill="currentColor">
    <path d="M14.128 3.86942C11.4378 1.17925 7.14562 1.05442 4.29947 3.48341V2.48383C4.29947 2.15013 4.02884 1.87951 3.69515 1.87951C3.36145 1.87951 3.09083 2.15013 3.09083 2.48383V4.90111C3.09083 5.23481 3.36145 5.50543 3.69515 5.50543H6.11243C6.44612 5.50543 6.71675 5.23481 6.71675 4.90111C6.71675 4.56741 6.44612 4.29679 6.11243 4.29679H5.20311C7.57413 2.37921 11.0699 2.52047 13.2734 4.72397C15.6293 7.08025 15.6293 10.9145 13.2734 13.2706C10.917 15.6265 7.0833 15.6265 4.72683 13.2706C3.58542 12.1292 2.95693 10.6116 2.95693 8.99727C2.95693 8.66357 2.68631 8.39295 2.35261 8.39295C2.01891 8.39295 1.74829 8.66357 1.74829 8.99727C1.74829 10.9345 2.50256 12.7558 3.87229 14.1251C5.28602 15.5388 7.14298 16.2459 9.00013 16.2459C10.8571 16.2459 12.7142 15.5388 14.128 14.1251C16.9551 11.2976 16.9551 6.69688 14.128 3.86942Z"/>
    <path d="M8.99934 4.76758C8.66564 4.76758 8.39502 5.0382 8.39502 5.3719V8.8728C8.39502 9.11472 8.48944 9.34266 8.66054 9.51376L10.9893 11.8425C11.1073 11.9605 11.262 12.0196 11.4164 12.0196C11.5709 12.0196 11.7258 11.9607 11.8436 11.8425C12.0797 11.6064 12.0797 11.224 11.8436 10.9879L9.60366 8.74759V5.3719C9.60366 5.0382 9.33304 4.76758 8.99934 4.76758Z"/>
  </g>
  <defs>
    <clipPath id="ndgcsjjmr__clip0_1139_57707">
      <path fill="#fff" transform="matrix(-1 0 0 1 18 0)" d="M0 0H18V18H0z"/>
    </clipPath>
  </defs>
</svg>
