<svg fill="none" xmlns="http://www.w3.org/2000/svg" viewBox="0 0 24 24" class="design-iconfont">
  <path d="M13.782 0L21.0635 7.4162C21.4307 7.79016 21.6364 8.29331 21.6364 8.8174V21.1997C21.6364 22.7465 20.406 24 18.8874 24H4.7492C3.2306 24 2 22.7454 2 21.1997V2.80032C2.00012 1.25352 3.23072 0 4.74932 0H13.782Z" fill="#7A8699"/>
  <path d="M9.15297 14.3725C9.15297 14.5472 9.04624 14.7041 8.88379 14.7683L6.21649 15.8221L8.88292 16.8757C9.04589 16.9401 9.15297 17.0976 9.15297 17.2728C9.15297 17.5748 8.84809 17.7813 8.56767 17.6693L5.52613 16.4547C5.26796 16.3516 5.09863 16.1017 5.09863 15.8237C5.09863 15.5457 5.26796 15.2958 5.52613 15.1927L8.56959 13.9773C8.84909 13.8657 9.15297 14.0715 9.15297 14.3725ZM11.9629 12.2803C12.0257 12.1118 12.1867 12 12.3665 12C12.6669 12 12.875 12.2997 12.7701 12.5812L10.8537 17.7202C10.791 17.8884 10.6303 18 10.4507 18C10.1508 18 9.94301 17.7008 10.0477 17.4197L11.9629 12.2803ZM13.6653 17.2909C13.6653 17.1159 13.7722 16.9588 13.9349 16.8945L16.6018 15.8408L13.9362 14.7876C13.7728 14.723 13.6653 14.5651 13.6653 14.3893C13.6653 14.0872 13.9698 13.8801 14.2508 13.991L17.2817 15.1873C17.546 15.2916 17.7197 15.5468 17.7197 15.8309C17.7197 16.114 17.5473 16.3685 17.2845 16.4735L14.2497 17.6866C13.9698 17.7985 13.6653 17.5923 13.6653 17.2909Z" fill="#fff"/>
  <path d="M21.6365 7.99968H16.6697C15.1521 7.99968 13.782 6.6054 13.782 5.05848V0L21.6365 7.99968V7.99968Z" fill="#fff" fill-opacity=".4"/>
</svg>
