<svg fill="none" xmlns="http://www.w3.org/2000/svg" viewBox="0 0 16 16" class="design-iconfont">
  <g clip-path="url(#1505hnxd3__clip0_717_7570)">
    <path d="M14.6667 8.00016C14.6667 11.6821 11.682 14.6668 8.00005 14.6668C6.00889 14.6668 1.33337 14.6668 1.33337 14.6668C1.33337 14.6668 1.33337 9.6909 1.33337 8.00016C1.33337 4.31826 4.31815 1.3335 8.00005 1.3335C11.682 1.3335 14.6667 4.31826 14.6667 8.00016Z" stroke="currentColor" stroke-width="1.3" stroke-linecap="round" stroke-linejoin="round"/>
    <path d="M8.33028 7.80445H5.3211C5.28217 7.80445 5.24483 7.7894 5.21731 7.7626C5.18978 7.73581 5.17431 7.69948 5.17431 7.66159V5.57143C5.17431 5.25584 4.91145 5 4.58716 5C4.26288 5 4 5.25584 4 5.57143V11.4286C4 11.7442 4.26288 12 4.58716 12C4.91145 12 5.17431 11.7442 5.17431 11.4286V9.09016C5.17431 9.05227 5.18978 9.01594 5.21731 8.98915C5.24483 8.96235 5.28217 8.9473 5.3211 8.9473H8.33028C8.36921 8.9473 8.40654 8.96235 8.43407 8.98915C8.4616 9.01594 8.47706 9.05227 8.47706 9.09016V11.4286C8.47706 11.7442 8.73994 12 9.06422 12C9.38851 12 9.65138 11.7442 9.65138 11.4286V5.57143C9.65138 5.25584 9.38851 5 9.06422 5C8.73994 5 8.47706 5.25584 8.47706 5.57143V7.66159C8.47706 7.69948 8.4616 7.73581 8.43407 7.7626C8.40654 7.7894 8.36921 7.80445 8.33028 7.80445Z" fill="currentColor"/>
    <path d="M12 7.57143C12 7.25584 11.7371 7 11.4128 7C11.0886 7 10.8257 7.25584 10.8257 7.57143V11.4286C10.8257 11.7442 11.0886 12 11.4128 12C11.7371 12 12 11.7442 12 11.4286V7.57143Z" fill="currentColor"/>
    <path d="M12 5.57143C12 5.25584 11.7371 5 11.4128 5C11.0886 5 10.8257 5.25584 10.8257 5.57143V6C10.8257 6.31559 11.0886 6.57143 11.4128 6.57143C11.7371 6.57143 12 6.31559 12 6V5.57143Z" fill="currentColor"/>
  </g>
  <defs>
    <clipPath id="1505hnxd3__clip0_717_7570">
      <path fill="currentColor" d="M0 0H16V16H0z"/>
    </clipPath>
  </defs>
</svg>
