<svg fill="none" xmlns="http://www.w3.org/2000/svg" viewBox="0 0 34 34" class="design-iconfont">
  <path d="M28.7445 15.6937L24.1654 33.5977C24.1533 33.6469 24.1533 33.6984 24.1654 33.7476C24.1834 33.8217 24.2261 33.8873 24.2866 33.9337C24.347 33.9801 24.4215 34.0044 24.4977 34.0026H33.6513C33.7018 34.0038 33.752 33.9935 33.7979 33.9724C33.8439 33.9514 33.8844 33.9202 33.9166 33.8812C33.9487 33.8422 33.9716 33.7965 33.9835 33.7474C33.9953 33.6982 33.9959 33.6471 33.9851 33.5977L29.3843 15.6937C29.3684 15.6425 29.3405 15.5959 29.3028 15.5576C29.2652 15.5194 29.219 15.4907 29.1681 15.4739C29.1171 15.4572 29.0629 15.4528 29.01 15.4612C28.957 15.4696 28.9068 15.4905 28.8635 15.5222C28.8058 15.5641 28.7634 15.6238 28.743 15.6922M3.54916 19.7505L0.00236171 33.5977C-0.00849118 33.6471 -0.00791318 33.6984 0.00405171 33.7475C0.0160166 33.7967 0.0390523 33.8425 0.0714016 33.8814C0.103751 33.9203 0.144559 33.9513 0.190714 33.9721C0.236868 33.9928 0.28715 34.0027 0.337723 34.0011H7.40195C7.4527 34.0023 7.50308 33.9921 7.54937 33.9713C7.59565 33.9504 7.63664 33.9194 7.66931 33.8805C7.70094 33.8418 7.72316 33.7963 7.73422 33.7476C7.74684 33.6985 7.74737 33.6471 7.73576 33.5977L4.18588 19.7505C4.16518 19.6827 4.12284 19.6236 4.06534 19.5821C4.00823 19.5406 3.93964 19.5179 3.86906 19.5172C3.7969 19.5169 3.72654 19.5397 3.66816 19.5821C3.61123 19.6238 3.56945 19.6829 3.54916 19.7505Z" fill="#00E5E5"/>
  <path d="M9.80218 8.28333L3.34222 33.5946C3.33117 33.6422 3.33099 33.6916 3.3417 33.7392C3.3524 33.7869 3.37371 33.8315 3.40404 33.8697C3.43419 33.9089 3.47277 33.9407 3.51691 33.9629C3.56106 33.9851 3.60963 33.9971 3.65904 33.998H16.5836C16.6339 33.9993 16.6839 33.9892 16.7297 33.9684C16.7756 33.9477 16.8162 33.9168 16.8484 33.8782C16.8807 33.8395 16.9038 33.7941 16.916 33.7452C16.9282 33.6964 16.9292 33.6454 16.9189 33.5962L10.4404 8.28024C10.4197 8.21243 10.3774 8.15326 10.3199 8.11178C10.2624 8.06999 10.1932 8.04729 10.1221 8.04688C10.0505 8.04697 9.98068 8.06969 9.92272 8.11178C9.86495 8.15366 9.82258 8.2134 9.80218 8.28178" fill="#006EFF"/>
  <path d="M20.9478 0.233362C20.9271 0.165551 20.8848 0.106385 20.8273 0.0649087C20.7693 0.0228113 20.6995 9.46324e-05 20.6279 0C20.5568 0.000418756 20.4876 0.0231196 20.4301 0.0649087C20.3726 0.106385 20.3303 0.165551 20.3096 0.233362L11.4789 33.5949C11.4683 33.6441 11.4691 33.695 11.4811 33.7438C11.4931 33.7927 11.516 33.8382 11.5482 33.8769C11.5803 33.9156 11.6208 33.9464 11.6667 33.9672C11.7125 33.988 11.7624 33.998 11.8127 33.9967H29.4617C29.5122 33.9977 29.5622 33.9874 29.6082 33.9665C29.6542 33.9457 29.695 33.9148 29.7275 33.8761C29.7596 33.8374 29.7829 33.792 29.7955 33.7432C29.8067 33.6944 29.8067 33.6437 29.7955 33.5949L20.9478 0.233362Z" fill="#006EFF"/>
  <path d="M14.46 11.9634L8.85777 33.5935C8.84549 33.6427 8.8451 33.6942 8.85666 33.7437C8.86822 33.7931 8.89138 33.8391 8.92423 33.8778C8.95652 33.9172 8.9974 33.9487 9.04375 33.9699C9.09009 33.991 9.14066 34.0013 9.19159 33.9999H20.3698C20.421 34.0009 20.4718 33.9903 20.5184 33.9689C20.565 33.9475 20.6061 33.9158 20.6387 33.8763C20.6702 33.8371 20.6925 33.7913 20.704 33.7424C20.7155 33.6935 20.7159 33.6426 20.7051 33.5935L15.0983 11.9619C15.0773 11.8946 15.035 11.836 14.9777 11.795C14.92 11.7523 14.8502 11.7291 14.7784 11.7285C14.7071 11.7294 14.6379 11.7526 14.5806 11.795C14.5233 11.836 14.481 11.8946 14.46 11.9619" fill="#00E5E5"/>
</svg>
