<svg fill="none" xmlns="http://www.w3.org/2000/svg" viewBox="0 0 16 16" class="design-iconfont">
  <g clip-path="url(#ouvgrce4l__clip0_12335_33942)" clip-rule="evenodd" stroke="currentColor" stroke-width="1.33333" stroke-linecap="round" stroke-linejoin="round">
    <path d="M7.99984 8.00065L11.3332 4.66732C11.3332 2.82637 9.84077 1.33398 7.99984 1.33398C6.1589 1.33398 4.6665 2.82637 4.6665 4.66732L7.99984 8.00065Z"/>
    <path d="M4.66659 11.3346L7.99992 8.0013L4.66659 4.66797C2.82564 4.66797 1.33325 6.16037 1.33325 8.0013C1.33325 9.84224 2.82564 11.3346 4.66659 11.3346Z"/>
    <path d="M11.3333 11.3346C13.1743 11.3346 14.6667 9.84224 14.6667 8.0013C14.6667 6.16037 13.1743 4.66797 11.3333 4.66797L8 8.0013L11.3333 11.3346Z"/>
    <path d="M7.99984 14.6667C9.84077 14.6667 11.3332 13.1743 11.3332 11.3333L7.99984 8L4.6665 11.3333C4.6665 13.1743 6.1589 14.6667 7.99984 14.6667Z"/>
  </g>
  <defs>
    <clipPath id="ouvgrce4l__clip0_12335_33942">
      <path fill="#fff" d="M0 0H16V16H0z"/>
    </clipPath>
  </defs>
</svg>
