<svg fill="none" xmlns="http://www.w3.org/2000/svg" viewBox="0 0 16 16" class="design-iconfont">
  <path d="M8.35132 3.75285L8.35251 3.75174C9.86614 2.23877 11.9711 1.70074 13.8423 2.15757C14.2995 4.02783 13.7611 6.13148 12.2473 7.64435C12.2264 7.66525 12.2054 7.68599 12.1842 7.70657L11.3517 8.53865L12.0399 9.75389C12.1422 9.93438 12.1913 10.1401 12.1817 10.3472C12.1721 10.5544 12.1041 10.7546 11.9856 10.9249L10.1743 13.5276C9.82704 14.0267 9.14045 14.1499 8.64095 13.8029C8.62281 13.7902 8.60505 13.777 8.58771 13.7633L8.59238 13.7574C8.46514 13.6779 8.37255 13.5533 8.33307 13.4086C8.29358 13.2638 8.31009 13.1096 8.37932 12.9764C8.37889 12.9763 8.37845 12.9761 8.37802 12.9759C8.73661 12.3641 8.77985 11.5639 8.53648 10.7473C7.64738 10.9455 6.67913 10.6987 5.98731 10.0073C5.29567 9.31605 5.0488 8.34863 5.24672 7.46022C4.43015 7.21725 3.62982 7.26056 3.01796 7.61876C3.01777 7.61833 3.01758 7.6179 3.0174 7.61747C2.88422 7.68666 2.72986 7.70318 2.58504 7.66373C2.44023 7.62429 2.3156 7.53177 2.23597 7.40461L2.23084 7.40865C1.89502 6.9767 1.92559 6.35233 2.32264 5.95551C2.36882 5.90933 2.41902 5.86735 2.47265 5.83007L5.07827 4.01892C5.24825 3.90075 5.44813 3.83285 5.65496 3.82302C5.86179 3.81318 6.06721 3.86181 6.24766 3.96331L7.45835 4.64448L8.32423 3.77908C8.3331 3.77017 8.34213 3.76143 8.35132 3.75285ZM4.60026 9.1842C4.85666 9.84362 5.1351 10.3234 5.43548 10.6236C5.72971 10.9177 6.18275 11.1771 6.79472 11.4019C6.84122 11.419 6.88226 11.4483 6.91349 11.4867C6.94473 11.5252 6.96501 11.5713 6.9722 11.6203C6.97939 11.6693 6.97323 11.7194 6.95435 11.7651C6.93547 11.8109 6.90459 11.8508 6.86495 11.8805L5.81986 12.6638C5.77453 12.6977 5.71983 12.7169 5.6632 12.7186C5.60658 12.7204 5.55079 12.7047 5.50344 12.6736C5.45609 12.6425 5.41949 12.5976 5.39862 12.5449C5.37775 12.4923 5.37363 12.4345 5.38682 12.3794L5.43245 12.1891C5.44488 12.1373 5.442 12.083 5.42416 12.0329C5.40633 11.9827 5.3743 11.9387 5.33196 11.9063C5.28963 11.874 5.23881 11.8546 5.18566 11.8505C5.13252 11.8464 5.07934 11.8579 5.03257 11.8834L4.11077 12.387C4.05855 12.4154 3.9985 12.4263 3.93961 12.4178C3.88073 12.4093 3.82617 12.382 3.78409 12.34C3.74202 12.298 3.7147 12.2434 3.70622 12.1846C3.69774 12.1257 3.70855 12.0657 3.73704 12.0135L4.27463 11.0303C4.29916 10.9855 4.31072 10.9347 4.30801 10.8837C4.30531 10.8327 4.28845 10.7834 4.25932 10.7414C4.23019 10.6994 4.18994 10.6664 4.14308 10.646C4.09622 10.6255 4.0446 10.6186 3.99399 10.6258L3.5303 10.6921C3.47637 10.6999 3.42136 10.6914 3.37223 10.6679C3.3231 10.6444 3.28206 10.6068 3.2543 10.5599C3.22654 10.5131 3.2133 10.4591 3.21627 10.4047C3.21923 10.3503 3.23827 10.298 3.27096 10.2545L4.12316 9.11879C4.15263 9.07952 4.19207 9.04885 4.23739 9.02994C4.28271 9.01103 4.33227 9.00458 4.38093 9.01125C4.42958 9.01793 4.47557 9.03748 4.51412 9.06789C4.55267 9.09831 4.58238 9.13847 4.60018 9.18422L4.60026 9.1842ZM9.68778 6.30975C10.118 6.73979 10.8155 6.73979 11.2457 6.30975C11.6759 5.8799 11.6759 5.18278 11.2457 4.75274C10.8155 4.3228 10.118 4.3228 9.68778 4.75274C9.25759 5.18278 9.25759 5.8799 9.68778 6.30975Z" fill="currentColor"/>
</svg>
