<svg fill="none" xmlns="http://www.w3.org/2000/svg" viewBox="0 0 20 20" class="design-iconfont">
  <rect width="20" height="20" rx="6" fill="#2469F1"/>
  <path d="M4.5 14L8 10L11 12.5L13 10.5L15 12L15.5 13.5L15 15L7.5 15.5H5.5L4.5 14Z" fill="#fff"/>
  <path d="M15.8332 9.12484C15.8332 8.80266 15.572 8.5415 15.2498 8.5415C14.9277 8.5415 14.6665 8.80266 14.6665 9.12484H15.8332ZM9.70817 5.33317C10.0303 5.33317 10.2915 5.072 10.2915 4.74984C10.2915 4.42767 10.0303 4.1665 9.70817 4.1665V5.33317ZM14.3748 14.6665H5.62484V15.8332H14.3748V14.6665ZM5.33317 14.3748V5.62484H4.1665V14.3748H5.33317ZM14.6665 9.12484V14.3748H15.8332V9.12484H14.6665ZM5.62484 5.33317H9.70817V4.1665H5.62484V5.33317ZM5.62484 14.6665C5.46376 14.6665 5.33317 14.5359 5.33317 14.3748H4.1665C4.1665 15.1802 4.81942 15.8332 5.62484 15.8332V14.6665ZM14.3748 15.8332C15.1802 15.8332 15.8332 15.1802 15.8332 14.3748H14.6665C14.6665 14.5359 14.5359 14.6665 14.3748 14.6665V15.8332ZM5.33317 5.62484C5.33317 5.46376 5.46375 5.33317 5.62484 5.33317V4.1665C4.81942 4.1665 4.1665 4.81942 4.1665 5.62484H5.33317Z" fill="#fff"/>
  <path d="M4.75 13.2085L7.86882 10.3496C8.08635 10.1502 8.41855 10.1447 8.64261 10.3367L12.3333 13.5002" stroke="#fff" stroke-width="1.16667" stroke-linecap="round" stroke-linejoin="round"/>
  <path d="M11.1665 12.0416L12.5588 10.6494C12.764 10.4441 13.089 10.421 13.3212 10.5952L15.2498 12.0416" stroke="#fff" stroke-width="1.16667" stroke-linecap="round" stroke-linejoin="round"/>
  <path d="M12.7332 3.51934C12.8448 3.30215 13.1552 3.30215 13.2668 3.51934L13.9742 4.89606C14.0028 4.9518 14.0482 4.99716 14.1039 5.0258L15.4807 5.73316C15.6979 5.84476 15.6979 6.15524 15.4807 6.26684L14.1039 6.9742C14.0482 7.00284 14.0028 7.0482 13.9742 7.10394L13.2668 8.48066C13.1552 8.69785 12.8448 8.69785 12.7332 8.48066L12.0258 7.10394C11.9972 7.0482 11.9518 7.00284 11.8961 6.9742L10.5193 6.26684C10.3021 6.15524 10.3021 5.84476 10.5193 5.73316L11.8961 5.0258C11.9518 4.99716 11.9972 4.9518 12.0258 4.89606L12.7332 3.51934Z" fill="#fff"/>
</svg>
