<svg fill="none" xmlns="http://www.w3.org/2000/svg" viewBox="0 0 14 14" class="design-iconfont">
  <path d="M11.375 1.75H2.625C2.14175 1.75 1.75 2.14175 1.75 2.625V11.375C1.75 11.8583 2.14175 12.25 2.625 12.25H11.375C11.8583 12.25 12.25 11.8583 12.25 11.375V2.625C12.25 2.14175 11.8583 1.75 11.375 1.75Z" stroke="#2475FC" stroke-width="1.3" stroke-linecap="round" stroke-linejoin="round"/>
  <path d="M5.25008 6.70964C6.05549 6.70964 6.70841 6.05671 6.70841 5.2513C6.70841 4.44589 6.05549 3.79297 5.25008 3.79297C4.44467 3.79297 3.79175 4.44589 3.79175 5.2513C3.79175 6.05671 4.44467 6.70964 5.25008 6.70964Z" stroke="#2475FC" stroke-width="1.3" stroke-linecap="round" stroke-linejoin="round"/>
  <path d="M12.25 10.4987L9.04167 7.58203L6.125 10.207L4.08333 8.45703L1.75 10.207" stroke="#2475FC" stroke-width="1.3" stroke-linecap="round" stroke-linejoin="round"/>
</svg>
