<svg xmlns="http://www.w3.org/2000/svg" viewBox="0 0 16 16">
  <g clip-path="url(#85vsyxr4s__clip0_764_5339)">
    <path fill-rule="evenodd" clip-rule="evenodd" d="M7.52862 0.861766C7.78897 0.601417 8.21108 0.601417 8.47143 0.861766L10.2762 2.6665H12.6667C13.0349 2.6665 13.3334 2.96498 13.3334 3.33317V5.72369L15.1381 7.52843C15.3984 7.78878 15.3984 8.21089 15.1381 8.47124L13.3334 10.276V12.6665C13.3334 13.0347 13.0349 13.3332 12.6667 13.3332H10.2762L8.47143 15.1379C8.21108 15.3983 7.78897 15.3983 7.52862 15.1379L5.72388 13.3332H3.33335C2.96516 13.3332 2.66669 13.0347 2.66669 12.6665V10.276L0.861949 8.47124C0.6016 8.21089 0.6016 7.78878 0.861949 7.52843L2.66669 5.72369V3.33317C2.66669 2.96498 2.96516 2.6665 3.33335 2.6665H5.72388L7.52862 0.861766ZM5.33335 8.00016C5.33335 6.52741 6.52726 5.3335 8.00002 5.3335C9.47278 5.3335 10.6667 6.52741 10.6667 8.00016C10.6667 9.47292 9.47278 10.6668 8.00002 10.6668C6.52726 10.6668 5.33335 9.47292 5.33335 8.00016Z" fill="currentColor"/>
  </g>
  <defs>
    <clipPath id="85vsyxr4s__clip0_764_5339">
      <path fill="#fff" d="M0 0H16V16H0z"/>
    </clipPath>
  </defs>
</svg>
