<svg width="20" height="20" viewBox="0 0 20 20" fill="none" xmlns="http://www.w3.org/2000/svg">
<rect width="20" height="20" rx="6" fill="#3388FF"/>
<path d="M13.1675 4.0498C13.6544 4.04981 14.0176 4.17903 14.2524 4.42773C14.4872 4.6764 14.603 5.06863 14.603 5.60156V8.31055C14.603 8.73446 14.6758 9.04111 14.8481 9.23047V9.23145C15.0143 9.42755 15.2771 9.51575 15.6226 9.53613V10.3896C15.277 10.41 15.0151 10.4987 14.8491 10.6797L14.8481 10.6816C14.6764 10.8846 14.6031 11.1903 14.603 11.6162V14.3984C14.603 14.9314 14.4872 15.3236 14.2524 15.5723C14.0176 15.821 13.6544 15.9502 13.1675 15.9502H12.4897V15.1621H12.9487C13.1882 15.1621 13.3809 15.1019 13.4966 14.9697C13.6097 14.8404 13.6684 14.637 13.6685 14.3691V11.6895C13.6685 11.1519 13.7272 10.7692 13.8521 10.5332C13.9759 10.2992 14.1834 10.1319 14.5093 10.0186L14.6421 9.97168L14.5103 9.92383C14.2002 9.8111 13.9913 9.62981 13.8667 9.39453C13.7414 9.15785 13.6685 8.77416 13.6685 8.23828V5.63086C13.6684 5.36301 13.6097 5.15963 13.4966 5.03027C13.3809 4.89812 13.1882 4.83789 12.9487 4.83789H12.4897V4.0498H13.1675ZM6.83252 4.0498H7.51025V4.83789H7.05127C6.81177 4.83789 6.61906 4.89812 6.50342 5.03027C6.39032 5.15963 6.3306 5.36299 6.33057 5.63086V8.23828C6.33054 8.77579 6.27286 9.15859 6.14795 9.39453C6.0238 9.62891 5.80093 9.81067 5.48975 9.92383L5.35791 9.97168L5.49072 10.0186C5.81659 10.1319 6.02409 10.2992 6.14795 10.5332C6.2728 10.7692 6.33057 11.1519 6.33057 11.6895V14.3691C6.3306 14.637 6.39032 14.8404 6.50342 14.9697C6.61906 15.1019 6.81177 15.1621 7.05127 15.1621H7.51025V15.9502H6.83252C6.34609 15.9502 5.99736 15.8212 5.76221 15.5723C5.52673 15.3229 5.39703 14.93 5.39697 14.3984V11.6162C5.39694 11.1903 5.3236 10.8846 5.15186 10.6816L5.15088 10.6797C4.98496 10.4987 4.72297 10.41 4.37744 10.3896V9.53613C4.72292 9.51574 4.98575 9.42756 5.15186 9.23145L5.15088 9.23047C5.32349 9.04115 5.39697 8.7348 5.39697 8.31055V5.60156C5.39703 5.06999 5.52673 4.67708 5.76221 4.42773C5.99736 4.17875 6.34609 4.0498 6.83252 4.0498Z" fill="white" stroke="white" stroke-width="0.1"/>
<path d="M9.29321 8.45514L9.39087 8.4649C9.42226 8.47147 9.45299 8.48011 9.48267 8.49225V8.49323L9.57056 8.53912C9.59693 8.55695 9.6212 8.57761 9.6438 8.60065L9.64478 8.60162C9.66777 8.62423 9.68803 8.64854 9.70532 8.67487L9.7063 8.67584C9.72476 8.70311 9.73995 8.73205 9.7522 8.76178L9.78052 8.85553C9.78658 8.88698 9.79027 8.91884 9.79028 8.95123C9.79028 9.017 9.77737 9.08071 9.7522 9.14166C9.72711 9.20232 9.69134 9.25564 9.64478 9.30182H9.6438L9.12036 9.82623L9.03442 9.91119H12.2063C12.2387 9.91119 12.271 9.91392 12.303 9.91998V9.92096C12.3346 9.92755 12.3659 9.93605 12.3958 9.9483V9.94928C12.4256 9.96203 12.4544 9.97672 12.4817 9.9942V9.99518C12.5085 10.0132 12.534 10.0334 12.5569 10.0567V10.0577L12.6184 10.1319C12.6369 10.1592 12.652 10.1881 12.6643 10.2178L12.6936 10.3116C12.6997 10.343 12.7024 10.3749 12.7024 10.4073L12.6936 10.5049C12.687 10.5368 12.6767 10.5676 12.6643 10.5977C12.6515 10.6276 12.6369 10.6564 12.6194 10.6837C12.6014 10.7104 12.5802 10.735 12.5569 10.7579V10.7589C12.5342 10.782 12.5092 10.802 12.4827 10.8194L12.4817 10.8204C12.4546 10.8387 12.4263 10.8541 12.3967 10.8663L12.303 10.8946C12.2712 10.9008 12.239 10.9044 12.2063 10.9044H7.83716C7.77155 10.9043 7.70852 10.8914 7.64771 10.8663C7.58687 10.8411 7.53285 10.8056 7.48657 10.7589V10.7579C7.43997 10.7117 7.40424 10.6584 7.37915 10.5977C7.35404 10.5374 7.34106 10.4736 7.34106 10.4073C7.34112 10.3417 7.35404 10.2786 7.37915 10.2178C7.40424 10.1571 7.43997 10.1039 7.48657 10.0577L8.9436 8.60065C8.98981 8.55405 9.04304 8.51832 9.10376 8.49323C9.16397 8.46818 9.22709 8.4552 9.29321 8.45514Z" fill="white" stroke="white" stroke-width="0.1"/>
</svg>
