<svg fill="none" xmlns="http://www.w3.org/2000/svg" viewBox="0 0 16 16" class="design-iconfont">
  <path d="M1.66667 1.66602C1.29848 1.66602 1 1.96449 1 2.33268V11.9993C1 12.3675 1.29848 12.666 1.66667 12.666H6C6.73638 12.666 7.33333 13.263 7.33333 13.9993C7.33333 14.3675 7.63181 14.666 8 14.666L8.00431 14.666C8.37052 14.6637 8.66667 14.3661 8.66667 13.9993C8.66667 13.263 9.26363 12.666 10 12.666H14.3333C14.7015 12.666 15 12.3675 15 11.9993V2.33268C15 1.96449 14.7015 1.66602 14.3333 1.66602H10.6667C9.57627 1.66602 8.60815 2.18958 8 2.99902C7.39185 2.18958 6.42374 1.66602 5.33333 1.66602H1.66667Z" fill="#2475FC"/>
  <path d="M8 4.5L8 11.5" stroke="#fff" stroke-width="1.33333" stroke-linecap="round" stroke-linejoin="round"/>
</svg>
