<svg fill="none" xmlns="http://www.w3.org/2000/svg" viewBox="0 0 20 20" class="design-iconfont">
  <rect width="20" height="20" rx="6" fill="#02BFBF"/>
  <path d="M5.0415 13.7916C5.0415 11.5448 5.0415 6.20825 5.0415 6.20825C5.0415 5.24175 5.82501 4.45825 6.7915 4.45825H13.2082V12.0416C13.2082 12.0416 8.31768 12.0416 6.7915 12.0416C5.829 12.0416 5.0415 12.8245 5.0415 13.7916Z" fill="#fff" stroke="#fff" stroke-width="1.16667" stroke-linejoin="round"/>
  <path d="M13.2082 12.0415C13.2082 12.0415 7.128 12.0415 6.7915 12.0415C5.82501 12.0415 5.0415 12.825 5.0415 13.7915C5.0415 14.758 5.82501 15.5415 6.7915 15.5415C7.43582 15.5415 10.5469 15.5415 14.9582 15.5415V5.0415" stroke="#fff" stroke-width="1.16667" stroke-linecap="round" stroke-linejoin="round"/>
  <path d="M7.0835 13.7915H12.9168" stroke="#fff" stroke-width="1.16667" stroke-linecap="round" stroke-linejoin="round"/>
</svg>
