<svg fill="none" xmlns="http://www.w3.org/2000/svg" viewBox="0 0 16 16" class="design-iconfont">
  <path d="M15.4849 9.18976C15.6389 10.4687 14.5958 11.5558 13.3427 11.4493C12.3837 11.364 11.6066 10.5753 11.5366 9.59477C11.5016 9.16134 11.6066 8.74924 11.8166 8.40108C11.9146 8.23765 11.8866 8.0316 11.7676 7.8966L11.2846 7.3566C11.1586 7.21449 10.9486 7.17896 10.7806 7.26423C10.3815 7.46317 9.9335 7.57686 9.45747 7.57686C9.22645 7.57686 9.00244 7.54844 8.78542 7.4987C8.61041 7.45607 8.4354 7.52712 8.33039 7.67633L7.65835 8.64976C7.53934 8.82739 7.56034 9.06187 7.70735 9.21819C8.3794 9.9074 8.78542 10.8595 8.76442 11.904C8.72242 13.794 7.23832 15.3643 5.3762 15.4922C3.19906 15.6343 1.39294 13.8224 1.50494 11.6127C1.60295 9.72977 3.11505 8.21634 4.97017 8.13107C5.48821 8.10976 5.97824 8.19502 6.43327 8.37265C6.62228 8.44371 6.8323 8.37976 6.9513 8.21634L7.52534 7.38502C7.65135 7.20028 7.62335 6.95159 7.46234 6.80238C6.78329 6.19133 6.38427 5.26764 6.47527 4.25868C6.60128 2.79499 7.77736 1.61551 9.22645 1.50893C10.9766 1.37393 12.4467 2.78788 12.4467 4.53579C12.4467 5.18948 12.2437 5.78632 11.8936 6.28369C11.7746 6.44712 11.7886 6.67449 11.9216 6.8308L12.4397 7.41344C12.5517 7.54133 12.7337 7.58397 12.8877 7.52712C13.1747 7.42765 13.4897 7.39212 13.8188 7.44896C14.6868 7.58397 15.3799 8.3016 15.4849 9.18976Z" fill="#A1A7B2"/>
</svg>
