<svg fill="none" xmlns="http://www.w3.org/2000/svg" viewBox="0 0 16 16" class="design-iconfont">
  <g clip-path="url(#nwfx379y8__clip0_1038_35242)">
    <path fill-rule="evenodd" clip-rule="evenodd" d="M7.5299 0.861278C7.79025 0.600928 8.21236 0.600928 8.47271 0.861278L10.2774 2.66602H12.668C13.0362 2.66602 13.3346 2.96449 13.3346 3.33268V5.72321L15.1394 7.52794C15.3997 7.78829 15.3997 8.2104 15.1394 8.47075L13.3346 10.2755V12.666C13.3346 13.0342 13.0362 13.3327 12.668 13.3327H10.2774L8.47271 15.1374C8.21236 15.3978 7.79025 15.3978 7.5299 15.1374L5.72516 13.3327H3.33464C2.96645 13.3327 2.66797 13.0342 2.66797 12.666V10.2755L0.863231 8.47075C0.602881 8.2104 0.602881 7.78829 0.863231 7.52794L2.66797 5.72321V3.33268C2.66797 2.96449 2.96645 2.66602 3.33464 2.66602H5.72516L7.5299 0.861278ZM5.33463 7.99967C5.33463 6.52692 6.52855 5.33301 8.0013 5.33301C9.47406 5.33301 10.668 6.52692 10.668 7.99967C10.668 9.47243 9.47406 10.6663 8.0013 10.6663C6.52855 10.6663 5.33463 9.47243 5.33463 7.99967Z" fill="#A1A7B3"/>
  </g>
  <defs>
    <clipPath id="nwfx379y8__clip0_1038_35242">
      <path fill="#fff" d="M0 0H16V16H0z"/>
    </clipPath>
  </defs>
</svg>
