<svg width="18" height="18" viewBox="0 0 18 18" fill="none" xmlns="http://www.w3.org/2000/svg">
<path d="M7.72085 1.5C8.09181 1.5 8.3925 1.80071 8.3925 2.17165C8.3925 2.54259 8.09181 2.84331 7.72085 2.84331H5.95988C4.93979 2.84331 4.11284 3.67026 4.11284 4.69035V13.3096C4.11284 14.3297 4.93979 15.1567 5.95988 15.1567H11.3957C12.4158 15.1567 13.2428 14.3297 13.2428 13.3096V10.0699C13.2428 9.69899 13.5435 9.39828 13.9144 9.39828C14.2854 9.39828 14.5861 9.69899 14.5861 10.0699V13.3096C14.5861 15.0716 13.1577 16.5 11.3957 16.5H5.95988C4.19791 16.5 2.76953 15.0716 2.76953 13.3096V4.69035C2.76953 2.92837 4.19791 1.5 5.95988 1.5H7.72085ZM11.501 12.1625C11.872 12.1625 12.1727 12.4632 12.1727 12.8341C12.1727 13.2051 11.872 13.5058 11.501 13.5058H6.12779C5.75685 13.5058 5.45614 13.2051 5.45614 12.8341C5.45614 12.4632 5.75685 12.1625 6.12779 12.1625H11.501ZM8.14275 9.69626C8.51369 9.69626 8.81441 9.99697 8.81441 10.3679C8.81441 10.7389 8.51369 11.0396 8.14275 11.0396H6.12779C5.75685 11.0396 5.45614 10.7389 5.45614 10.3679C5.45614 9.99697 5.75685 9.69626 6.12779 9.69626H8.14275ZM11.2701 2.63881C11.5464 1.79876 12.7276 1.79221 13.018 2.61912L13.0247 2.63881L13.4129 3.81936L14.5935 4.20764C15.4402 4.48611 15.4402 5.68379 14.5935 5.96225L13.4129 6.35049L13.0247 7.53106C12.7462 8.37772 11.5486 8.3777 11.2701 7.53106L10.8818 6.35049L9.70126 5.96225C8.85462 5.68379 8.85462 4.48611 9.70126 4.20764L10.8818 3.81936L11.2701 2.63881ZM12.0917 4.44045C12.0465 4.57784 11.9697 4.70269 11.8674 4.80495C11.7651 4.90722 11.6403 4.98403 11.5029 5.02922L11.3334 5.08495L11.5029 5.14067C11.6403 5.18586 11.7651 5.26268 11.8674 5.36495C11.9697 5.46721 12.0465 5.59206 12.0917 5.72944L12.1474 5.89888L12.2031 5.72944L12.2075 5.71643C12.254 5.58192 12.3309 5.45998 12.4323 5.3601C12.5336 5.26023 12.6567 5.18513 12.7919 5.14067L12.9613 5.08495L12.7919 5.02922C12.6545 4.98403 12.5297 4.90721 12.4274 4.80495C12.3251 4.70268 12.2483 4.57783 12.2031 4.44045L12.1474 4.27099L12.0917 4.44045Z" fill="currentColor"/>
</svg>
