<svg fill="none" xmlns="http://www.w3.org/2000/svg" viewBox="0 0 16 16" class="design-iconfont">
  <g clip-path="url(#dwcnpfpc8__clip0_1040_18973)">
    <path d="M7.53027 0.861328C7.79064 0.601141 8.21236 0.601033 8.47266 0.861328L10.2773 2.66602H12.668C13.0362 2.66602 13.335 2.96482 13.335 3.33301V5.72363L15.1396 7.52832C15.3996 7.78864 15.3997 8.21045 15.1396 8.4707L13.335 10.2754V12.666C13.335 13.0342 13.0362 13.333 12.668 13.333H10.2773L8.47266 15.1377C8.2124 15.3978 7.79059 15.3977 7.53027 15.1377L5.72559 13.333H3.33496C2.96677 13.333 2.66797 13.0342 2.66797 12.666V10.2754L0.863281 8.4707C0.602986 8.21041 0.603094 7.78868 0.863281 7.52832L2.66797 5.72363V3.33301C2.66797 2.96482 2.96677 2.66602 3.33496 2.66602H5.72559L7.53027 0.861328ZM8.00293 5.33301C6.53017 5.33301 5.33594 6.52724 5.33594 8C5.33611 9.47261 6.53028 10.666 8.00293 10.666C9.47543 10.6658 10.6688 9.4725 10.6689 8C10.6689 6.52735 9.47554 5.33318 8.00293 5.33301Z" fill="#2475FC"/>
  </g>
  <defs>
    <clipPath id="dwcnpfpc8__clip0_1040_18973">
      <path fill="#fff" d="M0 0H16V16H0z"/>
    </clipPath>
  </defs>
</svg>
