<svg fill="none" xmlns="http://www.w3.org/2000/svg" viewBox="0 0 16 16" class="design-iconfont">
  <path d="M1.66667 1.66797C1.29848 1.66797 1 1.96645 1 2.33464V12.0013C1 12.3695 1.29848 12.668 1.66667 12.668H6C6.73638 12.668 7.33333 13.2649 7.33333 14.0013C7.33333 14.3695 7.63181 14.668 8 14.668L8.00431 14.668C8.37052 14.6656 8.66667 14.3681 8.66667 14.0013C8.66667 13.2649 9.26363 12.668 10 12.668H14.3333C14.7015 12.668 15 12.3695 15 12.0013V2.33464C15 1.96645 14.7015 1.66797 14.3333 1.66797H10.6667C9.57627 1.66797 8.60815 2.19153 8 3.00098C7.39185 2.19153 6.42374 1.66797 5.33333 1.66797H1.66667Z" fill="#A1A7B3"/>
  <path d="M8 4.5L8 11.5" stroke="#fff" stroke-width="1.33333" stroke-linecap="round" stroke-linejoin="round"/>
</svg>
