<svg fill="none" xmlns="http://www.w3.org/2000/svg" viewBox="0 0 40 40" class="design-iconfont">
  <rect width="40" height="40" rx="8" fill="#4B73FF"/>
  <path d="M28.4251 29.1895C27.8796 29.1895 27.7214 28.4858 27.7214 28.4858C27.7214 28.0003 27.5687 27.7821 27.0177 27.7821H12.2072C11.6617 27.7821 11.5035 27.9348 11.5035 28.4858C11.5035 28.4858 11.3835 29.1895 10.7998 29.1895C9.44148 29.1895 8.68323 30.6078 8.68323 32.0098H30.5417C30.5417 29.8932 28.4251 29.1895 28.4251 29.1895ZM22.5991 17.412L25.5448 14.4663C25.6092 14.5309 25.6857 14.5822 25.77 14.6172C25.8542 14.6523 25.9445 14.6703 26.0358 14.6703C26.127 14.6703 26.2174 14.6523 26.3016 14.6172C26.3859 14.5822 26.4624 14.5309 26.5267 14.4663C26.655 14.334 26.7268 14.1569 26.7268 13.9726C26.7268 13.7883 26.655 13.6112 26.5267 13.4789L21.3008 8.20933C21.1694 8.08137 20.9932 8.00977 20.8098 8.00977C20.6264 8.00977 20.4503 8.08137 20.3189 8.20933C20.2542 8.2737 20.2029 8.3502 20.1679 8.43446C20.1329 8.51871 20.1149 8.60905 20.1149 8.70028C20.1149 8.79152 20.1329 8.88185 20.1679 8.96611C20.2029 9.05036 20.2542 9.12687 20.3189 9.19124L12.9545 16.5501C12.8231 16.4222 12.647 16.3506 12.4636 16.3506C12.2802 16.3506 12.104 16.4222 11.9726 16.5501V16.5774C11.908 16.6418 11.8567 16.7183 11.8217 16.8025C11.7867 16.8868 11.7686 16.9771 11.7686 17.0683C11.7686 17.1596 11.7867 17.2499 11.8217 17.3342C11.8567 17.4184 11.908 17.4949 11.9726 17.5593L17.2204 22.8125C17.2848 22.8772 17.3613 22.9285 17.4455 22.9635C17.5298 22.9985 17.6201 23.0165 17.7114 23.0165C17.8026 23.0165 17.8929 22.9985 17.9772 22.9635C18.0614 22.9285 18.1379 22.8772 18.2023 22.8125L18.2296 22.7853C18.3575 22.6539 18.4291 22.4777 18.4291 22.2943C18.4291 22.1109 18.3575 21.9347 18.2296 21.8033L21.1753 18.8631L28.8124 27.0457C29.0786 27.3119 29.4397 27.4614 29.8161 27.4614C30.1926 27.4614 30.5537 27.3119 30.8199 27.0457C31.0861 26.7795 31.2356 26.4184 31.2356 26.0419C31.2356 25.6655 31.0861 25.3044 30.8199 25.0382L22.5991 17.412Z" fill="#EBEFFF"/>
</svg>
