<svg fill="none" xmlns="http://www.w3.org/2000/svg" viewBox="0 0 16 16" class="design-iconfont">
  <path fill-rule="evenodd" clip-rule="evenodd" d="M1 2.83478C1 2.37374 1.37374 2 1.83478 2H14.3565C14.8176 2 15.1913 2.37374 15.1913 2.83478V10.3478C15.1913 10.8089 14.8176 11.1826 14.3565 11.1826H8.93043V12.3304H13.1043C13.5654 12.3304 13.9391 12.7042 13.9391 13.1652C13.9391 13.6263 13.5654 14 13.1043 14H3.08696C2.62592 14 2.25217 13.6263 2.25217 13.1652C2.25217 12.7042 2.62592 12.3304 3.08696 12.3304H7.26087V11.1826H1.83478C1.37374 11.1826 1 10.8089 1 10.3478V2.83478ZM6.18159 3.49668C6.50759 3.82268 6.50759 4.35123 6.18159 4.67724L4.26752 6.5913L6.18159 8.50537C6.50759 8.83137 6.50759 9.35993 6.18159 9.68593C5.85558 10.0119 5.32703 10.0119 5.00102 9.68593L2.49668 7.18158C2.17067 6.85558 2.17067 6.32703 2.49668 6.00102L5.00102 3.49668C5.32703 3.17067 5.85558 3.17067 6.18159 3.49668ZM10.0097 4.67724C9.68372 4.35123 9.68372 3.82268 10.0097 3.49668C10.3357 3.17067 10.8643 3.17067 11.1903 3.49668L13.6946 6.00102C14.0206 6.32703 14.0206 6.85558 13.6946 7.18158L11.1903 9.68593C10.8643 10.0119 10.3357 10.0119 10.0097 9.68593C9.68372 9.35993 9.68372 8.83137 10.0097 8.50537L11.9238 6.5913L10.0097 4.67724Z" fill="currentColor"/>
</svg>
