<?xml version="1.0" standalone="no"?><!DOCTYPE svg PUBLIC "-//W3C//DTD SVG 1.1//EN" "http://www.w3.org/Graphics/SVG/1.1/DTD/svg11.dtd"><svg t="1764325377423" class="icon" viewBox="0 0 1024 1024" version="1.1" xmlns="http://www.w3.org/2000/svg" p-id="6546" xmlns:xlink="http://www.w3.org/1999/xlink" width="300" height="300"><path d="M0 0m136.533333 0l750.933334 0q136.533333 0 136.533333 136.533333l0 750.933334q0 136.533333-136.533333 136.533333l-750.933334 0q-136.533333 0-136.533333-136.533333l0-750.933334q0-136.533333 136.533333-136.533333Z" fill="#1FD279" p-id="6547"></path><path d="M620.714667 428.782933c7.0656 0 14.0288 0.477867 20.957866 1.2288-18.807467-85.162667-112.503467-148.411733-219.409066-148.411733C302.728533 281.6 204.8 360.789333 204.8 461.346133c0 58.026667 32.597333 105.710933 87.04 142.677334l-21.742933 63.556266 76.014933-37.034666c27.204267 5.2224 49.015467 10.581333 76.151467 10.581333 6.826667 0 13.585067-0.341333 20.309333-0.8192a152.8832 152.8832 0 0 1-6.724267-44.270933c0-92.330667 81.578667-167.253333 184.866134-167.253334z m-116.906667-57.344c16.384 0 27.204267 10.478933 27.204267 26.4192 0 15.837867-10.8544 26.453333-27.204267 26.453334-16.2816 0-32.6656-10.6496-32.6656-26.453334 0-15.940267 16.384-26.385067 32.6656-26.385066z m-152.200533 52.872534c-16.2816 0-32.768-10.6496-32.768-26.453334 0-15.906133 16.452267-26.385067 32.768-26.385066s27.170133 10.4448 27.170133 26.385066c0 15.803733-10.8544 26.453333-27.170133 26.453334zM819.2 593.476267c0-84.48-87.005867-153.361067-184.7296-153.361067-103.424 0-184.9344 68.881067-184.9344 153.361067 0 84.650667 81.5104 153.3952 184.9344 153.3952 21.674667 0 43.52-5.3248 65.262933-10.581334l59.630934 31.709867-16.349867-52.804267c43.690667-31.8464 76.1856-74.069333 76.1856-121.719466z m-244.667733-26.453334c-10.820267 0-21.742933-10.4448-21.742934-21.162666 0-10.513067 10.922667-21.0944 21.742934-21.0944 16.452267 0 27.2384 10.581333 27.2384 21.128533 0 10.683733-10.786133 21.162667-27.2384 21.162667z m119.6032 0c-10.752 0-21.6064-10.4448-21.6064-21.162666 0-10.513067 10.8544-21.0944 21.6064-21.0944 16.315733 0 27.2384 10.581333 27.2384 21.128533 0 10.683733-10.922667 21.162667-27.2384 21.162667z" fill="#FFFFFF" p-id="6548"></path></svg>