<svg width="62" height="62" viewBox="0 0 62 62" fill="none" xmlns="http://www.w3.org/2000/svg">
<path d="M0 16C0 7.16344 7.16344 0 16 0H46C54.8366 0 62 7.16344 62 16V46C62 54.8366 54.8366 62 46 62H16C7.16344 62 0 54.8366 0 46V16Z" fill="#21A665"/>
<g filter="url(#filter0_d_11589_11828)">
<path d="M17.5418 41.2916C17.5418 35.1931 17.5418 20.7083 17.5418 20.7083C17.5418 18.0849 19.6685 15.9583 22.2918 15.9583H39.7085V36.5416C39.7085 36.5416 26.4343 36.5416 22.2918 36.5416C19.6793 36.5416 17.5418 38.6666 17.5418 41.2916Z" fill="white" stroke="white" stroke-width="3.16667" stroke-linejoin="round"/>
<path d="M39.7085 36.5417C39.7085 36.5417 23.2052 36.5417 22.2918 36.5417C19.6685 36.5417 17.5418 38.6684 17.5418 41.2917C17.5418 43.9151 19.6685 46.0417 22.2918 46.0417C24.0407 46.0417 32.4852 46.0417 44.4585 46.0417V17.5417" stroke="white" stroke-width="3.16667" stroke-linecap="round" stroke-linejoin="round"/>
<path d="M23.0832 41.2917H38.9165" stroke="white" stroke-width="3.16667" stroke-linecap="round" stroke-linejoin="round"/>
<path d="M34.1961 20.5428C33.3496 18.8498 31.2939 17.2778 28.7545 17.2778C27.5453 17.2778 25.6105 17.7615 24.1595 19.5754C23.0712 20.6637 22.8293 22.1148 22.9502 23.4449C23.0712 24.4123 23.6758 25.6215 24.4013 26.468C24.6432 24.4123 25.7315 22.8403 27.1825 21.752C29.601 19.8172 32.2613 19.9381 34.1961 20.5428Z" fill="#21A665"/>
<path d="M36.2518 23.5658C34.6798 21.631 32.1404 21.0264 29.722 21.8729C29.8429 21.8729 29.8429 21.8729 29.9638 21.9938C33.4706 23.2031 35.4054 27.0726 34.1961 30.5794C33.8334 31.5467 33.3497 32.3932 32.7451 32.9978C33.4706 32.756 34.3171 32.5141 34.9217 32.0304C37.582 29.8538 38.0657 26.1052 36.2518 23.5658Z" fill="#21A665"/>
<path d="M28.7546 29.8538C28.2709 29.8538 27.6663 29.7329 27.1826 29.7329H26.9407C26.8198 29.7329 26.6989 29.7329 26.578 29.8538L24.885 30.9422H24.7641C24.6432 30.9422 24.5223 30.8212 24.5223 30.7003V30.4585C24.5223 30.4585 24.7641 29.612 24.7641 29.1283V29.0074C24.7641 28.8865 24.6432 28.6446 24.5223 28.6446C22.8293 27.4354 21.6201 25.6215 21.3783 23.6868C21.0155 24.4123 20.8946 24.896 20.6527 25.7425C19.8063 28.7655 21.6201 32.2723 24.6432 33.2397C28.15 34.328 31.4149 33.1188 32.6241 30.0957C32.745 29.7329 32.866 29.1283 32.9869 28.6446C31.7776 29.4911 30.4475 29.8538 28.7546 29.8538Z" fill="#21A665"/>
</g>
<defs>
<filter id="filter0_d_11589_11828" x="8" y="12" width="46" height="46" filterUnits="userSpaceOnUse" color-interpolation-filters="sRGB">
<feFlood flood-opacity="0" result="BackgroundImageFix"/>
<feColorMatrix in="SourceAlpha" type="matrix" values="0 0 0 0 0 0 0 0 0 0 0 0 0 0 0 0 0 0 127 0" result="hardAlpha"/>
<feOffset dy="4"/>
<feGaussianBlur stdDeviation="2"/>
<feComposite in2="hardAlpha" operator="out"/>
<feColorMatrix type="matrix" values="0 0 0 0 0.0886636 0 0 0 0 0.202211 0 0 0 0 0.413084 0 0 0 0.14 0"/>
<feBlend mode="normal" in2="BackgroundImageFix" result="effect1_dropShadow_11589_11828"/>
<feBlend mode="normal" in="SourceGraphic" in2="effect1_dropShadow_11589_11828" result="shape"/>
</filter>
</defs>
</svg>
