<svg fill="none" xmlns="http://www.w3.org/2000/svg" viewBox="0 0 34 34" class="design-iconfont">
  <path d="M17 34C26.3889 34 34 26.3889 34 17C34 7.6111 26.3889 0 17 0C7.6111 0 0 7.6111 0 17C0 26.3889 7.6111 34 17 34Z" fill="#003425"/>
  <path d="M25.6199 20.4704C25.6199 20.1519 25.4934 19.8465 25.2682 19.6213C25.043 19.3961 24.7375 19.2695 24.419 19.2695C24.1005 19.2695 23.7951 19.3961 23.5699 19.6213C23.3447 19.8465 23.2181 20.1519 23.2181 20.4704V26.6619C23.2181 26.9804 23.3447 27.2859 23.5699 27.5111C23.7951 27.7363 24.1005 27.8628 24.419 27.8628C24.7375 27.8628 25.043 27.7363 25.2682 27.5111C25.4934 27.2859 25.6199 26.9804 25.6199 26.6619V20.4704Z" fill="#fff"/>
  <path d="M23.9137 7.55569C23.7936 7.4535 23.6545 7.37597 23.5044 7.32755C23.3543 7.27912 23.1961 7.26073 23.0389 7.27343C22.8817 7.28614 22.7286 7.32969 22.5882 7.40159C22.4478 7.4735 22.323 7.57235 22.2208 7.6925L15.5098 15.5838C15.343 15.7792 15.2436 16.0232 15.2263 16.2795C15.2168 16.3402 15.2119 16.4019 15.2119 16.4653V26.5533C15.2119 26.8717 15.3384 27.1772 15.5636 27.4024C15.7889 27.6276 16.0943 27.7541 16.4128 27.7541C16.7313 27.7541 17.0367 27.6276 17.2619 27.4024C17.4872 27.1772 17.6137 26.8717 17.6137 26.5533V16.8167L24.0506 9.24861C24.1527 9.12848 24.2303 8.98939 24.2787 8.83929C24.3271 8.68919 24.3455 8.53102 24.3328 8.37381C24.3201 8.2166 24.2766 8.06344 24.2046 7.92306C24.1327 7.78269 24.0339 7.65785 23.9137 7.55569Z" fill="#fff"/>
  <path d="M9.07729 7.0138C8.97731 6.89184 8.85429 6.79076 8.71524 6.71634C8.5762 6.64192 8.42386 6.59561 8.26692 6.58007C8.10999 6.56452 7.95152 6.58004 7.80058 6.62573C7.64964 6.67143 7.50918 6.74641 7.38721 6.84638C7.26525 6.94636 7.16417 7.06939 7.08975 7.20843C7.01533 7.34747 6.96903 7.49981 6.95348 7.65675C6.93793 7.81369 6.95345 7.97215 6.99915 8.12309C7.04484 8.27403 7.11982 8.41449 7.2198 8.53646L11.9749 14.3369C12.1768 14.5832 12.4683 14.7393 12.7853 14.7707C13.1023 14.8021 13.4188 14.7063 13.6651 14.5044C13.9115 14.3025 14.0675 14.011 14.0989 13.694C14.1304 13.377 14.0346 13.0606 13.8327 12.8142L9.07701 7.0138H9.07729Z" fill="#fff"/>
  <path d="M26.0739 17.2931C26.4632 17.2931 26.8366 17.1385 27.1119 16.8632C27.3871 16.5879 27.5418 16.2146 27.5418 15.8253C27.5418 15.436 27.3871 15.0626 27.1119 14.7873C26.8366 14.5121 26.4632 14.3574 26.0739 14.3574C25.6846 14.3574 25.3113 14.5121 25.036 14.7873C24.7607 15.0626 24.6061 15.436 24.6061 15.8253C24.6061 16.2146 24.7607 16.5879 25.036 16.8632C25.3113 17.1385 25.6846 17.2931 26.0739 17.2931Z" fill="#00FF25"/>
</svg>
