<svg fill="none" xmlns="http://www.w3.org/2000/svg" viewBox="0 0 16 16" class="design-iconfont">
  <path d="M8.01777 15C6.1434 15 4.3823 14.2716 3.05647 12.9502C1.73065 11.6288 1 9.86992 1 8C1 6.13008 1.73065 4.37119 3.05647 3.04981C4.3823 1.72843 6.1434 1 8.01777 1C9.02157 1 9.99207 1.20654 10.9004 1.61739C11.2357 1.7684 11.3867 2.16371 11.2357 2.49905C11.0847 2.83439 10.6894 2.98541 10.3541 2.83439C9.61897 2.50349 8.83281 2.33471 8.01777 2.33471C6.50095 2.33471 5.07297 2.92322 4.00032 3.99365C2.92766 5.06409 2.33693 6.48541 2.33693 7.99778C2.33693 9.51015 2.92766 10.9337 4.00032 12.0019C5.07297 13.0723 6.50095 13.6608 8.01777 13.6608C9.43465 13.6608 10.7916 13.139 11.8376 12.1885C12.8769 11.2468 13.5276 10.0187 13.6697 8.63071C13.7075 8.26428 14.0339 7.99778 14.4004 8.03331C14.7668 8.07107 15.0333 8.39753 14.9978 8.76396C14.8223 10.4806 14.0184 12.0108 12.7348 13.1745C11.4423 14.3537 9.76555 15 8.01777 15Z" fill="#2475FC"/>
  <path d="M14.3205 2.46245C14.0606 2.20039 13.6387 2.20039 13.3766 2.46022L7.94673 7.87456L5.59267 5.52717C5.33061 5.26733 4.90866 5.26733 4.64882 5.52939C4.38899 5.79144 4.38899 6.2134 4.65104 6.47323L7.47592 9.29144C7.60695 9.42247 7.77573 9.48687 7.94673 9.48687C8.11773 9.48687 8.28873 9.42247 8.41976 9.29144L14.3182 3.40629C14.5803 3.14423 14.5803 2.72228 14.3205 2.46245Z" fill="#2475FC"/>
</svg>
