<svg fill="none" xmlns="http://www.w3.org/2000/svg" viewBox="0 0 16 16" class="design-iconfont">
  <g clip-path="url(#31gmof37u__clip0_10933_119689)" stroke="#262626" stroke-width="1.33333" stroke-linecap="round" stroke-linejoin="round">
    <path d="M4.33325 11.6719H2.33325V13.6719"/>
    <path d="M13.6667 13.6719H11.6667V11.6719"/>
    <path d="M11.6667 4.32813H13.6667V2.32812"/>
    <path d="M2.33325 2.32812H4.33325V4.32813"/>
    <path d="M4.33325 2.42969C2.52585 3.62217 1.33325 5.67097 1.33325 7.99834C1.33325 8.3382 1.35869 8.67214 1.40775 8.99834"/>
    <path d="M9.00005 14.5974C8.67385 14.6464 8.33991 14.6719 8.00005 14.6719C5.67268 14.6719 3.62388 13.4793 2.4314 11.6719"/>
    <path d="M14.5922 7C14.6413 7.3262 14.6667 7.66013 14.6667 8C14.6667 10.3274 13.4741 12.3762 11.6667 13.5687"/>
    <path d="M7 1.40262C7.3262 1.35356 7.66013 1.32812 8 1.32812C10.3274 1.32812 12.3762 2.52072 13.5687 4.32813"/>
  </g>
  <defs>
    <clipPath id="31gmof37u__clip0_10933_119689">
      <path fill="#fff" d="M0 0H16V16H0z"/>
    </clipPath>
  </defs>
</svg>
