<svg width="48" height="48" viewBox="0 0 48 48" fill="none" xmlns="http://www.w3.org/2000/svg">
<path d="M27.888 0L43.597 15.9994V42.3994C43.597 45.493 41.136 48 38.0988 48H9.8225C6.7853 48 4.3241 45.4908 4.3241 42.3994V5.60064C4.32434 2.50704 6.78554 0 9.82274 0H27.888Z" fill="#F88849"/>
<path d="M43.597 15.9994H33.6634C30.6283 15.9994 27.888 13.2108 27.888 10.117V0L43.597 15.9994V15.9994Z" fill="white" fill-opacity="0.4"/>
<path d="M34.0466 25.0446V35.902H32.1343L31.9729 34.8298C31.818 35.1829 31.5555 35.4731 31.1854 35.7017C30.8244 35.9303 30.285 36.0446 29.5644 36.0446C28.9213 36.0446 28.3963 35.9547 27.9868 35.7736C27.5967 35.5986 27.2634 35.3218 27.0234 34.9736C26.7764 34.5862 26.6125 34.1537 26.5418 33.7023C26.4499 33.1548 26.406 32.6006 26.4105 32.0458C26.4105 31.4923 26.4538 30.9735 26.5418 30.4881C26.6297 30.0014 26.7911 29.5776 27.0234 29.2168C27.2571 28.8547 27.5786 28.5683 27.9868 28.359C28.3963 28.1497 28.9213 28.0444 29.5644 28.0444C30.285 28.0444 30.8192 28.1497 31.1696 28.359C31.5306 28.5593 31.7878 28.8303 31.944 29.1731V25.0446H34.0466ZM30.2364 34.4728C30.5961 34.4728 30.8927 34.4214 31.1263 34.3161C31.3548 34.216 31.5479 34.052 31.6815 33.8448C31.818 33.6355 31.9099 33.3826 31.9584 33.0872C32.0175 32.7829 32.0464 32.4349 32.0464 32.0445C32.0464 31.6721 32.0175 31.3395 31.9584 31.0441C31.9213 30.7714 31.8271 30.5091 31.6815 30.2736C31.545 30.0553 31.3599 29.8884 31.1263 29.7728C30.8927 29.6495 30.5961 29.5879 30.2364 29.5879C29.8663 29.5879 29.5697 29.6547 29.3453 29.7869C29.1313 29.9205 28.9646 30.1016 28.8491 30.3301C28.7415 30.5484 28.6693 30.8066 28.6299 31.1006C28.5698 31.7422 28.5698 32.3878 28.6299 33.0294C28.6693 33.3248 28.7468 33.5816 28.8636 33.8025C28.9804 34.0118 29.1458 34.1774 29.3597 34.302C29.5828 34.4163 29.8755 34.4728 30.2364 34.4728ZM22.0989 28.0444C22.9849 28.0444 23.6411 28.2627 24.0703 28.7018C24.5074 29.1307 24.7266 29.8255 24.7266 30.7873V35.902H22.6095V31.1725C22.6095 30.6499 22.5229 30.2775 22.347 30.0592C22.1724 29.8409 21.8614 29.7304 21.4125 29.7304C20.9846 29.7304 20.6486 29.8152 20.4058 29.9873C20.1722 30.1581 20.0068 30.4496 19.9084 30.8592V35.902H17.7913V31.1725C17.7913 30.6499 17.7034 30.2775 17.5288 30.0592C17.3543 29.8409 17.0524 29.7304 16.6232 29.7304C16.1861 29.7304 15.8593 29.8113 15.6454 29.9731C15.4314 30.126 15.27 30.3918 15.1637 30.7732V35.902H13.0466V28.1869H15.1637V29.0588C15.3776 28.716 15.6598 28.463 16.0103 28.3012C16.3699 28.1304 16.8279 28.0444 17.3831 28.0444C17.9764 28.0444 18.4541 28.1342 18.8138 28.3166C19.1839 28.4964 19.4569 28.7686 19.6314 29.1307C19.8454 28.7404 20.1617 28.463 20.5804 28.3012C21.0083 28.1304 21.5149 28.0444 22.0989 28.0444Z" fill="white"/>
</svg>
