<svg fill="none" xmlns="http://www.w3.org/2000/svg" viewBox="0 0 40 40" class="design-iconfont">
  <rect width="40" height="40" rx="8" fill="#00D273"/>
  <path d="M27.3451 12.2343H26.0993V10.3765C26.0993 9.61945 25.2848 9 24.2889 9H15.7086C14.7127 9 13.8979 9.61945 13.8979 10.3765V12.2343H12.6521C10.8539 12.2343 9.38257 13.7057 9.38257 15.5039V27.7302C9.38257 29.5286 10.8539 31 12.6521 31H27.3451C29.1436 31 30.6149 29.5286 30.6149 27.7302V15.5039C30.6149 13.7057 29.1436 12.2343 27.3451 12.2343ZM24.4946 22.7663C24.4938 23.0551 24.3787 23.3319 24.1745 23.5361C23.9702 23.7403 23.6935 23.8554 23.4047 23.8563H21.8655V25.3963C21.8646 25.6851 21.7495 25.9618 21.5453 26.1661C21.3411 26.3703 21.0643 26.4854 20.7755 26.4862H19.2228C18.934 26.4854 18.6572 26.3703 18.453 26.1661C18.2488 25.9618 18.1337 25.6851 18.1328 25.3963V23.8563H16.5928C16.3042 23.8552 16.0277 23.7399 15.8237 23.5357C15.6197 23.3315 15.5048 23.055 15.5039 22.7663V21.2133C15.5048 20.9245 15.6199 20.6478 15.8241 20.4436C16.0283 20.2393 16.3051 20.1242 16.5939 20.1234H18.1339V18.5842C18.1347 18.2954 18.2498 18.0186 18.4541 17.8144C18.6583 17.6102 18.935 17.4951 19.2238 17.4942H20.7758C21.0646 17.4951 21.3412 17.6103 21.5454 17.8145C21.7496 18.0187 21.8646 18.2954 21.8655 18.5842V20.1244H23.4055C23.694 20.1255 23.9704 20.2405 24.1744 20.4445C24.3784 20.6485 24.4935 20.9248 24.4946 21.2133V22.7663ZM24.5161 12.2343H15.4822V11.1494C15.4822 10.6458 16.0256 10.2317 16.6893 10.2317H23.3082C23.9722 10.2317 24.5153 10.6447 24.5153 11.1494L24.5161 12.2343Z" fill="#EBFFF6"/>
</svg>
