<svg width="16" height="16" viewBox="0 0 16 16" fill="none" xmlns="http://www.w3.org/2000/svg">
<path fill-rule="evenodd" clip-rule="evenodd" d="M2.0166 3.6666C2.0166 3.30762 2.30762 3.0166 2.6666 3.0166H13.9999C14.3589 3.0166 14.6499 3.30762 14.6499 3.6666C14.6499 4.02559 14.3589 4.3166 13.9999 4.3166H2.6666C2.30762 4.3166 2.0166 4.02559 2.0166 3.6666Z" fill="currentColor"/>
<path fill-rule="evenodd" clip-rule="evenodd" d="M2.0166 7.99998C2.0166 7.64099 2.30762 7.34998 2.6666 7.34998H13.9999C14.3589 7.34998 14.6499 7.64099 14.6499 7.99998C14.6499 8.35896 14.3589 8.64998 13.9999 8.64998H2.6666C2.30762 8.64998 2.0166 8.35896 2.0166 7.99998Z" fill="currentColor"/>
<path fill-rule="evenodd" clip-rule="evenodd" d="M2.0166 12.3333C2.0166 11.9744 2.30762 11.6833 2.6666 11.6833H7.99994C8.35892 11.6833 8.64994 11.9744 8.64994 12.3333C8.64994 12.6923 8.35892 12.9833 7.99994 12.9833H2.6666C2.30762 12.9833 2.0166 12.6923 2.0166 12.3333Z" fill="currentColor"/>
<path fill-rule="evenodd" clip-rule="evenodd" d="M14.4595 13.0119C14.7134 12.758 14.7134 12.3465 14.4595 12.0926L12.5739 10.207C12.32 9.95321 11.9085 9.95321 11.6547 10.207L9.76902 12.0926C9.51518 12.3465 9.51517 12.758 9.76901 13.0119C10.0229 13.2657 10.4344 13.2657 10.6883 13.0119L12.1143 11.5859L13.5403 13.0119C13.7941 13.2657 14.2057 13.2657 14.4595 13.0119Z" fill="currentColor"/>
</svg>
