<svg fill="none" xmlns="http://www.w3.org/2000/svg" viewBox="0 0 16 16" class="design-iconfont">
  <path d="M7.99998 14.6663C11.6819 14.6663 14.6666 11.6816 14.6666 7.99967C14.6666 4.31777 11.6819 1.33301 7.99998 1.33301C4.31808 1.33301 1.33331 4.31777 1.33331 7.99967C1.33331 11.6816 4.31808 14.6663 7.99998 14.6663Z" stroke="#595959" stroke-width="1.3" stroke-linejoin="round"/>
  <path fill-rule="evenodd" clip-rule="evenodd" d="M7.16663 4.66634C7.16663 5.12657 7.53973 5.49967 7.99996 5.49967C8.46019 5.49967 8.83329 5.12657 8.83329 4.66634C8.83329 4.20611 8.46019 3.83301 7.99996 3.83301C7.53973 3.83301 7.16663 4.20611 7.16663 4.66634ZM7.16663 7.99967C7.16663 8.45991 7.53973 8.83301 7.99996 8.83301C8.46019 8.83301 8.83329 8.45991 8.83329 7.99967C8.83329 7.53944 8.46019 7.16634 7.99996 7.16634C7.53973 7.16634 7.16663 7.53944 7.16663 7.99967ZM7.99996 12.1663C7.53973 12.1663 7.16663 11.7932 7.16663 11.333C7.16663 10.8728 7.53973 10.4997 7.99996 10.4997C8.46019 10.4997 8.83329 10.8728 8.83329 11.333C8.83329 11.7932 8.46019 12.1663 7.99996 12.1663Z" fill="#595959"/>
</svg>
