<svg fill="none" xmlns="http://www.w3.org/2000/svg" viewBox="0 0 80 80" class="design-iconfont">
  <g clip-path="url(#3wy6pjjyd__clip0_1039_22405)">
    <g clip-path="url(#3wy6pjjyd__clip1_1039_22405)" opacity=".4">
      <mask id="3wy6pjjyd__z8iaf8vhla" style="mask-type:luminance" maskUnits="userSpaceOnUse" x="-13" y="1" width="121" height="121">
        <path d="M-13 1H108V122H-13V1Z" fill="#fff"/>
      </mask>
      <g mask="url(#3wy6pjjyd__z8iaf8vhla)">
        <g filter="url(#3wy6pjjyd__filter0_f_1039_22405)">
          <path fill-rule="evenodd" clip-rule="evenodd" d="M4.60645 91.8837L54.3547 120.581L89.4482 87.26L32.4282 76.2695L4.60645 91.8837Z" fill="#595656" fill-opacity=".158285"/>
        </g>
        <path d="M89.4128 79.5999C89.3986 79.8031 89.3856 80.0217 89.3715 80.2262C89.3585 80.4022 89.3313 80.5937 89.3029 80.7697C89.2757 80.9742 89.2497 81.1916 89.2084 81.396C89.167 81.5862 89.1399 81.7635 89.0997 81.9549C89.0583 82.1582 89.004 82.3626 88.9496 82.567C88.8953 82.7573 88.8409 82.9345 88.7866 83.1247C88.718 83.3292 88.6637 83.5336 88.5821 83.7238C88.5136 83.9011 88.4462 84.0913 88.3777 84.2686C88.2962 84.486 88.2016 84.6904 88.1059 84.9078C88.0244 85.0851 87.9429 85.2623 87.8613 85.4384C87.7514 85.6428 87.6427 85.8614 87.534 86.0647C87.4383 86.2289 87.3438 86.405 87.2481 86.5692C87.098 86.8138 86.9491 87.0584 86.7849 87.3042C86.6903 87.4531 86.5946 87.6032 86.4859 87.7532C86.2957 88.025 86.1054 88.2968 85.901 88.5556C85.8053 88.6785 85.7096 88.8143 85.615 88.9372C85.5737 88.9916 85.5193 89.0459 85.4791 89.1145C85.2605 89.3863 85.0289 89.645 84.7985 89.9168C84.73 89.9853 84.6756 90.0669 84.6071 90.1354C84.3211 90.4344 84.0364 90.7475 83.7362 91.0465C83.6819 91.1008 83.6275 91.1563 83.5732 91.2107C83.3416 91.4281 83.0969 91.6597 82.8512 91.8771C82.6609 92.0544 82.4565 92.2316 82.2533 92.4077C82.0618 92.572 81.8716 92.735 81.6814 92.8851C81.4627 93.0611 81.2453 93.2254 81.0279 93.4015C80.8235 93.5515 80.619 93.7146 80.4016 93.8647C80.17 94.0277 79.9384 94.1908 79.6938 94.3681C79.4764 94.5181 79.2578 94.6682 79.0262 94.8171C78.7816 94.9813 78.5228 95.1444 78.264 95.2945C77.9509 95.4977 77.6248 95.6891 77.2975 95.8794C76.6724 96.2469 76.0319 96.5872 75.3655 96.9275C75.174 97.0232 74.9838 97.1177 74.7936 97.2134C74.2902 97.4722 73.7584 97.7038 73.2421 97.9484C73.0648 98.03 72.8876 98.1115 72.7103 98.193C72.0297 98.4932 71.3361 98.7791 70.6141 99.0509C70.4924 99.0911 70.3695 99.1466 70.2336 99.1868C69.6345 99.4042 69.0224 99.6228 68.4092 99.8272C68.1646 99.9088 67.9058 99.9903 67.647 100.072C67.3067 100.181 66.9664 100.276 66.6261 100.385C66.3401 100.466 66.0541 100.548 65.7552 100.63C65.4149 100.725 65.0604 100.82 64.7071 100.903C64.4211 100.984 64.1222 101.051 63.8362 101.12C63.4817 101.201 63.1284 101.283 62.7609 101.365C62.4608 101.433 62.1748 101.5 61.8759 101.556C61.5084 101.637 61.1409 101.705 60.7864 101.773C60.5004 101.828 60.2287 101.882 59.9427 101.936C59.1534 102.072 58.364 102.208 57.5747 102.318C57.466 102.331 57.3431 102.345 57.2344 102.358C56.5396 102.454 55.846 102.536 55.1511 102.604C54.8794 102.631 54.6206 102.657 54.3488 102.686C53.8986 102.726 53.4496 102.767 53.0006 102.794C52.7146 102.822 52.4286 102.835 52.1569 102.849C51.6937 102.876 51.2175 102.903 50.7543 102.916C50.4967 102.93 50.2237 102.944 49.9649 102.944C49.5573 102.957 49.1484 102.957 48.7407 102.972C48.4548 102.972 48.1688 102.985 47.8829 102.985C47.4468 102.985 47.012 102.985 46.576 102.972C46.3172 102.972 46.0584 102.972 45.7996 102.957C45.405 102.944 44.9973 102.93 44.6026 102.916C44.3167 102.903 44.0437 102.903 43.7578 102.876C43.3229 102.849 42.9011 102.822 42.4792 102.794C42.2335 102.78 41.9889 102.767 41.7301 102.74C41.2125 102.699 40.6961 102.644 40.1786 102.59C40.0155 102.576 39.8654 102.563 39.7024 102.549C39.0348 102.467 38.3683 102.385 37.7007 102.291C37.592 102.277 37.4974 102.264 37.3875 102.235C36.8168 102.154 36.2449 102.059 35.673 101.964C35.4414 101.923 35.2098 101.882 34.9782 101.828C34.5433 101.746 34.1073 101.665 33.6725 101.583C33.4539 101.542 33.2223 101.487 33.0048 101.433C32.5286 101.337 32.0654 101.229 31.5892 101.12C31.3305 101.051 31.0717 100.984 30.8141 100.93C30.3911 100.82 29.9692 100.711 29.5474 100.589C29.3028 100.521 29.0712 100.452 28.8266 100.385C28.1589 100.195 27.5055 99.9903 26.852 99.7717C26.7303 99.7315 26.6216 99.7043 26.4987 99.663C25.7496 99.4042 25.0146 99.1324 24.2796 98.8606C23.9806 98.7519 23.6947 98.629 23.3946 98.5062C23.1641 98.4116 22.9325 98.3159 22.7009 98.2202C22.3736 98.0843 22.0475 97.9342 21.7202 97.7854C21.5027 97.6896 21.2983 97.5939 21.0809 97.4994C20.7276 97.3351 20.3873 97.1591 20.0328 96.9818C19.8555 96.9003 19.6795 96.8046 19.5152 96.7231C18.9989 96.4513 18.4943 96.1783 18.0051 95.8924C9.74188 91.1292 5.61796 84.8677 5.64513 78.6191L5.61796 87.2085C5.60378 93.4558 9.72888 99.7173 17.9779 104.482C18.4671 104.768 18.9717 105.039 19.4881 105.312C19.6511 105.394 19.8284 105.49 20.0056 105.571C20.3459 105.748 20.6992 105.924 21.0537 106.088C21.2582 106.183 21.4756 106.279 21.68 106.374C22.0061 106.524 22.3334 106.674 22.6596 106.81C22.8912 106.905 23.1228 107 23.3544 107.095C23.5718 107.19 23.8034 107.286 24.0208 107.367C24.0894 107.394 24.1709 107.422 24.2394 107.449C24.9602 107.735 25.7094 108.008 26.4574 108.252C26.5803 108.294 26.689 108.334 26.8119 108.361C27.4653 108.578 28.1188 108.783 28.7852 108.974C28.8939 109.001 29.0026 109.042 29.1113 109.083C29.2342 109.123 29.3701 109.15 29.493 109.178C29.9148 109.3 30.3367 109.409 30.7585 109.518C31.0173 109.586 31.2761 109.654 31.5349 109.709C31.9981 109.818 32.4743 109.927 32.9505 110.022C33.1277 110.063 33.305 110.104 33.481 110.144C33.5224 110.158 33.5768 110.158 33.6311 110.171C34.053 110.253 34.489 110.334 34.9238 110.417C35.1554 110.457 35.4012 110.512 35.6316 110.553C36.2035 110.648 36.7755 110.743 37.3474 110.825C37.4419 110.839 37.5376 110.852 37.6333 110.866H37.6463C38.3139 110.961 38.9804 111.042 39.648 111.125C39.8241 111.138 40.0013 111.152 40.1786 111.179C40.669 111.234 41.1723 111.288 41.6757 111.328C41.6887 111.328 41.7029 111.328 41.7171 111.328C41.9617 111.342 42.1933 111.355 42.4379 111.382C42.8597 111.411 43.2816 111.451 43.7034 111.465C43.9894 111.478 44.2623 111.492 44.5483 111.505C44.943 111.52 45.3506 111.547 45.7453 111.547C45.7725 111.547 45.8138 111.547 45.841 111.547C46.0726 111.547 46.29 111.547 46.5216 111.547C46.9565 111.547 47.3925 111.56 47.8285 111.56C48.1145 111.56 48.4004 111.547 48.6852 111.547C49.0941 111.547 49.5029 111.533 49.9106 111.52C49.9921 111.52 50.0606 111.52 50.1422 111.52C50.3324 111.52 50.5238 111.492 50.7141 111.492C51.1903 111.478 51.6535 111.451 52.1155 111.424C52.4015 111.411 52.6874 111.382 52.9604 111.369C53.4094 111.342 53.8584 111.301 54.3075 111.261C54.4705 111.247 54.6206 111.234 54.7837 111.219C54.8924 111.206 55.0023 111.192 55.111 111.179C55.8046 111.111 56.4994 111.029 57.193 110.933C57.3017 110.92 57.4246 110.906 57.5333 110.893C58.3227 110.785 59.112 110.648 59.9025 110.512C59.9699 110.499 60.0514 110.484 60.1199 110.471C60.3244 110.43 60.5418 110.39 60.7462 110.349C61.1137 110.28 61.4812 110.213 61.8345 110.131C62.1346 110.063 62.4336 110.008 62.7196 109.94C63.074 109.858 63.4274 109.777 63.7818 109.695C64.0808 109.627 64.3668 109.545 64.6657 109.478C65.0202 109.382 65.3605 109.3 65.7008 109.205C65.9868 109.123 66.2858 109.042 66.5717 108.96C66.912 108.864 67.2523 108.756 67.5926 108.647C67.7427 108.606 67.8916 108.565 68.0417 108.511C68.1504 108.47 68.2461 108.43 68.3548 108.402C68.9669 108.198 69.566 107.994 70.1651 107.762C70.288 107.722 70.4239 107.667 70.5467 107.626C71.2545 107.354 71.9482 107.068 72.6288 106.768C72.806 106.687 72.9833 106.605 73.1594 106.524C73.6911 106.292 74.2075 106.047 74.712 105.789C74.9023 105.693 75.0925 105.598 75.2828 105.503C75.9362 105.162 76.5897 104.822 77.2159 104.455C77.3932 104.36 77.5562 104.25 77.7335 104.156C77.8965 104.06 78.0324 103.964 78.1967 103.87C78.4555 103.705 78.7131 103.556 78.9588 103.393C79.1904 103.243 79.4079 103.093 79.6253 102.944C79.8711 102.78 80.1015 102.617 80.3331 102.44C80.5517 102.291 80.7549 102.127 80.9594 101.978C81.1768 101.801 81.4084 101.637 81.6128 101.46C81.8031 101.297 81.9945 101.147 82.1847 100.984C82.3892 100.807 82.5924 100.63 82.7838 100.452C82.8653 100.385 82.9469 100.303 83.0284 100.235C83.1915 100.085 83.3416 99.9359 83.4916 99.7859C83.546 99.7315 83.6003 99.6772 83.6547 99.6228C83.9536 99.3227 84.2538 99.0237 84.5256 98.7106C84.5941 98.642 84.6614 98.5605 84.717 98.4932C84.9474 98.2344 85.179 97.9614 85.3976 97.6896C85.4378 97.6353 85.4921 97.5667 85.5465 97.5124C85.5737 97.4852 85.5878 97.458 85.615 97.4309C85.6966 97.3351 85.7509 97.2264 85.8325 97.1319C86.0369 96.8589 86.2413 96.6002 86.4174 96.3284C86.5273 96.1783 86.6088 96.0294 86.7175 95.8794C86.8806 95.6348 87.0306 95.389 87.1795 95.1444C87.2209 95.0758 87.2622 95.0085 87.3024 94.94C87.3568 94.8442 87.4111 94.7355 87.4655 94.641C87.5754 94.4366 87.6841 94.218 87.7928 94.0147C87.8743 93.8375 87.9559 93.6602 88.0374 93.483C88.1331 93.2656 88.2146 93.0612 88.3103 92.8437C88.3505 92.748 88.3919 92.6535 88.4321 92.5578C88.4592 92.4762 88.4864 92.3805 88.5136 92.299C88.5821 92.0946 88.6507 91.8913 88.718 91.6869C88.7724 91.4967 88.8267 91.3194 88.8811 91.1292C88.9354 90.9247 88.991 90.7203 89.0311 90.5159C89.0583 90.4072 89.0855 90.2985 89.1127 90.1898C89.1269 90.1212 89.1399 90.0397 89.154 89.9712C89.1942 89.7679 89.2214 89.5493 89.2498 89.3449C89.2757 89.1688 89.3029 88.9774 89.3171 88.8013C89.3443 88.5969 89.3443 88.3795 89.3585 88.1751C89.3585 88.0522 89.3856 87.9293 89.3856 87.8076C89.3856 87.6847 89.3856 87.5618 89.3856 87.4401L89.4128 78.8507C89.453 79.1095 89.4258 79.3541 89.4128 79.5999Z" fill="url(#3wy6pjjyd__paint0_linear_1039_22405)"/>
        <path d="M77.08 61.5909C93.4965 71.0653 93.578 86.4195 77.2844 95.8939C60.9777 105.367 34.4617 105.367 18.0452 95.8939C1.64284 86.4195 1.5483 71.0653 17.8549 61.5779C34.1616 52.1177 60.6776 52.1177 77.08 61.5909Z" fill="url(#3wy6pjjyd__paint1_linear_1039_22405)"/>
        <g filter="url(#3wy6pjjyd__filter1_f_1039_22405)">
          <path d="M67.8089 88.3625L67.4532 88.9758L67.0444 89.5465L66.5823 90.0782L66.0636 90.5722L65.4858 91.0294L64.8808 91.4312L64.2273 91.7975L63.5231 92.1284L62.7644 92.4226L61.9456 92.6802L60.927 92.9272L59.8411 93.1162L58.6831 93.2438L57.4459 93.3076L56.2288 93.3053L54.9573 93.2391L53.6304 93.108L52.2443 92.9071L50.8878 92.6518L49.4958 92.3281L48.0672 91.9369L46.5996 91.4726L45.1663 90.9585L43.7176 90.3772L42.2523 89.7237L40.7682 88.997L39.3136 88.2148L37.9287 87.4042L36.6112 86.5664L35.3587 85.7014L34.1262 84.7797L32.9753 83.8463L31.9024 82.9033L30.9039 81.9497L29.9326 80.9406L29.0522 79.9386L28.2582 78.9448L27.5468 77.957L26.878 76.9147L26.3061 75.8974L25.8275 74.9048L25.4352 73.9335L25.167 73.1193L24.9638 72.33L24.822 71.5655L24.7393 70.821L24.7133 70.0955L24.7475 69.3582L24.8468 68.6492L25.0098 67.9638L25.2355 67.2997L25.5262 66.6522L25.8819 66.0401L26.2907 65.4682L26.7528 64.9376L27.2715 64.4437L27.8493 63.9864L28.4543 63.5847L29.1078 63.2172L29.812 62.8863L30.5718 62.5921L31.3907 62.3357L32.4081 62.0887L33.494 61.8996L34.6532 61.7708L35.8904 61.707L37.1075 61.7106L38.3777 61.7756L39.7047 61.9067L41.0908 62.1076L42.4485 62.364L43.8405 62.6866L45.2691 63.0789L46.7367 63.5421L48.1688 64.0561L49.6175 64.6387L51.0839 65.2909L52.5669 66.0177L54.0215 66.7999L55.4064 67.6105L56.7239 68.4483L57.9764 69.3133L59.2089 70.2361L60.3598 71.1684L61.4327 72.1114L62.4324 73.065L63.4037 74.0753L64.2829 75.0761L65.0769 76.0711L65.7883 77.0589L66.4583 78.1011L67.029 79.1173L67.5076 80.1099L67.8999 81.0812L68.1693 81.8954L68.3725 82.6847L68.5143 83.4504L68.597 84.1948L68.623 84.9204L68.5876 85.6565L68.4883 86.3655L68.3264 87.0509L68.0996 87.7161L67.8089 88.3625Z" fill="#1F3899" fill-opacity=".065016"/>
        </g>
        <path d="M61.2177 97.4221L61.3264 38.9557L20.6768 8.72461L20.919 67.2725L61.2177 97.4221Z" fill="url(#3wy6pjjyd__paint2_linear_1039_22405)"/>
        <path d="M58.071 82.1116L58.1584 40.5391L23.4501 14.959L23.6486 56.5976L58.071 82.1116Z" fill="url(#3wy6pjjyd__paint3_linear_1039_22405)"/>
        <path d="M20.6768 8.72438L30.5647 4.07227L70.9307 33.9831L61.3264 38.9567L20.6768 8.72438Z" fill="url(#3wy6pjjyd__paint4_linear_1039_22405)"/>
        <path d="M61.2177 97.4219L70.8232 90.8296V33.9844L61.3264 38.9567L61.2177 97.4219Z" fill="url(#3wy6pjjyd__paint5_linear_1039_22405)"/>
        <path d="M40.3357 73.0557L40.4656 73.7423L40.52 74.3792L40.5011 74.9747L40.4089 75.5632L40.2577 76.0606L40.0497 76.4813L39.8465 76.7661L39.6172 76.9859L39.3632 77.1478L39.0808 77.2541L38.7818 77.2919L38.4828 77.2695L38.178 77.1832L37.8613 77.0284L37.482 76.7543L37.1145 76.3868L36.7565 75.9118L36.4599 75.3942L36.2058 74.8069L35.999 74.1405L35.8667 73.4539L35.8147 72.8159L35.8336 72.2215L35.9246 71.633L36.077 71.1344L36.2826 70.7149L36.4882 70.4301L36.7175 70.2092L36.9703 70.0485L37.2539 69.9409L37.5517 69.9043L37.8518 69.9267L38.1555 70.0118L38.471 70.1678L38.8515 70.4408L39.2202 70.8094L39.5782 71.2845L39.8748 71.8008L40.1289 72.3893L40.3357 73.0557Z" fill="#69ACFF"/>
      </g>
    </g>
  </g>
  <defs>
    <linearGradient id="3wy6pjjyd__paint0_linear_1039_22405" x1="5.6599" y1="95.1042" x2="89.4515" y2="95.1042" gradientUnits="userSpaceOnUse">
      <stop stop-color="#F6F6F9"/>
      <stop offset="1" stop-color="#CADEFE"/>
    </linearGradient>
    <linearGradient id="3wy6pjjyd__paint1_linear_1039_22405" x1="13.9059" y1="72.7282" x2="80.1213" y2="79.1007" gradientUnits="userSpaceOnUse">
      <stop stop-color="#CADEFE"/>
      <stop offset="1" stop-color="#E5EFFF"/>
    </linearGradient>
    <linearGradient id="3wy6pjjyd__paint2_linear_1039_22405" x1="24.9942" y1="22.5712" x2="74.9519" y2="32.0351" gradientUnits="userSpaceOnUse">
      <stop stop-color="#EAF0FF"/>
      <stop offset="1" stop-color="#B2D0FB"/>
    </linearGradient>
    <linearGradient id="3wy6pjjyd__paint3_linear_1039_22405" x1="40.8039" y1="14.9591" x2="43.2019" y2="71.034" gradientUnits="userSpaceOnUse">
      <stop stop-color="#599EF7"/>
      <stop offset="1" stop-color="#5096EF"/>
    </linearGradient>
    <linearGradient id="3wy6pjjyd__paint4_linear_1039_22405" x1="53.8544" y1="5.14141" x2="56.3588" y2="36.8989" gradientUnits="userSpaceOnUse">
      <stop stop-color="#79B9FD"/>
      <stop offset="1" stop-color="#93C4FF"/>
    </linearGradient>
    <linearGradient id="3wy6pjjyd__paint5_linear_1039_22405" x1="66.0207" y1="33.9839" x2="66.0207" y2="97.4223" gradientUnits="userSpaceOnUse">
      <stop stop-color="#A2CAFF"/>
      <stop offset="1" stop-color="#AED1FF"/>
    </linearGradient>
    <clipPath id="3wy6pjjyd__clip0_1039_22405">
      <path fill="#fff" d="M0 0H80V80H0z"/>
    </clipPath>
    <clipPath id="3wy6pjjyd__clip1_1039_22405">
      <path fill="#fff" transform="translate(-13 1)" d="M0 0H121V121H0z"/>
    </clipPath>
    <filter id="3wy6pjjyd__filter0_f_1039_22405" x="-95.3936" y="-23.7305" width="284.842" height="244.312" filterUnits="userSpaceOnUse" color-interpolation-filters="sRGB">
      <feFlood flood-opacity="0" result="BackgroundImageFix"/>
      <feBlend in="SourceGraphic" in2="BackgroundImageFix" result="shape"/>
      <feGaussianBlur stdDeviation="50" result="effect1_foregroundBlur_1039_22405"/>
    </filter>
    <filter id="3wy6pjjyd__filter1_f_1039_22405" x="10.7133" y="47.707" width="71.9098" height="59.6016" filterUnits="userSpaceOnUse" color-interpolation-filters="sRGB">
      <feFlood flood-opacity="0" result="BackgroundImageFix"/>
      <feBlend in="SourceGraphic" in2="BackgroundImageFix" result="shape"/>
      <feGaussianBlur stdDeviation="7" result="effect1_foregroundBlur_1039_22405"/>
    </filter>
  </defs>
</svg>
