<svg fill="none" xmlns="http://www.w3.org/2000/svg" viewBox="0 0 15 15" class="design-iconfont">
  <g clip-path="url(#58y42fz08__clip0_7881_28489)">
    <g clip-path="url(#58y42fz08__clip1_7881_28489)" stroke="#000" stroke-width="1.3" stroke-linecap="round" stroke-linejoin="round">
      <path d="M2.16847 7.25916C2.27202 6.15473 2.32379 5.60252 2.90136 5.01175C3.47893 4.42098 4.11448 4.34686 5.38562 4.19864C6.21112 4.10239 7.12311 4.02734 7.96004 4.02734C8.79698 4.02734 9.70896 4.10239 10.5345 4.19864C11.8056 4.34686 12.4412 4.42098 13.0187 5.01175C13.5963 5.60252 13.6481 6.15473 13.7516 7.25916C13.7777 7.53787 13.7934 7.82429 13.7934 8.11068C13.7934 8.39706 13.7777 8.68348 13.7516 8.9622C13.6481 10.0666 13.5963 10.6188 13.0187 11.2096C12.4412 11.8004 11.8056 11.8745 10.5345 12.0227C9.70896 12.119 8.79698 12.194 7.96004 12.194C7.12311 12.194 6.21112 12.119 5.38562 12.0227C4.11448 11.8745 3.47893 11.8004 2.90136 11.2096C2.32379 10.6188 2.27202 10.0666 2.16847 8.9622C2.14233 8.68348 2.12671 8.39706 2.12671 8.11068C2.12671 7.82429 2.14233 7.53787 2.16847 7.25916Z"/>
      <path d="M10.585 6.65234L9.12671 8.11068L10.585 9.56901"/>
      <path d="M5.3339 6.65234L6.79224 8.11068L5.3339 9.56901"/>
      <path d="M11.022 12.1921C11.022 13.1086 9.65084 13.8516 7.95947 13.8516C6.2681 13.8516 4.89697 13.1086 4.89697 12.1921"/>
      <path d="M7.79028 3.97458V1.92188"/>
    </g>
  </g>
  <defs>
    <clipPath id="58y42fz08__clip0_7881_28489">
      <path fill="#fff" transform="translate(.960205 .886719)" d="M0 0H14V14H0z"/>
    </clipPath>
    <clipPath id="58y42fz08__clip1_7881_28489">
      <path fill="#fff" transform="translate(.960205 .886719)" d="M0 0H14V14H0z"/>
    </clipPath>
  </defs>
</svg>
