<svg fill="none" xmlns="http://www.w3.org/2000/svg" viewBox="0 0 15 15" class="design-iconfont">
  <g clip-path="url(#kwagrt5yr__clip0_7881_28493)">
    <g clip-path="url(#kwagrt5yr__clip1_7881_28493)">
      <path d="M11.7498 7.21915C11.7049 4.68069 9.6331 2.63672 7.0839 2.63672C4.50656 2.63672 2.41724 4.72604 2.41724 7.30339C2.41724 8.51966 2.88253 9.62727 3.64484 10.4579L3.29528 12.5609L5.37036 11.6696C6.28465 11.9736 7.14749 12.0496 7.9589 11.8976" stroke="currentColor" stroke-width="1.3" stroke-linecap="round" stroke-linejoin="round"/>
      <path d="M5.37036 6.8574C5.73279 6.8574 6.02661 6.56141 6.02661 6.19628C6.02661 5.83117 5.73279 5.53516 5.37036 5.53516C5.00794 5.53516 4.71411 5.83117 4.71411 6.19628C4.71411 6.56141 5.00794 6.8574 5.37036 6.8574Z" fill="currentColor"/>
      <path d="M7.99536 6.8574C8.35779 6.8574 8.65161 6.56141 8.65161 6.19628C8.65161 5.83117 8.35779 5.53516 7.99536 5.53516C7.63294 5.53516 7.33911 5.83117 7.33911 6.19628C7.33911 6.56141 7.63294 6.8574 7.99536 6.8574Z" fill="currentColor"/>
      <path d="M12.267 12.5328C11.7571 12.9122 11.1251 13.1367 10.4407 13.1367C8.7493 13.1367 7.37817 11.7656 7.37817 10.0742C7.37817 8.38284 8.7493 7.01172 10.4407 7.01172C12.132 7.01172 13.5032 8.38284 13.5032 10.0742C13.5032 10.5408 13.3988 10.983 13.2122 11.3788" stroke="currentColor" stroke-width="1.3" stroke-linecap="round" stroke-linejoin="round"/>
      <path d="M13.2101 11.3789L13.501 13.1368L12.2649 12.5329" stroke="currentColor" stroke-width="1.3" stroke-linecap="round" stroke-linejoin="round"/>
      <path d="M11.3704 9.87057C11.0985 9.87057 10.8782 9.64859 10.8782 9.37474C10.8782 9.10089 11.0985 8.87891 11.3704 8.87891C11.6422 8.87891 11.8625 9.10089 11.8625 9.37474C11.8625 9.64859 11.6422 9.87057 11.3704 9.87057Z" fill="currentColor"/>
      <path d="M9.40161 9.87057C9.12978 9.87057 8.90942 9.64859 8.90942 9.37474C8.90942 9.10089 9.12978 8.87891 9.40161 8.87891C9.67344 8.87891 9.8938 9.10089 9.8938 9.37474C9.8938 9.64859 9.67344 9.87057 9.40161 9.87057Z" fill="currentColor"/>
    </g>
  </g>
  <defs>
    <clipPath id="kwagrt5yr__clip0_7881_28493">
      <path fill="#fff" transform="translate(.960205 .886719)" d="M0 0H14V14H0z"/>
    </clipPath>
    <clipPath id="kwagrt5yr__clip1_7881_28493">
      <path fill="#fff" transform="translate(.960205 .886719)" d="M0 0H14V14H0z"/>
    </clipPath>
  </defs>
</svg>
