<svg width="14" height="14" viewBox="0 0 14 14" fill="none" xmlns="http://www.w3.org/2000/svg">
<g clip-path="url(#clip0_1441_39872)">
<g clip-path="url(#clip1_1441_39872)">
<g clip-path="url(#clip2_1441_39872)">
<path d="M10.751 1.0332C11.087 1.03333 11.3602 1.30563 11.3604 1.6416V2.64062H12.3584C12.4384 2.64062 12.5179 2.65593 12.5918 2.68652C12.6657 2.71714 12.7325 2.76277 12.7891 2.81934C12.8456 2.87584 12.8903 2.94279 12.9209 3.0166C12.9515 3.09051 12.9678 3.17001 12.9678 3.25C12.9677 3.32983 12.9514 3.40866 12.9209 3.48242C12.8903 3.55633 12.8456 3.6241 12.7891 3.68066C12.7326 3.7371 12.6656 3.78192 12.5918 3.8125C12.5179 3.84311 12.4384 3.85938 12.3584 3.85938H11.3604V4.85742C11.3604 5.01888 11.2958 5.17387 11.1816 5.28809C11.0675 5.40227 10.9124 5.46673 10.751 5.4668C10.5894 5.4668 10.4345 5.4023 10.3203 5.28809C10.2061 5.17385 10.1416 5.01898 10.1416 4.85742V3.85938H9.14258C8.98115 3.85928 8.82607 3.79482 8.71191 3.68066C8.59777 3.56649 8.53424 3.41144 8.53418 3.25C8.53418 3.08858 8.59786 2.93354 8.71191 2.81934C8.82607 2.70518 8.98115 2.64072 9.14258 2.64062H10.1416V1.6416C10.1418 1.30555 10.4149 1.0332 10.751 1.0332Z" fill="currentColor" stroke="currentColor" stroke-width="0.2"/>
<path d="M7.79248 1.56836C7.95393 1.56841 8.10896 1.63195 8.22314 1.74609C8.3373 1.86025 8.40176 2.01533 8.40186 2.17676C8.40186 2.33818 8.33721 2.49321 8.22314 2.60742C8.10895 2.72161 7.95396 2.78608 7.79248 2.78613H4.31982C3.77081 2.78623 3.24418 3.00436 2.85596 3.39258C2.46774 3.7808 2.2496 4.30743 2.24951 4.85645V7.81641C2.24957 8.08822 2.30367 8.35728 2.40771 8.6084C2.51178 8.85954 2.66373 9.08806 2.85596 9.28027C3.04823 9.47248 3.27664 9.62548 3.52783 9.72949C3.77909 9.83349 4.04887 9.8868 4.3208 9.88672C4.4598 9.88665 4.59434 9.93436 4.70264 10.0215C4.81087 10.1086 4.88678 10.2295 4.9165 10.3652L5.11084 11.2568L6.31689 10.2686C6.61792 10.022 6.99493 9.88675 7.3833 9.88672H9.6792C9.95111 9.88672 10.221 9.83257 10.4722 9.72852C10.7232 9.62446 10.9519 9.47245 11.144 9.28027C11.3362 9.08806 11.4882 8.85951 11.5923 8.6084C11.6963 8.35733 11.7504 8.08816 11.7505 7.81641V6.20801C11.7505 6.04655 11.8141 5.89154 11.9282 5.77734C12.0424 5.66319 12.1975 5.59873 12.3589 5.59863C12.5203 5.59863 12.6753 5.66325 12.7896 5.77734C12.9038 5.89155 12.9682 6.0465 12.9683 6.20801V7.81641C12.968 9.63311 11.4962 11.1045 9.68018 11.1045H7.3833C7.27641 11.1046 7.17296 11.1421 7.09033 11.21L5.11475 12.8311C5.03423 12.8972 4.93801 12.9416 4.83545 12.96C4.73289 12.9783 4.62726 12.9696 4.52881 12.9355C4.43025 12.9013 4.34122 12.8427 4.27197 12.7646C4.20286 12.6867 4.15556 12.592 4.1333 12.4902L3.8208 11.0645C3.05752 10.947 2.3585 10.567 1.84814 9.98535C1.32192 9.38548 1.03194 8.61437 1.03174 7.81641V4.85645C1.03183 3.98432 1.37794 3.14794 1.99463 2.53125C2.61132 1.91456 3.4477 1.56845 4.31982 1.56836H7.79248Z" fill="currentColor" stroke="currentColor" stroke-width="0.2"/>
</g>
</g>
</g>
<defs>
<clipPath id="clip0_1441_39872">
<rect width="14" height="14" fill="white"/>
</clipPath>
<clipPath id="clip1_1441_39872">
<rect width="14" height="14" fill="white" transform="matrix(-1 0 0 1 14 0)"/>
</clipPath>
<clipPath id="clip2_1441_39872">
<rect width="12.25" height="12.25" fill="white" transform="translate(0.875 0.875)"/>
</clipPath>
</defs>
</svg>
