<svg fill="none" xmlns="http://www.w3.org/2000/svg" viewBox="0 0 15 15" class="design-iconfont">
  <g clip-path="url(#hhucqnxxt__clip0_7881_28499)">
    <g clip-path="url(#hhucqnxxt__clip1_7881_28499)" stroke="#000" stroke-width="1.3" stroke-linecap="round" stroke-linejoin="round">
      <path d="M7.95947 12.8285C8.57868 13.3827 9.3964 13.7197 10.2928 13.7197C12.2258 13.7197 13.7928 12.1527 13.7928 10.2197C13.7928 8.67361 12.7903 7.36166 11.3999 6.89844"/>
      <path d="M8.88582 8.94299C9.04178 9.33954 9.12744 9.77147 9.12744 10.2234C9.12744 12.1564 7.56043 13.7234 5.62744 13.7234C3.69444 13.7234 2.12744 12.1564 2.12744 10.2234C2.12744 8.67317 3.13527 7.35837 4.53144 6.89844"/>
      <path d="M7.95947 9.0547C9.89246 9.0547 11.4595 7.48769 11.4595 5.5547C11.4595 3.62169 9.89246 2.05469 7.95947 2.05469C6.02648 2.05469 4.45947 3.62169 4.45947 5.5547C4.45947 7.48769 6.02648 9.0547 7.95947 9.0547Z"/>
    </g>
  </g>
  <defs>
    <clipPath id="hhucqnxxt__clip0_7881_28499">
      <path fill="#fff" transform="translate(.960205 .886719)" d="M0 0H14V14H0z"/>
    </clipPath>
    <clipPath id="hhucqnxxt__clip1_7881_28499">
      <path fill="#fff" transform="translate(.960205 .886719)" d="M0 0H14V14H0z"/>
    </clipPath>
  </defs>
</svg>
