<svg width="16" height="16" viewBox="0 0 16 16" fill="none" xmlns="http://www.w3.org/2000/svg">
<path d="M8 12V10" stroke="currentColor" stroke-width="1.33333" stroke-linecap="round" stroke-linejoin="round"/>
<path d="M6.66667 13.333H2" stroke="currentColor" stroke-width="1.33333" stroke-linecap="round" stroke-linejoin="round"/>
<path d="M9.33398 13.333H14.0007" stroke="currentColor" stroke-width="1.33333" stroke-linecap="round" stroke-linejoin="round"/>
<path d="M9.33268 13.3333C9.33268 14.0697 8.73572 14.6667 7.99935 14.6667C7.26298 14.6667 6.66602 14.0697 6.66602 13.3333C6.66602 12.597 7.26298 12 7.99935 12C8.73572 12 9.33268 12.597 9.33268 13.3333Z" fill="currentColor" stroke="currentColor" stroke-width="1.33333" stroke-linecap="round" stroke-linejoin="round"/>
<path d="M12.3327 5.66634C12.3327 8.05957 10.3926 9.99967 7.99935 9.99967C5.60612 9.99967 3.66602 8.05957 3.66602 5.66634M12.3327 5.66634C12.3327 3.27311 10.3926 1.33301 7.99935 1.33301C5.60612 1.33301 3.66602 3.27311 3.66602 5.66634M12.3327 5.66634H3.66602" stroke="currentColor" stroke-width="1.33333" stroke-linecap="round" stroke-linejoin="round"/>
<path d="M9.66732 5.66634C9.66732 8.05957 8.92112 9.99967 8.00065 9.99967C7.08018 9.99967 6.33398 8.05957 6.33398 5.66634C6.33398 3.27311 7.08018 1.33301 8.00065 1.33301C8.92112 1.33301 9.66732 3.27311 9.66732 5.66634Z" fill="currentColor" stroke="currentColor" stroke-width="1.33333" stroke-linecap="round" stroke-linejoin="round"/>
<path d="M12.3327 5.66699H3.66602" stroke="currentColor" stroke-width="1.33333" stroke-linecap="round" stroke-linejoin="round"/>
</svg>
