<svg width="48" height="48" viewBox="0 0 48 48" fill="none" xmlns="http://www.w3.org/2000/svg">
<path d="M27.888 0L43.597 15.9994V42.3994C43.597 45.493 41.136 48 38.0988 48H9.8225C6.7853 48 4.3241 45.4908 4.3241 42.3994V5.60064C4.32434 2.50704 6.78554 0 9.82274 0H27.888Z" fill="#356FFE"/>
<path d="M43.597 15.9994H33.6634C30.6283 15.9994 27.888 13.2108 27.888 10.117V0L43.597 15.9994V15.9994Z" fill="white" fill-opacity="0.4"/>
<path d="M28.5663 21.0446C28.8603 21.0479 29.1412 21.1657 29.3479 21.3726C29.5546 21.5794 29.6706 21.8585 29.6706 22.1493C29.6706 22.4401 29.5546 22.7192 29.3479 22.926C29.1412 23.1328 28.8603 23.2507 28.5663 23.254C27.6777 23.254 26.8254 23.6031 26.197 24.2247C25.5687 24.8462 25.2156 25.6892 25.2156 26.5682V34.5225C25.2153 35.702 24.8332 36.8505 24.1254 37.7997C23.4175 38.7489 22.4211 39.4491 21.2819 39.7978C20.1427 40.1464 18.9206 40.1252 17.7945 39.7373C16.6683 39.3494 15.6973 38.6151 15.0235 37.6419C14.3497 36.6687 14.0086 35.5078 14.05 34.329C14.0914 33.1502 14.5132 32.0155 15.2537 31.0909C15.9941 30.1663 17.0144 29.5005 18.165 29.1908C19.3157 28.8812 20.5363 28.9439 21.6483 29.37C21.7853 29.4221 21.9107 29.5005 22.0171 29.6007C22.1235 29.7008 22.2089 29.8207 22.2684 29.9535C22.3279 30.0863 22.3603 30.2295 22.3639 30.3747C22.3674 30.5199 22.3419 30.6644 22.2888 30.7999C22.2358 30.9354 22.1563 31.0592 22.0548 31.1642C21.9534 31.2693 21.832 31.3535 21.6976 31.412C21.5632 31.4706 21.4184 31.5024 21.2715 31.5055C21.1247 31.5087 20.9787 31.4832 20.8418 31.4304C20.1825 31.1778 19.4593 31.1379 18.7757 31.3165C18.0921 31.4951 17.4831 31.883 17.036 32.4248C16.5888 32.9665 16.3263 33.6343 16.2861 34.3325C16.246 35.0308 16.4301 35.7237 16.8123 36.3121C17.1944 36.9005 17.7549 37.3543 18.4136 37.6085C19.0723 37.8626 19.7955 37.9042 20.4795 37.7272C21.1635 37.5502 21.7734 37.1637 22.2219 36.623C22.6703 36.0823 22.9344 35.4151 22.9762 34.717L22.9818 34.5225V26.3474C22.9821 26.2997 22.9859 26.252 22.993 26.2049C23.0863 24.8057 23.7141 23.494 24.7491 22.5357C25.784 21.5774 27.1487 21.0444 28.5663 21.0446ZM31.917 29.6616C32.0648 29.66 32.2114 29.6873 32.3483 29.7421C32.4853 29.7969 32.6099 29.878 32.715 29.9807C32.8201 30.0835 32.9035 30.2058 32.9604 30.3406C33.0173 30.4755 33.0466 30.6202 33.0466 30.7663C33.0466 30.9125 33.0173 31.0571 32.9604 31.192C32.9035 31.3268 32.8201 31.4492 32.715 31.5519C32.6099 31.6547 32.4853 31.7358 32.3483 31.7905C32.2114 31.8453 32.0648 31.8727 31.917 31.871H27.4495C27.1555 31.8677 26.8746 31.7499 26.6679 31.543C26.4612 31.3362 26.3453 31.0571 26.3453 30.7663C26.3453 30.4755 26.4612 30.1964 26.6679 29.9896C26.8746 29.7828 27.1555 29.6649 27.4495 29.6616H31.917Z" fill="white"/>
</svg>
