<svg width="62" height="62" viewBox="0 0 62 62" fill="none" xmlns="http://www.w3.org/2000/svg">
<path d="M0 16C0 7.16344 7.16344 0 16 0H46C54.8366 0 62 7.16344 62 16V46C62 54.8366 54.8366 62 46 62H16C7.16344 62 0 54.8366 0 46V16Z" fill="#21A665"/>
<g filter="url(#filter0_d_11351_35296)">
<path d="M18.5001 18.5C18.5001 17.1193 19.6193 16 21.0001 16H36.0001C40.1422 16 43.5001 19.3579 43.5001 23.5V43.5C43.5001 44.8807 42.3808 46 41.0001 46H26.0001C21.8579 46 18.5001 42.6421 18.5001 38.5V18.5Z" fill="#F5FFFA"/>
<path d="M18.5001 18.5C18.5001 17.1193 19.6193 16 21.0001 16H36.0001C40.1422 16 43.5001 19.3579 43.5001 23.5V43.5C43.5001 44.8807 42.3808 46 41.0001 46H26.0001C21.8579 46 18.5001 42.6421 18.5001 38.5V18.5Z" stroke="#F5FFFA" stroke-width="3.25" stroke-linecap="round" stroke-linejoin="round"/>
<path d="M37.2212 25.0389C37.2212 25.0389 38.6088 24.4979 38.4932 25.8119C38.4547 26.353 38.1078 28.2467 37.838 30.2951L36.9129 36.3628C36.9129 36.3628 36.8358 37.2517 36.142 37.4063C35.4482 37.5609 34.4075 36.8653 34.2147 36.7107C34.0606 36.5947 31.3239 34.8556 30.3603 34.0053C30.0905 33.7734 29.7821 33.3096 30.3988 32.7686L34.446 28.9038C34.9086 28.44 35.3711 27.3578 33.4438 28.6719L28.0476 32.3434C28.0476 32.3434 27.4309 32.7299 26.2746 32.3821L23.7691 31.6091C23.7691 31.6091 22.8441 31.0294 24.4244 30.4497C28.2789 28.6332 33.0199 26.7781 37.2212 25.0389Z" fill="#21A665"/>
</g>
<defs>
<filter id="filter0_d_11351_35296" x="12.5893" y="14.375" width="36.8214" height="41.8214" filterUnits="userSpaceOnUse" color-interpolation-filters="sRGB">
<feFlood flood-opacity="0" result="BackgroundImageFix"/>
<feColorMatrix in="SourceAlpha" type="matrix" values="0 0 0 0 0 0 0 0 0 0 0 0 0 0 0 0 0 0 127 0" result="hardAlpha"/>
<feOffset dy="4.28571"/>
<feGaussianBlur stdDeviation="2.14286"/>
<feComposite in2="hardAlpha" operator="out"/>
<feColorMatrix type="matrix" values="0 0 0 0 0.103314 0 0 0 0 0.32111 0 0 0 0 0.367781 0 0 0 0.12 0"/>
<feBlend mode="normal" in2="BackgroundImageFix" result="effect1_dropShadow_11351_35296"/>
<feBlend mode="normal" in="SourceGraphic" in2="effect1_dropShadow_11351_35296" result="shape"/>
</filter>
</defs>
</svg>
