<svg width="62" height="62" viewBox="0 0 62 62" fill="none" xmlns="http://www.w3.org/2000/svg">
<path d="M0 14.5882C0 6.53137 6.53137 0 14.5882 0H47.4118C55.4686 0 62 6.53137 62 14.5882V47.4118C62 55.4686 55.4686 62 47.4118 62H14.5882C6.53137 62 0 55.4686 0 47.4118V14.5882Z" fill="#FD912C"/>
<g filter="url(#filter0_d_12450_9159)">
<path d="M18.5 18.5C18.5 17.1193 19.6193 16 21 16H36C40.1421 16 43.5 19.3579 43.5 23.5V43.5C43.5 44.8807 42.3807 46 41 46H26C21.8579 46 18.5 42.6421 18.5 38.5V18.5Z" fill="#FFF4EB"/>
<path d="M18.5 18.5C18.5 17.1193 19.6193 16 21 16H36C40.1421 16 43.5 19.3579 43.5 23.5V43.5C43.5 44.8807 42.3807 46 41 46H26C21.8579 46 18.5 42.6421 18.5 38.5V18.5Z" stroke="#FFF4EB" stroke-width="3.25" stroke-linecap="round" stroke-linejoin="round"/>
<path d="M37.2212 25.0391C37.2212 25.0391 38.6088 24.498 38.4931 25.812C38.4546 26.3531 38.1077 28.2469 37.8379 30.2952L36.9128 36.363C36.9128 36.363 36.8358 37.2519 36.1419 37.4065C35.4481 37.561 34.4074 36.8654 34.2147 36.7108C34.0605 36.5949 31.3239 34.8557 30.3602 34.0054C30.0904 33.7735 29.782 33.3097 30.3987 32.7687L34.446 28.9039C34.9085 28.4401 35.371 27.358 33.4438 28.672L28.0475 32.3436C28.0475 32.3436 27.4308 32.73 26.2745 32.3822L23.7691 31.6092C23.7691 31.6092 22.844 31.0295 24.4243 30.4498C28.2788 28.6333 33.0198 26.7782 37.2212 25.0391Z" fill="#FD912C"/>
</g>
<defs>
<filter id="filter0_d_12450_9159" x="12.5893" y="14.375" width="36.8214" height="41.8214" filterUnits="userSpaceOnUse" color-interpolation-filters="sRGB">
<feFlood flood-opacity="0" result="BackgroundImageFix"/>
<feColorMatrix in="SourceAlpha" type="matrix" values="0 0 0 0 0 0 0 0 0 0 0 0 0 0 0 0 0 0 127 0" result="hardAlpha"/>
<feOffset dy="4.28571"/>
<feGaussianBlur stdDeviation="2.14286"/>
<feComposite in2="hardAlpha" operator="out"/>
<feColorMatrix type="matrix" values="0 0 0 0 0.103314 0 0 0 0 0.32111 0 0 0 0 0.367781 0 0 0 0.12 0"/>
<feBlend mode="normal" in2="BackgroundImageFix" result="effect1_dropShadow_12450_9159"/>
<feBlend mode="normal" in="SourceGraphic" in2="effect1_dropShadow_12450_9159" result="shape"/>
</filter>
</defs>
</svg>
