<svg width="62" height="62" viewBox="0 0 62 62" fill="none" xmlns="http://www.w3.org/2000/svg">
<path d="M0 16C0 7.16344 7.16344 0 16 0H46C54.8366 0 62 7.16344 62 16V46C62 54.8366 54.8366 62 46 62H16C7.16344 62 0 54.8366 0 46V16Z" fill="#6524FC"/>
<path d="M47.6699 15.165C48.5904 15.165 49.3369 15.9116 49.3369 16.832V41.832C49.3367 42.7524 48.5903 43.498 47.6699 43.498H35.8604L32.1816 47.1768C31.5308 47.8276 30.4761 47.8275 29.8252 47.1768L26.1465 43.498H14.3369C13.4165 43.498 12.6701 42.7524 12.6699 41.832V16.832C12.6699 15.9116 13.4164 15.165 14.3369 15.165H47.6699ZM21.665 32.709C20.7676 32.709 20.04 33.4365 20.04 34.334C20.0402 35.2313 20.7677 35.959 21.665 35.959H28.665C29.5624 35.959 30.2899 35.2313 30.29 34.334C30.29 33.4365 29.5625 32.709 28.665 32.709H21.665ZM21.665 23.041C20.7677 23.041 20.0402 23.7687 20.04 24.666C20.04 25.5635 20.7676 26.291 21.665 26.291H28.665C29.5625 26.291 30.29 25.5635 30.29 24.666C30.2899 23.7687 29.5624 23.041 28.665 23.041H21.665Z" fill="#F1EBFF"/>
<path d="M33.6014 21.8402C33.9668 21.0919 35.0332 21.0919 35.3986 21.8402L37.4661 26.0741C37.5638 26.2743 37.7257 26.4362 37.9259 26.5339L42.1598 28.6014C42.9081 28.9668 42.9081 30.0332 42.1598 30.3986L37.9259 32.4661C37.7257 32.5638 37.5638 32.7257 37.4661 32.9259L35.3986 37.1598C35.0332 37.9081 33.9668 37.9081 33.6014 37.1598L31.5339 32.9259C31.4362 32.7257 31.2743 32.5638 31.0741 32.4661L26.8402 30.3986C26.0919 30.0332 26.0919 28.9668 26.8402 28.6014L31.0741 26.5339C31.2743 26.4362 31.4362 26.2743 31.5339 26.0741L33.6014 21.8402Z" fill="#6524FC"/>
</svg>
