<svg fill="none" xmlns="http://www.w3.org/2000/svg" viewBox="0 0 16 16" class="design-iconfont">
  <path d="M8 3H14" stroke="#262626" stroke-width="1.3" stroke-linecap="round" stroke-linejoin="round"/>
  <path d="M8 9.66797H14" stroke="#262626" stroke-width="1.3" stroke-linecap="round" stroke-linejoin="round"/>
  <path d="M8 6.33398H12" stroke="#262626" stroke-width="1.3" stroke-linecap="round" stroke-linejoin="round"/>
  <path d="M8 13.002H12" stroke="#262626" stroke-width="1.3" stroke-linecap="round" stroke-linejoin="round"/>
  <path d="M4.00004 6.33333C4.92052 6.33333 5.66671 5.58714 5.66671 4.66667C5.66671 3.74619 4.92052 3 4.00004 3C3.07957 3 2.33337 3.74619 2.33337 4.66667C2.33337 5.58714 3.07957 6.33333 4.00004 6.33333Z" stroke="#262626" stroke-width="1.3" stroke-linecap="round" stroke-linejoin="round"/>
  <path d="M4.00004 13.0013C4.92052 13.0013 5.66671 12.2551 5.66671 11.3346C5.66671 10.4142 4.92052 9.66797 4.00004 9.66797C3.07957 9.66797 2.33337 10.4142 2.33337 11.3346C2.33337 12.2551 3.07957 13.0013 4.00004 13.0013Z" stroke="#262626" stroke-width="1.3" stroke-linecap="round" stroke-linejoin="round"/>
</svg>
