<svg fill="none" xmlns="http://www.w3.org/2000/svg" viewBox="0 0 16 16" class="design-iconfont">
  <g clip-path="url(#th7fnrc0e__clip0_13449_15833)">
    <path d="M13.0181 1.14355C13.2761 1.1459 13.5231 1.2501 13.7046 1.43359C13.886 1.61702 13.9873 1.86509 13.9868 2.12305V13.4531C13.9852 13.6242 13.9307 13.7909 13.8306 13.9297C13.7304 14.0684 13.5892 14.1721 13.4272 14.2275L11.9028 14.8047C11.7998 14.8428 11.6903 14.8597 11.5806 14.8545C11.4706 14.8493 11.3623 14.8223 11.2632 14.7744L10.1743 14.2344C10.066 14.1839 9.94807 14.1572 9.82861 14.1572C9.709 14.1572 9.59032 14.1838 9.48193 14.2344L8.3374 14.7588C8.22939 14.8093 8.11095 14.8359 7.9917 14.8359C7.87261 14.8359 7.75484 14.8093 7.64697 14.7588L6.57373 14.2451C6.46808 14.1948 6.35285 14.1673 6.23584 14.165C6.11881 14.1628 6.00256 14.1862 5.89502 14.2324L4.62549 14.79C4.42938 14.8757 4.20742 14.8806 4.00732 14.8047L2.53955 14.2324C2.38424 14.1722 2.25075 14.0662 2.15674 13.9287C2.06276 13.7912 2.01297 13.6284 2.01318 13.4619V2.12305C2.01329 1.86492 2.11469 1.61695 2.29639 1.43359C2.47823 1.25012 2.72557 1.14585 2.98389 1.14355H13.0181Z" fill="currentColor"/>
    <path d="M10.189 6.30477H9.50927L10.6138 5.20368C10.6866 5.13125 10.7383 5.04042 10.7632 4.94093C10.7882 4.84145 10.7855 4.73708 10.7554 4.63901C10.7287 4.53718 10.6752 4.44429 10.6006 4.36986C10.5259 4.29543 10.4327 4.24216 10.3306 4.21551C10.232 4.18851 10.128 4.18731 10.0288 4.21204C9.92958 4.23677 9.83843 4.28658 9.76416 4.35668L8.03657 6.02244L6.33729 4.35668C6.26302 4.28658 6.17187 4.23677 6.07265 4.21204C5.97343 4.18731 5.86949 4.18851 5.77087 4.21551C5.66872 4.24216 5.57554 4.29543 5.50088 4.36986C5.42622 4.44429 5.37278 4.53718 5.34605 4.63901C5.316 4.73708 5.3133 4.84145 5.33825 4.94093C5.3632 5.04042 5.41485 5.13125 5.48766 5.20368L6.59218 6.30477H5.91248C5.82554 6.28552 5.73537 6.28597 5.64862 6.3061C5.56188 6.32623 5.48078 6.36552 5.41131 6.42107C5.34184 6.47663 5.28577 6.54703 5.24725 6.62708C5.20872 6.70712 5.18872 6.79477 5.18872 6.88356C5.18872 6.97234 5.20872 7.05999 5.24725 7.14004C5.28577 7.22008 5.34184 7.29048 5.41131 7.34604C5.48078 7.4016 5.56188 7.44089 5.64862 7.46102C5.73537 7.48115 5.82554 7.4816 5.91248 7.46234H7.47014V8.05524H6.25233C6.16539 8.03598 6.07522 8.03643 5.98848 8.05656C5.90174 8.07669 5.82064 8.11598 5.75117 8.17154C5.6817 8.22709 5.62563 8.29749 5.5871 8.37754C5.54858 8.45758 5.52858 8.54523 5.52858 8.63402C5.52858 8.7228 5.54858 8.81045 5.5871 8.8905C5.62563 8.97055 5.6817 9.04095 5.75117 9.0965C5.82064 9.15206 5.90174 9.19135 5.98848 9.21148C6.07522 9.23161 6.16539 9.23206 6.25233 9.2128H7.44182V10.1163C7.44182 10.2735 7.50448 10.4243 7.61602 10.5355C7.72755 10.6467 7.87883 10.7092 8.03657 10.7092C8.1943 10.7092 8.34558 10.6467 8.45711 10.5355C8.56865 10.4243 8.63131 10.2735 8.63131 10.1163V9.2128H9.76416C9.8511 9.23206 9.94127 9.23161 10.028 9.21148C10.1148 9.19135 10.1959 9.15206 10.2653 9.0965C10.3348 9.04095 10.3909 8.97055 10.4294 8.8905C10.4679 8.81045 10.4879 8.7228 10.4879 8.63402C10.4879 8.54523 10.4679 8.45758 10.4294 8.37754C10.3909 8.29749 10.3348 8.22709 10.2653 8.17154C10.1959 8.11598 10.1148 8.07669 10.028 8.05656C9.94127 8.03643 9.8511 8.03598 9.76416 8.05524H8.65963V7.46234H10.2173C10.375 7.46234 10.5263 7.39987 10.6378 7.28868C10.7494 7.17749 10.812 7.02669 10.812 6.86944C10.8084 6.79155 10.7894 6.71514 10.7561 6.64458C10.7228 6.57403 10.6759 6.51071 10.618 6.45826C10.5601 6.40581 10.4924 6.36525 10.4188 6.33892C10.3452 6.31258 10.2671 6.30098 10.189 6.30477Z" fill="#fff"/>
  </g>
  <defs>
    <clipPath id="th7fnrc0e__clip0_13449_15833">
      <path fill="#fff" d="M0 0H16V16H0z"/>
    </clipPath>
  </defs>
</svg>
