<svg fill="none" xmlns="http://www.w3.org/2000/svg" viewBox="0 0 24 24" class="design-iconfont">
  <path d="M13.782 0L21.6364 7.99968V21.1997C21.6364 22.7465 20.406 24 18.8874 24H4.7492C3.2306 24 2 22.7454 2 21.1997V2.80032C2.00012 1.25352 3.23072 0 4.74932 0H13.782Z" fill="#E94848"/>
  <path d="M21.6374 7.99968H16.6706C15.1531 7.99968 13.783 6.6054 13.783 5.05848V0L21.6374 7.99968Z" fill="#fff" fill-opacity=".4"/>
  <path d="M11.3192 8.80078C11.0684 8.80423 10.8292 8.90658 10.6535 9.08555C10.4778 9.26453 10.3799 9.50566 10.3811 9.75646C10.3811 10.4077 10.7366 11.2172 11.1119 11.9777C10.8174 12.9113 10.4857 13.9106 10.0614 14.7551C9.19198 15.1019 8.41617 15.3605 7.95057 15.7434C7.85784 15.835 7.78438 15.9443 7.73451 16.0647C7.68463 16.1852 7.65936 16.3144 7.66018 16.4448C7.66018 16.9685 8.08354 17.4005 8.59858 17.4005C8.72698 17.4022 8.85433 17.3771 8.97247 17.3268C9.09061 17.2764 9.19693 17.202 9.28462 17.1081C9.62722 16.6903 10.032 15.9332 10.3931 15.2415C11.2232 14.9088 12.0948 14.5695 12.9348 14.3667C13.548 14.8695 14.436 15.2023 15.1657 15.2023C15.6806 15.2023 16.104 14.7714 16.104 14.2466C16.1049 13.996 16.0068 13.7552 15.8311 13.5764C15.6554 13.3977 15.4163 13.2956 15.1657 13.2921C14.58 13.2921 13.7291 13.5048 13.0789 13.7285C12.5311 13.204 12.0714 12.5948 11.7174 11.9241C11.9672 11.1429 12.2574 10.3619 12.2574 9.75646C12.2586 9.50566 12.1607 9.26453 11.985 9.08555C11.8093 8.90658 11.57 8.80423 11.3192 8.80078ZM11.3192 9.37354C11.5297 9.37354 11.6945 9.54154 11.6945 9.75538C11.6945 10.0422 11.544 10.5714 11.3694 11.1386C11.136 10.5866 10.944 10.0565 10.944 9.75646C10.944 9.54166 11.1086 9.37462 11.3192 9.37462V9.37354ZM11.4806 12.6441C11.7599 13.0971 12.0861 13.5195 12.4538 13.9041C11.8974 14.0589 11.3541 14.2575 10.8174 14.4648C11.0771 13.8703 11.2842 13.2517 11.4806 12.6431V12.6441ZM15.1658 13.8659C15.3763 13.8659 15.5411 14.0328 15.5411 14.2477C15.5411 14.4615 15.3763 14.6295 15.1657 14.6295C14.7425 14.6295 14.1425 14.4354 13.6614 14.1637C14.2134 14.0045 14.8146 13.8649 15.1657 13.8649V13.8659H15.1658ZM9.56602 15.5765C9.30202 16.0565 9.04018 16.5037 8.85682 16.7285C8.82254 16.7614 8.78199 16.787 8.73757 16.8039C8.69316 16.8207 8.64581 16.8285 8.59834 16.8266C8.54846 16.8268 8.49905 16.817 8.45302 16.7977C8.40699 16.7785 8.36527 16.7503 8.33031 16.7147C8.29535 16.6791 8.26785 16.6369 8.24944 16.5906C8.23103 16.5442 8.22207 16.4947 8.2231 16.4448C8.22382 16.3472 8.25898 16.2529 8.32234 16.1786C8.54266 16.0052 9.02158 15.7968 9.56602 15.5765Z" fill="#fff"/>
</svg>
