<svg fill="none" xmlns="http://www.w3.org/2000/svg" viewBox="0 0 24 24" class="design-iconfont">
  <path d="M13.782 0L21.6364 7.99968V21.1997C21.6364 22.7465 20.406 24 18.8874 24H4.7492C3.2306 24 2 22.7454 2 21.1997V2.80032C2.00012 1.25352 3.23072 0 4.74932 0H13.782Z" fill="#FD7541"/>
  <path opacity=".4" d="M9.73307 10.5801C7.72139 10.5801 6.09155 12.2404 6.09155 14.2881C6.09155 16.3356 7.72247 17.9961 9.73307 17.9961C11.7436 17.9961 13.3745 16.3356 13.3745 14.2869H9.73319L9.73307 10.5801Z" fill="#fff"/>
  <path d="M10.3004 10V13.7092H13.9407C13.9407 11.6604 12.3109 10 10.2993 10H10.3004V10Z" fill="#fff"/>
  <path d="M21.6345 7.99968H16.6677C15.1502 7.99968 13.78 6.6054 13.78 5.05848V0L21.6345 7.99968V7.99968Z" fill="#fff" fill-opacity=".4"/>
</svg>
