<svg width="20" height="20" viewBox="0 0 20 20" fill="none" xmlns="http://www.w3.org/2000/svg">
<rect width="20" height="20" rx="6" fill="#2469F1"/>
<path d="M9.99992 15.4166C11.4957 15.4166 12.8498 14.8104 13.8301 13.8301C14.8103 12.8499 15.4166 11.4957 15.4166 9.99998C15.4166 8.50422 14.8103 7.15005 13.8301 6.16982C12.8498 5.18959 11.4957 4.58331 9.99992 4.58331C8.50416 4.58331 7.14999 5.18959 6.16976 6.16982C5.18953 7.15005 4.58325 8.50422 4.58325 9.99998C4.58325 11.4957 5.18953 12.8499 6.16976 13.8301C7.14999 14.8104 8.50416 15.4166 9.99992 15.4166Z" fill="white" stroke="white" stroke-width="1.08333" stroke-linejoin="round"/>
<path d="M10 11.2525V10.1692C10.8975 10.1692 11.625 9.44165 11.625 8.54419C11.625 7.64673 10.8975 6.91919 10 6.91919C9.10254 6.91919 8.375 7.64673 8.375 8.54419" stroke="#2475FC" stroke-width="1.08333" stroke-linecap="round" stroke-linejoin="round"/>
<path fill-rule="evenodd" clip-rule="evenodd" d="M10.0001 13.69C10.374 13.69 10.6772 13.3869 10.6772 13.013C10.6772 12.639 10.374 12.3359 10.0001 12.3359C9.62614 12.3359 9.323 12.639 9.323 13.013C9.323 13.3869 9.62614 13.69 10.0001 13.69Z" fill="#2475FC"/>
</svg>
