<svg fill="none" xmlns="http://www.w3.org/2000/svg" viewBox="0 0 16 16" class="design-iconfont">
  <g clip-path="url(#1w20r4uhu__clip0_1582_11917)" stroke="#262626" stroke-width="1.3" stroke-linejoin="round">
    <path d="M8.00004 14.6654C11.6819 14.6654 14.6667 11.6806 14.6667 7.9987C14.6667 4.3168 11.6819 1.33203 8.00004 1.33203C4.31814 1.33203 1.33337 4.3168 1.33337 7.9987C1.33337 8.9026 1.51326 9.7645 1.8392 10.5505C2.00748 10.9563 2.21469 11.3419 2.45618 11.7027C2.53723 11.8237 2.38518 12.5891 2.00004 13.9987C3.40967 13.6136 4.17501 13.4615 4.29607 13.5426C4.65681 13.784 5.04241 13.9913 5.44824 14.1595C6.23424 14.4855 7.09614 14.6654 8.00004 14.6654Z"/>
    <path d="M5.53479 6.60547H11.1279" stroke-linecap="round"/>
    <path d="M7.28227 5.24609L6.31104 10.7542" stroke-linecap="round"/>
    <path d="M9.61552 5.24609L8.64429 10.7542" stroke-linecap="round"/>
    <path d="M4.86816 9.33203H10.4613" stroke-linecap="round"/>
  </g>
  <defs>
    <clipPath id="1w20r4uhu__clip0_1582_11917">
      <path fill="#fff" d="M0 0H16V16H0z"/>
    </clipPath>
  </defs>
</svg>
