<svg fill="none" xmlns="http://www.w3.org/2000/svg" viewBox="0 0 16 16" class="design-iconfont">
  <path d="M14.668 1.66406C15.0362 1.66406 15.335 1.96286 15.335 2.33105V12.3311C15.3348 12.6991 15.036 12.9971 14.668 12.9971H9.94434L8.47266 14.4688C8.21236 14.729 7.79064 14.7289 7.53027 14.4688L6.05859 12.9971H1.33496C0.96688 12.9971 0.668144 12.6991 0.667969 12.3311V2.33105C0.667969 1.96286 0.966771 1.66406 1.33496 1.66406H14.668ZM10.6299 4.95605C10.5668 4.97162 10.508 5.0007 10.457 5.04102C9.85104 5.40686 9.34913 5.92335 9.00098 6.54102C8.65281 7.15876 8.46986 7.85673 8.46973 8.56641H8.45117C8.4512 8.83756 8.53156 9.10263 8.68164 9.32812C8.83187 9.55372 9.04607 9.73016 9.2959 9.83398C9.54544 9.93757 9.82008 9.96488 10.085 9.91211C10.3501 9.85918 10.594 9.72796 10.7852 9.53613C10.9763 9.34433 11.1064 9.10002 11.1592 8.83398C11.2119 8.56788 11.1855 8.29168 11.082 8.04102C10.9785 7.79041 10.8029 7.57649 10.5781 7.42578C10.3533 7.27505 10.0888 7.19434 9.81836 7.19434H9.66797C9.93866 6.6239 10.3716 6.14631 10.9121 5.82227C10.9722 5.7974 11.0268 5.76048 11.0713 5.71289C11.1158 5.66517 11.1501 5.60784 11.1709 5.5459C11.1916 5.48408 11.199 5.41841 11.1924 5.35352C11.1858 5.28848 11.1647 5.22538 11.1318 5.16895C11.099 5.1126 11.0541 5.064 11.001 5.02637C10.9478 4.98878 10.8872 4.96234 10.8232 4.9502C10.7593 4.9381 10.6931 4.94054 10.6299 4.95605ZM6.98438 4.95117C6.92112 4.96672 6.8617 4.99569 6.81055 5.03613C6.20391 5.4024 5.70168 5.92051 5.35352 6.53906C5.0055 7.15755 4.82357 7.85615 4.82422 8.56641L4.80566 8.56152C4.80566 8.83284 4.8859 9.09863 5.03613 9.32422C5.18633 9.54961 5.39977 9.72532 5.64941 9.8291C5.89922 9.93292 6.17426 9.96014 6.43945 9.90723C6.70466 9.8543 6.94844 9.7231 7.13965 9.53125C7.3307 9.33944 7.46094 9.09507 7.51367 8.8291C7.56636 8.56314 7.53893 8.28765 7.43555 8.03711C7.33208 7.78649 7.1574 7.57163 6.93262 7.4209C6.70781 7.27018 6.44323 7.18947 6.17285 7.18945H6.02246C6.29316 6.6192 6.72619 6.14233 7.2666 5.81836C7.32684 5.79345 7.38125 5.75572 7.42578 5.70801C7.47028 5.66031 7.5036 5.60293 7.52441 5.54102C7.54515 5.47917 7.55252 5.41355 7.5459 5.34863C7.53925 5.28367 7.51919 5.22044 7.48633 5.16406C7.45345 5.10775 7.40862 5.05911 7.35547 5.02148C7.30231 4.98389 7.24164 4.95845 7.17773 4.94629C7.11372 4.93413 7.04766 4.93563 6.98438 4.95117Z" fill="currentColor"/>
</svg>
