<svg width="16" height="16" viewBox="0 0 16 16" fill="none" xmlns="http://www.w3.org/2000/svg">
<path fill-rule="evenodd" clip-rule="evenodd" d="M1.33333 1.33301C0.965141 1.33301 0.666664 1.63148 0.666664 1.99967V11.9997C0.666664 12.3679 0.965141 12.6663 1.33333 12.6663H6.05719L7.52859 14.1377C7.78894 14.3981 8.21105 14.3981 8.4714 14.1377L9.94281 12.6663H14.6667C15.0349 12.6663 15.3333 12.3679 15.3333 11.9997V1.99967C15.3333 1.63148 15.0349 1.33301 14.6667 1.33301H1.33333ZM8 3.83301C8.36819 3.83301 8.66667 4.13148 8.66667 4.49967V7.83301C8.66667 8.2012 8.36819 8.49967 8 8.49967C7.63181 8.49967 7.33333 8.2012 7.33333 7.83301V4.49967C7.33333 4.13148 7.63181 3.83301 8 3.83301ZM8.83333 10.3328C8.83333 10.7931 8.46023 11.1662 8 11.1662C7.53976 11.1662 7.16666 10.7931 7.16666 10.3328C7.16666 9.87261 7.53976 9.49951 8 9.49951C8.46023 9.49951 8.83333 9.87261 8.83333 10.3328Z" fill="currentColor"/>
</svg>
