<svg fill="none" xmlns="http://www.w3.org/2000/svg" viewBox="0 0 20 20" class="design-iconfont">
  <rect width="20" height="20" rx="6" fill="#2469F1"/>
  <path d="M8.25 4.75H5.33333C5.01117 4.75 4.75 5.01117 4.75 5.33333V8.25C4.75 8.57218 5.01117 8.83333 5.33333 8.83333H8.25C8.57218 8.83333 8.83333 8.57218 8.83333 8.25V5.33333C8.83333 5.01117 8.57218 4.75 8.25 4.75Z" fill="#fff" stroke="#fff" stroke-width="1.16667" stroke-linejoin="round"/>
  <path d="M8.25 11.1667H5.33333C5.01117 11.1667 4.75 11.4279 4.75 11.7501V14.6667C4.75 14.9889 5.01117 15.2501 5.33333 15.2501H8.25C8.57218 15.2501 8.83333 14.9889 8.83333 14.6667V11.7501C8.83333 11.4279 8.57218 11.1667 8.25 11.1667Z" fill="#fff" stroke="#fff" stroke-width="1.16667" stroke-linejoin="round"/>
  <path d="M14.6665 4.75H11.7498C11.4277 4.75 11.1665 5.01117 11.1665 5.33333V8.25C11.1665 8.57218 11.4277 8.83333 11.7498 8.83333H14.6665C14.9887 8.83333 15.2498 8.57218 15.2498 8.25V5.33333C15.2498 5.01117 14.9887 4.75 14.6665 4.75Z" fill="#fff" stroke="#fff" stroke-width="1.16667" stroke-linejoin="round"/>
  <path d="M14.6665 11.1667H11.7498C11.4277 11.1667 11.1665 11.4279 11.1665 11.7501V14.6667C11.1665 14.9889 11.4277 15.2501 11.7498 15.2501H14.6665C14.9887 15.2501 15.2498 14.9889 15.2498 14.6667V11.7501C15.2498 11.4279 14.9887 11.1667 14.6665 11.1667Z" fill="#fff" stroke="#fff" stroke-width="1.16667" stroke-linejoin="round"/>
</svg>
