<svg fill="none" xmlns="http://www.w3.org/2000/svg" viewBox="0 0 16 16" class="design-iconfont">
  <path d="M13.9999 2.66797H1.99992C1.63173 2.66797 1.33325 2.96645 1.33325 3.33464V12.668C1.33325 13.0362 1.63173 13.3346 1.99992 13.3346H13.9999C14.3681 13.3346 14.6666 13.0362 14.6666 12.668V3.33464C14.6666 2.96645 14.3681 2.66797 13.9999 2.66797Z" stroke="#262626" stroke-width="1.3" stroke-linecap="round" stroke-linejoin="round"/>
  <path d="M1.33325 3.33464C1.33325 2.96645 1.63173 2.66797 1.99992 2.66797H13.9999C14.3681 2.66797 14.6666 2.96645 14.6666 3.33464V5.33464H1.33325V3.33464Z" stroke="#262626" stroke-width="1.3" stroke-linecap="round" stroke-linejoin="round"/>
  <path d="M8.33341 7.66797L7.66675 11.3346" stroke="#262626" stroke-width="1.3" stroke-linecap="round"/>
  <path d="M10.3333 7.66797L12.3333 9.33464L10.3333 11.3346" stroke="#262626" stroke-width="1.3" stroke-linecap="round" stroke-linejoin="round"/>
  <path d="M5.66675 7.66797L3.66675 9.33464L5.66675 11.3346" stroke="#262626" stroke-width="1.3" stroke-linecap="round" stroke-linejoin="round"/>
</svg>
