<svg width="14" height="14" viewBox="0 0 14 14" fill="none" xmlns="http://www.w3.org/2000/svg">
<path d="M11.1763 2.07461C9.70446 0.602734 7.30758 0.602734 5.83727 2.07461L1.75915 6.14961C1.73258 6.17617 1.71852 6.21211 1.71852 6.24961C1.71852 6.28711 1.73258 6.32305 1.75915 6.34961L2.33571 6.92617C2.36206 6.95241 2.39774 6.96714 2.43493 6.96714C2.47212 6.96714 2.50779 6.95241 2.53415 6.92617L6.61227 2.85117C7.11852 2.34492 7.79196 2.0668 8.50758 2.0668C9.22321 2.0668 9.89665 2.34492 10.4013 2.85117C10.9076 3.35742 11.1857 4.03086 11.1857 4.74492C11.1857 5.46055 10.9076 6.13242 10.4013 6.63867L6.24508 10.7934L5.57165 11.4668C4.94196 12.0965 3.91852 12.0965 3.28883 11.4668C2.98415 11.1621 2.81696 10.7574 2.81696 10.3262C2.81696 9.89492 2.98415 9.49024 3.28883 9.18555L7.41227 5.06367C7.51696 4.96055 7.65446 4.90273 7.80133 4.90273H7.8029C7.94977 4.90273 8.08571 4.96055 8.18883 5.06367C8.29352 5.16836 8.34977 5.30586 8.34977 5.45273C8.34977 5.59805 8.29196 5.73555 8.18883 5.83867L4.81852 9.20586C4.79196 9.23242 4.7779 9.26836 4.7779 9.30586C4.7779 9.34336 4.79196 9.3793 4.81852 9.40586L5.39508 9.98242C5.42144 10.0087 5.45711 10.0234 5.4943 10.0234C5.53149 10.0234 5.56717 10.0087 5.59352 9.98242L8.96227 6.61367C9.27321 6.30273 9.44352 5.89023 9.44352 5.45117C9.44352 5.01211 9.27165 4.59805 8.96227 4.28867C8.32008 3.64648 7.27633 3.64805 6.63415 4.28867L6.23415 4.69023L2.51227 8.41055C2.25966 8.66167 2.05942 8.96045 1.92317 9.28956C1.78691 9.61866 1.71735 9.97154 1.71852 10.3277C1.71852 11.0512 2.00133 11.7309 2.51227 12.2418C3.04196 12.7699 3.73571 13.034 4.42946 13.034C5.12321 13.034 5.81696 12.7699 6.34508 12.2418L11.1763 7.41367C11.8873 6.70117 12.281 5.75273 12.281 4.74492C12.2826 3.73555 11.8888 2.78711 11.1763 2.07461Z" fill="#164799"/>
</svg>
