<svg width="40" height="20" viewBox="0 0 40 20" fill="none" xmlns="http://www.w3.org/2000/svg">
<rect x="4" width="36" height="20" rx="4" fill="#FB363F"/>
<path d="M14.144 9.56V11.18H16.28V9.56H14.144ZM14.144 11.984V13.772H16.28V11.984H14.144ZM14.144 14.6V15.152H13.292V8.12C13.004 8.576 12.68 9.008 12.344 9.416L12.056 8.504C13.04 7.208 13.724 5.78 14.132 4.22L14.972 4.388C14.792 5.036 14.564 5.66 14.3 6.272H16.472C16.28 5.636 16.04 5.012 15.764 4.412L16.592 4.184C16.88 4.904 17.096 5.552 17.252 6.152L16.928 6.272H19.22V7.112H17.132V8.744H18.98V9.56H17.132V11.18H18.98V11.984H17.132V13.772H19.352V14.6H14.144ZM16.28 7.112H14.144V8.744H16.28V7.112ZM12.188 9.14V10.016C11.828 10.196 11.456 10.364 11.072 10.52V13.988C11.072 14.66 10.712 15.008 10.004 15.008H8.9L8.72 14.168C9.056 14.204 9.392 14.228 9.704 14.228C10.028 14.228 10.196 14.072 10.196 13.76V10.868C9.704 11.036 9.2 11.204 8.696 11.348L8.48 10.484C9.068 10.352 9.644 10.184 10.196 9.992V7.232H8.66V6.392H10.196V4.172H11.072V6.392H12.284V7.232H11.072V9.656C11.456 9.488 11.828 9.32 12.188 9.14ZM20.804 5.072H23.528V4.208H24.416V5.072H27.584V4.208H28.472V5.072H31.196V5.864H28.472V6.74H27.584V5.864H24.416V6.728H23.528V5.864H20.804V5.072ZM20.96 7.544H24.344C24.488 7.232 24.62 6.932 24.74 6.632L25.58 6.776C25.484 7.04 25.376 7.292 25.28 7.544H31.136V8.336H24.884C24.524 8.972 24.092 9.572 23.6 10.136V15.224H22.772V10.976C22.268 11.432 21.716 11.852 21.116 12.26L20.576 11.564C22.004 10.628 23.108 9.548 23.888 8.336H20.96V7.544ZM27.752 11.024C28.184 10.76 28.676 10.436 29.252 10.052H25.304V9.26H30.476V9.884C29.924 10.316 29.3 10.784 28.616 11.264V11.768H31.256V12.584H28.616V14.204C28.616 14.852 28.292 15.176 27.656 15.176H26.252L26 14.336C26.552 14.372 26.996 14.396 27.308 14.396C27.596 14.396 27.752 14.252 27.752 13.964V12.584H24.44V11.768H27.752V11.024Z" fill="white"/>
<path d="M0.5 10.4256C-0.166667 10.0407 -0.166667 9.07844 0.5 8.69354L7.33935 4.74484C8.00602 4.35994 8.83935 4.84107 8.83936 5.61087L8.83936 13.5083C8.83936 14.2781 8.00602 14.7592 7.33936 14.3743L0.5 10.4256Z" fill="#FB363F"/>
</svg>
