<svg fill="none" xmlns="http://www.w3.org/2000/svg" viewBox="0 0 16 16" class="design-iconfont">
  <path d="M9.45972 1.0127C9.6288 1.04415 9.77717 1.1442 9.86987 1.28906L12.075 4.73535H12.9792C13.1552 4.73541 13.3232 4.80979 13.4412 4.94043C13.5591 5.07123 13.6165 5.24668 13.5984 5.42188L12.6648 14.4443C12.6318 14.7613 12.3644 15.002 12.0457 15.002H3.95679C3.63809 15.0019 3.37064 14.7613 3.33765 14.4443L2.40405 5.42188C2.38596 5.24668 2.44332 5.07122 2.56128 4.94043C2.67924 4.80978 2.84716 4.73537 3.02319 4.73535H4.06421L8.97729 1.12305C9.11585 1.0212 9.29066 0.981301 9.45972 1.0127ZM6.16284 4.73535H10.5974L9.17944 2.51758L6.16284 4.73535Z" fill="#A1A7B2"/>
  <path d="M6.75977 8.46875V11.58" stroke="#fff" stroke-width="1.24448" stroke-linecap="round"/>
  <path d="M9.24805 8.46875V11.5792" stroke="#fff" stroke-width="1.24448" stroke-linecap="round"/>
</svg>
