<svg fill="none" xmlns="http://www.w3.org/2000/svg" viewBox="0 0 16 16" class="design-iconfont">
  <path d="M9.45776 1.01074C9.62685 1.0422 9.77522 1.14225 9.86792 1.28711L12.074 4.73438H12.9773C13.1533 4.73444 13.3213 4.80881 13.4392 4.93945C13.5572 5.07025 13.6145 5.2457 13.5964 5.4209L12.6628 14.4434C12.6299 14.7603 12.3624 15.001 12.0437 15.001H3.95483C3.63613 15.0009 3.36869 14.7603 3.33569 14.4434L2.4021 5.4209C2.38401 5.2457 2.44137 5.07025 2.55933 4.93945C2.67729 4.8088 2.84521 4.73439 3.02124 4.73438H4.0603L8.97534 1.12109C9.11389 1.01925 9.2887 0.979348 9.45776 1.01074ZM6.15991 4.73438H10.5964L9.17749 2.51562L6.15991 4.73438Z" fill="#2475FC"/>
  <path d="M6.75586 8.4668V11.5781" stroke="#fff" stroke-width="1.24448" stroke-linecap="round"/>
  <path d="M9.24414 8.4668V11.5773" stroke="#fff" stroke-width="1.24448" stroke-linecap="round"/>
</svg>
