<svg fill="none" xmlns="http://www.w3.org/2000/svg" viewBox="0 0 16 16" class="design-iconfont">
  <g clip-path="url(#bn4havt9m__clip0_1040_18972)">
    <g clip-path="url(#bn4havt9m__clip1_1040_18972)">
      <g clip-path="url(#bn4havt9m__clip2_1040_18972)" stroke-width="1.48571" stroke-linecap="round" stroke-linejoin="round">
        <path d="M1.38024 7.28139C1.49859 6.01919 1.55776 5.38809 2.21784 4.71292C2.87792 4.03776 3.60425 3.95306 5.05699 3.78366C6.00042 3.67366 7.04269 3.58789 7.99919 3.58789C8.95569 3.58789 9.99795 3.67366 10.9414 3.78366C12.3941 3.95306 13.1205 4.03776 13.7806 4.71292C14.4406 5.38809 14.4998 6.01919 14.6181 7.28139C14.648 7.59992 14.6659 7.92726 14.6659 8.25456C14.6659 8.58186 14.648 8.90919 14.6181 9.22772C14.4998 10.4899 14.4406 11.121 13.7806 11.7962C13.1205 12.4714 12.3941 12.5561 10.9414 12.7255C9.99795 12.8355 8.95569 12.9212 7.99919 12.9212C7.04269 12.9212 6.00042 12.8355 5.05699 12.7255C3.60425 12.5561 2.87792 12.4714 2.21784 11.7962C1.55776 11.121 1.49859 10.4899 1.38024 9.22772C1.35038 8.90919 1.33252 8.58186 1.33252 8.25456C1.33252 7.92726 1.35038 7.59992 1.38024 7.28139Z" fill="#2475FC" stroke="#2475FC"/>
        <path d="M10.9992 6.58789L9.33252 8.25456L10.9992 9.92122" stroke="#fff"/>
        <path d="M4.99837 6.58789L6.66504 8.25456L4.99837 9.92122" stroke="#fff"/>
        <path d="M11.4978 12.9219C11.4978 13.9693 9.9308 14.8184 7.9978 14.8184C6.06481 14.8184 4.4978 13.9693 4.4978 12.9219" stroke="#2475FC"/>
        <path d="M7.80566 3.52759V1.18164" stroke="#2475FC"/>
      </g>
    </g>
  </g>
  <defs>
    <clipPath id="bn4havt9m__clip0_1040_18972">
      <path fill="#fff" d="M0 0H16V16H0z"/>
    </clipPath>
    <clipPath id="bn4havt9m__clip1_1040_18972">
      <path fill="#fff" d="M0 0H16V16H0z"/>
    </clipPath>
    <clipPath id="bn4havt9m__clip2_1040_18972">
      <path fill="#fff" d="M0 0H16V16H0z"/>
    </clipPath>
  </defs>
</svg>
