<svg fill="none" xmlns="http://www.w3.org/2000/svg" viewBox="0 0 14 14" class="design-iconfont">
  <g clip-path="url(#pdro2wgel__clip0_1162_14774)" stroke="#8C8C8C" stroke-width="1.16667" stroke-linecap="round">
    <path d="M5.25 6.98103V2.91602C5.25 1.94952 6.0335 1.16602 7 1.16602C7.9665 1.16602 8.75 1.94952 8.75 2.91602V3.50101"/>
    <path d="M8.75 7V11.0823C8.75 12.0488 7.9665 12.8323 7 12.8323C6.0335 12.8323 5.25 12.0488 5.25 11.0823V10.4902"/>
    <path d="M6.99999 8.75H2.91203C1.94809 8.75 1.16666 7.9665 1.16666 7C1.16666 6.0335 1.94809 5.25 2.91203 5.25H3.49666"/>
    <path d="M7 5.25H11.0801C12.0484 5.25 12.8333 6.0335 12.8333 7C12.8333 7.9665 12.0484 8.75 11.0801 8.75H10.5193"/>
  </g>
  <defs>
    <clipPath id="pdro2wgel__clip0_1162_14774">
      <path fill="#fff" d="M0 0H14V14H0z"/>
    </clipPath>
  </defs>
</svg>
