<svg fill="none" xmlns="http://www.w3.org/2000/svg" viewBox="0 0 14 14" class="design-iconfont">
  <path d="M11.375 1.75H2.625C2.14175 1.75 1.75 2.14175 1.75 2.625V11.375C1.75 11.8583 2.14175 12.25 2.625 12.25H11.375C11.8583 12.25 12.25 11.8583 12.25 11.375V2.625C12.25 2.14175 11.8583 1.75 11.375 1.75Z" stroke="currentColor" stroke-width="1.3" stroke-linecap="round" stroke-linejoin="round"/>
  <path d="M5.24984 6.70573C6.05525 6.70573 6.70817 6.0528 6.70817 5.2474C6.70817 4.44199 6.05525 3.78906 5.24984 3.78906C4.44443 3.78906 3.7915 4.44199 3.7915 5.2474C3.7915 6.0528 4.44443 6.70573 5.24984 6.70573Z" stroke="currentColor" stroke-width="1.3" stroke-linecap="round" stroke-linejoin="round"/>
  <path d="M12.25 10.5026L9.04167 7.58594L6.125 10.2109L4.08333 8.46094L1.75 10.2109" stroke="currentColor" stroke-width="1.3" stroke-linecap="round" stroke-linejoin="round"/>
</svg>
