<svg fill="none" xmlns="http://www.w3.org/2000/svg" viewBox="0 0 40 40" class="design-iconfont">
  <rect width="40" height="40" rx="8" fill="#FE5019"/>
  <path d="M29.8 9.5H9.8L8 15.5112C8 17.3688 9.3 18.7896 11 18.7896C12.6 18.7896 14 17.26 14 15.5112C14 17.3688 15.3 18.7896 17 18.7896C18.6 18.7896 20 17.26 20 15.5112C20 17.3688 21.3 18.7896 23 18.7896C24.6 18.7896 26 17.26 26 15.5112C26 17.3688 27.3 18.7896 29 18.7896C30.6 18.7896 32 17.26 32 15.5112L29.8 9.5ZM26.3808 18.8992C25.5504 19.7736 24.5112 20.2104 23.2656 20.2104C22.1232 20.2104 20.9808 19.7736 20.1496 18.8984C19.3192 19.7736 18.2808 20.2104 17.0344 20.2104C15.892 20.2104 14.7496 19.7736 13.9192 18.8984C13.0888 19.7736 12.0504 20.2104 10.804 20.2104H10.596V27.5328C10.596 28.7352 11.6344 29.5 12.4656 29.5H27.5232C28.6656 29.5 29.392 28.6256 29.392 27.5328V20.2104H29.184C28.3536 20.2104 27.2112 19.7736 26.3808 18.8984V18.8992Z" fill="#FFF1EB"/>
</svg>
