<svg fill="none" xmlns="http://www.w3.org/2000/svg" viewBox="0 0 16 16" class="design-iconfont">
  <path d="M4.66732 5.0013C6.50827 5.0013 8.00065 4.25511 8.00065 3.33464C8.00065 2.41416 6.50827 1.66797 4.66732 1.66797C2.82637 1.66797 1.33398 2.41416 1.33398 3.33464C1.33398 4.25511 2.82637 5.0013 4.66732 5.0013Z" stroke="#595959" stroke-linecap="round" stroke-linejoin="round"/>
  <path d="M1.33398 3.33203C1.33398 3.33203 1.33398 4.7449 1.33398 5.66536C1.33398 6.58583 2.82637 7.33203 4.66732 7.33203C6.50825 7.33203 8.00065 6.58583 8.00065 5.66536C8.00065 5.12016 8.00065 3.33203 8.00065 3.33203" stroke="#595959" stroke-linecap="round" stroke-linejoin="round"/>
  <path d="M1.33398 5.66797C1.33398 5.66797 1.33398 7.08084 1.33398 8.0013C1.33398 8.92177 2.82637 9.66797 4.66732 9.66797C6.50825 9.66797 8.00065 8.92177 8.00065 8.0013C8.00065 7.4561 8.00065 5.66797 8.00065 5.66797" stroke="#595959" stroke-linecap="round" stroke-linejoin="round"/>
  <path d="M1.33398 8C1.33398 8 1.33398 9.41287 1.33398 10.3333C1.33398 11.2538 2.82637 12 4.66732 12C6.50825 12 8.00065 11.2538 8.00065 10.3333C8.00065 9.78813 8.00065 8 8.00065 8" stroke="#595959" stroke-linecap="round" stroke-linejoin="round"/>
  <path d="M1.33398 10.332C1.33398 10.332 1.33398 11.7449 1.33398 12.6654C1.33398 13.5858 2.82637 14.332 4.66732 14.332C6.50825 14.332 8.00065 13.5858 8.00065 12.6654C8.00065 12.1202 8.00065 10.332 8.00065 10.332" stroke="#595959" stroke-linecap="round" stroke-linejoin="round"/>
  <path d="M11.3333 9.66536C13.1743 9.66536 14.6667 8.91917 14.6667 7.9987C14.6667 7.07822 13.1743 6.33203 11.3333 6.33203C9.49238 6.33203 8 7.07822 8 7.9987C8 8.91917 9.49238 9.66536 11.3333 9.66536Z" stroke="#595959" stroke-linecap="round" stroke-linejoin="round"/>
  <path d="M8 8C8 8 8 9.41287 8 10.3333C8 11.2538 9.4924 12 11.3333 12C13.1743 12 14.6667 11.2538 14.6667 10.3333C14.6667 9.78813 14.6667 8 14.6667 8" stroke="#595959" stroke-linecap="round" stroke-linejoin="round"/>
  <path d="M8 10.332C8 10.332 8 11.7449 8 12.6654C8 13.5858 9.4924 14.332 11.3333 14.332C13.1743 14.332 14.6667 13.5858 14.6667 12.6654C14.6667 12.1202 14.6667 10.332 14.6667 10.332" stroke="#595959" stroke-linecap="round" stroke-linejoin="round"/>
</svg>
