<svg width="62" height="62" viewBox="0 0 62 62" fill="none" xmlns="http://www.w3.org/2000/svg">
<path d="M0 14.5882C0 6.53138 6.53138 0 14.5882 0H47.4118C55.4686 0 62 6.53138 62 14.5882V47.4118C62 55.4686 55.4686 62 47.4118 62H14.5882C6.53138 62 0 55.4686 0 47.4118V14.5882Z" fill="#FD562C"/>
<g filter="url(#filter0_d_11272_39157)">
<path d="M23.6429 14.7536H23.7615C24.6776 14.7681 25.5901 14.8981 26.4632 15.1689C28.0044 15.6384 29.4091 16.5268 30.5229 17.6896C31.3348 16.8229 32.3192 16.1223 33.397 15.6203C34.6041 15.057 35.9298 14.7681 37.2591 14.75H37.3812C38.0135 14.7644 38.6458 14.8186 39.2638 14.9522C40.5032 15.2086 41.6888 15.7251 42.7271 16.4546C44.3689 17.603 45.6336 19.2858 46.2731 21.1926C46.679 22.388 46.8335 23.67 46.7473 24.9304C46.6754 25.8802 46.4778 26.8263 46.1114 27.7075C45.6048 28.9065 45.0192 30.0693 44.3977 31.2105C44.2504 31.4814 43.9486 31.6547 43.6396 31.6439C43.4061 31.6511 43.2049 31.5211 42.9894 31.4489C40.9451 30.6724 38.6027 30.7302 36.598 31.6078C34.6652 32.442 33.0629 34.0165 32.1898 35.9414C31.5971 37.2342 31.3384 38.6788 31.4318 40.098C31.5072 41.2573 31.8198 42.4021 32.3479 43.4349C32.4341 43.6191 32.5635 43.7924 32.5886 44.0019C32.6461 44.3486 32.4629 44.7097 32.1647 44.8831C31.1767 45.4898 29.8474 45.4898 28.8631 44.8758C23.4669 41.1345 19.0156 36.0208 16.0588 30.1379C15.6026 29.2243 15.1643 28.2998 14.7942 27.3464C14.0937 25.3493 14.1008 23.1139 14.7942 21.1168C15.2756 19.7264 16.084 18.4516 17.1402 17.4332C18.1713 16.4221 19.4395 15.6564 20.8083 15.2159C21.7209 14.9125 22.6837 14.7681 23.6429 14.7536Z" fill="#FFEBF4"/>
<path d="M38.6971 31.5596C40.0475 31.3653 41.4461 31.5197 42.7157 32.0186C43.611 32.3671 44.4365 32.8848 45.1483 33.5303C46.0546 34.3557 46.7663 35.3937 47.203 36.5381C47.7241 37.8918 47.8566 39.3921 47.5887 40.8155C47.3686 42.0151 46.8584 43.1597 46.1171 44.1319C45.4382 45.0233 44.5681 45.7719 43.5809 46.3038C42.4471 46.9199 41.1628 47.2391 39.8749 47.2501H39.7831C39.695 47.2427 39.6104 47.243 39.5223 47.2393C38.1574 47.1916 36.811 46.7731 35.6552 46.0469C34.312 45.2069 33.229 43.9518 32.6014 42.4991C32.0731 41.2812 31.8597 39.931 31.9882 38.6104C32.1056 37.3486 32.5352 36.1197 33.2323 35.0596C33.7644 34.2452 34.4511 33.5259 35.2401 32.961C36.2566 32.2201 37.4532 31.7394 38.6971 31.5596Z" fill="#FFEBE6"/>
<path d="M35.502 37.4038H44.1765" stroke="#FD562C" stroke-width="2.70814" stroke-linecap="round"/>
<path d="M35.5015 41.3247H41.4678" stroke="#FD562C" stroke-width="2.70814" stroke-linecap="round"/>
</g>
<defs>
<filter id="filter0_d_11272_39157" x="6.52632" y="11" width="48.9474" height="48.9474" filterUnits="userSpaceOnUse" color-interpolation-filters="sRGB">
<feFlood flood-opacity="0" result="BackgroundImageFix"/>
<feColorMatrix in="SourceAlpha" type="matrix" values="0 0 0 0 0 0 0 0 0 0 0 0 0 0 0 0 0 0 127 0" result="hardAlpha"/>
<feOffset dy="4.47368"/>
<feGaussianBlur stdDeviation="2.23684"/>
<feColorMatrix type="matrix" values="0 0 0 0 0.0886636 0 0 0 0 0.388241 0 0 0 0 0.413084 0 0 0 0.14 0"/>
<feBlend mode="normal" in2="BackgroundImageFix" result="effect1_dropShadow_11272_39157"/>
<feBlend mode="normal" in="SourceGraphic" in2="effect1_dropShadow_11272_39157" result="shape"/>
</filter>
</defs>
</svg>
