<svg fill="none" xmlns="http://www.w3.org/2000/svg" viewBox="0 0 62 62" class="design-iconfont">
  <path d="M0 14.5882C0 6.53137 6.53137 0 14.5882 0H47.4118C55.4686 0 62 6.53137 62 14.5882V47.4118C62 55.4686 55.4686 62 47.4118 62H14.5882C6.53137 62 0 55.4686 0 47.4118V14.5882Z" fill="#FD912C"/>
  <g filter="url(#c76kiqkt3__filter0_d_13449_2178)">
    <path d="M44.1729 13C44.8502 13.0061 45.4973 13.2801 45.9736 13.7617C46.45 14.2434 46.7173 14.8938 46.7158 15.5713V45.3115C46.7116 45.7608 46.5677 46.1982 46.3047 46.5625C46.0417 46.9267 45.6721 47.2003 45.2471 47.3457L41.2461 48.8604C40.9752 48.9606 40.6869 49.0049 40.3984 48.9912C40.1098 48.9775 39.8267 48.9059 39.5664 48.7803L36.709 47.3633C36.4246 47.2306 36.1146 47.1612 35.8008 47.1611C35.4868 47.1611 35.1761 47.2305 34.8916 47.3633L31.8857 48.7402C31.6022 48.8729 31.2925 48.9414 30.9795 48.9414C30.6666 48.9413 30.3576 48.8728 30.0742 48.7402L27.2568 47.3916C26.9793 47.2593 26.6766 47.1876 26.3691 47.1816C26.0617 47.1757 25.7561 47.2359 25.4736 47.3574L22.1416 48.8203C21.6268 49.0452 21.0438 49.0597 20.5186 48.8604L16.667 47.3574C16.2592 47.1993 15.9089 46.9206 15.6621 46.5596C15.4154 46.1985 15.2835 45.7713 15.2842 45.334V15.5713C15.2842 14.8935 15.5522 14.2432 16.0293 13.7617C16.5066 13.2801 17.155 13.0061 17.833 13H44.1729Z" fill="#fff"/>
    <path d="M36.7448 26.5487H34.9606L37.86 23.6583C38.0511 23.4682 38.1867 23.2297 38.2522 22.9686C38.3176 22.7075 38.3106 22.4335 38.2317 22.1761C38.1615 21.9088 38.0212 21.6649 37.8253 21.4695C37.6293 21.2742 37.3847 21.1343 37.1165 21.0644C36.8577 20.9935 36.5848 20.9903 36.3244 21.0553C36.0639 21.1202 35.8246 21.2509 35.6297 21.4349L31.0947 25.8076L26.6341 21.4349C26.4392 21.2509 26.1999 21.1202 25.9395 21.0553C25.679 20.9903 25.4062 20.9935 25.1473 21.0644C24.8791 21.1343 24.6345 21.2742 24.4385 21.4695C24.2426 21.6649 24.1023 21.9088 24.0321 22.1761C23.9532 22.4335 23.9462 22.7075 24.0117 22.9686C24.0771 23.2297 24.2127 23.4682 24.4038 23.6583L27.3032 26.5487H25.519C25.2908 26.4981 25.0541 26.4993 24.8264 26.5522C24.5987 26.605 24.3858 26.7081 24.2034 26.854C24.0211 26.9998 23.8739 27.1846 23.7728 27.3947C23.6716 27.6049 23.6191 27.8349 23.6191 28.068C23.6191 28.3011 23.6716 28.5311 23.7728 28.7413C23.8739 28.9514 24.0211 29.1362 24.2034 29.282C24.3858 29.4278 24.5987 29.531 24.8264 29.5838C25.0541 29.6367 25.2908 29.6378 25.519 29.5873H29.6079V31.1437H26.4111C26.1829 31.0931 25.9462 31.0943 25.7185 31.1471C25.4908 31.2 25.2779 31.3031 25.0956 31.4489C24.9132 31.5948 24.766 31.7796 24.6649 31.9897C24.5638 32.1998 24.5113 32.4299 24.5113 32.663C24.5113 32.896 24.5638 33.1261 24.6649 33.3362C24.766 33.5463 24.9132 33.7311 25.0956 33.877C25.2779 34.0228 25.4908 34.1259 25.7185 34.1788C25.9462 34.2316 26.1829 34.2328 26.4111 34.1823H29.5335V36.5539C29.5335 36.9666 29.698 37.3625 29.9908 37.6544C30.2836 37.9462 30.6807 38.1102 31.0947 38.1102C31.5088 38.1102 31.9059 37.9462 32.1987 37.6544C32.4915 37.3625 32.6559 36.9666 32.6559 36.5539V34.1823H35.6297C35.8579 34.2328 36.0946 34.2316 36.3223 34.1788C36.55 34.1259 36.7629 34.0228 36.9452 33.877C37.1276 33.7311 37.2748 33.5463 37.3759 33.3362C37.477 33.1261 37.5295 32.896 37.5295 32.663C37.5295 32.4299 37.477 32.1998 37.3759 31.9897C37.2748 31.7796 37.1276 31.5948 36.9452 31.4489C36.7629 31.3031 36.55 31.2 36.3223 31.1471C36.0946 31.0943 35.8579 31.0931 35.6297 31.1437H32.7303V29.5873H36.8192C37.2332 29.5873 37.6303 29.4233 37.9231 29.1314C38.2159 28.8396 38.3804 28.4437 38.3804 28.0309C38.3708 27.8265 38.3209 27.6259 38.2335 27.4407C38.1461 27.2555 38.023 27.0893 37.871 26.9516C37.7191 26.8139 37.5414 26.7074 37.3482 26.6383C37.1549 26.5692 36.9499 26.5387 36.7448 26.5487Z" fill="#FC912D"/>
  </g>
  <defs>
    <filter id="c76kiqkt3__filter0_d_13449_2178" x="5.625" y="10" width="50.75" height="50.75" filterUnits="userSpaceOnUse" color-interpolation-filters="sRGB">
      <feFlood flood-opacity="0" result="BackgroundImageFix"/>
      <feColorMatrix in="SourceAlpha" values="0 0 0 0 0 0 0 0 0 0 0 0 0 0 0 0 0 0 127 0" result="hardAlpha"/>
      <feOffset dy="4.375"/>
      <feGaussianBlur stdDeviation="2.1875"/>
      <feColorMatrix values="0 0 0 0 0.0886636 0 0 0 0 0.388241 0 0 0 0 0.413084 0 0 0 0.14 0"/>
      <feBlend in2="BackgroundImageFix" result="effect1_dropShadow_13449_2178"/>
      <feBlend in="SourceGraphic" in2="effect1_dropShadow_13449_2178" result="shape"/>
    </filter>
  </defs>
</svg>
