<svg width="62" height="62" viewBox="0 0 62 62" fill="none" xmlns="http://www.w3.org/2000/svg">
<path d="M0 16C0 7.16344 7.16344 0 16 0H46C54.8366 0 62 7.16344 62 16V46C62 54.8366 54.8366 62 46 62H16C7.16344 62 0 54.8366 0 46V16Z" fill="#21A665"/>
<g filter="url(#filter0_d_11272_39157)">
<path d="M23.6429 14.7536H23.7615C24.6776 14.7681 25.5901 14.8981 26.4632 15.1689C28.0044 15.6384 29.4091 16.5268 30.5229 17.6896C31.3348 16.8229 32.3192 16.1223 33.397 15.6203C34.6041 15.057 35.9298 14.7681 37.2591 14.75H37.3812C38.0135 14.7644 38.6458 14.8186 39.2638 14.9522C40.5032 15.2086 41.6888 15.7251 42.7271 16.4546C44.3689 17.603 45.6336 19.2859 46.2731 21.1926C46.679 22.388 46.8335 23.67 46.7473 24.9304C46.6754 25.8802 46.4778 26.8263 46.1114 27.7075C45.6048 28.9065 45.0192 30.0693 44.3977 31.2105C44.2504 31.4814 43.9486 31.6547 43.6396 31.6439C43.4061 31.6511 43.2049 31.5211 42.9894 31.4489C40.9451 30.6724 38.6027 30.7302 36.598 31.6078C34.6652 32.442 33.0629 34.0165 32.1898 35.9414C31.5971 37.2342 31.3384 38.6788 31.4318 40.098C31.5072 41.2573 31.8198 42.4021 32.3479 43.4349C32.4341 43.6191 32.5635 43.7924 32.5886 44.0019C32.6461 44.3486 32.4629 44.7097 32.1647 44.8831C31.1767 45.4898 29.8474 45.4898 28.8631 44.8758C23.4669 41.1345 19.0156 36.0208 16.0588 30.1379C15.6026 29.2243 15.1643 28.2998 14.7942 27.3464C14.0937 25.3493 14.1008 23.1139 14.7942 21.1168C15.2756 19.7264 16.084 18.4516 17.1402 17.4332C18.1713 16.4221 19.4395 15.6564 20.8083 15.2159C21.7209 14.9125 22.6837 14.7681 23.6429 14.7536Z" fill="#F5FFF9"/>
<path d="M38.6972 31.5596C40.0474 31.3652 41.4453 31.5198 42.7148 32.0186C43.6102 32.3671 44.4364 32.8846 45.1484 33.5303C46.0547 34.3556 46.7664 35.3936 47.2031 36.5381C47.7242 37.8917 47.8567 39.3921 47.5888 40.8154C47.3686 42.015 46.8584 43.1597 46.1171 44.1318C45.4382 45.0233 44.5682 45.7718 43.581 46.3037C42.4471 46.9199 41.1629 47.239 39.8749 47.25H39.7831C39.6951 47.2427 39.6105 47.2429 39.5224 47.2393C38.1573 47.1915 36.8102 46.7732 35.6542 46.0469C34.3112 45.2068 33.229 43.9517 32.6015 42.499C32.0731 41.2812 31.8598 39.9309 31.9882 38.6104C32.1057 37.3485 32.5352 36.1196 33.2324 35.0596C33.7645 34.2452 34.4512 33.5259 35.2402 32.9609C36.2566 32.22 37.4533 31.7393 38.6972 31.5596Z" fill="#E8FFF7"/>
<path d="M35.502 37.4038H44.1765" stroke="#21A665" stroke-width="2.70814" stroke-linecap="round"/>
<path d="M35.5015 41.3247H41.4679" stroke="#21A665" stroke-width="2.70814" stroke-linecap="round"/>
</g>
<defs>
<filter id="filter0_d_11272_39157" x="6.52632" y="11" width="48.9474" height="48.9474" filterUnits="userSpaceOnUse" color-interpolation-filters="sRGB">
<feFlood flood-opacity="0" result="BackgroundImageFix"/>
<feColorMatrix in="SourceAlpha" type="matrix" values="0 0 0 0 0 0 0 0 0 0 0 0 0 0 0 0 0 0 127 0" result="hardAlpha"/>
<feOffset dy="4.47368"/>
<feGaussianBlur stdDeviation="2.23684"/>
<feColorMatrix type="matrix" values="0 0 0 0 0.0886636 0 0 0 0 0.388241 0 0 0 0 0.413084 0 0 0 0.14 0"/>
<feBlend mode="normal" in2="BackgroundImageFix" result="effect1_dropShadow_11272_39157"/>
<feBlend mode="normal" in="SourceGraphic" in2="effect1_dropShadow_11272_39157" result="shape"/>
</filter>
</defs>
</svg>
