<svg width="62" height="62" viewBox="0 0 62 62" fill="none" xmlns="http://www.w3.org/2000/svg">
<path d="M0 14.5882C0 6.53137 6.53137 0 14.5882 0H47.4118C55.4686 0 62 6.53137 62 14.5882V47.4118C62 55.4686 55.4686 62 47.4118 62H14.5882C6.53137 62 0 55.4686 0 47.4118V14.5882Z" fill="#00BDE7"/>
<g filter="url(#filter0_d_11355_35420)">
<path d="M26.1836 29.3441H16.5414C14.8086 29.3441 13.4061 27.9416 13.4061 26.2088V20.3583C13.4061 17.4717 15.7464 15.1315 18.6329 15.1315H26.1836C27.9164 15.1315 29.3189 16.534 29.3189 18.2667V26.2088C29.323 27.9416 27.9164 29.3441 26.1836 29.3441ZM26.1836 46.5533H18.6329C15.7464 46.5533 13.4061 44.2131 13.4061 41.3266V35.476C13.4061 33.7432 14.8086 32.3407 16.5414 32.3407H26.1836C27.9164 32.3407 29.3189 33.7432 29.3189 35.476V43.4181C29.323 45.1508 27.9164 46.5533 26.1836 46.5533ZM43.3603 46.5533H35.8096C34.0768 46.5533 32.6743 45.1508 32.6743 43.4181V35.476C32.6743 33.7432 34.0768 32.3407 35.8096 32.3407H45.4518C47.1845 32.3407 48.587 33.7432 48.587 35.476V41.3266C48.5911 44.2131 46.2468 46.5533 43.3603 46.5533Z" fill="#EBFBFF"/>
<path d="M39.6883 16.2641C40.1083 15.515 41.1864 15.515 41.6063 16.2641L43.2329 19.1656C43.3319 19.3422 43.4777 19.488 43.6543 19.587L46.5558 21.2135C47.3049 21.6335 47.3049 22.7116 46.5558 23.1315L43.6543 24.7581C43.4777 24.8571 43.3319 25.0029 43.2329 25.1795L41.6063 28.081C41.1864 28.8301 40.1083 28.8301 39.6883 28.081L38.0618 25.1795C37.9628 25.0029 37.817 24.8571 37.6404 24.7581L34.7389 23.1315C33.9898 22.7116 33.9898 21.6335 34.7389 21.2135L37.6404 19.587C37.817 19.488 37.9628 19.3422 38.0618 19.1656L39.6883 16.2641Z" fill="#D1F5FF"/>
</g>
<defs>
<filter id="filter0_d_11355_35420" x="8.87109" y="15.1315" width="44.251" height="40.492" filterUnits="userSpaceOnUse" color-interpolation-filters="sRGB">
<feFlood flood-opacity="0" result="BackgroundImageFix"/>
<feColorMatrix in="SourceAlpha" type="matrix" values="0 0 0 0 0 0 0 0 0 0 0 0 0 0 0 0 0 0 127 0" result="hardAlpha"/>
<feOffset dy="4.53504"/>
<feGaussianBlur stdDeviation="2.26752"/>
<feComposite in2="hardAlpha" operator="out"/>
<feColorMatrix type="matrix" values="0 0 0 0 0.103314 0 0 0 0 0.32111 0 0 0 0 0.367781 0 0 0 0.16 0"/>
<feBlend mode="normal" in2="BackgroundImageFix" result="effect1_dropShadow_11355_35420"/>
<feBlend mode="normal" in="SourceGraphic" in2="effect1_dropShadow_11355_35420" result="shape"/>
</filter>
</defs>
</svg>
