<svg fill="none" xmlns="http://www.w3.org/2000/svg" viewBox="0 0 16 16" class="design-iconfont">
  <path d="M4.65486 4.32102C5.25434 3.72154 6.0844 3.34961 7.00008 3.34961C7.91578 3.34961 8.74584 3.72153 9.34533 4.32102C9.59917 4.57486 9.59917 4.98642 9.34533 5.24026C9.09149 5.4941 8.67993 5.4941 8.42609 5.24026C8.06045 4.87462 7.55717 4.64961 7.00008 4.64961C6.44302 4.64961 5.93974 4.87461 5.5741 5.24026C5.32026 5.4941 4.9087 5.4941 4.65486 5.24026C4.40102 4.98642 4.40102 4.57486 4.65486 4.32102Z" fill="currentColor"/>
  <path fill-rule="evenodd" clip-rule="evenodd" d="M0.68335 6.99928C0.68335 3.5107 3.51143 0.682617 7.00002 0.682617C10.4886 0.682617 13.3167 3.5107 13.3167 6.99928C13.3167 8.50963 12.7866 9.89617 11.9023 10.983L14.3619 13.4426C14.6158 13.6965 14.6158 14.108 14.3619 14.3619C14.1081 14.6157 13.6965 14.6157 13.4427 14.3619L10.983 11.9022C9.89628 12.7861 8.51002 13.316 7.00002 13.316C3.51143 13.316 0.68335 10.4879 0.68335 6.99928ZM7.00002 1.98262C4.2294 1.98262 1.98335 4.22867 1.98335 6.99928C1.98335 9.7699 4.2294 12.016 7.00002 12.016C9.77063 12.016 12.0167 9.7699 12.0167 6.99928C12.0167 4.22867 9.77063 1.98262 7.00002 1.98262Z" fill="currentColor"/>
</svg>
