<svg width="20" height="20" viewBox="0 0 20 20" fill="none" xmlns="http://www.w3.org/2000/svg">
<path d="M13.4025 10.0552C13.8243 10.0551 14.2382 10.1692 14.6002 10.3855C14.9623 10.6019 15.259 10.9122 15.4587 11.2837C15.6585 11.6551 15.7539 12.0738 15.7347 12.4951C15.727 12.6643 15.701 12.8313 15.6575 12.9935C15.5441 13.4163 15.5724 13.8988 15.8821 14.2082L16.203 14.5289C16.3856 14.7113 16.3857 15.0073 16.2031 15.1898C16.0207 15.3723 15.7248 15.3723 15.5423 15.1898L15.221 14.8685C14.9113 14.5589 14.4288 14.5306 14.0058 14.6437C13.8983 14.6725 13.7887 14.6936 13.6776 14.7067C13.3162 14.7496 12.9498 14.7074 12.6077 14.5834C12.2655 14.4595 11.9571 14.2572 11.707 13.9928C11.4569 13.7284 11.2722 13.4092 11.1674 13.0607C11.0627 12.7122 11.0409 12.344 11.1039 11.9856C11.1668 11.6271 11.3126 11.2884 11.5298 10.9964C11.747 10.7043 12.0294 10.4671 12.3546 10.3037C12.6797 10.1403 13.0386 10.0552 13.4025 10.0552ZM15.2258 4.9178L15.602 4.92153C15.6762 4.92153 15.7364 4.98172 15.7364 5.05596V8.65484C15.7364 8.91264 15.5274 9.12162 15.2696 9.12162C15.0119 9.12162 14.8029 8.91264 14.8029 8.65484V6.18651C14.8029 5.99935 14.6511 5.84762 14.464 5.84762C14.2119 5.85042 14.014 5.85696 13.7956 5.87096C12.5871 5.94755 11.6983 6.24716 11.0186 6.91103C10.7187 7.20394 10.601 7.62647 10.6011 8.04569L10.6017 9.58832C10.6018 9.84614 10.3928 10.0552 10.135 10.0552C9.87723 10.0552 9.66828 9.84624 9.66828 9.58849V7.48177C9.66828 7.42985 9.65231 7.37919 9.62254 7.33665C8.90369 6.37135 7.91785 5.96432 6.47457 5.87283C5.91744 5.83889 5.46812 6.29729 5.46803 6.85546L5.46725 11.8962C5.46706 12.2035 5.56795 12.5023 5.75437 12.7466C5.94079 12.9909 6.20239 13.167 6.49884 13.248L9.97097 14.1937C10.081 14.2237 10.1969 14.225 10.3076 14.1975L10.5029 14.1491C10.7531 14.0871 11.0062 14.2393 11.0686 14.4894C11.131 14.7396 10.9788 14.9931 10.7287 15.0556L10.248 15.1758C10.1704 15.1951 10.089 15.1941 10.0118 15.173L6.25331 14.1479C5.75938 14.0132 5.32346 13.7197 5.01272 13.3128C4.70198 12.9059 4.53366 12.4082 4.53369 11.8962V5.06063C4.53369 4.98432 4.59555 4.92246 4.67186 4.92246L5.05742 4.91873C5.77533 4.91126 6.11328 4.91406 6.53431 4.94114C8.07002 5.03823 9.23231 5.4714 10.1089 6.45631C10.1225 6.47236 10.1474 6.47217 10.1607 6.45593L10.1612 6.45537C10.9893 5.52555 12.0722 5.08677 13.4837 4.95887L13.7358 4.93927C13.972 4.92433 14.182 4.91686 14.4462 4.91406H14.7945C14.9233 4.91406 15.0652 4.91593 15.2258 4.9178ZM13.4025 10.9887C13.0311 10.9887 12.6749 11.1363 12.4123 11.3989C12.1497 11.6615 12.0022 12.0177 12.0022 12.3891C12.0022 12.7605 12.1497 13.1167 12.4123 13.3793C12.6749 13.6419 13.0311 13.7894 13.4025 13.7894C13.7739 13.7894 14.1301 13.6419 14.3927 13.3793C14.6553 13.1167 14.8029 12.7605 14.8029 12.3891C14.8029 12.0177 14.6553 11.6615 14.3927 11.3989C14.1301 11.1363 13.7739 10.9887 13.4025 10.9887Z" fill="#262626"/>
</svg>
