<svg fill="none" xmlns="http://www.w3.org/2000/svg" viewBox="0 0 16 16" class="design-iconfont">
  <path d="M7.46429 2.59282C7.64838 2.09532 8.35203 2.09532 8.53612 2.59282L9.76108 5.9032C9.81895 6.05961 9.94227 6.18293 10.0987 6.24081L13.4091 7.46576C13.9066 7.64985 13.9066 8.3535 13.4091 8.53759L10.0987 9.76254C9.94227 9.82042 9.81895 9.94374 9.76108 10.1001L8.53612 13.4105C8.35203 13.908 7.64838 13.908 7.46429 13.4105L6.23934 10.1001C6.18147 9.94374 6.05815 9.82042 5.90173 9.76254L2.59136 8.53759C2.09386 8.3535 2.09386 7.64985 2.59136 7.46576L5.90173 6.24081C6.05815 6.18293 6.18147 6.05961 6.23934 5.9032L7.46429 2.59282Z" fill="url(#m1dm4qekm__paint0_linear_8002_38157)"/>
  <path d="M12.2503 2.01351C12.3608 1.71501 12.7829 1.71501 12.8934 2.0135L13.1345 2.66504C13.1692 2.75889 13.2432 2.83288 13.3371 2.86761L13.9886 3.1087C14.2871 3.21915 14.2871 3.64134 13.9886 3.75179L13.3371 3.99288C13.2432 4.02761 13.1692 4.1016 13.1345 4.19545L12.8934 4.84699C12.7829 5.14548 12.3608 5.14548 12.2503 4.84699L12.0092 4.19545C11.9745 4.1016 11.9005 4.02761 11.8066 3.99288L11.1551 3.7518C10.8566 3.64134 10.8566 3.21915 11.1551 3.1087L11.8066 2.86761C11.9005 2.83288 11.9745 2.75889 12.0092 2.66504L12.2503 2.01351Z" fill="url(#m1dm4qekm__paint1_linear_8002_38157)"/>
  <path d="M3.10723 11.158C3.21769 10.8595 3.63988 10.8595 3.75033 11.158L3.99142 11.8096C4.02615 11.9034 4.10014 11.9774 4.19399 12.0121L4.84552 12.2532C5.14402 12.3637 5.14402 12.7859 4.84552 12.8963L4.19399 13.1374C4.10014 13.1721 4.02615 13.2461 3.99142 13.34L3.75033 13.9915C3.63988 14.29 3.21769 14.29 3.10723 13.9915L2.86614 13.34C2.83142 13.2461 2.75742 13.1721 2.66358 13.1374L2.01204 12.8963C1.71354 12.7859 1.71354 12.3637 2.01204 12.2532L2.66358 12.0121C2.75742 11.9774 2.83142 11.9034 2.86614 11.8096L3.10723 11.158Z" fill="url(#m1dm4qekm__paint2_linear_8002_38157)"/>
  <defs>
    <linearGradient id="m1dm4qekm__paint0_linear_8002_38157" x1="1.23806" y1="1.14453" x2="15.7204" y2="2.12617" gradientUnits="userSpaceOnUse">
      <stop stop-color="#2475FC"/>
      <stop offset=".52899" stop-color="#3C01FF"/>
      <stop offset="1" stop-color="#C20CFF"/>
    </linearGradient>
    <linearGradient id="m1dm4qekm__paint1_linear_8002_38157" x1="10.3178" y1="1.14453" x2="15.1452" y2="1.47174" gradientUnits="userSpaceOnUse">
      <stop stop-color="#2475FC"/>
      <stop offset=".52899" stop-color="#3C01FF"/>
      <stop offset="1" stop-color="#C20CFF"/>
    </linearGradient>
    <linearGradient id="m1dm4qekm__paint2_linear_8002_38157" x1="1.17473" y1="10.2891" x2="6.00218" y2="10.6163" gradientUnits="userSpaceOnUse">
      <stop stop-color="#2475FC"/>
      <stop offset=".52899" stop-color="#3C01FF"/>
      <stop offset="1" stop-color="#C20CFF"/>
    </linearGradient>
  </defs>
</svg>
