<svg fill="none" xmlns="http://www.w3.org/2000/svg" viewBox="0 0 16 16" class="design-iconfont">
  <path d="M3.33341 14.6673H12.6667C13.0349 14.6673 13.3334 14.3689 13.3334 14.0007V4.66732H10.0001V1.33398H3.33341C2.96522 1.33398 2.66675 1.63246 2.66675 2.00065V14.0007C2.66675 14.3689 2.96522 14.6673 3.33341 14.6673Z" stroke="currentColor" stroke-width="1.33333" stroke-linecap="round" stroke-linejoin="round"/>
  <path d="M10 1.33398L13.3333 4.66732" stroke="currentColor" stroke-width="1.33333" stroke-linecap="round" stroke-linejoin="round"/>
  <path d="M7.33325 10.666C8.43782 10.666 9.33325 9.77059 9.33325 8.66602C9.33325 7.56145 8.43782 6.66602 7.33325 6.66602C6.22868 6.66602 5.33325 7.56145 5.33325 8.66602C5.33325 9.77059 6.22868 10.666 7.33325 10.666Z" stroke="currentColor" stroke-width="1.33333"/>
  <path d="M9 10L10.6667 11.3333" stroke="currentColor" stroke-width="1.33333" stroke-linecap="round" stroke-linejoin="round"/>
</svg>
