<svg fill="none" xmlns="http://www.w3.org/2000/svg" viewBox="0 0 17 16" class="design-iconfont">
  <path d="M3.971 3.34961C4.36836 3.34961 4.7568 3.46744 5.08719 3.6882C5.41759 3.90896 5.6751 4.22274 5.82716 4.58985C5.97922 4.95697 6.01901 5.36093 5.94149 5.75065C5.86397 6.14038 5.67262 6.49836 5.39164 6.77934C5.11067 7.06032 4.75268 7.25166 4.36296 7.32918C3.97323 7.4067 3.56927 7.36692 3.20216 7.21485C2.83505 7.06279 2.52127 6.80528 2.30051 6.47489C2.07974 6.1445 1.96191 5.75606 1.96191 5.3587C1.96224 4.82595 2.17401 4.31512 2.55072 3.93842C2.92743 3.56171 3.43826 3.34993 3.971 3.34961ZM3.971 4.37985C4.1646 4.37985 4.35385 4.43726 4.51482 4.54481C4.67579 4.65237 4.80126 4.80525 4.87534 4.98411C4.94943 5.16297 4.96881 5.35978 4.93104 5.54966C4.89328 5.73954 4.80005 5.91396 4.66315 6.05085C4.52626 6.18774 4.35185 6.28097 4.16197 6.31874C3.97209 6.35651 3.77527 6.33712 3.59641 6.26304C3.41755 6.18895 3.26468 6.06349 3.15712 5.90252C3.04956 5.74155 2.99215 5.5523 2.99215 5.3587C2.99215 5.09909 3.09528 4.85012 3.27885 4.66655C3.46242 4.48298 3.7114 4.37985 3.971 4.37985Z" fill="currentColor"/>
  <path d="M13.9504 3.34766C14.3482 3.34766 14.7371 3.46563 15.0679 3.68666C15.3987 3.90769 15.6565 4.22185 15.8088 4.58941C15.961 4.95697 16.0009 5.36142 15.9233 5.75162C15.8456 6.14182 15.6541 6.50025 15.3727 6.78156C15.0914 7.06288 14.733 7.25446 14.3428 7.33208C13.9526 7.40969 13.5482 7.36986 13.1806 7.21761C12.813 7.06536 12.4989 6.80754 12.2778 6.47674C12.0568 6.14595 11.9388 5.75704 11.9388 5.35919C11.9388 4.8257 12.1508 4.31406 12.528 3.93682C12.9052 3.55959 13.4169 3.34766 13.9504 3.34766ZM13.9504 4.38034C14.144 4.38034 14.3332 4.43775 14.4942 4.54531C14.6552 4.65287 14.7806 4.80574 14.8547 4.9846C14.9288 5.16346 14.9482 5.36028 14.9104 5.55016C14.8727 5.74004 14.7794 5.91445 14.6425 6.05134C14.5056 6.18824 14.3312 6.28146 14.1413 6.31923C13.9515 6.357 13.7547 6.33762 13.5758 6.26353C13.3969 6.18944 13.2441 6.06398 13.1365 5.90301C13.0289 5.74204 12.9715 5.55279 12.9715 5.35919C12.9715 5.09959 13.0747 4.85061 13.2582 4.66704C13.4418 4.48347 13.6908 4.38034 13.9504 4.38034Z" fill="currentColor"/>
  <path d="M9.05615 11.4219C9.454 11.4219 9.84291 11.5398 10.1737 11.7609C10.5045 11.9819 10.7623 12.2961 10.9146 12.6636C11.0668 13.0312 11.1067 13.4356 11.029 13.8258C10.9514 14.216 10.7598 14.5745 10.4785 14.8558C10.1972 15.1371 9.83878 15.3287 9.44858 15.4063C9.05838 15.4839 8.65393 15.4441 8.28637 15.2918C7.91881 15.1396 7.60465 14.8818 7.38362 14.551C7.16259 14.2202 7.04462 13.8313 7.04462 13.4334C7.04462 12.8999 7.25655 12.3883 7.63378 12.011C8.01102 11.6338 8.52266 11.4219 9.05615 11.4219ZM9.05615 12.4546C9.24975 12.4546 9.439 12.512 9.59997 12.6195C9.76094 12.7271 9.88641 12.88 9.96049 13.0588C10.0346 13.2377 10.054 13.4345 10.0162 13.6244C9.97843 13.8143 9.8852 13.9887 9.7483 14.1256C9.61141 14.2625 9.437 14.3557 9.24712 14.3935C9.05724 14.4312 8.86042 14.4118 8.68156 14.3378C8.5027 14.2637 8.34983 14.1382 8.24227 13.9772C8.13471 13.8163 8.0773 13.627 8.0773 13.4334C8.0773 13.1738 8.18043 12.9248 8.364 12.7413C8.54757 12.5577 8.79655 12.4546 9.05615 12.4546Z" fill="currentColor"/>
  <path d="M5.43925 5.49023L9.67523 7.93491L9.1858 8.78162L4.94983 6.33694L5.43925 5.49023Z" fill="currentColor"/>
  <path d="M12.8124 5.49023L8.57648 7.93491L9.0659 8.78162L13.3019 6.33694L12.8124 5.49023Z" fill="currentColor"/>
  <path d="M9.59939 12.4543V7.5625H8.62054V12.4543H9.59939Z" fill="currentColor"/>
  <path d="M2.74744 8.41647C2.74744 8.07859 3.02134 7.80469 3.35922 7.80469V7.80469C3.6971 7.80469 3.971 8.07859 3.971 8.41647V11.7201H2.74744V8.41647Z" fill="currentColor"/>
  <path d="M2.74744 11.7217L3.35922 10.6621L6.22103 12.3139C6.51367 12.4829 6.61396 12.857 6.445 13.1497V13.1497C6.27608 13.4423 5.90197 13.5425 5.60938 13.3736L2.74744 11.7217Z" fill="currentColor"/>
  <path d="M14.2489 8.41647C14.2489 8.07859 14.5228 7.80469 14.8607 7.80469V7.80469C15.1986 7.80469 15.4725 8.07859 15.4725 8.41647V11.7201H14.2489V8.41647Z" fill="currentColor"/>
  <path d="M15.5557 11.7217L14.9439 10.6621L12.0843 12.3139C11.7917 12.4828 11.6915 12.8569 11.8605 13.1495V13.1495C12.0294 13.4422 12.4036 13.5424 12.6963 13.3734L15.5557 11.7217Z" fill="currentColor"/>
  <path d="M6.74971 3.33652C6.45711 3.50541 6.08301 3.40514 5.91408 3.11257V3.11257C5.74513 2.81994 5.84541 2.44575 6.13806 2.27684L8.99987 0.625L9.61165 1.6846L6.74971 3.33652Z" fill="currentColor"/>
  <path d="M8.95822 0.554688L8.34644 1.61429L11.2059 3.26594C11.4985 3.43496 11.8727 3.33473 12.0417 3.04209V3.04209C12.2106 2.74953 12.1104 2.37543 11.8178 2.20645L8.95822 0.554688Z" fill="currentColor"/>
</svg>
