<?xml version="1.0" standalone="no"?><!DOCTYPE svg PUBLIC "-//W3C//DTD SVG 1.1//EN" "http://www.w3.org/Graphics/SVG/1.1/DTD/svg11.dtd"><svg t="1744096876158" class="icon" viewBox="0 0 1024 1024" version="1.1" xmlns="http://www.w3.org/2000/svg" p-id="4034" xmlns:xlink="http://www.w3.org/1999/xlink" width="256" height="256"><path d="M725.418667 142.549333c204.074667 117.845333 273.962667 378.794667 156.16 582.826667-117.802667 204.117333-378.752 274.005333-582.826667 156.16-204.074667-117.76-274.005333-378.709333-156.16-582.826667 117.76-204.032 378.752-273.962667 582.826667-156.16zM180.309333 355.285333A366.933333 366.933333 0 0 0 813.738667 721.066667l-116.394667-67.2v1.194666c0 44.16-11.861333 54.826667-49.664 60.202667l-6.186667 0.853333-37.973333 4.181334-18.773333-53.504 30.464-3.754667c19.072-2.133333 24.96-5.546667 25.728-21.888l0.085333-4.394667v-15.445333l-30.976-17.877333v45.056h-166.144v-140.970667l-38.058667-21.973333 0.042667 125.44 18.346667-17.877334 19.2 53.973334c-11.733333 11.264-32.384 28.16-50.688 46.506666-2.816 2.773333-6.229333 5.973333-9.344 9.088l-4.266667 4.48-37.546667-39.424c7.936-8.746667 9.557333-18.261333 9.813334-34.432l0.042666-6.4v-135.168h-40.362666v-59.136h3.029333l-133.802667-77.226666z m29.866667-51.754666l633.472 365.738666A366.933333 366.933333 0 0 0 210.133333 303.530667z m290.090667 236.501333h-5.205334v55.893333H558.933333v-22.058666l-58.624-33.834667z m197.12-225.28l-0.085334 221.056-56.32-32.512 0.042667-132.693333h-195.712V314.752h252.032zM625.493333 404.906667v53.034666H562.346667l-91.733334-53.034666h154.965334z m-253.44-108.885334c14.634667 17.92 38.826667 49.621333 53.632 71.893334l5.034667 7.893333-4.352 3.626667L332.8 325.333333l39.338667-29.354666z" p-id="4035"></path></svg>