<svg fill="none" xmlns="http://www.w3.org/2000/svg" viewBox="0 0 33 16" class="design-iconfont">
  <rect width="33" height="16" rx="6" fill="#164799"/>
  <path d="M7.744 3.264C8.704 3.264 9.472 3.48 10.024 3.924C10.6 4.38 10.924 5.064 11.008 5.964H10.036C9.928 5.34 9.688 4.884 9.316 4.584C8.932 4.272 8.392 4.128 7.696 4.128C7.06 4.128 6.568 4.224 6.208 4.44C5.8 4.68 5.596 5.04 5.596 5.532C5.596 5.964 5.836 6.312 6.328 6.576C6.544 6.696 7.072 6.876 7.9 7.116C9.028 7.452 9.772 7.728 10.132 7.944C10.84 8.376 11.2 8.976 11.2 9.756C11.2 10.5 10.9 11.1 10.3 11.532C9.7 11.952 8.896 12.168 7.876 12.168C6.868 12.168 6.076 11.952 5.5 11.52C4.828 11.004 4.456 10.224 4.384 9.168H5.356C5.44 9.912 5.704 10.464 6.136 10.812C6.532 11.124 7.108 11.292 7.876 11.292C8.572 11.292 9.148 11.16 9.58 10.896C10.012 10.632 10.228 10.272 10.228 9.816C10.228 9.276 9.94 8.856 9.376 8.556C9.136 8.412 8.524 8.208 7.564 7.932C6.532 7.62 5.872 7.38 5.596 7.236C4.936 6.852 4.612 6.3 4.612 5.58C4.612 4.836 4.924 4.248 5.56 3.84C6.124 3.456 6.856 3.264 7.744 3.264ZM12.446 3.432H18.518V4.284H13.43V7.152H18.23V8.004H13.43V11.148H18.722V12H12.446V3.432ZM23.8307 3.264C25.1027 3.264 26.1227 3.684 26.8667 4.548C27.5627 5.364 27.9227 6.42 27.9227 7.728C27.9227 9.024 27.5627 10.068 26.8667 10.884C26.1227 11.736 25.1027 12.168 23.8187 12.168C22.5347 12.168 21.5267 11.736 20.7827 10.884C20.0747 10.068 19.7267 9.012 19.7267 7.728C19.7267 6.432 20.0747 5.376 20.7827 4.56C21.5267 3.696 22.5347 3.264 23.8307 3.264ZM23.8307 4.14C22.8467 4.14 22.0667 4.476 21.5027 5.16C20.9747 5.808 20.7107 6.66 20.7107 7.728C20.7107 8.784 20.9747 9.636 21.5027 10.284C22.0547 10.956 22.8347 11.292 23.8187 11.292C24.8027 11.292 25.5827 10.956 26.1347 10.308C26.6627 9.66 26.9387 8.808 26.9387 7.728C26.9387 6.636 26.6627 5.772 26.1347 5.124C25.5827 4.464 24.8147 4.14 23.8307 4.14Z" fill="#fff"/>
</svg>
