<svg width="18" height="18" viewBox="0 0 18 18" fill="none" xmlns="http://www.w3.org/2000/svg">
<path d="M9.01708 15.6441C7.8702 15.6447 6.74272 15.3483 5.74439 14.7838C4.93058 14.3236 4.22519 13.6981 3.67224 12.9501C3.47193 12.6792 3.59174 12.3021 3.89964 12.1652C4.1535 12.0523 4.44936 12.1444 4.61828 12.3649C5.14573 13.0537 5.82908 13.6109 6.61487 13.989C7.54629 14.4372 8.58451 14.6159 9.61218 14.5049C10.6398 14.3939 11.616 13.9977 12.4303 13.361C13.1769 12.7772 13.7601 12.0126 14.126 11.1414C14.1896 10.9898 14.3048 10.8642 14.4549 10.7973C14.9063 10.5962 15.3792 10.9873 15.197 11.4467C14.7822 12.4926 14.1061 13.4225 13.225 14.1428C12.0376 15.1137 10.5509 15.6441 9.01708 15.6441ZM9.01708 2.35156C10.3926 2.35173 11.7343 2.77849 12.8572 3.57304C13.8423 4.2701 14.6165 5.22012 15.1008 6.3186C15.2158 6.57963 15.0862 6.87763 14.8258 6.99407C14.5291 7.1267 14.1848 6.97198 14.0505 6.67613C13.8287 6.18786 13.5368 5.73337 13.1831 5.32743C12.696 4.76842 12.1016 4.31286 11.4353 3.98774C10.7689 3.66261 10.0441 3.47453 9.30369 3.43465C8.56331 3.39477 7.82246 3.50388 7.12503 3.75554C6.42759 4.0072 5.78776 4.39628 5.24343 4.89973C4.69911 5.40318 4.26136 6.01075 3.95613 6.68646C3.6509 7.36217 3.4844 8.09227 3.46648 8.8335C3.45635 9.25251 3.49381 9.67025 3.57747 10.0788C3.66993 10.5304 3.34338 10.9905 2.90284 10.855C2.71103 10.796 2.57057 10.6341 2.52708 10.4382C2.32908 9.5462 2.31687 8.62179 2.49258 7.72284C2.68867 6.7197 3.11347 5.7753 3.73398 4.96307C4.35448 4.15084 5.15396 3.49267 6.07025 3.03974C6.98655 2.5868 7.99496 2.35131 9.01708 2.35156Z" fill="currentColor"/>
<path d="M2.17637 8.85651C2.41174 8.66079 2.75792 8.73689 2.92432 8.99383C3.09069 9.25073 3.01257 9.58981 2.78505 9.79452C2.23759 10.2871 2.00596 10.8435 2.15109 11.2225C2.46829 12.0512 5.12987 12.0653 8.30574 11.0257C8.59663 10.9305 8.9142 11.0795 9.01731 11.3677C9.12037 11.6558 8.96995 11.9739 8.67946 12.07C4.94611 13.3048 1.74738 13.265 1.1176 11.6191C0.76666 10.7026 1.22489 9.64768 2.17637 8.85651ZM10.9551 7.33234C11.1014 7.06372 11.4377 6.96455 11.7063 7.11087L13.1927 7.92061C13.8121 8.25806 14.5541 8.28488 15.1963 7.99301L15.9045 7.67116L16.0164 7.62021L16.2379 7.52051L16.3542 7.46734C16.4582 7.42023 16.5808 7.46631 16.6279 7.5703L16.8883 8.14405C16.95 8.27996 16.8899 8.44014 16.7541 8.50195L16.6411 8.55401L16.5303 8.60386L16.4196 8.65481C15.7439 8.96054 14.8798 9.35267 10.9076 11.1594C10.6971 11.2553 10.4491 11.2104 10.2855 11.0469L9.57043 10.3318C9.35394 10.1153 9.35394 9.76426 9.57043 9.54776C9.78703 9.33116 10.1382 9.33128 10.3547 9.54802L10.5772 9.77082C10.71 9.90381 10.9113 9.94065 11.0826 9.86333L11.3763 9.72981C12.0094 9.44195 12.0414 8.55452 11.4307 8.22177L11.1765 8.08331C10.9081 7.93704 10.8089 7.60086 10.9551 7.33234ZM7.16229 2.69632C7.16236 2.69639 7.16243 2.69644 7.16251 2.69649L7.63871 2.97889C8.54039 3.51502 9.01671 3.99134 9.01671 4.56292C9.01671 4.90901 8.8551 5.18551 8.55103 5.41892C8.1999 5.68843 7.91303 6.0588 7.90899 6.50142C7.90902 6.57547 7.8942 6.64879 7.8654 6.71701C7.8366 6.78524 7.79441 6.847 7.74133 6.89864C7.68824 6.95028 7.62534 6.99075 7.55634 7.01765C7.48735 7.04455 7.41365 7.05735 7.33963 7.05527L7.24658 7.0442C6.52435 6.90019 6.10563 7.01983 5.85972 7.38759C5.17737 8.29813 4.22363 8.65481 3.09265 8.42884C2.79288 8.36889 2.59847 8.07727 2.65843 7.7775C2.71838 7.47774 3.00999 7.28333 3.30976 7.34328C4.02535 7.48618 4.54819 7.29011 4.95583 6.74844C5.32913 6.18683 5.8996 5.90325 6.61961 5.87999C6.71994 5.87999 6.80128 5.79866 6.80128 5.69833V5.3937C6.80125 5.29537 6.8274 5.19881 6.87704 5.11393C6.92668 5.02905 6.99803 4.95892 7.08374 4.91074L7.17458 4.86976C7.70296 4.68809 7.90899 4.53412 7.90899 4.56292C7.90899 4.53523 7.64646 4.2727 7.07267 3.93152L7.01199 3.8954C6.78232 3.75866 6.70675 3.46179 6.84308 3.23189L7.16056 2.69654C7.16093 2.69592 7.16178 2.69581 7.16229 2.69632Z" fill="currentColor"/>
</svg>
