<svg width="16" height="16" viewBox="0 0 16 16" fill="none" xmlns="http://www.w3.org/2000/svg">
<path fill-rule="evenodd" clip-rule="evenodd" d="M0.666672 2.00065C0.666672 1.63246 0.965149 1.33398 1.33334 1.33398H14.6667C15.0349 1.33398 15.3333 1.63246 15.3333 2.00065V12.0007C15.3333 12.3688 15.0349 12.6673 14.6667 12.6673H7.82405L4.63148 14.2636C4.42482 14.3669 4.1794 14.3559 3.98285 14.2344C3.78631 14.1129 3.66667 13.8984 3.66667 13.6673V12.6673H1.33334C0.965149 12.6673 0.666672 12.3688 0.666672 12.0007V2.00065ZM3.68333 7.33392C3.68333 5.13398 5.46673 3.35059 7.66667 3.35059C9.8666 3.35059 11.65 5.13398 11.65 7.33392C11.65 9.53385 9.8666 11.3173 7.66667 11.3173C5.46673 11.3173 3.68333 9.53385 3.68333 7.33392ZM7.66667 4.65059C6.1847 4.65059 4.98333 5.85195 4.98333 7.33392C4.98333 8.81588 6.1847 10.0173 7.66667 10.0173C9.14863 10.0173 10.35 8.81588 10.35 7.33392C10.35 5.85195 9.14863 4.65059 7.66667 4.65059ZM7.24999 5.43359C7.60898 5.43359 7.89999 5.72461 7.89999 6.08359V7.10026H8.91666C9.27564 7.10026 9.56666 7.39128 9.56666 7.75026C9.56666 8.10925 9.27564 8.40026 8.91666 8.40026H7.24999C6.89101 8.40026 6.59999 8.10925 6.59999 7.75026V6.08359C6.59999 5.72461 6.89101 5.43359 7.24999 5.43359Z" fill="currentColor"/>
</svg>
