<svg fill="none" xmlns="http://www.w3.org/2000/svg" viewBox="0 0 20 20" class="design-iconfont">
  <path d="M0 6C0 2.68629 2.68629 0 6 0H14C17.3137 0 20 2.68629 20 6V14C20 17.3137 17.3137 20 14 20H6C2.68629 20 0 17.3137 0 14V6Z" fill="#FF9326"/>
  <path d="M9.70908 11.3746C9.80604 11.2991 9.92975 11.2642 10.0531 11.2776C10.1764 11.2909 10.2892 11.3515 10.3668 11.4459L13.4916 15.2567C13.5468 15.3239 13.5815 15.405 13.5916 15.4906C13.6017 15.5762 13.5868 15.6629 13.5486 15.7406C13.5104 15.8183 13.4505 15.8839 13.3757 15.9298C13.301 15.9757 13.2145 16 13.1261 16H6.87666C6.78834 16 6.70182 15.9757 6.62707 15.9298C6.55232 15.8839 6.49239 15.8183 6.45419 15.7406C6.41599 15.6629 6.40108 15.5762 6.41118 15.4906C6.42127 15.405 6.45596 15.3239 6.51125 15.2567L9.63599 11.4459C9.65758 11.4196 9.68209 11.3957 9.70908 11.3746ZM9.99953 4C11.2175 3.99996 12.4066 4.3616 13.4089 5.03685C14.4112 5.71211 15.1791 6.66901 15.6107 7.78038C16.0422 8.89176 16.117 10.105 15.825 11.2588C15.5988 12.1527 15.1608 12.9781 14.5508 13.6709C14.2569 14.0046 13.7426 13.9596 13.458 13.6179C13.1837 13.2883 13.2273 12.8045 13.4923 12.4673C13.8697 11.9868 14.1406 11.4316 14.2838 10.8367C14.4867 9.99373 14.4237 9.11057 14.103 8.30317C13.7823 7.49578 13.2188 6.80188 12.4867 6.31258C11.7545 5.82328 10.8879 5.56144 10.0005 5.56144C9.11307 5.56144 8.2464 5.82328 7.51425 6.31258C6.7821 6.80188 6.21868 7.49578 5.89795 8.30317C5.57723 9.11057 5.51419 9.99373 5.71712 10.8367C5.86026 11.4314 6.13104 11.9865 6.50827 12.4667C6.77336 12.8042 6.81695 13.2884 6.54222 13.6181C6.25752 13.9598 5.74316 14.0047 5.44925 13.6709C4.83919 12.9781 4.40113 12.1526 4.17493 11.2586C3.88297 10.1047 3.9578 8.89137 4.38949 7.77995C4.82118 6.66854 5.58928 5.71165 6.59169 5.03646C7.59411 4.36128 8.78337 3.99977 10.0014 4H9.99953ZM9.99953 6.92663C10.5983 6.92597 11.1836 7.10017 11.68 7.42679C12.1765 7.75342 12.5615 8.21754 12.7854 8.75944C13.0093 9.30133 13.0619 9.89621 12.9364 10.4675C12.874 10.752 12.7688 11.0241 12.6256 11.2756C12.389 11.6913 11.8234 11.6551 11.5176 11.2873C11.2563 10.9732 11.2951 10.514 11.3744 10.1131C11.379 10.0896 11.3831 10.0659 11.3864 10.0421C11.4232 9.78357 11.3833 9.52014 11.2714 9.28304C11.1596 9.04593 10.9804 8.84507 10.7552 8.70424C10.5299 8.56341 10.2681 8.4885 10.0005 8.48838C9.73304 8.48827 9.47111 8.56295 9.24575 8.70359C9.02039 8.84423 8.84104 9.04494 8.72895 9.28195C8.61685 9.51896 8.5767 9.78235 8.61325 10.0409C8.61673 10.0656 8.6209 10.0901 8.62574 10.1145C8.70516 10.5139 8.74386 10.9715 8.48371 11.2849C8.17836 11.6527 7.61289 11.6889 7.3768 11.2732C7.23417 11.0221 7.12939 10.7504 7.06716 10.4665C6.94203 9.89567 6.99465 9.30138 7.21824 8.75994C7.44184 8.21851 7.8262 7.75467 8.32196 7.42799C8.81773 7.10131 9.40132 6.92672 9.99953 6.92663Z" fill="#fff"/>
</svg>
