<svg fill="none" xmlns="http://www.w3.org/2000/svg" viewBox="0 0 16 16" class="design-iconfont">
  <path fill-rule="evenodd" clip-rule="evenodd" d="M0.68335 2.00156C0.68335 1.64258 0.974365 1.35156 1.33335 1.35156H14.6667C15.0257 1.35156 15.3167 1.64258 15.3167 2.00156V5.66823C15.3167 6.02721 15.0257 6.31823 14.6667 6.31823C14.3077 6.31823 14.0167 6.02721 14.0167 5.66823V2.65156H1.98335V11.3516H3.66668C4.02567 11.3516 4.31668 11.6426 4.31668 12.0016V12.6165L6.70933 11.4202C6.79958 11.3751 6.89911 11.3516 7.00002 11.3516H8.50002C8.859 11.3516 9.15002 11.6426 9.15002 12.0016C9.15002 12.3605 8.859 12.6516 8.50002 12.6516H7.15346L3.95737 14.2496C3.75588 14.3504 3.51659 14.3396 3.32496 14.2212C3.13333 14.1027 3.01668 13.8935 3.01668 13.6682V12.6516H1.33335C0.974365 12.6516 0.68335 12.3605 0.68335 12.0016V2.00156ZM3.35004 4.66825C3.35004 4.30926 3.64105 4.01825 4.00004 4.01825H6.00004C6.35902 4.01825 6.65004 4.30926 6.65004 4.66825C6.65004 5.02723 6.35902 5.31825 6.00004 5.31825H4.00004C3.64105 5.31825 3.35004 5.02723 3.35004 4.66825ZM4.00004 6.01825C3.64105 6.01825 3.35004 6.30926 3.35004 6.66825C3.35004 7.02723 3.64105 7.31825 4.00004 7.31825H8.00004C8.35902 7.31825 8.65004 7.02723 8.65004 6.66825C8.65004 6.30926 8.35902 6.01825 8.00004 6.01825H4.00004ZM12.3334 7.9849C11.2196 7.9849 10.3167 8.88779 10.3167 10.0016C10.3167 11.1153 11.2196 12.0182 12.3334 12.0182C13.4471 12.0182 14.35 11.1153 14.35 10.0016C14.35 8.88779 13.4471 7.9849 12.3334 7.9849ZM9.0167 10.0016C9.0167 8.16982 10.5016 6.6849 12.3334 6.6849C14.1651 6.6849 15.65 8.16982 15.65 10.0016C15.65 11.8333 14.1651 13.3182 12.3334 13.3182C10.5016 13.3182 9.0167 11.8333 9.0167 10.0016ZM12.65 9.00159C12.65 8.6426 12.359 8.35159 12 8.35159C11.641 8.35159 11.35 8.6426 11.35 9.00159V10.3349C11.35 10.6939 11.641 10.9849 12 10.9849H13.3334C13.6923 10.9849 13.9834 10.6939 13.9834 10.3349C13.9834 9.97593 13.6923 9.68492 13.3334 9.68492H12.65V9.00159Z" fill="#595959"/>
</svg>
