<svg fill="none" xmlns="http://www.w3.org/2000/svg" viewBox="0 0 40 40" class="design-iconfont">
  <g clip-path="url(#bz0slxmul__clip0_12511_12401)">
    <path d="M15.8218 3.46236L3.80381 10.5944C3.35561 10.8606 2.98532 11.2401 2.73011 11.6947C2.4749 12.1493 2.34375 12.6631 2.34981 13.1844L2.51781 27.1584C2.52981 28.2184 3.10781 29.1924 4.03381 29.7124L16.2198 36.5544C16.6744 36.8098 17.1882 36.9409 17.7096 36.9346C18.231 36.9283 18.7416 36.7847 19.1898 36.5184L31.2078 29.3864C32.1198 28.8444 32.6738 27.8584 32.6618 26.7964L32.4938 12.8224C32.4818 11.7624 31.9038 10.7884 30.9778 10.2684L18.7918 3.42636C18.3372 3.17095 17.8234 3.0398 17.302 3.04612C16.7806 3.05244 16.2701 3.196 15.8218 3.46236Z" fill="#2475FC"/>
    <path d="M28.0961 20.0776L23.1661 23.0036C22.7179 23.2699 22.3476 23.6494 22.0924 24.104C21.8372 24.5586 21.7061 25.0723 21.7121 25.5936L21.7821 31.3256C21.7941 32.3856 22.3721 33.3596 23.2981 33.8796L28.2961 36.6856C28.7507 36.941 29.2646 37.0722 29.7859 37.0658C30.3073 37.0595 30.8179 36.916 31.2661 36.6496L36.1961 33.7236C37.1081 33.1816 37.6621 32.1956 37.6501 31.1336L37.5801 25.4016C37.5681 24.3416 36.9901 23.3676 36.0641 22.8476L31.0661 20.0416C30.6115 19.7862 30.0977 19.655 29.5763 19.6614C29.0549 19.6677 28.5444 19.8112 28.0961 20.0776Z" fill="#24BBFC"/>
    <path d="M16.7775 12.1349C17.095 11.5633 17.917 11.5633 18.2345 12.1349L20.6637 16.5084C20.7393 16.6445 20.8515 16.7567 20.9876 16.8322L25.3611 19.2614C25.9327 19.5789 25.9327 20.4009 25.3611 20.7184L20.9876 23.1476C20.8515 23.2232 20.7393 23.3354 20.6637 23.4714L18.2345 27.845C17.917 28.4166 17.095 28.4166 16.7775 27.845L14.3484 23.4714C14.2728 23.3354 14.1606 23.2232 14.0245 23.1476L9.65097 20.7184C9.07937 20.4009 9.07937 19.5789 9.65097 19.2614L14.0245 16.8322C14.1606 16.7567 14.2728 16.6445 14.3484 16.5084L16.7775 12.1349Z" fill="#fff"/>
  </g>
  <defs>
    <clipPath id="bz0slxmul__clip0_12511_12401">
      <path fill="#fff" d="M0 0H40V40H0z"/>
    </clipPath>
  </defs>
</svg>
