<?xml version="1.0" standalone="no"?><!DOCTYPE svg PUBLIC "-//W3C//DTD SVG 1.1//EN" "http://www.w3.org/Graphics/SVG/1.1/DTD/svg11.dtd"><svg t="1719823121880" class="icon" viewBox="0 0 1024 1024" version="1.1" xmlns="http://www.w3.org/2000/svg" p-id="7203" xmlns:xlink="http://www.w3.org/1999/xlink" width="200" height="200"><path d="M723.6 926.7H301.9c-17.5 0-33.7-9.4-42.4-24.5L48.6 537c-8.7-15.1-8.7-33.9 0-49l210.9-365.2c8.7-15.1 25-24.5 42.4-24.5h421.7c17.5 0 33.7 9.4 42.4 24.5L976.9 488c8.7 15.1 8.7 33.9 0 49L766 902.2c-8.7 15.1-25 24.5-42.4 24.5z m-410.7-68.2h399.6l199.8-346.1-199.8-346H312.9l-199.8 346 199.8 346.1z" fill="" p-id="7204"></path><path d="M512.7 663.5c-83.3 0-151.1-67.8-151.1-151.1s67.8-151.1 151.1-151.1 151.1 67.8 151.1 151.1c0 83.4-67.8 151.1-151.1 151.1z m0-234c-45.7 0-82.9 37.2-82.9 82.9s37.2 82.9 82.9 82.9 82.9-37.2 82.9-82.9-37.1-82.9-82.9-82.9z" fill="" p-id="7205"></path></svg>