<svg width="18" height="18" viewBox="0 0 18 18" fill="none" xmlns="http://www.w3.org/2000/svg">
<path d="M6.45455 2C6.96087 2 7.44645 2.20114 7.80448 2.55916C8.1625 2.91718 8.36364 3.40277 8.36364 3.90909V6.45455C8.36364 6.96087 8.1625 7.44645 7.80448 7.80448C7.44645 8.1625 6.96087 8.36364 6.45455 8.36364H3.90909C3.40277 8.36364 2.91718 8.1625 2.55916 7.80448C2.20114 7.44645 2 6.96087 2 6.45455V3.90909C2 3.40277 2.20114 2.91718 2.55916 2.55916C2.91718 2.20114 3.40277 2 3.90909 2H6.45455ZM6.45455 3.27273H3.90909C3.74032 3.27273 3.57846 3.33977 3.45911 3.45911C3.33977 3.57846 3.27273 3.74032 3.27273 3.90909V6.45455C3.27273 6.62332 3.33977 6.78518 3.45911 6.90452C3.57846 7.02386 3.74032 7.09091 3.90909 7.09091H6.45455C6.62332 7.09091 6.78518 7.02386 6.90452 6.90452C7.02386 6.78518 7.09091 6.62332 7.09091 6.45455V3.90909C7.09091 3.74032 7.02386 3.57846 6.90452 3.45911C6.78518 3.33977 6.62332 3.27273 6.45455 3.27273ZM6.45455 9.63636C6.96087 9.63636 7.44645 9.8375 7.80448 10.1955C8.1625 10.5535 8.36364 11.0391 8.36364 11.5455V14.0909C8.36364 14.5972 8.1625 15.0828 7.80448 15.4408C7.44645 15.7989 6.96087 16 6.45455 16H3.90909C3.40277 16 2.91718 15.7989 2.55916 15.4408C2.20114 15.0828 2 14.5972 2 14.0909V11.5455C2 11.0391 2.20114 10.5535 2.55916 10.1955C2.91718 9.8375 3.40277 9.63636 3.90909 9.63636H6.45455ZM6.45455 10.9091H3.90909C3.74032 10.9091 3.57846 10.9761 3.45911 11.0955C3.33977 11.2148 3.27273 11.3767 3.27273 11.5455V14.0909C3.27273 14.2597 3.33977 14.4215 3.45911 14.5409C3.57846 14.6602 3.74032 14.7273 3.90909 14.7273H6.45455C6.62332 14.7273 6.78518 14.6602 6.90452 14.5409C7.02386 14.4215 7.09091 14.2597 7.09091 14.0909V11.5455C7.09091 11.3767 7.02386 11.2148 6.90452 11.0955C6.78518 10.9761 6.62332 10.9091 6.45455 10.9091ZM14.0909 9.63636C14.5972 9.63636 15.0828 9.8375 15.4408 10.1955C15.7989 10.5535 16 11.0391 16 11.5455V13.4545C16 13.806 15.7151 14.0909 15.3636 14.0909C15.0122 14.0909 14.7273 13.806 14.7273 13.4545V11.5455C14.7273 11.3767 14.6602 11.2148 14.5409 11.0955C14.4215 10.9761 14.2597 10.9091 14.0909 10.9091H11.5455C11.3767 10.9091 11.2148 10.9761 11.0955 11.0955C10.9761 11.2148 10.9091 11.3767 10.9091 11.5455V14.0909C10.9091 14.2597 10.9761 14.4215 11.0955 14.5409C11.2148 14.6602 11.3767 14.7273 11.5455 14.7273H13.4545C13.806 14.7273 14.0909 15.0122 14.0909 15.3636C14.0909 15.7151 13.806 16 13.4545 16H11.5455C11.0391 16 10.5535 15.7989 10.1955 15.4408C9.8375 15.0828 9.63636 14.5972 9.63636 14.0909V11.5455C9.63636 11.0391 9.8375 10.5535 10.1955 10.1955C10.5535 9.8375 11.0391 9.63636 11.5455 9.63636H14.0909ZM15.4438 4.87382C15.762 4.95655 15.762 5.40709 15.4438 5.48982C14.824 5.65145 14.3264 5.92382 13.942 6.30691C13.5602 6.68873 13.2878 7.18764 13.1262 7.80873C13.0435 8.12436 12.5929 8.12436 12.5102 7.80873C12.3485 7.18764 12.0762 6.68873 11.6931 6.30691C11.3113 5.92509 10.8124 5.65145 10.1913 5.48982C9.87564 5.40709 9.87564 4.95655 10.1913 4.87382C10.8124 4.71218 11.3113 4.43982 11.6931 4.05673C12.0749 3.67491 12.3485 3.176 12.5102 2.55491C12.5929 2.23927 13.0435 2.23927 13.1262 2.55491C13.2878 3.176 13.5602 3.67491 13.9433 4.05673C14.3251 4.43855 14.824 4.71218 15.4451 4.87382H15.4438Z" fill="currentColor"/>
</svg>
