<svg fill="none" xmlns="http://www.w3.org/2000/svg" viewBox="0 0 16 16" class="design-iconfont">
  <path d="M2.33051 2.49219C1.59704 2.49219 1 3.08923 1 3.82269C1 4.55616 1.59704 5.1532 2.33051 5.1532C3.06397 5.1532 3.66101 4.55616 3.66101 3.82269C3.66101 3.08923 3.06397 2.49219 2.33051 2.49219ZM2.33051 6.66988C1.59704 6.66988 1 7.26692 1 8.00038C1 8.73385 1.59704 9.33089 2.33051 9.33089C3.06397 9.33089 3.66101 8.73385 3.66101 8.00038C3.66101 7.26692 3.06397 6.66988 2.33051 6.66988ZM2.33051 10.8492C1.59704 10.8492 1 11.4462 1 12.1797C1 12.9131 1.59704 13.5102 2.33051 13.5102C3.06397 13.5102 3.66101 12.9131 3.66101 12.1797C3.66101 11.4462 3.06397 10.8492 2.33051 10.8492ZM14.342 2.53713H5.12954C4.76682 2.53713 4.46991 2.83244 4.46991 3.19676V4.44862C4.46991 4.81134 4.76522 5.10826 5.12954 5.10826H14.3436C14.7063 5.10665 15 4.81134 15 4.44862V3.19676C15 2.83404 14.7047 2.53713 14.342 2.53713ZM14.342 6.71642H5.12954C4.76682 6.71642 4.46991 7.01173 4.46991 7.37606V8.62792C4.46991 8.99064 4.76522 9.28755 5.12954 9.28755H14.3404C14.7031 9.28755 15 8.99224 15 8.62792V7.37606C15 7.01173 14.7047 6.71642 14.342 6.71642ZM14.342 10.8957H5.12954C4.76682 10.8957 4.46991 11.191 4.46991 11.5554V12.8072C4.46991 13.1699 4.76522 13.4668 5.12954 13.4668H14.3404C14.7031 13.4668 15 13.1715 15 12.8072V11.5554C15 11.191 14.7047 10.8957 14.342 10.8957Z" fill="currentColor"/>
</svg>
