<svg width="16" height="16" viewBox="0 0 16 16" fill="none" xmlns="http://www.w3.org/2000/svg">
<path fill-rule="evenodd" clip-rule="evenodd" d="M0.666672 1.83366C0.666672 1.46547 0.965149 1.16699 1.33334 1.16699H2.33334H13.6667H14.6667C15.0349 1.16699 15.3333 1.46547 15.3333 1.83366C15.3333 2.20185 15.0349 2.50033 14.6667 2.50033H14.3333V11.167C14.3333 11.5352 14.0349 11.8337 13.6667 11.8337H9.60981L11.1381 13.3619C11.3984 13.6223 11.3984 14.0444 11.1381 14.3047C10.8777 14.5651 10.4556 14.5651 10.1953 14.3047L8.00001 12.1095L5.80474 14.3047C5.54439 14.5651 5.12228 14.5651 4.86193 14.3047C4.60158 14.0444 4.60158 13.6223 4.86193 13.3619L6.3902 11.8337H2.33334C1.96515 11.8337 1.66667 11.5352 1.66667 11.167V2.50033H1.33334C0.965149 2.50033 0.666672 2.20185 0.666672 1.83366ZM11.7942 4.97792C12.0543 4.7173 12.0538 4.29519 11.7932 4.03511C11.5326 3.77503 11.1105 3.77546 10.8504 4.03608L7.99711 6.89526L6.98831 5.90849C6.72939 5.65523 6.31564 5.65501 6.05646 5.908L4.17562 7.74393C3.91215 8.00112 3.90705 8.4232 4.16423 8.68667C4.42142 8.95015 4.8435 8.95525 5.10698 8.69806L6.52165 7.31716L7.53659 8.30995C7.79794 8.56558 8.21641 8.56306 8.47466 8.30429L11.7942 4.97792Z" fill="currentColor"/>
</svg>
