<svg width="16" height="16" viewBox="0 0 16 16" fill="none" xmlns="http://www.w3.org/2000/svg">
<path d="M5.05717 1.50144H5.10459C5.47104 1.50722 5.83606 1.55923 6.18526 1.66757C6.80176 1.85536 7.36365 2.21071 7.80914 2.67585C8.13392 2.32917 8.52767 2.04892 8.95879 1.84813C9.44164 1.62279 9.97192 1.50722 10.5036 1.5H10.5525C10.8054 1.50578 11.0583 1.52745 11.3055 1.58089C11.8013 1.68346 12.2755 1.89003 12.6908 2.18182C13.3476 2.64119 13.8534 3.31434 14.1092 4.07706C14.2716 4.5552 14.3334 5.06801 14.2989 5.57215C14.2702 5.95207 14.1911 6.33054 14.0446 6.683C13.8419 7.16259 13.6077 7.62773 13.3591 8.08421C13.3002 8.19255 13.1794 8.26188 13.0559 8.25755C12.9624 8.26044 12.882 8.20844 12.7957 8.17955C11.9781 7.86897 11.0411 7.89208 10.2392 8.24311C9.46608 8.57679 8.82515 9.20661 8.47594 9.97655C8.23882 10.4937 8.13536 11.0715 8.17272 11.6392C8.2029 12.1029 8.32792 12.5608 8.53917 12.974C8.57366 13.0476 8.62539 13.117 8.63545 13.2008C8.65845 13.3394 8.58516 13.4839 8.46588 13.5532C8.07069 13.7959 7.53898 13.7959 7.14522 13.5503C4.98675 12.0538 3.20623 10.0083 2.02353 7.65518C1.84103 7.28971 1.6657 6.91991 1.51769 6.53855C1.23746 5.73972 1.24033 4.84555 1.51769 4.04672C1.71025 3.49057 2.03359 2.98065 2.45609 2.57329C2.86853 2.16882 3.37581 1.86258 3.92333 1.68635C4.28834 1.565 4.67347 1.50722 5.05717 1.50144Z" fill="currentColor"/>
<path d="M11.0791 8.22363C11.6192 8.14593 12.1787 8.2077 12.6865 8.40723C13.0445 8.54662 13.3745 8.75358 13.6592 9.01172C14.0217 9.34187 14.3068 9.75703 14.4814 10.2148C14.6899 10.7563 14.7429 11.3565 14.6357 11.9258C14.5477 12.4055 14.3433 12.8632 14.0469 13.252C13.7753 13.6085 13.4271 13.9083 13.0322 14.1211C12.5787 14.3675 12.0649 14.4956 11.5498 14.5H11.5137C11.4785 14.4971 11.4444 14.4966 11.4092 14.4951C10.8633 14.476 10.3246 14.309 9.8623 14.0186C9.3251 13.6826 8.89165 13.1806 8.64062 12.5996C8.42925 12.1124 8.34413 11.5722 8.39551 11.0439C8.44248 10.5392 8.61471 10.0481 8.89355 9.62402C9.1064 9.29826 9.38069 9.01016 9.69629 8.78418C10.1029 8.48784 10.5816 8.29552 11.0791 8.22363Z" fill="currentColor"/>
<path d="M9.80078 10.5615H13.2706" stroke="white" stroke-width="1.08326" stroke-linecap="round"/>
<path d="M9.80078 12.1299H12.1873" stroke="white" stroke-width="1.08326" stroke-linecap="round"/>
</svg>
