<svg fill="none" xmlns="http://www.w3.org/2000/svg" viewBox="0 0 12 12" class="design-iconfont">
  <g clip-path="url(#8ku3n94x9__clip0_11434_98284)" fill="#8C8C8C">
    <path d="M6 12C4.4 12 2.9 11.4 1.75 10.25C0.6 9.1 0 7.6 0 6C0 4.4 0.6 2.9 1.75 1.75C2.9 0.6 4.4 0 6 0C6.85 0 7.7 0.2 8.45 0.55C8.7 0.65 8.8 0.95 8.7 1.2C8.6 1.45 8.3 1.55 8.05 1.45C7.4 1.15 6.7 1 6 1C4.65 1 3.4 1.5 2.45 2.45C1.5 3.4 1 4.65 1 6C1 7.35 1.5 8.6 2.45 9.55C3.4 10.5 4.65 11 6 11C7.35 11 8.6 10.5 9.55 9.55C10.5 8.6 11 7.35 11 6C11 5.7 11.2 5.5 11.5 5.5C11.8 5.5 12 5.7 12 6C12 7.6 11.4 9.1 10.25 10.25C9.1 11.4 7.6 12 6 12Z"/>
    <path d="M6 8C5.85 8 5.75 7.95 5.65 7.85L3.4 5.6C3.2 5.4 3.2 5.1 3.4 4.9C3.6 4.7 3.9 4.7 4.1 4.9L6 6.8L10.15 2.65C10.35 2.45 10.65 2.45 10.85 2.65C11.05 2.85 11.05 3.15 10.85 3.35L6.35 7.85C6.25 7.95 6.15 8 6 8Z"/>
  </g>
  <defs>
    <clipPath id="8ku3n94x9__clip0_11434_98284">
      <path fill="#fff" d="M0 0H12V12H0z"/>
    </clipPath>
  </defs>
</svg>
