<svg fill="none" xmlns="http://www.w3.org/2000/svg" viewBox="0 0 16 16" class="design-iconfont">
  <path d="M9.5 11H13C13.5523 11 14 10.5523 14 10V3C14 2.44772 13.5523 2 13 2H3C2.44772 2 2 2.44772 2 3V3.10526" stroke="currentColor" stroke-width="1.33333" stroke-linecap="round" stroke-linejoin="round"/>
  <path d="M1.66663 6C1.66663 5.44771 2.11434 5 2.66663 5H6.66663C7.21891 5 7.66663 5.44772 7.66663 6V13.3333C7.66663 13.8856 7.21891 14.3333 6.66663 14.3333H2.66663C2.11434 14.3333 1.66663 13.8856 1.66663 13.3333V6Z" stroke="currentColor" stroke-width="1.33333" stroke-linejoin="round"/>
  <path d="M4.33398 12.3359H5.00065" stroke="currentColor" stroke-width="1.33333" stroke-linecap="round" stroke-linejoin="round"/>
  <path d="M8 13.3359H14" stroke="currentColor" stroke-width="1.33333" stroke-linecap="round" stroke-linejoin="round"/>
</svg>
