<svg fill="none" xmlns="http://www.w3.org/2000/svg" viewBox="0 0 16 16" class="design-iconfont">
  <path d="M6.09452 14.4098C4.97749 14.0772 3.98319 13.4598 3.19588 12.6417C3.48959 12.2936 3.66659 11.8438 3.66659 11.3527C3.66659 10.2482 2.77116 9.35274 1.66659 9.35274C1.59977 9.35274 1.53372 9.35604 1.46858 9.36244C1.37985 8.9286 1.33325 8.47947 1.33325 8.0194C1.33325 7.32254 1.44018 6.65064 1.63852 6.0192C1.64786 6.01934 1.65721 6.0194 1.66659 6.0194C2.77116 6.0194 3.66659 5.12397 3.66659 4.0194C3.66659 3.7023 3.59279 3.40247 3.46145 3.13607C4.23242 2.4192 5.17342 1.88271 6.21729 1.59375C6.54805 2.2421 7.22215 2.68608 7.99992 2.68608C8.77769 2.68608 9.45179 2.2421 9.78255 1.59375C10.8264 1.88271 11.7674 2.4192 12.5384 3.13607C12.4071 3.40247 12.3333 3.7023 12.3333 4.0194C12.3333 5.12397 13.2287 6.0194 14.3333 6.0194C14.3426 6.0194 14.352 6.01934 14.3613 6.0192C14.5597 6.65064 14.6666 7.32254 14.6666 8.0194C14.6666 8.47947 14.62 8.9286 14.5313 9.36244C14.4661 9.35604 14.4001 9.35274 14.3333 9.35274C13.2287 9.35274 12.3333 10.2482 12.3333 11.3527C12.3333 11.8438 12.5103 12.2936 12.804 12.6417C12.0167 13.4598 11.0224 14.0772 9.90532 14.4098C9.64752 13.6034 8.89192 13.0194 7.99992 13.0194C7.10792 13.0194 6.35232 13.6034 6.09452 14.4098Z" stroke="#262626" stroke-width="1.3" stroke-linejoin="round"/>
  <path d="M7.99984 10.3542C9.2885 10.3542 10.3332 9.3095 10.3332 8.02083C10.3332 6.73217 9.2885 5.6875 7.99984 5.6875C6.71117 5.6875 5.6665 6.73217 5.6665 8.02083C5.6665 9.3095 6.71117 10.3542 7.99984 10.3542Z" stroke="#262626" stroke-width="1.3" stroke-linejoin="round"/>
</svg>
