<svg width="16" height="16" viewBox="0 0 16 16" fill="none" xmlns="http://www.w3.org/2000/svg">
<path fill-rule="evenodd" clip-rule="evenodd" d="M8.17082 1.44106C8.06101 1.40898 7.94431 1.40897 7.83449 1.44102L2.43191 3.01771C2.17595 3.09241 2 3.32705 2 3.59368V6.8256C2 10.4833 4.34095 13.7305 7.81116 14.8864C7.93427 14.9274 8.06735 14.9274 8.19045 14.8864C11.6598 13.7304 14 10.4839 14 6.8271V3.59368C14 3.32711 13.8241 3.0925 13.5682 3.01775L8.17082 1.44106ZM9.68367 7.11249C9.37179 7.42437 8.98568 7.61679 8.58222 7.68975L8.58222 8.65868H9.69417C10.0173 8.65868 10.2792 8.9206 10.2792 9.24368C10.2792 9.56677 10.0173 9.82868 9.69417 9.82868H8.58222V10.7799H9.69428C10.0174 10.7799 10.2793 11.0418 10.2793 11.3649C10.2793 11.688 10.0174 11.9499 9.69428 11.9499H8.58222V12.5169C8.58222 12.84 8.3203 13.1019 7.99722 13.1019C7.67413 13.1019 7.41222 12.84 7.41222 12.5169L7.41222 9.25455L7.41212 9.24368L7.41222 9.23281L7.41222 7.56537C7.16594 7.46362 6.9352 7.31266 6.73503 7.11249C5.92079 6.29825 5.92079 4.9781 6.73503 4.16386C7.54927 3.34961 8.86942 3.34961 9.68367 4.16386C10.4979 4.9781 10.4979 6.29825 9.68367 7.11249ZM7.56235 6.28518C7.20502 5.92785 7.20502 5.3485 7.56235 4.99117C7.91968 4.63384 8.49902 4.63384 8.85635 4.99117C9.21368 5.3485 9.21368 5.92785 8.85635 6.28518C8.64946 6.49207 8.36815 6.57917 8.09859 6.54649C8.08639 6.54435 8.07407 6.5426 8.06162 6.54124C7.87882 6.51149 7.70331 6.42614 7.56235 6.28518Z" fill="#A1A7B3"/>
</svg>
