<svg fill="none" xmlns="http://www.w3.org/2000/svg" viewBox="0 0 34 34" class="design-iconfont">
  <path d="M15.0563 31.635L14.6775 17.1627C13.9136 16.8805 16.9993 13.2218 18.2659 13.5446C21.9799 12.6039 26.0172 6.64656 18.6463 2.22852C-3.65612 2.22852 -1.21229 29.8644 15.0563 31.635Z" fill="#B3DDF2"/>
  <path d="M14.9855 31.6275C8.34013 30.0879 1.83654 20.7167 9.79142 12.3055C11.6185 10.6824 7.9689 5.89074 4.97923 8.53347C-2.96401 19.6048 7.48296 31.6575 14.9855 31.6275Z" fill="#0055E9"/>
  <path d="M13.9139 17.7027C13.7306 17.8356 13.9139 17.6257 13.9139 17.7027V17.7027ZM13.9139 17.7027V18.8574C13.9139 19.0114 13.7001 20.0352 13.6084 20.474L14.7542 22.9374C14.7542 22.9374 15.518 23.1683 15.5944 23.2453C15.6707 23.3223 16.045 23.3762 16.2054 23.3993L17.8095 24.4L20.4829 24.0151L23.9202 22.9374L27.1283 20.1661L28.1213 18.4725L28.9615 14.1616L28.8087 12.1601V10.3896L27.0519 7.15639L26.1353 6.00172L24.5312 4.53907L23.1563 3.6923L22.7744 3.46134L22.3161 3.3074L21.4759 2.99947L18.8025 2.30664C24.6077 4.23119 25.066 10.1586 23.3855 13.007C21.705 15.8553 18.0642 17.4995 14.525 17.1639L13.9139 17.7027Z" fill="#00BCFF"/>
  <path d="M15.4408 31.6379C20.6348 33.0228 32.0112 28.0254 31.8632 17.3196C32.2454 12.546 27.8244 3.05039 20.6348 2.69336C28.6499 4.33841 31.712 19.1763 21.3238 22.8622C16.1285 24.1708 14.2194 20.1678 14.6021 17.3196C9.25707 17.5918 6.4217 29.1424 15.4408 31.6379Z" fill="#0055DF"/>
</svg>
