<svg fill="none" xmlns="http://www.w3.org/2000/svg" viewBox="0 0 16 16" class="design-iconfont">
  <path d="M2.66668 4.66667C3.40304 4.66667 4.00001 4.0697 4.00001 3.33333C4.00001 2.59695 3.40304 2 2.66668 2C1.9303 2 1.33334 2.59695 1.33334 3.33333C1.33334 4.0697 1.9303 4.66667 2.66668 4.66667Z" stroke="#595959" stroke-width="1.33333" stroke-linejoin="round"/>
  <path d="M2.66667 8.66634C3.03486 8.66634 3.33333 8.36787 3.33333 7.99967C3.33333 7.63147 3.03486 7.33301 2.66667 7.33301C2.29848 7.33301 2 7.63147 2 7.99967C2 8.36787 2.29848 8.66634 2.66667 8.66634Z" stroke="#595959" stroke-width="1.33333" stroke-linejoin="round"/>
  <path d="M2.66667 13.3333C3.03486 13.3333 3.33333 13.0349 3.33333 12.6667C3.33333 12.2985 3.03486 12 2.66667 12C2.29848 12 2 12.2985 2 12.6667C2 13.0349 2.29848 13.3333 2.66667 13.3333Z" stroke="#595959" stroke-width="1.33333" stroke-linejoin="round"/>
  <path d="M6.66666 8H14.6667" stroke="#595959" stroke-width="1.33333" stroke-linecap="round" stroke-linejoin="round"/>
  <path d="M6.66666 12.667H14.6667" stroke="#595959" stroke-width="1.33333" stroke-linecap="round" stroke-linejoin="round"/>
  <path d="M6.66666 3.33301H14.6667" stroke="#595959" stroke-width="1.33333" stroke-linecap="round" stroke-linejoin="round"/>
</svg>
