<svg fill="none" xmlns="http://www.w3.org/2000/svg" viewBox="0 0 16 16" class="design-iconfont">
  <path d="M8.00138 14.6634C9.84232 14.6634 11.509 13.9172 12.7154 12.7108C13.9219 11.5043 14.6681 9.83768 14.6681 7.99674C14.6681 6.15581 13.9219 4.48914 12.7154 3.2827C11.509 2.07627 9.84232 1.33008 8.00138 1.33008C6.16045 1.33008 4.49378 2.07627 3.28734 3.2827C2.08091 4.48914 1.33472 6.15581 1.33472 7.99674C1.33472 9.83768 2.08091 11.5043 3.28734 12.7108C4.49378 13.9172 6.16045 14.6634 8.00138 14.6634Z" fill="#fff"/>
  <path fill-rule="evenodd" clip-rule="evenodd" d="M7.99862 12.3366C8.45885 12.3366 8.83195 11.9635 8.83195 11.5033C8.83195 11.043 8.45885 10.6699 7.99862 10.6699C7.53838 10.6699 7.16528 11.043 7.16528 11.5033C7.16528 11.9635 7.53838 12.3366 7.99862 12.3366Z" fill="#83858C"/>
  <path d="M8 4V9.33333Z" fill="#83858C"/>
  <path d="M8 4V9.33333" stroke="#83858C" stroke-width="1.3" stroke-linecap="round" stroke-linejoin="round"/>
</svg>
