<svg fill="none" xmlns="http://www.w3.org/2000/svg" viewBox="0 0 24 24" class="design-iconfont">
  <path d="M13.1037 0C13.6405 0 14.1547 0.215774 14.5308 0.598797L21.2244 7.4162C21.5916 7.79016 21.7973 8.29331 21.7973 8.8174V21.1997C21.7973 22.7465 20.5668 24 19.0482 24H4.91009C3.39149 24 2.16089 22.7454 2.16089 21.1997V2.80032C2.16101 1.25352 3.39161 0 4.91021 0H13.1037Z" fill="#F9A006"/>
  <path d="M8.78261 14.1311H7.34783V18.6844C7.34783 18.8648 7.21739 19 7 19C6.82609 19 6.69565 18.8648 6.69565 18.6844V14.1311H5.26087C5.13043 14.1311 5 14.041 5 13.8607C5 13.6803 5.13043 13.5451 5.26087 13.5451H8.78261C8.91304 13.5451 9.04348 13.6803 9.04348 13.8607C9.04348 14.041 8.91304 14.1311 8.78261 14.1311ZM13.8696 19C13.7391 19 13.6522 19 13.6087 18.9098L12 16.6557L10.3478 18.9098C10.3043 19 10.2174 19 10.1304 19C9.95652 19 9.82609 18.8648 9.82609 18.6844C9.82609 18.6393 9.82609 18.5492 9.86957 18.5041L11.5652 16.2049L10 13.9959C9.95652 13.9508 9.95652 13.9057 9.95652 13.8156C9.95652 13.6803 10.0435 13.5 10.2609 13.5C10.3478 13.5 10.4348 13.5451 10.5217 13.6352L12 15.709L13.4783 13.6352C13.5652 13.5451 13.6522 13.5 13.7391 13.5C13.913 13.5 14.0435 13.6352 14.0435 13.8156C14.0435 13.9057 14.0435 13.9508 14 13.9959L12.4348 16.1598L14.1304 18.5041C14.1304 18.5492 14.1739 18.6393 14.1739 18.6844C14.1739 18.8648 14.0435 19 13.8696 19ZM18.7391 14.1311H17.3043V18.6844C17.3043 18.8648 17.1739 19 16.9565 19C16.7826 19 16.6522 18.8648 16.6522 18.6844V14.1311H15.2174C15.087 14.1311 14.9565 14.041 14.9565 13.8607C14.9565 13.6803 15.087 13.5451 15.2174 13.5451H18.7391C18.8696 13.5451 19 13.6803 19 13.8607C19 14.041 18.8696 14.1311 18.7391 14.1311Z" fill="#fff"/>
  <path d="M21.7998 7.99968H16.833C15.3155 7.99968 13.9453 6.6054 13.9453 5.05848V0L21.7998 7.99968V7.99968Z" fill="#fff" fill-opacity=".4"/>
</svg>
