<svg fill="none" xmlns="http://www.w3.org/2000/svg" viewBox="0 0 40 40" class="design-iconfont">
  <rect width="40" height="40" rx="8" fill="#4462FF"/>
  <path d="M30.9999 28.9047H29.9523V16.3333C29.9523 15.1809 29.0094 14.2381 27.857 14.2381H23.6665V28.9047H22.6189V11.0952C22.6189 9.94286 21.6761 9 20.5237 9H12.1427C10.9904 9 10.0475 9.94284 10.0475 11.0952V28.9047H8.99987C8.6856 28.9047 8.47607 29.1143 8.47607 29.4286V30.4762C8.47607 30.7905 8.68562 31 8.99989 31H30.9999C31.3142 31 31.5237 30.7905 31.5237 30.4762V29.4286C31.5237 29.1143 31.3141 28.9048 30.9999 28.9048V28.9047ZM15.2856 24.1905C15.2856 24.5047 15.0761 24.7143 14.7618 24.7143H12.6666C12.3523 24.7143 12.1427 24.5047 12.1427 24.1905V23.1428C12.1427 22.8286 12.3523 22.619 12.6666 22.619H14.7618C15.0761 22.619 15.2856 22.8286 15.2856 23.1428V24.1905ZM15.2856 20C15.2856 20.3143 15.0761 20.5238 14.7618 20.5238H12.6666C12.3523 20.5238 12.1427 20.3143 12.1427 20V18.9524C12.1427 18.6381 12.3523 18.4286 12.6666 18.4286H14.7618C15.0761 18.4286 15.2856 18.6381 15.2856 18.9524V20ZM15.2856 15.8095C15.2856 16.1238 15.0761 16.3333 14.7618 16.3333H12.6666C12.3523 16.3333 12.1427 16.1238 12.1427 15.8095V14.7619C12.1427 14.4476 12.3523 14.2381 12.6666 14.2381H14.7618C15.0761 14.2381 15.2856 14.4476 15.2856 14.7619V15.8095ZM20.5237 24.1905C20.5237 24.5047 20.3141 24.7143 19.9999 24.7143H17.9047C17.5903 24.7143 17.3808 24.5047 17.3808 24.1905V23.1428C17.3808 22.8286 17.5904 22.619 17.9046 22.619H19.9999C20.3142 22.619 20.5237 22.8286 20.5237 23.1428V24.1905ZM20.5237 20C20.5237 20.3143 20.3141 20.5238 19.9999 20.5238H17.9047C17.5903 20.5238 17.3808 20.3143 17.3808 20V18.9524C17.3808 18.6381 17.5904 18.4286 17.9046 18.4286H19.9999C20.3142 18.4286 20.5237 18.6381 20.5237 18.9524V20ZM20.5237 15.8095C20.5237 16.1238 20.3141 16.3333 19.9999 16.3333H17.9047C17.5903 16.3333 17.3808 16.1238 17.3808 15.8095V14.7619C17.3808 14.4476 17.5904 14.2381 17.9046 14.2381H19.9999C20.3142 14.2381 20.5237 14.4476 20.5237 14.7619V15.8095ZM28.3808 24.1905C28.3808 24.5047 28.1713 24.7143 27.857 24.7143H25.7618C25.4475 24.7143 25.238 24.5047 25.238 24.1905V23.1428C25.238 22.8286 25.4475 22.619 25.7618 22.619H27.857C28.1713 22.619 28.3808 22.8286 28.3808 23.1428V24.1905H28.3808ZM28.3808 20C28.3808 20.3143 28.1713 20.5238 27.857 20.5238H25.7618C25.4475 20.5238 25.238 20.3143 25.238 20V18.9524C25.238 18.6381 25.4475 18.4286 25.7618 18.4286H27.857C28.1713 18.4286 28.3808 18.6381 28.3808 18.9524V20H28.3808Z" fill="#EBEEFF"/>
</svg>
