<svg width="16" height="16" viewBox="0 0 16 16" fill="none" xmlns="http://www.w3.org/2000/svg">
<g clip-path="url(#clip0_1163_6530)">
<path d="M14.6667 8.00016C14.6667 11.6821 11.6819 14.6668 8.00003 14.6668C6.00887 14.6668 1.33335 14.6668 1.33335 14.6668C1.33335 14.6668 1.33335 9.6909 1.33335 8.00016C1.33335 4.31826 4.31813 1.3335 8.00003 1.3335C11.6819 1.3335 14.6667 4.31826 14.6667 8.00016Z" stroke="#262626" stroke-width="1.3" stroke-linecap="round" stroke-linejoin="round"/>
<path d="M8 9.33333V8C9.10457 8 10 7.10457 10 6C10 4.89543 9.10457 4 8 4C6.89543 4 6 4.89543 6 6" stroke="#262626" stroke-width="1.33333" stroke-linecap="round" stroke-linejoin="round"/>
<path d="M8.66666 11.4998C8.66666 11.868 8.36818 12.1665 8 12.1665C7.63181 12.1665 7.33333 11.868 7.33333 11.4998C7.33333 11.1317 7.63181 10.8332 8 10.8332C8.36818 10.8332 8.66666 11.1317 8.66666 11.4998Z" fill="#091E41" stroke="#262626" stroke-width="0.333333"/>
</g>
<defs>
<clipPath id="clip0_1163_6530">
<rect width="16" height="16" fill="white"/>
</clipPath>
</defs>
</svg>
