<svg fill="none" xmlns="http://www.w3.org/2000/svg" viewBox="0 0 16 16" class="design-iconfont">
  <g clip-path="url(#1txbmsn6v__clip0_915_17969)" stroke="#595959" stroke-width="1.33333" stroke-linecap="round" stroke-linejoin="round">
    <path d="M7.99992 14.6673C11.6818 14.6673 14.6666 11.6826 14.6666 8.00065C14.6666 4.31875 11.6818 1.33398 7.99992 1.33398C4.31802 1.33398 1.33325 4.31875 1.33325 8.00065C1.33325 11.6826 4.31802 14.6673 7.99992 14.6673Z"/>
    <path d="M11.1808 9C10.756 10.3524 9.4926 11.3333 8.00007 11.3333C6.50754 11.3333 5.2441 10.3524 4.81934 9V11"/>
    <path d="M11.1808 4.99935V6.99935C10.756 5.64698 9.4926 4.66602 8.00007 4.66602C6.50754 4.66602 5.2441 5.64698 4.81934 6.99935"/>
  </g>
  <defs>
    <clipPath id="1txbmsn6v__clip0_915_17969">
      <path fill="#fff" d="M0 0H16V16H0z"/>
    </clipPath>
  </defs>
</svg>
