<svg width="16" height="16" viewBox="0 0 16 16" fill="none" xmlns="http://www.w3.org/2000/svg">
<path d="M11 10.4062V2.09375C11 1.76719 10.7328 1.5 10.4062 1.5H2.09375C1.76719 1.5 1.5 1.76719 1.5 2.09375V10.4062C1.5 10.7328 1.76719 11 2.09375 11H10.4062C10.7328 11 11 10.7328 11 10.4062ZM7.82344 4.35C7.34796 4.35 6.9625 4.73545 6.9625 5.21094V8.41719C6.9625 8.74511 6.69667 9.01094 6.36875 9.01094V9.01094C6.04083 9.01094 5.775 8.74511 5.775 8.41719V5.19609C5.775 4.72881 5.39619 4.35 4.92891 4.35H4.5875C4.30877 4.35 4.08281 4.12404 4.08281 3.84531V3.84531C4.08281 3.56658 4.30877 3.34062 4.5875 3.34062H8.17969C8.45842 3.34062 8.68438 3.56658 8.68438 3.84531V3.84531C8.68438 4.12404 8.45842 4.35 8.17969 4.35H7.82344Z" fill="#2475FC"/>
<path d="M13.9062 5H11.8281V11.2344C11.8281 11.5609 11.5609 11.8281 11.2344 11.8281H5.92857C5.41574 11.8281 5 12.2439 5 12.7567V13.9062C5 14.2328 5.26719 14.5 5.59375 14.5H13.9062C14.2328 14.5 14.5 14.2328 14.5 13.9062V5.59375C14.5 5.26719 14.2328 5 13.9062 5Z" fill="#2475FC"/>
</svg>
