<svg fill="none" xmlns="http://www.w3.org/2000/svg" viewBox="0 0 16 16" class="design-iconfont">
  <path d="M2 2.91985L8.00287 1.16797L14 2.91985V6.51254C14 10.2887 11.5834 13.6411 8.00087 14.8348C4.41737 13.6411 2 10.288 2 6.51087V2.91985Z" stroke="currentColor" stroke-width="1.3" stroke-linejoin="round"/>
  <path fill-rule="evenodd" clip-rule="evenodd" d="M6 6.83594C6 5.73138 6.89544 4.83594 8 4.83594C9.10456 4.83594 10 5.73138 10 6.83594C10 7.94049 9.10456 8.83594 8 8.83594C6.89544 8.83594 6 7.94049 6 6.83594ZM8 6.16927C7.63182 6.16927 7.33333 6.46776 7.33333 6.83594C7.33333 7.20411 7.63182 7.5026 8 7.5026C8.36818 7.5026 8.66667 7.20411 8.66667 6.83594C8.66667 6.46776 8.36818 6.16927 8 6.16927Z" fill="currentColor"/>
  <path fill-rule="evenodd" clip-rule="evenodd" d="M5.33301 10.1706C5.33301 8.69782 6.52692 7.50391 7.99967 7.50391C9.47243 7.50391 10.6663 8.69782 10.6663 10.1706C10.6663 10.5388 10.3679 10.8372 9.99967 10.8372C9.63148 10.8372 9.33301 10.5388 9.33301 10.1706C9.33301 9.4342 8.73605 8.83724 7.99967 8.83724C7.2633 8.83724 6.66634 9.4342 6.66634 10.1706C6.66634 10.5388 6.36786 10.8372 5.99967 10.8372C5.63148 10.8372 5.33301 10.5388 5.33301 10.1706Z" fill="currentColor"/>
</svg>
