<svg fill="none" xmlns="http://www.w3.org/2000/svg" viewBox="0 0 16 16" class="design-iconfont">
  <g clip-path="url(#fjvkt44lx__clip0_218_8718)">
    <g clip-path="url(#fjvkt44lx__clip1_218_8718)">
      <path d="M1.64999 14.7466C1.36088 14.765 1.0738 14.6872 0.833308 14.525C0.73535 14.4548 0.65555 14.3621 0.600575 14.2546C0.5456 14.1471 0.517045 14.0279 0.517296 13.9071C0.513355 13.8028 0.533694 13.6991 0.576695 13.6041C0.619696 13.5091 0.684174 13.4255 0.765001 13.36C0.937645 13.2281 1.15082 13.1625 1.367 13.1738C1.52013 13.1768 1.6725 13.1889 1.82488 13.2093C2.12063 13.2484 2.41862 13.2695 2.71812 13.2695C3.01162 13.3004 3.30586 13.2123 3.5348 13.0231C3.63238 12.9221 3.8343 12.5966 4.079 11.5634L5.41061 6.23856H3.76074L4.01145 5.24382H5.6448L5.68834 5.07954C5.86539 4.27645 6.16009 3.50417 6.56281 2.78788C6.9245 2.20027 7.42725 1.71315 8.02503 1.37113C8.53947 1.04879 9.1296 0.868628 9.7357 0.848894C10.0149 0.832315 10.2912 0.909181 10.5224 1.06743C10.6105 1.12873 10.6839 1.2089 10.7374 1.30216C10.7909 1.39541 10.8232 1.49943 10.8318 1.6067C10.8404 1.71397 10.8252 1.82183 10.7873 1.92248C10.7493 2.02314 10.6896 2.11409 10.6124 2.18877C10.4638 2.32517 10.2694 2.39978 10.0675 2.39676C9.73929 2.37894 9.41367 2.32845 9.09542 2.24605C8.94272 2.20986 8.78683 2.18891 8.63003 2.1835C8.4176 2.1835 8.21043 2.33422 8.01752 2.63188C7.75634 3.08009 7.57212 3.56921 7.47257 4.07877L7.20009 5.25136L11.2197 5.15565H11.3503C11.454 5.14663 11.558 5.16759 11.6502 5.21607C11.7424 5.26455 11.8188 5.33851 11.8705 5.42921C11.9951 5.64699 12.0874 5.88136 12.1429 6.12703L12.2548 6.54527L12.5273 6.20615C12.793 5.84745 13.1045 5.52491 13.4528 5.24608C13.8023 4.94513 14.2365 4.76077 14.6951 4.71857C14.8955 4.71104 15.0914 4.78413 15.2393 4.92053C15.3796 5.05316 15.4569 5.23855 15.4547 5.43222C15.4521 5.54058 15.4237 5.64674 15.372 5.7419C15.3203 5.83705 15.2468 5.91845 15.1574 5.97932C15.0546 6.05016 14.8857 6.12401 14.2755 6.16471C14.0052 6.17375 13.7455 6.27021 13.5346 6.43826C13.1317 6.79546 12.7879 7.21465 12.516 7.68017L12.4695 7.75629L12.8921 9.73069C13.0497 10.4993 13.5616 11.1994 13.8694 11.2296C14.1148 11.2296 14.1801 11.0434 14.2237 10.9206L14.2454 10.8633C14.2829 10.7174 14.3671 10.588 14.4851 10.4949C14.6032 10.4019 14.7484 10.3505 14.8985 10.3486C15.0629 10.3486 15.219 10.4195 15.3263 10.5431C15.4375 10.67 15.4977 10.8338 15.4952 11.0027C15.4871 11.1687 15.4387 11.3301 15.3544 11.4729C15.27 11.6158 15.1522 11.7359 15.0111 11.8227L14.9863 11.8422C14.7171 12.0942 14.3656 12.2389 13.9977 12.2492C13.7263 12.2553 13.4566 12.2042 13.206 12.0992C12.9554 11.9942 12.7296 11.8376 12.543 11.6395C12.0811 11.0887 11.7271 10.4551 11.4997 9.77214L11.3615 9.36972L11.1138 9.71185C10.7607 10.2492 10.3365 10.736 9.8528 11.1587C9.55168 11.403 9.18043 11.5438 8.79367 11.5604C8.55149 11.5677 8.31498 11.486 8.12861 11.3306C8.03927 11.2593 7.96699 11.1688 7.9171 11.0658C7.86721 10.9627 7.84099 10.8498 7.84037 10.7352C7.83864 10.5469 7.90998 10.3653 8.03929 10.2288C8.0994 10.1589 8.17369 10.1027 8.25719 10.064C8.34068 10.0253 8.43146 10.0049 8.52344 10.0042C8.74413 10.0193 8.94454 10.1354 9.06839 10.3192L9.20726 10.4888L9.37915 10.3486C9.48724 10.2582 9.58858 10.1602 9.6809 10.054C9.90159 9.8181 10.1065 9.56791 10.2942 9.30416L11.0891 8.12856L10.6642 6.29659L6.93587 6.23328L5.90677 10.4639C5.55773 11.8475 4.99401 12.9251 4.22387 13.6418C3.54208 14.3327 2.61856 14.7291 1.64999 14.7466Z" fill="#262626"/>
    </g>
  </g>
  <defs>
    <clipPath id="fjvkt44lx__clip0_218_8718">
      <path fill="#fff" d="M0 0H16V16H0z"/>
    </clipPath>
    <clipPath id="fjvkt44lx__clip1_218_8718">
      <path fill="#fff" transform="translate(.5 .84082)" d="M0 0H15V14.3182H0z"/>
    </clipPath>
  </defs>
</svg>
