<svg fill="none" xmlns="http://www.w3.org/2000/svg" viewBox="0 0 20 20" class="design-iconfont">
  <rect width="20" height="20" rx="6" fill="#38F"/>
  <path d="M6.2085 7.66797V15.2513" stroke="#fff" stroke-width="1.16667" stroke-linecap="round" stroke-linejoin="round"/>
  <path d="M10 11.457V15.2487" stroke="#fff" stroke-width="1.16667" stroke-linecap="round" stroke-linejoin="round"/>
  <path d="M10 8.54167V4.75" stroke="#fff" stroke-width="1.16667" stroke-linecap="round" stroke-linejoin="round"/>
  <path d="M13.7915 4.75V12.3333" stroke="#fff" stroke-width="1.16667" stroke-linecap="round" stroke-linejoin="round"/>
  <path d="M6.20833 7.66667C7.01374 7.66667 7.66667 7.01374 7.66667 6.20833C7.66667 5.40292 7.01374 4.75 6.20833 4.75C5.40292 4.75 4.75 5.40292 4.75 6.20833C4.75 7.01374 5.40292 7.66667 6.20833 7.66667Z" fill="#fff" stroke="#fff" stroke-width="1.16667" stroke-linejoin="round"/>
  <path d="M9.99984 11.4596C10.8052 11.4596 11.4582 10.8067 11.4582 10.0013C11.4582 9.19589 10.8052 8.54297 9.99984 8.54297C9.19443 8.54297 8.5415 9.19589 8.5415 10.0013C8.5415 10.8067 9.19443 11.4596 9.99984 11.4596Z" fill="#fff" stroke="#fff" stroke-width="1.16667" stroke-linejoin="round"/>
  <path d="M13.7918 15.2487C14.5972 15.2487 15.2502 14.5958 15.2502 13.7904C15.2502 12.985 14.5972 12.332 13.7918 12.332C12.9864 12.332 12.3335 12.985 12.3335 13.7904C12.3335 14.5958 12.9864 15.2487 13.7918 15.2487Z" fill="#fff" stroke="#fff" stroke-width="1.16667" stroke-linejoin="round"/>
</svg>
