<svg fill="none" xmlns="http://www.w3.org/2000/svg" viewBox="0 0 16 16" class="design-iconfont">
  <path d="M8.67937 8.27615L13.2939 5.59914V7.53711C13.2939 7.79218 13.5006 7.99895 13.7557 7.99895C14.0108 7.99895 14.2175 7.79218 14.2175 7.53711V5.04571C14.2175 4.67644 14.0334 4.39924 13.7562 4.21412L8.67937 1.35296C8.40314 1.16881 8.12497 1.16881 7.84874 1.35296L2.67888 4.30716C2.40265 4.39924 2.21753 4.76852 2.21753 5.04571V10.9532C2.21753 11.2294 2.40265 11.5076 2.67888 11.6917L7.75569 14.6449C8.03677 14.8291 8.39926 14.8291 8.67937 14.6449L8.90942 14.5072C9.0529 14.4213 9.14072 14.2664 9.14072 14.0991V13.7994C9.14072 13.5622 8.88209 13.4154 8.6784 13.5371V8.27615H8.67937ZM7.75472 13.6311L3.1412 10.9532V5.59914L7.75569 8.27712V13.6302L7.75472 13.6311ZM8.21801 7.44552L3.60159 4.76755L8.21801 2.09248L12.8335 4.76851L8.21705 7.44455V7.44552H8.21801Z" fill="currentColor" stroke="currentColor" stroke-width=".3"/>
  <path d="M14.0807 10.1809C14.0807 9.91272 13.8633 9.69531 13.5951 9.69531H11.0034C10.7352 9.69531 10.5178 9.91272 10.5178 10.1809C10.5178 10.4491 10.7352 10.6665 11.0034 10.6665H11.71V13.9497C11.71 14.2771 11.9753 14.5424 12.3027 14.5424C12.63 14.5424 12.8953 14.2771 12.8953 13.9497V10.6665H13.5951C13.8633 10.6665 14.0807 10.4491 14.0807 10.1809Z" fill="currentColor" stroke="currentColor" stroke-width=".3"/>
</svg>
