<svg fill="none" xmlns="http://www.w3.org/2000/svg" viewBox="0 0 20 20" class="design-iconfont">
  <rect width="20" height="20" rx="6" fill="#2469F1"/>
  <path d="M4.6 13.3C4.93137 13.3 5.2 13.5686 5.2 13.9V14.8H6.1C6.43137 14.8 6.7 15.0686 6.7 15.4C6.7 15.7314 6.43137 16 6.1 16H4.6C4.44087 16 4.28826 15.9368 4.17574 15.8243C4.06321 15.7117 4 15.5591 4 15.4V13.9C4 13.5686 4.26863 13.3 4.6 13.3ZM15.4 13.3C15.7314 13.3 16 13.5686 16 13.9V15.4C16 15.5591 15.9368 15.7117 15.8243 15.8243C15.7117 15.9368 15.5591 16 15.4 16H13.9C13.5686 16 13.3 15.7314 13.3 15.4C13.3 15.0686 13.5686 14.8 13.9 14.8H14.8V13.9C14.8 13.5686 15.0686 13.3 15.4 13.3ZM6.40004 9.4C6.73139 9.4 6.99395 9.67125 7.05978 9.99599C7.17606 10.5696 7.45867 11.1013 7.87868 11.5213C8.44129 12.0839 9.20435 12.4 10 12.4C10.7956 12.4 11.5587 12.0839 12.1213 11.5213C12.5413 11.1013 12.8239 10.5696 12.9402 9.99599C13.006 9.67125 13.2686 9.4 13.6 9.4C13.9313 9.4 14.2044 9.67002 14.1572 9.99802C14.0431 10.7903 13.7042 11.5381 13.1748 12.1495C12.5136 12.913 11.5996 13.4127 10.6 13.5571V14.2C10.6 14.5314 10.3314 14.8 10 14.8C9.66863 14.8 9.4 14.5314 9.4 14.2V13.5571C8.40044 13.4127 7.48638 12.913 6.82524 12.1495C6.29577 11.5381 5.9569 10.7903 5.84285 9.99802C5.79563 9.67002 6.06866 9.4 6.40004 9.4ZM10 5.5C10.2758 5.5 10.5489 5.55432 10.8036 5.65985C11.0584 5.76539 11.2899 5.92007 11.4849 6.11508C11.6799 6.31008 11.8346 6.54158 11.9401 6.79636C12.0457 7.05115 12.1 7.32422 12.1 7.6V9.4C12.1 9.95695 11.8788 10.4911 11.4849 10.8849C11.0911 11.2788 10.557 11.5 10 11.5C9.44305 11.5 8.9089 11.2788 8.51508 10.8849C8.12125 10.4911 7.9 9.95695 7.9 9.4V7.6C7.9 7.04305 8.12125 6.5089 8.51508 6.11508C8.9089 5.72125 9.44305 5.5 10 5.5ZM6.1 4C6.43137 4 6.7 4.26863 6.7 4.6C6.7 4.93137 6.43137 5.2 6.1 5.2H5.2V6.1C5.2 6.43137 4.93137 6.7 4.6 6.7C4.26863 6.7 4 6.43137 4 6.1V4.6C4 4.44087 4.06321 4.28826 4.17574 4.17574C4.28826 4.06321 4.44087 4 4.6 4H6.1ZM15.4 4C15.5591 4 15.7117 4.06321 15.8243 4.17574C15.9368 4.28826 16 4.44087 16 4.6V6.1C16 6.43137 15.7314 6.7 15.4 6.7C15.0686 6.7 14.8 6.43137 14.8 6.1V5.2H13.9C13.5686 5.2 13.3 4.93137 13.3 4.6C13.3 4.26863 13.5686 4 13.9 4H15.4Z" fill="#fff"/>
</svg>
