<svg fill="none" xmlns="http://www.w3.org/2000/svg" viewBox="0 0 20 20" class="design-iconfont">
  <rect width="20" height="20" rx="6" fill="#2469F1"/>
  <path d="M14.5416 4H8.11432C8.02275 4 7.93207 4.01804 7.84746 4.05308C7.76286 4.08813 7.68599 4.13949 7.62123 4.20424C7.55648 4.269 7.50512 4.34587 7.47007 4.43047C7.43503 4.51508 7.41699 4.60575 7.41699 4.69733C7.41699 4.88227 7.49046 5.05964 7.62123 5.19041C7.75201 5.32119 7.92938 5.39466 8.11432 5.39466H14.5416C14.6007 5.39475 14.6574 5.41829 14.6993 5.46011C14.7411 5.50194 14.7646 5.55865 14.7647 5.6178V12.1113C14.7647 12.2029 14.7828 12.2936 14.8178 12.3782C14.8529 12.4628 14.9042 12.5396 14.969 12.6044C15.0337 12.6692 15.1106 12.7205 15.1952 12.7556C15.2798 12.7906 15.3705 12.8086 15.4621 12.8086C15.5536 12.8086 15.6443 12.7906 15.7289 12.7556C15.8135 12.7205 15.8904 12.6692 15.9551 12.6044C16.0199 12.5396 16.0713 12.4628 16.1063 12.3782C16.1413 12.2936 16.1594 12.2029 16.1594 12.1113V5.6178C16.1589 5.18887 15.9883 4.77765 15.685 4.47435C15.3817 4.17106 14.9705 4.00046 14.5416 4Z" fill="#fff"/>
  <path d="M12.4749 6.12598C12.89 6.12598 13.2887 6.29047 13.5823 6.58398C13.8759 6.87757 14.0403 7.27621 14.0403 7.69141V14.3613C14.0403 14.7765 13.8759 15.1752 13.5823 15.4688C13.2887 15.7623 12.89 15.9268 12.4749 15.9268H5.72485C5.3099 15.9267 4.91193 15.762 4.61841 15.4688C4.32482 15.1752 4.15942 14.7765 4.15942 14.3613V7.69141C4.15942 7.27621 4.32482 6.87757 4.61841 6.58398C4.91193 6.29069 5.3099 6.126 5.72485 6.12598H12.4749Z" fill="#fff"/>
  <g clip-path="url(#p0ep4522p__clip0_13273_33532)" stroke="#2469F1" stroke-width="1.3" stroke-linecap="round">
    <path d="M9.09985 7.69287V14.3595"/>
    <path d="M11.7664 9.02637V13.0264"/>
    <path d="M6.43335 9.02637V13.0264"/>
  </g>
  <defs>
    <clipPath id="p0ep4522p__clip0_13273_33532">
      <path fill="#fff" transform="translate(5.09985 7.02637)" d="M0 0H8V8H0z"/>
    </clipPath>
  </defs>
</svg>
