<svg width="34" height="35" viewBox="0 0 34 35" fill="none" xmlns="http://www.w3.org/2000/svg">
<path d="M17.7151 0.0996094L2.89606 8.43231L2.70285 25.4323L17.329 34.0996L32.1477 25.7669L32.3409 8.76691L17.7151 0.0996094ZM17.487 4.66114L23.984 8.4947L12.1019 15.0664L12.0521 26.2632L6.62563 23.0605L6.7455 10.7262L17.487 4.66114ZM29.3782 11.1712L29.2583 23.6272L17.4206 29.6443L17.3801 17.8059L29.3782 11.1712Z" fill="#1E91EF"/>
<path d="M11.2795 16.7489C11.2795 17.1829 11.365 17.6126 11.5311 18.0136C11.6972 18.4145 11.9406 18.7788 12.2474 19.0856C12.5543 19.3925 12.9186 19.6359 13.3195 19.802C13.7205 19.9681 14.1502 20.0535 14.5841 20.0535C15.0181 20.0535 15.4478 19.9681 15.8488 19.802C16.2497 19.6359 16.614 19.3925 16.9209 19.0856C17.2277 18.7788 17.4711 18.4145 17.6372 18.0136C17.8033 17.6126 17.8887 17.1829 17.8887 16.7489C17.8887 15.8725 17.5406 15.032 16.9209 14.4122C16.3011 13.7925 15.4606 13.4443 14.5841 13.4443C13.7077 13.4443 12.8672 13.7925 12.2474 14.4122C11.6277 15.032 11.2795 15.8725 11.2795 16.7489Z" fill="#002F8E"/>
</svg>
