<svg fill="none" xmlns="http://www.w3.org/2000/svg" viewBox="0 0 40 40" class="design-iconfont">
  <path d="M30.125 7.625C31.9152 7.625 33.6321 8.33616 34.898 9.60203C36.1638 10.8679 36.875 12.5848 36.875 14.375C36.875 16.1652 36.1638 17.8821 34.898 19.148C33.6321 20.4138 31.9152 21.125 30.125 21.125H26.75V18.875H30.125C31.2603 18.8754 32.3538 18.4466 33.1862 17.6746C34.0187 16.9027 34.5286 15.8446 34.6138 14.7125L34.625 14.375C34.625 13.1815 34.1509 12.0369 33.307 11.193C32.4631 10.3491 31.3185 9.875 30.125 9.875H26.75V7.625H30.125ZM11 17.75C9.20979 17.75 7.4929 18.4612 6.22703 19.727C4.96116 20.9929 4.25 22.7098 4.25 24.5C4.25 26.2902 4.96116 28.0071 6.22703 29.273C7.4929 30.5388 9.20979 31.25 11 31.25H14.375V29H11C9.8647 29.0004 8.77122 28.5716 7.93877 27.7996C7.10631 27.0277 6.5964 25.9696 6.51125 24.8375L6.5 24.5C6.5 23.3065 6.97411 22.1619 7.81802 21.318C8.66193 20.4741 9.80653 20 11 20H14.375V17.75H11Z" fill="#2475FC"/>
  <path d="M13.25 4.25H26.75C28.25 4.25 29 5 29 6.5V11C29 12.5 28.25 13.25 26.75 13.25H13.25C11.75 13.25 11 12.5 11 11V6.5C11 5 11.75 4.25 13.25 4.25Z" fill="#2CAAFF"/>
  <path d="M13.25 15.5H26.75C28.25 15.5 29 16.25 29 17.75V22.25C29 23.75 28.25 24.5 26.75 24.5H13.25C11.75 24.5 11 23.75 11 22.25V17.75C11 16.25 11.75 15.5 13.25 15.5Z" fill="#2CAAFF"/>
  <path d="M13.25 26.75H26.75C28.25 26.75 29 27.5 29 29V33.5C29 35 28.25 35.75 26.75 35.75H13.25C11.75 35.75 11 35 11 33.5V29C11 27.5 11.75 26.75 13.25 26.75Z" fill="#2475FC"/>
</svg>
