<svg fill="none" xmlns="http://www.w3.org/2000/svg" viewBox="0 0 16 16" class="design-iconfont">
  <g clip-path="url(#4ozvprixb__clip0_6470_44315)" fill="currentColor">
    <path d="M12.5 2.5C13.2956 2.5 14.0587 2.81607 14.6213 3.37868C15.1839 3.94129 15.5 4.70435 15.5 5.5C15.5 6.29565 15.1839 7.05871 14.6213 7.62132C14.0587 8.18393 13.2956 8.5 12.5 8.5H11V7.5H12.5C13.0046 7.50016 13.4906 7.30959 13.8605 6.9665C14.2305 6.62341 14.4572 6.15316 14.495 5.65L14.5 5.5C14.5 4.96957 14.2893 4.46086 13.9142 4.08579C13.5391 3.71071 13.0304 3.5 12.5 3.5H11V2.5H12.5ZM4 7C3.20435 7 2.44129 7.31607 1.87868 7.87868C1.31607 8.44129 1 9.20435 1 10C1 10.7956 1.31607 11.5587 1.87868 12.1213C2.44129 12.6839 3.20435 13 4 13H5.5V12H4C3.49542 12.0002 3.00943 11.8096 2.63945 11.4665C2.26947 11.1234 2.04284 10.6532 2.005 10.15L2 10C2 9.46957 2.21071 8.96086 2.58579 8.58579C2.96086 8.21071 3.46957 8 4 8H5.5V7H4Z"/>
    <path d="M5 1H11C11.6667 1 12 1.33333 12 2V4C12 4.66667 11.6667 5 11 5H5C4.33333 5 4 4.66667 4 4V2C4 1.33333 4.33333 1 5 1Z"/>
    <path d="M5 6H11C11.6667 6 12 6.33333 12 7V9C12 9.66667 11.6667 10 11 10H5C4.33333 10 4 9.66667 4 9V7C4 6.33333 4.33333 6 5 6Z"/>
    <path d="M5 11H11C11.6667 11 12 11.3333 12 12V14C12 14.6667 11.6667 15 11 15H5C4.33333 15 4 14.6667 4 14V12C4 11.3333 4.33333 11 5 11Z"/>
  </g>
  <defs>
    <clipPath id="4ozvprixb__clip0_6470_44315">
      <path fill="#fff" d="M0 0H16V16H0z"/>
    </clipPath>
  </defs>
</svg>
