<?xml version="1.0" standalone="no"?><!DOCTYPE svg PUBLIC "-//W3C//DTD SVG 1.1//EN" "http://www.w3.org/Graphics/SVG/1.1/DTD/svg11.dtd"><svg t="1763712774665" class="icon" viewBox="0 0 1024 1024" version="1.1" xmlns="http://www.w3.org/2000/svg" p-id="1849" xmlns:xlink="http://www.w3.org/1999/xlink" width="300" height="300"><path d="M692.352 335.04c11.712 0.128 23.36 0.96 34.944 2.432-31.232-156.8-186.88-273.152-365.184-273.152C163.008 64.32 0 210.048 0 394.88c0 106.944 54.336 194.688 144.768 262.784l-36.096 117.12 126.592-68.224c41.536 11.2 84.032 17.728 126.848 19.584h33.856a312 312 0 0 1-11.136-81.6 306.88 306.88 0 0 1 307.84-308.032l-0.32-1.536z m-194.56-105.408a41.088 41.088 0 0 1 32.768 13.312 47.808 47.808 0 0 1 12.416 35.2 47.808 47.808 0 0 1-12.416 35.328 41.088 41.088 0 0 1-32.768 13.312c-27.328 2.176-51.328-19.328-54.4-48.64 2.88-29.312 27.008-50.816 54.4-48.512z m-253.44 97.152c-27.456 2.304-51.648-19.2-54.656-48.64 3.008-29.312 27.2-50.88 54.656-48.512a41.088 41.088 0 0 1 32.768 13.312 47.808 47.808 0 0 1 12.416 35.2 47.808 47.808 0 0 1-12.416 35.328 41.088 41.088 0 0 1-32.768 13.312z" fill="currentColor" p-id="1850"></path><path d="M1024 638.464c0-155.52-145.92-283.52-308.608-283.52-172.416 0-308.096 126.784-308.096 282.304 0 155.52 135.68 282.368 308.096 282.368a426.176 426.176 0 0 0 109.44-18.304L924.16 960l-28.416-97.216C968.832 803.84 1024 726.208 1024 638.464z m-408.448-48.832c-19.968 0-36.16-17.408-36.16-38.848 0-21.44 16.192-38.784 36.16-38.784 22.4-2.56 42.56 14.72 45.184 38.784-2.624 24.064-22.784 41.344-45.184 38.848z m199.04 0c-19.84 0-36.096-17.408-36.096-38.848 0-21.44 16.192-38.784 36.16-38.784 22.4-2.368 42.432 14.848 45.248 38.784-2.688 24.064-22.848 41.344-45.248 38.848z" fill="currentColor" p-id="1851"></path></svg>
