<svg fill="none" xmlns="http://www.w3.org/2000/svg" viewBox="0 0 24 24" class="design-iconfont">
  <path d="M13.9441 0L21.7985 7.99968V21.1997C21.7985 22.7465 20.5681 24 19.0495 24H4.91131C3.39271 24 2.16211 22.7454 2.16211 21.1997V2.80032C2.16223 1.25352 3.39283 0 4.91143 0H13.9441Z" fill="#1ABF74"/>
  <path d="M21.7986 7.99968H16.8318C15.3143 7.99968 13.9441 6.6054 13.9441 5.05848V0L21.7986 7.99968V7.99968Z" fill="#fff" fill-opacity=".4"/>
  <path d="M13.9363 10.003V10.0084H13.9385V17.9994H13.2852V17.9982H11.3172H11.3183H9.36957H9.37077H6.09141V17.3328L6.09261 17.3317V15.3201H6.09141V14.6546H6.09261V12.643H6.09033V11.9775L6.09249 11.9764V10.6674H6.09033V10.002H13.9351L13.9362 10.003H13.9363ZM8.71845 15.3201H6.74721V17.3317H8.71845V15.3201V15.3201ZM10.6657 15.3201H9.37089V17.3317H10.6646V15.3201H10.6658H10.6657ZM13.2851 15.3201H11.3181V17.3317H13.284V15.3201H13.2851ZM8.71845 12.6429H6.74721V14.6546H8.71845V12.643V12.6429ZM10.6657 12.6429H9.37089V14.6546H10.6646V12.643H10.6658L10.6657 12.6429ZM13.2851 12.6429H11.3181V14.6546H13.284V12.643H13.2851V12.6429ZM13.2851 10.6684H6.74721V11.9764H13.284V10.6674L13.2851 10.6686V10.6684Z" fill="#fff"/>
</svg>
