<svg fill="none" xmlns="http://www.w3.org/2000/svg" viewBox="0 0 34 35" class="design-iconfont">
  <path d="M15.8086 34.2242C13.75 34.0657 12.0267 33.6022 10.3368 32.7527C6.07407 30.6107 3.19331 26.5103 2.60321 21.7485C2.49702 20.8899 2.4955 19.1863 2.60093 18.2898C2.92201 15.6261 3.98246 13.1056 5.66221 11.0135C5.89279 10.7253 7.42571 9.17041 9.1619 7.46077C13.3412 3.34594 13.2927 3.39221 13.3579 3.45744C13.3958 3.49536 13.3859 3.66451 13.3275 3.99294C13.2115 4.64372 13.2115 6.06666 13.3291 6.84487C13.6871 9.23337 14.7239 11.4489 16.5572 13.7456C17.0275 14.335 18.7508 16.0879 19.3932 16.6302C20.1388 17.2597 20.622 18.0205 20.8503 18.9208C21.0012 19.5163 21.0012 20.4803 20.8503 21.0765C20.471 22.5791 19.3371 23.7646 17.8277 24.2386C17.481 24.3471 17.3149 24.3645 16.6171 24.3645C15.9193 24.3645 15.7524 24.3471 15.4035 24.2386C14.3288 23.9026 13.3146 23.1252 14.199 23.3148C14.6784 23.4172 15.2973 23.1934 15.5879 22.8119C15.9883 22.2885 16.0536 21.7182 15.7767 21.1645C15.6372 20.8853 15.5226 20.7602 15.0683 20.3931C13.8395 19.3979 12.6335 18.1859 11.7764 17.0876C11.3388 16.5255 10.7069 15.5842 10.5188 15.2141C10.4475 15.0738 10.3649 14.9585 10.3353 14.9585C10.261 14.9585 9.6716 15.8634 9.41903 16.3647C9.12852 16.9397 8.85091 17.7679 8.71059 18.4771C8.53841 19.3418 8.53842 20.6676 8.70908 21.5202C9.36745 24.803 11.7749 27.2514 15.0433 27.9598C15.5021 28.0599 15.7615 28.0796 16.6171 28.0796C17.4719 28.0796 17.7321 28.0599 18.1902 27.9598C19.7846 27.6147 21.0953 26.8979 22.252 25.7412C23.464 24.5291 24.1876 23.1692 24.5221 21.4709C24.6905 20.6168 24.6913 19.3835 24.5237 18.534C24.3803 17.8096 24.199 17.2317 23.9366 16.6681C23.6886 16.1364 23.7128 16.1046 24.2741 16.2206C25.7888 16.5339 27.4446 17.3841 28.5111 18.3967C29.7929 19.6133 30.336 20.8209 30.336 22.46C30.336 23.3489 30.207 24.0035 29.8415 24.985C29.0807 27.0215 27.9695 28.7115 26.3676 30.2687C24.469 32.1133 22.0404 33.4179 19.5548 33.9276C18.4269 34.159 16.7203 34.294 15.8078 34.2234L15.8086 34.2242ZM30.3094 18.1532C29.6776 16.9336 28.7629 16.0613 27.4651 15.4424C26.7688 15.1102 26.1438 14.9046 24.9188 14.6058C23.2721 14.2038 22.4651 13.9307 21.4684 13.4347C20.4976 12.9515 19.7588 12.4221 19.0109 11.675C18.0219 10.6844 17.4317 9.73321 16.9979 8.42785C16.6141 7.26963 16.6262 7.41905 16.6042 3.65161C16.5875 0.748861 16.5966 0.242188 16.6604 0.242188C16.7021 0.242188 18.3594 1.83426 20.3421 3.7798C27.4143 10.7193 27.5485 10.8581 28.3707 12.105C29.1163 13.2359 29.8248 14.7749 30.1767 16.0279C30.3512 16.6476 30.5863 17.8127 30.6144 18.1912C30.6409 18.5552 30.5089 18.5378 30.3094 18.1532Z" fill="#3DC8F9"/>
  <path d="M16.6605 0.242188C16.596 0.242188 16.5877 0.748861 16.6044 3.65161C16.6256 7.41981 16.6135 7.26963 16.9988 8.42785C17.4311 9.73245 18.022 10.6844 19.0111 11.6742C19.7589 12.4221 20.4977 12.9515 21.4686 13.4339C22.4652 13.9307 23.2723 14.2045 24.9182 14.6058C26.1439 14.9054 26.7689 15.1102 27.4645 15.4424C28.7623 16.0613 29.677 16.9328 30.3088 18.1532C30.5091 18.5378 30.641 18.5552 30.6145 18.1912C30.5864 17.8127 30.3505 16.6476 30.1768 16.0279C29.8249 14.7749 29.1165 13.2367 28.3709 12.105C27.5487 10.8581 27.4144 10.7193 20.3422 3.7798C18.3588 1.83426 16.7015 0.242188 16.6605 0.242188Z" fill="#EA0100"/>
  <path d="M11.781 26.4804C11.781 26.4804 14.9743 29.7548 20.7426 30.1864C26.5109 30.6172 27.9104 28.5033 27.9104 28.5033C27.9104 28.5033 30.7395 24.7677 30.3209 21.9279C29.9014 19.0881 27.6904 17.0682 23.841 16.1914C23.841 16.1914 25.0228 19.1647 24.6033 20.9373C24.1839 22.7099 23.86 26.0829 18.6947 27.8548C18.6947 27.8548 14.8916 28.9735 11.781 26.4804Z" fill="#1652D8"/>
</svg>
