<svg fill="none" xmlns="http://www.w3.org/2000/svg" viewBox="0 0 34 34" class="design-iconfont">
  <g clip-path="url(#7yundzdfo__clip0_1024_10932)">
    <path d="M1.42486 23.8235L14.9556 27.523V30.5012L23.2448 32.8164C21.3116 33.5802 19.2048 34 17 34C10.0381 34 4.05349 29.815 1.42486 23.8235ZM0.0540616 15.6341L16.1541 20.0868L15.7743 21.5496L15.5346 22.9336L30.6885 27.0829C29.9365 28.1018 29.0737 29.0341 28.1159 29.8625L0.913488 22.5119C0.321308 20.7835 0 18.9292 0 17C0 16.5402 0.0182891 16.0847 0.0540616 15.6341ZM2.32046 8.4208L19.2816 12.9365C18.9123 13.4278 18.6083 13.8961 18.3697 14.3412C18.1328 14.7822 17.9381 15.2446 17.7881 15.7222L33.7216 20.0808C33.5194 21.1856 33.2075 22.2675 32.7903 23.3103L0.18273 14.4989C0.498621 12.3545 1.22438 10.2909 2.32038 8.4208H2.32046ZM8.58508 2.22539L24.563 6.50689C24.06 6.81507 23.628 7.14338 23.2668 7.4916C22.9057 7.8399 22.4818 8.33701 21.9953 8.98293L33.2705 12.0575C33.6354 13.2614 33.8651 14.5021 33.9553 15.7568L2.95236 7.42296C4.41211 5.28624 6.33813 3.509 8.58508 2.22539ZM17 0C22.6492 0 27.6547 2.75545 30.7461 6.9957L10.0931 1.46176C12.2034 0.522085 14.5407 0 17 0Z" fill="#000"/>
  </g>
  <defs>
    <clipPath id="7yundzdfo__clip0_1024_10932">
      <path fill="#fff" d="M0 0H34V34H0z"/>
    </clipPath>
  </defs>
</svg>
