<svg fill="none" xmlns="http://www.w3.org/2000/svg" viewBox="0 0 20 20" class="design-iconfont">
  <g clip-path="url(#rhz8g4jjy__clip0_10478_85973)" fill="#2475FC">
    <path d="M4.30604 5.70684C4.6949 5.67444 5.19912 5.67444 5.93925 5.67444H6.9762C7.2055 5.67444 7.4254 5.58335 7.58754 5.42121C7.74968 5.25908 7.84076 5.03917 7.84076 4.80987C7.84076 4.58058 7.74968 4.36067 7.58754 4.19854C7.4254 4.0364 7.2055 3.94531 6.9762 3.94531H5.90295C5.2069 3.94531 4.63268 3.94531 4.16605 3.9842C3.67998 4.02308 3.23279 4.10863 2.81412 4.32251C2.16343 4.65433 1.63458 5.18318 1.30405 5.83257C1.09018 6.25254 1.00593 6.69843 0.965745 7.1845C0.92686 7.65113 0.926859 8.22664 0.926859 8.92141V11.9312C0.926859 12.6259 0.92686 13.2014 0.965745 13.6681C1.00463 14.1541 1.09018 14.6013 1.30276 15.02C1.63458 15.6707 2.16343 16.1995 2.81412 16.5301C3.23409 16.7439 3.67998 16.8282 4.16605 16.8684C4.63268 16.9073 5.2069 16.9073 5.90295 16.9073H6.08442L8.04816 19.1989C8.12932 19.2934 8.22995 19.3693 8.34315 19.4213C8.45635 19.4733 8.57946 19.5002 8.70403 19.5002C8.8286 19.5002 8.95171 19.4733 9.06491 19.4213C9.17811 19.3693 9.27874 19.2934 9.3599 19.1989L11.3236 16.9073H11.7579C12.3373 16.9073 12.8143 16.9073 13.2057 16.8813C13.5964 16.8656 13.9818 16.7855 14.3464 16.6441C14.7659 16.4706 15.1472 16.2161 15.4683 15.8952C15.7895 15.5742 16.0443 15.1932 16.2181 14.7737C16.3591 14.4087 16.4388 14.0228 16.454 13.6318C16.4812 13.2403 16.4812 12.7633 16.4812 12.1839V12.1541C16.4725 11.9308 16.3777 11.7195 16.2167 11.5645C16.0556 11.4096 15.8408 11.323 15.6173 11.323C15.3938 11.323 15.179 11.4096 15.0179 11.5645C14.8568 11.7195 14.762 11.9308 14.7534 12.1541C14.7534 12.7698 14.7534 13.1885 14.73 13.5151C14.708 13.8314 14.6691 13.9973 14.6212 14.1114C14.4462 14.5352 14.1092 14.8722 13.6853 15.0472C13.5712 15.0952 13.4053 15.1341 13.0891 15.1561C12.7624 15.1781 12.345 15.1794 11.7281 15.1794H10.9257C10.6742 15.1794 10.4332 15.2896 10.2698 15.4802L8.70403 17.3091L7.13823 15.4814C7.05713 15.3868 6.95653 15.3108 6.84333 15.2587C6.73012 15.2066 6.60698 15.1795 6.48235 15.1794H5.93795C5.19912 15.1794 4.6949 15.1794 4.30604 15.147C3.92755 15.1159 3.73442 15.0589 3.59832 14.9915C3.27427 14.8243 3.00985 14.5612 2.84393 14.2358C2.77523 14.0997 2.7182 13.9066 2.68839 13.5281C2.65598 13.1392 2.65469 12.635 2.65469 11.8949V8.9577C2.65469 8.21757 2.65469 7.71335 2.68709 7.32449C2.7182 6.946 2.77394 6.75287 2.84264 6.61807C3.00834 6.29264 3.27289 6.02809 3.59832 5.86239C3.73442 5.79369 3.92755 5.73795 4.30604 5.70684Z"/>
    <path d="M14.3206 0.5C13.9486 0.5 13.6193 0.737204 13.5014 1.09106L12.6653 3.59661L10.1598 4.43266C9.98789 4.4902 9.83843 4.60031 9.73254 4.74743C9.62664 4.89455 9.56967 5.07123 9.56967 5.2525C9.56967 5.43377 9.62664 5.61045 9.73254 5.75757C9.83843 5.90469 9.98789 6.0148 10.1598 6.07234L12.6653 6.90709L13.5014 9.41393C13.5589 9.58582 13.669 9.73528 13.8161 9.84117C13.9633 9.94707 14.1399 10.004 14.3212 10.004C14.5025 10.004 14.6792 9.94707 14.8263 9.84117C14.9734 9.73528 15.0835 9.58582 15.1411 9.41393L15.9758 6.90709L18.4826 6.07234C18.6545 6.0148 18.804 5.90469 18.9099 5.75757C19.0158 5.61045 19.0728 5.43377 19.0728 5.2525C19.0728 5.07123 19.0158 4.89455 18.9099 4.74743C18.804 4.60031 18.6545 4.4902 18.4826 4.43266L15.9758 3.59661L15.1411 1.09106C15.0836 0.918891 14.9735 0.769151 14.8262 0.663066C14.679 0.556981 14.5021 0.499931 14.3206 0.5ZM14.3206 4.09694L14.4735 4.5532C14.516 4.68059 14.5875 4.79634 14.6824 4.89129C14.7774 4.98623 14.8931 5.05776 15.0205 5.1002L15.4768 5.25185L15.0205 5.4048C14.7613 5.49035 14.5591 5.69256 14.4735 5.9518L14.3206 6.40806L14.1689 5.9518C14.1265 5.82441 14.0549 5.70865 13.96 5.61371C13.8651 5.51876 13.7493 5.44724 13.6219 5.4048L13.1657 5.25185L13.6219 5.1002C13.7493 5.05776 13.8651 4.98623 13.96 4.89129C14.0549 4.79634 14.1265 4.68059 14.1689 4.5532L14.3206 4.09694ZM8.70415 7.75869C8.5953 7.7585 8.48914 7.79258 8.40074 7.85609C8.31233 7.9196 8.24616 8.00933 8.2116 8.11255L7.64645 9.81057L5.94844 10.377C5.84471 10.4111 5.75439 10.4771 5.69036 10.5655C5.62633 10.654 5.59186 10.7604 5.59186 10.8696C5.59186 10.9788 5.62633 11.0852 5.69036 11.1736C5.75439 11.262 5.84471 11.328 5.94844 11.3621L7.64645 11.9273L8.21289 13.6253C8.24758 13.7281 8.31364 13.8174 8.40177 13.8807C8.4899 13.9439 8.59566 13.978 8.70415 13.978C8.81264 13.978 8.9184 13.9439 9.00653 13.8807C9.09466 13.8174 9.16072 13.7281 9.19541 13.6253L9.76184 11.9273L11.4599 11.3608C11.5631 11.3264 11.6529 11.2604 11.7166 11.1721C11.7802 11.0838 11.8145 10.9777 11.8145 10.8689C11.8145 10.7601 11.7802 10.654 11.7166 10.5657C11.6529 10.4774 11.5631 10.4114 11.4599 10.377L9.76184 9.81057L9.19541 8.11255C9.16092 8.00954 9.09494 7.91996 9.00679 7.85647C8.91865 7.79298 8.81278 7.75877 8.70415 7.75869Z"/>
  </g>
  <defs>
    <clipPath id="rhz8g4jjy__clip0_10478_85973">
      <path fill="#fff" transform="matrix(-1 0 0 1 20 0)" d="M0 0H20V20H0z"/>
    </clipPath>
  </defs>
</svg>
