<svg xmlns="http://www.w3.org/2000/svg" fill="none" viewBox="0 0 16 16"><path fill="currentColor" d="M5 4.667A1.333 1.333 0 1 0 5 2a1.333 1.333 0 0 0 0 2.667ZM6.333 8a1.333 1.333 0 1 1-2.666 0 1.333 1.333 0 0 1 2.666 0ZM6.333 12.667a1.333 1.333 0 1 1-2.666 0 1.333 1.333 0 0 1 2.666 0ZM11 4.667A1.333 1.333 0 1 0 11 2a1.333 1.333 0 0 0 0 2.667ZM12.333 8a1.333 1.333 0 1 1-2.666 0 1.333 1.333 0 0 1 2.666 0ZM12.333 12.667a1.333 1.333 0 1 1-2.666 0 1.333 1.333 0 0 1 2.666 0Z" data-follow-fill="#000"/></svg>